<svg xmlns="http://www.w3.org/2000/svg" width="1377.491" height="365.581" viewBox="0 0 1377.491 365.581">
  <g id="Grupo_916" data-name="Grupo 916" transform="translate(-259.59 -8896.098)">
    <rect id="Retângulo_213" data-name="Retângulo 213" width="1152.489" height="312.278" transform="translate(484.592 8949.4)" fill="#e3e8a0"/>
    <g id="Grupo_670" data-name="Grupo 670">
      <path id="Caminho_1712" data-name="Caminho 1712" d="M594.7,9036.427l-79.419-79.29-24.7,24.657-77.845-77.719-79.782,79.773-16.223-16.2-49.516,49.435,34.141,34.206-6.416,6.406-1.09-1.088-5.69,5.681,147.095,146.855,49.336,52.531h61.447l7.415-52.531H594.7Z" fill="#e3e8a0" fill-rule="evenodd"/>
      <path id="Caminho_1713" data-name="Caminho 1713" d="M288.04,8896.1H393a28.344,28.344,0,0,1,28.33,28.283v73.488A28.343,28.343,0,0,1,393,9026.152H338.525c-10.412,36.985-43.827,37.712-46.49,37.712a4.148,4.148,0,0,1-2.663-.605,4.738,4.738,0,0,1-1.7-6.526c7.264-12.086,8.111-22.724,7.021-30.58H288.04a28.446,28.446,0,0,1-28.45-28.283v-73.488a28.447,28.447,0,0,1,28.45-28.283Z" fill="#c4d600" fill-rule="evenodd"/>
      <path id="Caminho_1714" data-name="Caminho 1714" d="M420.607,9004.517a28.551,28.551,0,0,1-27.6,21.636H338.525c-10.412,36.985-43.827,37.712-46.49,37.712a4.148,4.148,0,0,1-2.663-.605,4.738,4.738,0,0,1-1.7-6.526,49.706,49.706,0,0,0,6.779-18.01l77.361-81.948Z" fill="#9eab15" fill-rule="evenodd"/>
      <path id="Caminho_1715" data-name="Caminho 1715" d="M495.91,8949.4H390.825a28.5,28.5,0,0,0-28.329,28.282v73.609a28.422,28.422,0,0,0,28.329,28.284h54.6c10.29,36.984,43.7,37.71,46.489,37.71a4.459,4.459,0,0,0,2.664-.726,4.811,4.811,0,0,0,1.574-6.526c-7.265-11.966-7.991-22.724-6.9-30.458h6.658a28.344,28.344,0,0,0,28.33-28.284v-73.609a28.42,28.42,0,0,0-28.33-28.282Z" fill="#f0ab00" fill-rule="evenodd"/>
      <path id="Caminho_1716" data-name="Caminho 1716" d="M429.445,9018.417c0-4.835.968-8.7,2.784-11.362,1.938-2.778,5.328-5.076,10.17-7.01a18.062,18.062,0,0,0,5.811-3.142,5.478,5.478,0,0,0,1.7-3.989,4.825,4.825,0,0,0-1.816-3.989,7.953,7.953,0,0,0-5.085-1.45c-4.963,0-7.506,2.538-7.627,7.493H411.406q.363-13.053,9.08-20.306c5.69-4.834,13.439-7.251,23.366-7.251a41.419,41.419,0,0,1,16.586,3.142,25.24,25.24,0,0,1,11.017,8.823,23,23,0,0,1,3.874,13.417,19.952,19.952,0,0,1-3.148,11.483c-2.179,3.142-5.568,5.68-10.048,7.734A20.1,20.1,0,0,0,456.2,9016a7.289,7.289,0,0,0-1.816,4.834v7.978H429.445Zm-1.816,30.459a13.463,13.463,0,0,1,4-10.032,13.868,13.868,0,0,1,10.29-3.988,14.346,14.346,0,0,1,10.411,3.988,13.463,13.463,0,0,1,4,10.032,13.739,13.739,0,0,1-4,10.153,14.358,14.358,0,0,1-10.411,3.988,13.879,13.879,0,0,1-10.29-3.988,13.739,13.739,0,0,1-4-10.153Z" fill="#fff9ec"/>
      <path id="Caminho_1717" data-name="Caminho 1717" d="M286.1,8959.433a10.778,10.778,0,1,1,15.133-15.35l21.187,20.789,37.893-42.183a10.755,10.755,0,0,1,16.1,14.262l-45.157,50.282-.726.725a10.647,10.647,0,0,1-15.255.121Z" fill="#fff9ec"/>
    </g>
  </g>
</svg>
