<svg xmlns="http://www.w3.org/2000/svg" width="156.234" height="167.294" viewBox="0 0 156.234 167.294">
  <g id="Grupo_644" data-name="Grupo 644" transform="translate(-302.824 -7191.059)">
    <rect id="Retângulo_200" data-name="Retângulo 200" width="17.974" height="17.974" rx="2.823" transform="translate(330.217 7264.336)" fill="#f0ab00"/>
    <rect id="Retângulo_201" data-name="Retângulo 201" width="17.974" height="17.974" rx="2.823" transform="translate(358.042 7264.336)" fill="#f0ab00"/>
    <rect id="Retângulo_202" data-name="Retângulo 202" width="17.974" height="17.974" rx="2.823" transform="translate(385.866 7264.336)" fill="#f0ab00"/>
    <rect id="Retângulo_203" data-name="Retângulo 203" width="17.974" height="17.974" rx="2.823" transform="translate(413.691 7264.336)" fill="#f0ab00"/>
    <rect id="Retângulo_204" data-name="Retângulo 204" width="17.974" height="17.974" rx="2.823" transform="translate(330.217 7292.11)" fill="#f0ab00"/>
    <rect id="Retângulo_205" data-name="Retângulo 205" width="17.974" height="17.974" rx="2.823" transform="translate(358.042 7292.11)" fill="#f0ab00"/>
    <rect id="Retângulo_206" data-name="Retângulo 206" width="17.974" height="17.974" rx="2.823" transform="translate(385.866 7292.11)" fill="#f0ab00"/>
    <rect id="Retângulo_207" data-name="Retângulo 207" width="17.974" height="17.974" rx="2.823" transform="translate(413.691 7292.11)" fill="#f0ab00"/>
    <rect id="Retângulo_208" data-name="Retângulo 208" width="17.974" height="17.974" rx="2.823" transform="translate(330.217 7319.884)" fill="#f0ab00"/>
    <rect id="Retângulo_209" data-name="Retângulo 209" width="17.974" height="17.974" rx="2.823" transform="translate(358.042 7319.884)" fill="#f0ab00"/>
    <rect id="Retângulo_210" data-name="Retângulo 210" width="17.974" height="17.974" rx="2.823" transform="translate(385.866 7319.884)" fill="#f0ab00"/>
    <path id="Caminho_1668" data-name="Caminho 1668" d="M447.824,7208.341H426.163v-11.233a6.066,6.066,0,0,0-6.049-6.049h0a6.066,6.066,0,0,0-6.048,6.049v11.233h-66.25v-11.233a6.066,6.066,0,0,0-6.049-6.049h0a6.066,6.066,0,0,0-6.048,6.049v11.233H314.058a11.235,11.235,0,0,0-11.234,11.234v127.544a11.234,11.234,0,0,0,11.234,11.234H447.824a11.234,11.234,0,0,0,11.234-11.234V7219.575A11.235,11.235,0,0,0,447.824,7208.341Zm-33.758,9.335v6.853a6.067,6.067,0,0,0,6.048,6.049h0a6.067,6.067,0,0,0,6.049-6.049v-6.853a9.448,9.448,0,1,1-12.1,0Zm-78.347,0v6.853a6.067,6.067,0,0,0,6.048,6.049h0a6.067,6.067,0,0,0,6.049-6.049v-6.853a9.447,9.447,0,1,1-12.1,0Zm114.006,127.2a4.149,4.149,0,0,1-4.148,4.149H316.3a4.149,4.149,0,0,1-4.148-4.149v-91.82H449.725Z" fill="#f0ab00"/>
  </g>
</svg>
