<svg xmlns="http://www.w3.org/2000/svg" xmlns:xlink="http://www.w3.org/1999/xlink" width="94.566" height="84.875" viewBox="0 0 94.566 84.875">
  <defs>
    <clipPath id="clip-path">
      <rect id="Retângulo_7545" data-name="Retângulo 7545" width="94.566" height="84.875" fill="none"/>
    </clipPath>
  </defs>
  <g id="Grupo_11058" data-name="Grupo 11058" clip-path="url(#clip-path)">
    <path id="Caminho_145006" data-name="Caminho 145006" d="M95.257,82.479a8.45,8.45,0,0,1-7.3,4.213h-72.4A8.424,8.424,0,0,1,8.271,74.054l36.2-62.694a8.425,8.425,0,0,1,14.591,0l36.2,62.7a8.447,8.447,0,0,1,0,8.423" transform="translate(-4.48 -4.482)" fill="#f6d75b"/>
    <path id="Caminho_145007" data-name="Caminho 145007" d="M83.481,84.875h-72.4a11.089,11.089,0,0,1-9.6-16.637L37.68,5.545a11.09,11.09,0,0,1,19.208,0l36.2,62.7a11.119,11.119,0,0,1,0,11.088v0a11.125,11.125,0,0,1-9.6,5.545M47.283,5.331A5.772,5.772,0,0,0,42.3,8.21L6.1,70.9a5.758,5.758,0,0,0,4.985,8.64h72.4a5.758,5.758,0,0,0,4.987-8.638L52.27,8.21a5.776,5.776,0,0,0-4.988-2.879" transform="translate(0)" fill="#1d1d1b"/>
    <path id="Caminho_145008" data-name="Caminho 145008" d="M122.733,169.377a5.954,5.954,0,1,1-5.954-5.955,5.954,5.954,0,0,1,5.954,5.955" transform="translate(-69.496 -102.479)" fill="#1d1d1b"/>
    <path id="Caminho_145009" data-name="Caminho 145009" d="M116.7,89.848h0a3.977,3.977,0,0,1-3.967-3.693l-2.016-28.07a6,6,0,1,1,11.966,0l-2.016,28.07a3.978,3.978,0,0,1-3.967,3.693" transform="translate(-69.421 -32.393)" fill="#1d1d1b"/>
  </g>
</svg>
