<svg xmlns="http://www.w3.org/2000/svg" width="127.32" height="127.319" viewBox="0 0 127.32 127.319">
  <g id="Grupo_651" data-name="Grupo 651" transform="translate(-317.281 -7398.967)">
    <path id="Caminho_1673" data-name="Caminho 1673" d="M380.941,7398.967a63.66,63.66,0,1,0,63.66,63.659A63.66,63.66,0,0,0,380.941,7398.967Zm22.912,101.108-22.907-22.916-7.117,7.12-15.8,15.8L342.25,7484.3l11.786-11.79,11.129-11.134-7.126-7.129-15.8-15.8,15.781-15.787,11.785,11.79,11.138,11.142,18.9-18.91-.017-.017,4.013-4.014,15.8,15.8-22.915,22.925,18.9,18.9.017-.017,4.012,4.014Z" fill="#d30707"/>
  </g>
</svg>
