<svg xmlns="http://www.w3.org/2000/svg" xmlns:xlink="http://www.w3.org/1999/xlink" width="532.783" height="545.34" viewBox="0 0 532.783 545.34">
  <defs>
    <linearGradient id="linear-gradient" x1="-115.218" y1="125.622" x2="-115.379" y2="125.658" gradientUnits="objectBoundingBox">
      <stop offset="0" stop-color="#242b97"/>
      <stop offset="1" stop-color="#3545be"/>
    </linearGradient>
  </defs>
  <g id="Grupo_468" data-name="Grupo 468" transform="translate(-3453.637 -3092.396)">
    <path id="Caminho_221" data-name="Caminho 221" d="M3577.694,3187.406l21.828-4.2c-.3,3.136-4.169,10.289-5.893,13.123l-5.739,1.291C3584.214,3194.745,3580.923,3190.77,3577.694,3187.406Z" fill="#0f248d"/>
    <path id="Caminho_222" data-name="Caminho 222" d="M3789.782,3600.61q6.615,4.1,13.537,7.649c2.536,1.4,5.1,2.766,7.571,4.286-8.163,8.378-17.251,16.285-24.795,25.191C3787.546,3625.415,3788.98,3612.986,3789.782,3600.61Z" fill="url(#linear-gradient)"/>
    <path id="Caminho_223" data-name="Caminho 223" d="M3968.5,3254.249c6.667,2.568,13.352,5.371,16.4,12.4,2.284,5.274,1.844,10.626-.3,15.839-3.02,7.334-7.027,14.29-9.93,21.657-4.221-2.414-8.827-3.929-13.185-6.049a206.742,206.742,0,0,0,10.141-21.986c2.048-5.37,2.732-10.845.052-16.16-.9-1.789-2.232-3.457-3-5.281C3968.615,3254.526,3968.56,3254.388,3968.5,3254.249Z" fill="#d00926"/>
    <path id="Caminho_224" data-name="Caminho 224" d="M3917.273,3278.632c6.55,2.717,12.976,5.819,19.476,8.664,7.613,3.331,15.435,6.487,22.874,10.181l1.858.615c4.358,2.12,8.964,3.635,13.185,6.049-2.224,6.29-5.823,12.019-8.264,18.2-2.592-1.762-5.879-2.434-8.483-4.2l-1.96-.827c-2.622-1.255-5.508-2.1-8.2-3.238-2.9-1.842-6.752-3.192-9.922-4.617q-10.914-4.8-21.744-9.795a30.9,30.9,0,0,1-6.917-3.357c.255-.548.534-1.079.819-1.612C3912.656,3289.994,3914.958,3283.688,3917.273,3278.632Z" fill="#2839b7"/>
    <path id="Caminho_225" data-name="Caminho 225" d="M3909.176,3296.308c.255-.548.534-1.079.819-1.612,3.291.89,6.628,2.792,9.689,4.3a9.425,9.425,0,0,0-3.591.672A30.9,30.9,0,0,1,3909.176,3296.308Z" fill="#ffc9c3"/>
    <path id="Caminho_226" data-name="Caminho 226" d="M3916.093,3299.665a9.425,9.425,0,0,1,3.591-.672c10.935,4.759,21.914,9.7,32.582,15.039,1.5.723,4.911,1.948,5.792,3.312l-.139.8-1.96-.827c-2.622-1.255-5.508-2.1-8.2-3.238-2.9-1.842-6.752-3.192-9.922-4.617Q3926.923,3304.657,3916.093,3299.665Z" fill="#ffd5c0"/>
    <path id="Caminho_227" data-name="Caminho 227" d="M3952.266,3314.032c2.529-5.509,4.525-11.167,7.357-16.555l1.858.615c4.358,2.12,8.964,3.635,13.185,6.049-2.224,6.29-5.823,12.019-8.264,18.2-2.592-1.762-5.879-2.434-8.483-4.2l.139-.8C3957.177,3315.98,3953.767,3314.755,3952.266,3314.032Z" fill="#0f248d"/>
    <path id="Caminho_228" data-name="Caminho 228" d="M3917.273,3278.632c3.617-7.725,6.814-15.72,10.67-23.32,2.344-4.619,5.865-8.352,10.963-9.9a16.162,16.162,0,0,1,7.8-.4c2.875.591,18.768,7.607,21.795,9.233.057.139.112.277.169.416.77,1.824,2.1,3.492,3,5.281,2.68,5.315,2,10.79-.052,16.16a206.742,206.742,0,0,1-10.141,21.986l-1.858-.615c-7.439-3.694-15.261-6.85-22.874-10.181C3930.249,3284.451,3923.823,3281.349,3917.273,3278.632Z" fill="#ec4e51"/>
    <path id="Caminho_229" data-name="Caminho 229" d="M3599.522,3183.2l163.655-31.57a74.674,74.674,0,0,0,.067,12.178c-25.541,4.616-51.016,9.741-76.5,14.673l-93.116,17.842C3595.353,3193.491,3599.221,3186.338,3599.522,3183.2Z" fill="#2839b7"/>
    <path id="Caminho_230" data-name="Caminho 230" d="M3524.982,3133.9c17.214,18.171,35.481,35.362,52.712,53.507,3.229,3.364,6.52,7.339,10.2,10.21q7.032,6.948,13.975,13.986c2.877,2.91,5.95,5.788,8.538,8.958-6,4.657-11.548,9.9-17.144,15.024-9.737,8.919-19.439,18.11-29.478,26.68-3.093,2.716-6.4,5.373-9.316,8.277-6.709,5.575-13.1,11.549-19.721,17.236-6.635-7.683-13.72-14.98-20.616-22.428-20.112-21.719-40.814-43.02-60.491-65.125,3.038-3.369,6.732-6.39,10.06-9.478l18.972-17.575C3496.857,3160.17,3510.712,3146.808,3524.982,3133.9Z" fill="#fdc12c"/>
    <path id="Caminho_231" data-name="Caminho 231" d="M3515.361,3174.289a28.36,28.36,0,0,1,34.111,18.232,28.482,28.482,0,0,1-1.13,21.2c-3.7,7.783-10.083,12.345-18.032,15.111-7.489,1.723-14.46,1.3-21.287-2.444a28.829,28.829,0,0,1-14.111-17.3,27.279,27.279,0,0,1,2.7-21.473A28.762,28.762,0,0,1,3515.361,3174.289Z" fill="#fefefe"/>
    <path id="Caminho_232" data-name="Caminho 232" d="M3516.336,3182.622c4.832-1.324,9.483-1.374,14.145.7q.465.207.92.434c.3.152.6.312.9.48s.586.341.872.523.568.37.845.566.548.4.815.608.527.425.783.648.506.451.751.686.483.476.715.723.458.5.678.758.433.521.64.79.406.543.6.821.378.562.557.85.35.581.514.878.321.6.47.9.29.612.424.924.259.626.377.944q.171.452.319.909t.273.924q.126.467.228.937t.181.947q.078.475.133.954t.086.96q.031.481.038.963t-.01.964q-.016.481-.057.962c-.028.321-.063.64-.106.959s-.094.635-.152.951-.126.63-.2.943-.156.623-.246.932-.187.614-.293.918-.217.6-.337.9-.247.593-.382.885a20.481,20.481,0,0,1-12.026,10.693c-4.964,1.113-9.637,1.351-14.4-.732a21.063,21.063,0,0,1-10.99-11.748,19.8,19.8,0,0,1,.638-15.2C3506.524,3187.72,3511.034,3184.466,3516.336,3182.622Z" fill="#fdc12c"/>
    <path id="Caminho_233" data-name="Caminho 233" d="M3763.177,3151.632c.876-3.715,1.134-7.563,2.168-11.246a64.4,64.4,0,0,1,28.468-37.783c15.966-9.912,37.3-12.554,55.442-8.147,15.971,3.879,28.991,14.484,37.319,28.446,8.754,14.677,11.93,32.9,7.671,49.555-3.451,13.494-11.811,25.915-22.143,35.117-2.8,2.5-5.835,4.655-8.822,6.918-2.469,1.416-9.066,3.948-10.63,5.321-2.567.634-5.155,1.844-7.716,2.609-6.434,1.922-12.788,2.219-19.448,2.1-3.423,3.029-6.487,6.624-9.687,9.9l-19.011,19.159q2.629-18.756,3.993-37.646a65.029,65.029,0,0,1-10.882-6.454q-.679-.508-1.346-1.034t-1.32-1.067q-.652-.543-1.293-1.1t-1.264-1.132q-.625-.573-1.237-1.163t-1.206-1.194q-.6-.6-1.177-1.223t-1.145-1.253q-.565-.633-1.114-1.28t-1.081-1.309q-.534-.66-1.049-1.335t-1.015-1.36q-.5-.687-.98-1.386t-.946-1.41q-.464-.71-.909-1.433t-.874-1.455q-.429-.732-.838-1.476t-.8-1.5q-.39-.753-.762-1.516t-.724-1.535q-.353-.772-.686-1.553t-.647-1.569q-.312-.789-.607-1.585t-.567-1.6q-.273-.8-.527-1.614t-.487-1.626q-.233-.816-.446-1.638t-.4-1.648q-.192-.827-.364-1.658t-.322-1.667q-.15-.836-.28-1.674t-.238-1.681A74.674,74.674,0,0,1,3763.177,3151.632Z" fill="#f45383"/>
    <path id="Caminho_234" data-name="Caminho 234" d="M3831.372,3184.3a8.311,8.311,0,0,1,3.572-.069,8.207,8.207,0,0,1,4.951,4.073,8.491,8.491,0,0,1,.791,6.514c-.749,2.425-2.3,3.551-4.468,4.663-1.948.417-3.689.838-5.6.038a7.82,7.82,0,0,1-4.319-4.571,8.361,8.361,0,0,1,.161-6.431A8.219,8.219,0,0,1,3831.372,3184.3Z" fill="#fefefe"/>
    <path id="Caminho_235" data-name="Caminho 235" d="M3819.075,3119.876a37.076,37.076,0,0,1,15.45-1.4c5.626.639,10.6,2.9,14.165,7.417,6.065,7.687,6.339,20.037.271,27.75-3.055,3.882-8.381,7.352-10.283,11.93-1.353,3.257-.145,6.988-.661,10.37a5.68,5.68,0,0,1-2.467,4.1,8.088,8.088,0,0,1-5.776,1.03,6.71,6.71,0,0,1-3.6-3.3c-1.9-3.564-.788-10.069.275-13.8,3.02-7.745,9.986-12.168,12.434-18.65a13.6,13.6,0,0,0-.4-10.212,8.458,8.458,0,0,0-5.277-4.7c-3.645-1.2-9.235-.928-12.621.961-4.985,2.779-4.5,7.706-5.984,12.357a5.864,5.864,0,0,1-3.084,3.626,8.68,8.68,0,0,1-6.525.36,4.565,4.565,0,0,1-2.486-2.8c-1.236-3.633.238-9.034,1.831-12.415C3807.286,3126.243,3812.692,3122.187,3819.075,3119.876Z" fill="#fefefe"/>
    <path id="Caminho_236" data-name="Caminho 236" d="M3907.424,3447.351l4.352,22.045,11.335,58.568c1.355,7.155,4.516,20.387,4.515,27.238a21.979,21.979,0,0,1-4.015,11.734,20.811,20.811,0,0,1-9.633,7.689c-6.361,2.547-22.018,4.69-29.509,6.132-17.137,3.3-34.266,7.073-51.453,10.061q-.411.069-.823.132A99.963,99.963,0,0,1,3842.9,3579.6l45.553-8.864c5.575-1.071,17.891-2.74,22.71-4.832a10.465,10.465,0,0,0,4.239-3.989,12.167,12.167,0,0,0,2.164-6.858c-.118-3.9-1.126-7.886-1.851-11.716l-3.507-18.451c-3.913-20.525-7.6-41.167-12.075-61.578C3902.1,3458.06,3904.225,3451.966,3907.424,3447.351Z" fill="#2839b7"/>
    <path id="Caminho_237" data-name="Caminho 237" d="M3900.137,3463.316c4.476,20.411,8.162,41.053,12.075,61.578l3.507,18.451c.725,3.83,1.733,7.818,1.851,11.716a12.167,12.167,0,0,1-2.164,6.858,10.465,10.465,0,0,1-4.239,3.989c-4.819,2.092-17.135,3.761-22.71,4.832L3842.9,3579.6c2.161-2.115,4.2-4.358,6.276-6.563,2.745-3.172,9.722-20.44,12.115-25.648l27.982-60.779C3892.9,3478.847,3896.32,3470.993,3900.137,3463.316Z" fill="#fefefe"/>
    <path id="Caminho_238" data-name="Caminho 238" d="M3593.629,3196.325l93.116-17.842c25.483-4.932,50.958-10.057,76.5-14.673q.109.843.238,1.681t.28,1.674q.152.835.322,1.667t.364,1.658q.192.827.4,1.648t.446,1.638q.234.816.487,1.626t.527,1.614q.275.8.567,1.6t.607,1.585q.313.788.647,1.569t.686,1.553q.352.771.724,1.535t.762,1.516q.391.754.8,1.5t.838,1.476q.427.734.874,1.455t.909,1.433q.465.711.946,1.41t.98,1.386q.5.687,1.015,1.36t1.049,1.335q.532.661,1.081,1.309t1.114,1.28q.566.633,1.145,1.253t1.177,1.223q.6.6,1.206,1.194t1.237,1.163q.624.575,1.264,1.132t1.293,1.1q.654.541,1.32,1.067t1.346,1.034a65.029,65.029,0,0,0,10.882,6.454q-1.362,18.89-3.993,37.646l19.011-19.159c3.2-3.274,6.264-6.869,9.687-9.9,6.66.115,13.014-.182,19.448-2.1,2.561-.765,5.149-1.975,7.716-2.609,1.564-1.373,8.161-3.905,10.63-5.321l16.705,86.955c2.673,13.787,5.175,27.634,8.04,41.381,2.042-4.115,3.617-8.571,5.542-12.762l15.609-33.758a30.9,30.9,0,0,0,6.917,3.357q10.83,4.992,21.744,9.795c3.17,1.425,7.025,2.775,9.922,4.617,2.692,1.141,5.578,1.983,8.2,3.238l1.96.827c2.6,1.765,5.891,2.437,8.483,4.2-7.058,14.681-59.125,121.026-58.978,125.01-3.2,4.615-5.327,10.709-7.287,15.965-3.817,7.677-7.237,15.531-10.86,23.3l-27.982,60.779c-2.393,5.208-9.37,22.476-12.115,25.648-2.071,2.205-4.115,4.448-6.276,6.563a99.963,99.963,0,0,0-10.711,11.346l-10.751,11.23c-3.661,3.291-7.081,6.875-10.552,10.365-2.468-1.52-5.035-2.885-7.571-4.286q-6.922-3.554-13.537-7.649l-.211-1.219-103.424,19.88-27.587,5.388c-5.475,1.071-11.318,2.671-16.9,2.776a21.893,21.893,0,0,1-12.219-3.854c-7.926-5.358-9.336-13.307-11.036-22.086l-2.851-14.8c-3.476-17.919-6.524-36.051-10.544-53.85-2.076-8.645-3.5-17.543-5.171-26.279l-9.319-48.339q-15.309-77.11-29.65-154.4l-6.4-33.289c2.913-2.9,6.223-5.561,9.316-8.277,10.039-8.57,19.741-17.761,29.478-26.68,5.6-5.126,11.146-10.367,17.144-15.024-2.588-3.17-5.661-6.048-8.538-8.958q-6.943-7.038-13.975-13.986Z" fill="#fefefe"/>
    <path id="Caminho_239" data-name="Caminho 239" d="M3704.509,3481.909a5.846,5.846,0,0,1,2.652-.11c.874.248,1.09.616,1.564,1.315a5.232,5.232,0,0,1-.618,3.229c-1.448,3.022-3.936,5.915-5.859,8.668q-4.689,6.8-9.288,13.648c-4.987,7.444-9.329,15.572-14.611,22.776a3.878,3.878,0,0,1-2.362,1.872c-2.431.543-11.992-6.51-14.5-8.1a12.775,12.775,0,0,1-2.887-2.033,5.229,5.229,0,0,1-1.159-3.825,1.843,1.843,0,0,1,1.214-1.454,5.162,5.162,0,0,1,3.3.451c1.8.78,3.35,2.26,4.964,3.358,2.506,1.705,5.136,3.252,7.728,4.824,6.379-10.268,12.983-20.16,19.7-30.21C3697.5,3491.6,3700.554,3485.95,3704.509,3481.909Z" fill="#f45383"/>
    <path id="Caminho_240" data-name="Caminho 240" d="M3805.563,3522.433c-15.661,3.516-31.618,6.208-47.391,9.225l-27.543,5.2c-3.491.654-6.969,1.54-10.473,2.09a7.682,7.682,0,0,1-3.5-.022,2.361,2.361,0,0,1-1.459-1.636,2.626,2.626,0,0,1,.435-2.135,6.712,6.712,0,0,1,2.891-1.375c8.177-1.88,16.664-3.137,24.919-4.739,21.554-4.182,43.15-8.219,64.649-12.679l.424.362C3808.06,3518.355,3806.976,3521.5,3805.563,3522.433Z" fill="#2839b7"/>
    <path id="Caminho_241" data-name="Caminho 241" d="M3664.652,3263.836c7.983-1.807,16.133-3.151,24.18-4.678l42.316-8.139,21.407-4.121c3.757-.737,8.015-2.176,11.841-2.144a3.93,3.93,0,0,1,3.177,1.221,3.314,3.314,0,0,1,.226,2.38c-.29.854-1.005,1.227-1.728,1.668Q3729,3257.007,3692,3264.368l-16.32,3.184c-3.053.614-6.623,1.858-9.735,1.778a2.887,2.887,0,0,1-2.439-1.116,2.783,2.783,0,0,1-.58-2.27A3.669,3.669,0,0,1,3664.652,3263.836Z" fill="#4060df"/>
    <path id="Caminho_242" data-name="Caminho 242" d="M3819.377,3493.717l-70.88,13.606c-10.857,2.095-21.835,4.748-32.752,6.4a10.7,10.7,0,0,1-3.859.021,2.788,2.788,0,0,1-2.016-1.421,3.332,3.332,0,0,1,.615-2.133,4.74,4.74,0,0,1,3.1-1.7c3.539-.918,7.321-1.313,10.924-1.982l23.174-4.4q37.417-7.1,74.739-14.69C3821.629,3489.324,3820.773,3492.247,3819.377,3493.717Z" fill="#2839b7"/>
    <path id="Caminho_243" data-name="Caminho 243" d="M3659.182,3238.886c7.192-1.725,14.64-2.881,21.907-4.284l43.368-8.319,40.8-7.825c5.972-1.147,12.038-2.673,18.036-3.549a7.872,7.872,0,0,1,4.24.356,2.1,2.1,0,0,1,1.213,1.454,3.859,3.859,0,0,1-1.167,3.07c-5.089,1.32-10.447,2.078-15.617,3.052l-28.76,5.467c-26.916,5.177-53.8,10.7-80.763,15.6a5.491,5.491,0,0,1-2.079.039,3.19,3.19,0,0,1-1.232-.456,2.447,2.447,0,0,1-1.035-1.929A4.027,4.027,0,0,1,3659.182,3238.886Z" fill="#4060df"/>
    <path id="Caminho_244" data-name="Caminho 244" d="M3665.155,3499.812a23.546,23.546,0,0,1,4.039-.863c3-.433,10.529-.7,12.78,1.559a1.949,1.949,0,0,1,.642,1.38c.024,1.513-1.154,2.389-2.146,3.372a32.294,32.294,0,0,0-12.278-.276,18.638,18.638,0,0,0-12.12,8.248q-.286.428-.551.869t-.508.9c-.161.3-.316.609-.462.919s-.286.624-.417.941-.254.637-.37.96-.222.65-.321.978-.19.659-.273.992-.158.669-.224,1-.124.675-.173,1.015-.091.68-.124,1.021-.057.684-.073,1.027-.023.685-.021,1.029.011.686.029,1.028.045.685.08,1.026.079.682.131,1.022.112.676.18,1.013a22.758,22.758,0,0,0,9.581,14.017q.406.27.827.521t.852.478q.432.228.875.435t.9.391c.3.122.607.238.914.345s.618.207.93.3.628.176.945.252.635.145.956.205.641.112.964.156.647.08.972.108.649.047.975.058.651.015.977.01.652-.018.977-.039.65-.05.974-.088.646-.083.967-.137.641-.115.96-.185a20.083,20.083,0,0,0,12.871-8.827c2.389-3.8,4.016-9.331,3.092-13.8-.346-1.673-1.055-3.248-1.417-4.919l-.132-.636a5.053,5.053,0,0,1,2-2.563,2.18,2.18,0,0,1,2.084,0,5.858,5.858,0,0,1,2.444,3.28c2.056,5.713,1.183,13.017-1.353,18.432q-.274.6-.579,1.176t-.638,1.145q-.333.564-.7,1.111t-.749,1.075q-.389.528-.8,1.035t-.854,1q-.439.486-.9.95t-.949.9q-.486.439-.994.854t-1.035.8q-.528.39-1.075.751t-1.11.7q-.564.334-1.145.639t-1.175.58q-.594.276-1.2.52t-1.227.46a25.877,25.877,0,0,1-20.173-1.127,28.481,28.481,0,0,1-14.166-16.564q-.195-.6-.362-1.216t-.3-1.233q-.135-.619-.24-1.246t-.179-1.257c-.05-.42-.089-.842-.117-1.264s-.048-.845-.056-1.268,0-.846.008-1.269.036-.846.069-1.267.078-.843.132-1.263.12-.838.195-1.254.159-.831.254-1.244.2-.822.317-1.229.24-.811.376-1.212.28-.8.435-1.193.319-.783.494-1.169.357-.767.549-1.144A26.293,26.293,0,0,1,3665.155,3499.812Z" fill="#47b1f7"/>
    <path id="Caminho_245" data-name="Caminho 245" d="M3691.771,3408.677c.174-.056.346-.117.522-.168,4.751-1.366,10.085-1.942,14.954-2.868l29.911-5.8c28.5-5.484,56.981-11.415,85.539-16.541a7.534,7.534,0,0,1,3.446-.151,3.086,3.086,0,0,1,.963.411,2.374,2.374,0,0,1,1.018,1.886,3.95,3.95,0,0,1-1.112,2.645c-8,2.031-16.3,3.309-24.414,4.872l-43.419,8.373-42.98,8.378c-6.522,1.286-13.179,3-19.741,3.966-1.394.205-3.629.463-4.868-.411a1.929,1.929,0,0,1-.8-1.173A4.386,4.386,0,0,1,3691.771,3408.677Z" fill="#4060df"/>
    <path id="Caminho_246" data-name="Caminho 246" d="M3673.359,3311.553c29.531-6.039,59.237-11.417,88.838-17.115l33.745-6.525c6.022-1.168,12.1-2.58,18.177-3.435,1.34-.189,2.512-.514,3.619.543a2.942,2.942,0,0,1,.838,2.027,2.855,2.855,0,0,1-1.165,2.393c-9.656,2.379-19.748,3.881-29.526,5.8l-63.3,12.211-32.981,6.317c-5.179,1.026-10.845,2.75-16.073,3.206a3.285,3.285,0,0,1-2.658-.949,3.009,3.009,0,0,1-.769-2.325A3.1,3.1,0,0,1,3673.359,3311.553Z" fill="#2839b7"/>
    <path id="Caminho_247" data-name="Caminho 247" d="M3721.815,3429.344l90.5-17.48,27.205-5.144c3.831-.73,7.708-1.817,11.559-2.334a6.65,6.65,0,0,1,3.546.221,2.644,2.644,0,0,1,1.46,1.725,2.4,2.4,0,0,1-.382,1.441,5.242,5.242,0,0,1-2.7,1.885,51.679,51.679,0,0,1-8.127,1.75l-14.655,2.768-88.43,17.015-31.994,6.232c-2.958.571-5.888,1.4-8.852,1.908a8.434,8.434,0,0,1-2.764.153,4.033,4.033,0,0,1-2.59-2,1.789,1.789,0,0,1,.276-1.564,6.766,6.766,0,0,1,3.269-2.029C3704.629,3432.016,3715.631,3430.522,3721.815,3429.344Z" fill="#2839b7"/>
    <path id="Caminho_248" data-name="Caminho 248" d="M3678.673,3337.235l117.08-22.624c13.887-2.691,27.772-5.684,41.7-8.12,1.848-.324,3.524-.635,5.153.489a2.665,2.665,0,0,1,.608,1.487,3.875,3.875,0,0,1-1.463,3.1q-.585.132-1.175.251c-16.891,3.344-158.614,31.288-161.421,30.708a3.364,3.364,0,0,1-1.454-.7,2.126,2.126,0,0,1-.788-1.995A3.478,3.478,0,0,1,3678.673,3337.235Z" fill="#4060df"/>
    <path id="Caminho_249" data-name="Caminho 249" d="M3852.65,3219.813c1.564-1.373,8.161-3.905,10.63-5.321l16.705,86.955c2.673,13.787,5.175,27.634,8.04,41.381-1.639,4.574-5.494,14.39-7.995,18.407Z" fill="#2839b7"/>
    <path id="Caminho_250" data-name="Caminho 250" d="M3658.205,3210.662a4.009,4.009,0,0,1,2.7.449,2.293,2.293,0,0,1,1.11,1.38,2.589,2.589,0,0,1-.406,1.955c-1.888,3.516-4.647,6.838-7.006,10.068l-12.83,17.505a33.975,33.975,0,0,1,2.587,8.529,22.729,22.729,0,0,1-4.735,17.027,22.435,22.435,0,0,1-15.234,8.914c-6.824.836-12.853-1.466-18.14-5.658a22,22,0,0,1-7.241-13.285,22.819,22.819,0,0,1,4.071-17.11q.339-.464.7-.909t.745-.873c.256-.285.518-.562.788-.834s.546-.535.83-.792.573-.506.869-.749.6-.476.907-.7.621-.445.941-.656.643-.413.973-.607.664-.381,1-.558.682-.345,1.03-.5.7-.31,1.054-.451.715-.275,1.077-.4.727-.237,1.095-.342.738-.2,1.111-.286.747-.162,1.124-.228.755-.124,1.135-.171c7.6-1.02,13.38,1.5,19.277,6.057,3.723-5.359,7.838-10.495,11.757-15.716C3652.194,3218.121,3654.912,3213.688,3658.205,3210.662Z" fill="#47b1f7"/>
    <path id="Caminho_251" data-name="Caminho 251" d="M3614.96,3238.252c3.868-1.065,7.621-1.6,11.546-.477a16.588,16.588,0,0,1,10.148,8.035,16.9,16.9,0,0,1,1.1,12.967c-1.616,5.034-5.082,8.231-9.621,10.663a18.294,18.294,0,0,1-11.358.547q-.4-.12-.79-.258t-.777-.3q-.384-.159-.76-.336c-.251-.118-.5-.243-.743-.373s-.485-.268-.723-.411-.471-.292-.7-.446-.456-.315-.678-.481-.439-.338-.653-.515-.421-.359-.625-.547-.4-.38-.6-.577-.384-.4-.568-.607-.364-.419-.537-.635-.342-.436-.5-.66-.32-.454-.47-.686-.3-.468-.436-.708-.272-.483-.4-.729a17.452,17.452,0,0,1-1.221-13.078C3607.1,3243.8,3610.618,3240.536,3614.96,3238.252Z" fill="#fefefe"/>
    <path id="Caminho_252" data-name="Caminho 252" d="M3689.819,3383.341a4.4,4.4,0,0,1,2.862.461c.8.558.865,1.079,1.106,1.961-1.387,4.134-14.975,21.813-18.687,27.178a31.776,31.776,0,0,1,2.794,10.131q.04.568.053,1.139t0,1.14c-.011.38-.03.759-.06,1.139s-.067.757-.116,1.134-.1.752-.171,1.127-.142.747-.226,1.117-.179.739-.282,1.1-.214.729-.335,1.09-.251.717-.389,1.071-.285.705-.441,1.052-.32.69-.492,1.028-.354.673-.543,1-.386.655-.591.975-.418.635-.638.945-.448.613-.684.912-.478.591-.728.877-.5.571-.763.847-.53.545-.8.808-.555.519-.843.767-.58.491-.88.725-.6.462-.915.681-.626.431-.947.634-.647.4-.977.587-.666.367-1.006.538-.683.333-1.03.487-.7.3-1.054.436-.712.265-1.073.383-.725.229-1.092.33-.734.193-1.106.276-.743.156-1.118.22-.751.119-1.128.165-.756.082-1.135.109c-6.629.47-12.416-1.908-17.378-6.173a23.241,23.241,0,0,1-7.513-14.117q-.073-.55-.12-1.1t-.064-1.108q-.019-.555-.01-1.11c.007-.37.022-.74.047-1.109s.059-.738.1-1.106.095-.734.158-1.1.132-.729.212-1.09.168-.721.266-1.078.205-.711.321-1.063.24-.7.373-1.045.275-.687.425-1.026.309-.672.476-1,.343-.657.526-.978.375-.638.575-.95.406-.619.62-.92.437-.6.667-.888q.359-.461.739-.9t.783-.864q.4-.422.824-.824t.864-.783q.441-.381.9-.739t.937-.693q.477-.336.97-.647t1-.6q.507-.287,1.029-.548t1.054-.5q.534-.236,1.079-.444t1.1-.39q.555-.181,1.117-.335t1.131-.28q.57-.126,1.144-.223t1.154-.167c7.476-.879,13.407,2.093,19.1,6.638C3673.649,3404.581,3687.007,3385.29,3689.819,3383.341Z" fill="#47b1f7"/>
    <path id="Caminho_253" data-name="Caminho 253" d="M3648.59,3408.833c3.943-1.154,7.516-1.6,11.52-.229a17.83,17.83,0,0,1,10.4,9.252,17.431,17.431,0,0,1,.337,13.679c-1.916,4.633-5.53,7.446-10.026,9.343a16.41,16.41,0,0,1-12.131-.063q-.4-.159-.786-.338c-.259-.119-.516-.244-.769-.376s-.5-.269-.75-.414-.489-.293-.728-.449-.474-.318-.705-.485-.458-.34-.681-.519-.44-.363-.654-.552-.422-.384-.626-.584-.4-.4-.6-.613-.383-.423-.566-.642-.361-.442-.534-.669-.339-.459-.5-.7-.316-.475-.465-.718-.292-.49-.43-.741-.268-.5-.393-.76-.242-.516-.354-.779-.219-.513-.318-.774-.193-.524-.279-.789-.166-.532-.24-.8-.14-.54-.2-.812-.113-.547-.158-.822-.086-.551-.118-.829-.058-.555-.076-.833-.03-.557-.034-.837,0-.557.007-.836.026-.557.049-.835.053-.556.09-.833.082-.551.132-.825.109-.548.173-.819.136-.542.214-.81.162-.533.253-.8.189-.525.293-.784A17.755,17.755,0,0,1,3648.59,3408.833Z" fill="#fefefe"/>
    <path id="Caminho_254" data-name="Caminho 254" d="M3672.514,3286.228a3.956,3.956,0,0,1,1.442.129,3.656,3.656,0,0,1,2.412,2.065,2.957,2.957,0,0,1-.546,2.212c-1.687,2.972-4.235,5.825-6.249,8.618-4.672,6.481-9.4,12.974-13.72,19.7a24.716,24.716,0,0,1,3.595,10.326q.074.567.119,1.135t.062,1.14c.011.38.012.761.005,1.141s-.025.761-.053,1.14-.063.759-.109,1.136-.1.755-.166,1.13-.139.748-.222,1.119-.176.741-.278,1.107-.213.731-.333,1.092-.25.719-.388,1.073-.284.706-.44,1.054-.32.69-.493,1.029-.354.674-.544,1-.387.656-.593.976-.419.634-.641.944-.451.613-.687.911a23.885,23.885,0,0,1-16.038,8.971A23.213,23.213,0,0,1,3613.516,3335q-.071-.58-.112-1.163t-.054-1.167q-.012-.585,0-1.168t.064-1.166q.047-.584.122-1.162t.18-1.154q.105-.575.239-1.143t.295-1.13q.162-.562.353-1.114t.407-1.095q.218-.543.462-1.073t.515-1.049q.272-.517.567-1.02t.618-.992q.321-.487.667-.959t.714-.924q.363-.453.746-.887t.79-.849q.405-.414.83-.808t.871-.766q.444-.371.907-.72t.942-.676q.48-.326.974-.627t1.005-.578q.51-.276,1.033-.527t1.057-.475q.536-.224,1.08-.421t1.1-.367q.553-.17,1.117-.311t1.13-.256c.379-.075.76-.142,1.142-.2s.765-.1,1.15-.142c6.8-.664,12.183,1.556,17.335,5.847C3655.111,3309.471,3668.573,3289.3,3672.514,3286.228Z" fill="#47b1f7"/>
    <path id="Caminho_255" data-name="Caminho 255" d="M3631.571,3315.714a18.469,18.469,0,0,1,11.3.387q.394.148.78.317c.258.113.513.231.765.356s.5.255.745.392.487.279.725.428.473.3.7.463.457.327.68.5.441.348.654.53.424.369.629.562.4.389.6.591.385.409.57.62.365.428.539.648.343.444.507.673.32.461.473.7.3.476.437.719.275.491.4.741.25.5.366.759.226.522.329.787.2.533.289.8.173.542.249.817.145.549.208.827.118.557.166.837.09.562.125.845.061.565.082.849.033.568.04.852.005.569,0,.854-.023.568-.046.852-.051.567-.087.849-.08.563-.13.843-.108.559-.172.837-.136.552-.214.826-.162.545-.254.815-.19.536-.295.8c-2.032,5.143-5.786,8.145-10.656,10.342a17.34,17.34,0,0,1-12.162-.551,17.773,17.773,0,0,1-9.408-10.029,17.485,17.485,0,0,1,.76-13.693A16.973,16.973,0,0,1,3631.571,3315.714Z" fill="#fefefe"/>
    <path id="Caminho_256" data-name="Caminho 256" d="M3790.208,3590.042c.9-3.428.7-8.568,1.041-12.259l3.084-32.119q8.469,3.656,16.741,7.737l2.373,1.143q4.059,2.123,8.158,4.165c2.064,1.1,4.189,2.155,6.211,3.331l2.782,1.365.187.055c3.266,1.906,6.765,3.5,10.149,5.2l8.246,4.383c-2.071,2.205-4.115,4.448-6.276,6.563a99.963,99.963,0,0,0-10.711,11.346l-10.751,11.23c-3.661,3.291-7.081,6.875-10.552,10.365-2.468-1.52-5.035-2.885-7.571-4.286q-6.922-3.554-13.537-7.649l-.211-1.219Q3789.916,3594.718,3790.208,3590.042Z" fill="#fdc12c"/>
    <path id="Caminho_257" data-name="Caminho 257" d="M3830.6,3563.405l.187.055c3.266,1.906,6.765,3.5,10.149,5.2l8.246,4.383c-2.071,2.205-4.115,4.448-6.276,6.563a99.963,99.963,0,0,0-10.711,11.346l-10.751,11.23c-3.661,3.291-7.081,6.875-10.552,10.365-2.468-1.52-5.035-2.885-7.571-4.286,2.464-2.745,4.367-6.694,6.334-9.862,4.9-7.892,9.881-15.745,14.428-23.848C3825.673,3571.713,3828.449,3565.5,3830.6,3563.405Z" fill="#fe9e49"/>
    <path id="Caminho_258" data-name="Caminho 258" d="M3554.465,3270.541c2.913-2.9,6.223-5.561,9.316-8.277l45.666,236.519,14.257,73.49,4.512,23a122.885,122.885,0,0,0,2.735,12.8,14.6,14.6,0,0,0,6.046,7.434,13.1,13.1,0,0,0,8.128,2.365c5.131-.3,10.592-1.8,15.656-2.78l29.319-5.654,100.108-19.4q-.293,4.677-.637,9.349l-103.424,19.88-27.587,5.388c-5.475,1.071-11.318,2.671-16.9,2.776a21.893,21.893,0,0,1-12.219-3.854c-7.926-5.358-9.336-13.307-11.036-22.086l-2.851-14.8c-3.476-17.919-6.524-36.051-10.544-53.85-2.076-8.645-3.5-17.543-5.171-26.279l-9.319-48.339q-15.309-77.11-29.65-154.4Z" fill="#2839b7"/>
    <path id="Caminho_259" data-name="Caminho 259" d="M3909.176,3296.308a30.9,30.9,0,0,0,6.917,3.357q10.83,4.992,21.744,9.795c3.17,1.425,7.025,2.775,9.922,4.617,2.692,1.141,5.578,1.983,8.2,3.238l1.96.827c2.6,1.765,5.891,2.437,8.483,4.2-7.058,14.681-59.125,121.026-58.978,125.01-3.2,4.615-5.327,10.709-7.287,15.965-3.817,7.677-7.237,15.531-10.86,23.3l-27.982,60.779c-2.393,5.208-9.37,22.476-12.115,25.648l-8.246-4.383c-3.384-1.694-6.883-3.292-10.149-5.2l-.187-.055-2.782-1.365c-2.022-1.176-4.147-2.226-6.211-3.331q-4.1-2.042-8.158-4.165l-2.373-1.143q-8.272-4.081-16.741-7.737,1.328-2.22,2.581-4.48c1.356-2.46,9.118-17.123,8.649-18.751,1.413-.936,2.5-4.078,2.954-5.713l-.424-.362a2.257,2.257,0,0,0,.626-.233c.939-.572,10.116-19.9,10.658-22.408,1.4-1.47,2.252-4.393,3.047-6.295,2.188-4.127,3.982-8.533,5.957-12.771l14.8-32.279q14.329-30.291,28.169-60.807c2.1-4.642,7.882-15.806,8.676-20.33,2.5-4.017,6.356-13.833,7.995-18.407,2.042-4.115,3.617-8.571,5.542-12.762Z" fill="#29c7bc"/>
    <path id="Caminho_260" data-name="Caminho 260" d="M3811.074,3553.4c3.374-9.212,8.1-18.051,12.166-26.979q13.846-30.468,28.119-60.74l36.716-79.019,25.884-56.513c2.689-5.768,5.225-11.665,8.013-17.378a3.407,3.407,0,0,1,1.684-1.659,2.119,2.119,0,0,1,1.11-.259c.434.251.512.146.576.568.157,1.031-.542,2.431-.954,3.378-8.407,19.315-17.915,38.207-26.677,57.369l-84.264,182.375Z" fill="#fefefe"/>
    <path id="Caminho_261" data-name="Caminho 261" d="M3821.6,3558.709c7.136-13.993,13.046-28.755,19.768-42.965l35.464-74.664c8.209-17.535,16.043-35.242,24.35-52.733,4.132-8.7,8.571-17.267,12.86-25.891q4.1-8.1,7.888-16.347c4.062-9.082,7.769-18.332,12.8-26.947.673-1.152,1.575-2.661,3.038-2.861s2.9.965,3.969,1.816l-79.66,170.657q-10.434,21.965-20.621,44.042c-4.587,9.693-9.463,19.35-13.641,29.224C3825.794,3560.864,3823.669,3559.814,3821.6,3558.709Z" fill="#0bb2ba"/>
    <path id="Caminho_262" data-name="Caminho 262" d="M3947.759,3314.077c2.692,1.141,5.578,1.983,8.2,3.238l1.96.827c2.6,1.765,5.891,2.437,8.483,4.2-7.058,14.681-59.125,121.026-58.978,125.01-3.2,4.615-5.327,10.709-7.287,15.965-3.817,7.677-7.237,15.531-10.86,23.3l-27.982,60.779c-2.393,5.208-9.37,22.476-12.115,25.648l-8.246-4.383c-3.384-1.694-6.883-3.292-10.149-5.2l-.187-.055-2.782-1.365c4.178-9.874,9.054-19.531,13.641-29.224q10.188-22.078,20.621-44.042l79.66-170.657a31.753,31.753,0,0,0,3.228.549A17.916,17.916,0,0,1,3947.759,3314.077Z" fill="#0bb2ba"/>
    <path id="Caminho_263" data-name="Caminho 263" d="M3941.738,3318.117a31.753,31.753,0,0,0,3.228.549c-2.994,7.988-7.594,15.565-11.181,23.326l-29.024,62.563-51.295,110.223-15.786,33.594c-2.333,5-4.427,10.162-6.9,15.088l-.187-.055-2.782-1.365c4.178-9.874,9.054-19.531,13.641-29.224q10.188-22.078,20.621-44.042Z" fill="#fefefe"/>
    <path id="Caminho_264" data-name="Caminho 264" d="M3955.959,3317.315l1.96.827c2.6,1.765,5.891,2.437,8.483,4.2-7.058,14.681-59.125,121.026-58.978,125.01-3.2,4.615-5.327,10.709-7.287,15.965-3.817,7.677-7.237,15.531-10.86,23.3l-27.982,60.779c-2.393,5.208-9.37,22.476-12.115,25.648l-8.246-4.383c7.138-14,13.055-28.76,19.661-43.037l45.377-98.251c11.475-24.948,23.452-49.687,35.22-74.5,4.539-9.573,9.577-19.053,13.773-28.772A15.425,15.425,0,0,0,3955.959,3317.315Z" fill="#058da2"/>
  </g>
</svg>
