<?xml version="1.0" encoding="utf-8"?>
<!-- Generator: Adobe Illustrator 26.1.0, SVG Export Plug-In . SVG Version: 6.00 Build 0)  -->
<svg version="1.1" id="Camada_1"
	xmlns="http://www.w3.org/2000/svg"
	xmlns:xlink="http://www.w3.org/1999/xlink" x="0px" y="0px" viewBox="0 0 308.6 75" style="enable-background:new 0 0 308.6 75;" xml:space="preserve">
	<style type="text/css">
	.st0{clip-path:url(#SVGID_00000092447803249206902600000011032616083746531210_);fill:#ffffff;}
	.st1{clip-path:url(#SVGID_00000092447803249206902600000011032616083746531210_);fill:#FAAB2E;}
	</style>
	<g>
		<defs>
			<rect id="SVGID_1_" width="308.6" height="75"/>
		</defs>
		<clipPath id="SVGID_00000111903161581264273610000013679970543780904864_">
			<use xlink:href="#SVGID_1_" style="overflow:visible;"/>
		</clipPath>
		<path style="clip-path:url(#SVGID_00000111903161581264273610000013679970543780904864_);fill:#ffffff;" d="M9.9,60L15,46.3
		L19.7,60H9.9z M24.6,73.8h4.8L17.3,40.7h-4.5L0,73.8h4.8l3.7-10.1H21L24.6,73.8z M46.9,67c0,2.5-2.2,3.9-6.1,3.9
		c-3,0-5-0.8-6.1-2.5l-4.4,0.8c1.6,3.6,5.3,5.2,10.3,5.2c7,0,10.7-3.7,10.7-7.9c0-5.2-4.9-6.6-10.6-7.9c-2.5-0.6-5.8-1.5-5.8-3.9
		c0-1.8,1.8-3.7,5-3.7c3.5,0,5.5,2.3,5.7,3.2l4.1-1.6c-1.9-3.5-5.5-4.9-9.3-4.9c-5.8,0-9.8,2.9-9.8,7.3c0,5.4,4.7,6.3,9,7.2
		C43.2,63,46.9,64.2,46.9,67 M60.6,40.7l-4.3,1.9v6.1h-4.1v3.6h4.1v16.4c0,3.1,0,5.7,4.7,5.7c1.8,0,3.4-0.5,4.2-0.6v-3.5
		c-0.8,0.5-2,0.6-2.8,0.6c-1.7,0-1.7-1.3-1.7-4.3V52.2h4.5v-3.6h-4.5V40.7z M68.8,48.6v25.2h4.3V62.3c0-2.2,0-4.6,1.2-6.5
		c1.4-2.2,3.2-3,7.4-3v-4.4c-1.6,0.1-6.1,0.2-8.6,5v-4.7H68.8z M106.9,40.9v4h18.8l-18.8,24.7v4.3h24.4V70H112l18.8-25.1v-4H106.9z
		 M157.7,48.6v25.2h4.3V59.7c0-1.9,0-3.9,1.9-5.7c1.3-1.3,3-2,4.7-2c2.4,0,4.8,1.1,5.5,3.5c0.2,0.8,0.2,1.5,0.2,4.2v14.1h4.3V59
		c0-2.1,0-3.6-0.5-5.1c-1.1-4.2-5.1-5.8-8.2-5.8c-1.5,0-5.6,0.3-7.9,4.4v-4H157.7z M223.5,67.9c-0.8,1.6-2.5,3.4-5.8,3.4
		c-2.8,0-7.5-1.9-7.5-10.2c0-2.4,0.3-10.4,7.4-10.4c3.5,0,5.1,2,5.9,3.6l3.9-1.5c-2.4-4.2-6.8-5-9.9-5c-8.2,0-12,6.5-12,13.7
		c0,6,3.4,13,12.3,13c5.1,0,8-2.3,9.6-5L223.5,67.9z M137.3,58.6h13.3c-0.3-6.5-4-7.6-6.7-7.6C140.3,51.1,137.9,53.6,137.3,58.6
		 M154.1,69.2c-1.4,2.3-4.2,5.2-9.6,5.2c-7.4,0-11.7-5-11.7-13.6c0-9.4,6.1-13.1,11.6-13.1c4.6,0,9,2.6,10.5,8.8
		c0.6,2.1,0.6,4.2,0.6,5.3h-18.1c-0.1,4,1.6,9.6,7.5,9.5c2.6,0,4.2-1.3,5.4-2.9L154.1,69.2z M185.5,58.6h13.3
		c-0.5-6.5-4.2-7.6-6.6-7.6C188.6,51.1,185.9,53.6,185.5,58.6 M202.4,69.2c-1.5,2.3-4.3,5.2-9.8,5.2c-7.4,0-11.7-5-11.7-13.6
		c0-9.4,6.3-13.1,11.6-13.1c4.7,0,9.2,2.6,10.6,8.8c0.3,2.1,0.3,4.2,0.3,5.3h-18.1c-0.1,4,1.8,9.6,7.7,9.5c2.4,0,4.2-1.3,5.2-2.9
		L202.4,69.2z M250.4,73.8l-4.4,0c0,0-0.3-1.6-0.4-3.7c-1.3,1.4-3.6,4.2-8.5,4.2c-5,0-8.6-2.9-8.6-7.2c0-1.4,0.4-2.8,1.2-3.7
		c1.5-2.2,4-4.1,11.6-4.5l3.9-0.4v-0.7c0-2.5,0-6.9-5.5-6.9c-3.5,0-4.8,1.7-5.3,3.2l-3.8-1.6c0-0.2,0.1-0.2,0.2-0.5
		c1.5-2.6,4.4-4.4,8.7-4.4c2.3,0,5.4,0.6,7.3,2.1c2.8,2.2,2.8,6.4,2.8,6.4l0.1,13C249.7,69.2,249.9,72.9,250.4,73.8 M244.6,67.1
		c0.7-1.4,0.7-2.1,0.7-5.7c-1.6,0.2-3.8,0.6-6.6,1.2c-4.6,1-5.4,2.6-5.4,4.5c0,2.1,1.6,3.7,4.7,3.7
		C240.9,70.8,243.5,69.5,244.6,67.1 M103.9,73.8l-4.4,0c0,0-0.5-1.6-0.6-3.7c-1.4,1.4-3.7,4.2-8.5,4.2c-5,0-8.6-2.9-8.6-7.2
		c0-1.4,0.5-2.8,1.2-3.7c1.4-2.2,4.2-4.1,11.6-4.5l4-0.4v-0.7c0-2.5,0-6.9-5.6-6.9c-3.6,0-4.9,1.7-5.1,3.2l-4-1.6
		c0-0.2,0.1-0.2,0.2-0.5c1.7-2.6,4.6-4.4,8.9-4.4c2.3,0,5.3,0.6,7.3,2.1c2.8,2.2,2.6,6.4,2.6,6.4l0.3,13
		C103.2,69.2,103.3,72.9,103.9,73.8 M98.1,67.1c0.6-1.4,0.7-2.1,0.7-5.7c-1.8,0.2-4,0.6-6.8,1.2c-4.6,1-5.4,2.6-5.4,4.5
		c0,2.1,1.6,3.7,4.6,3.7C94.2,70.8,96.9,69.5,98.1,67.1"/>
		<path style="clip-path:url(#SVGID_00000111903161581264273610000013679970543780904864_);fill:#FAAB2E;" d="M278.1,52.7
		c-0.7,0.5-1.4,0.8-2,1.3c-7.7-4.2-23.9-12.3-25.4-13.1c-1.5-0.7-4.2-2-3.9-4.3c0.6-3.6,6.8-11.4,9.3-14.4
		C270.2,4.9,276.4-0.6,280.6,0c4.4,0.6,7,5.1,7.2,26.8c-2.5-0.8-5.2-1.5-8.1-2.3c-0.2-3-0.9-7.9-1.1-9.5c-0.2-2-0.5-2.7-1.3-2.8
		c-1-0.1-2.9,2-4.8,4c-0.8,0.8-3.2,3.2-5.9,5.9c-2.2-0.1-3.7,0.2-4.5,1.4c-0.7,0.8-0.8,1.9-0.5,3.6c-1.4,1.4-2.7,2.4-3.5,3.2
		c-2.9,3-6,5.5-6.1,6.6c-0.1,1.1,1.4,2,3.5,3.3C260.8,43.4,273.5,50.3,278.1,52.7 M297.8,31.1c-5-1.6-17.3-6.3-30.3-8
		c-4.4-0.6-6.3,1-4.4,5.2c1.7,4.2,6.5,11.3,11.4,16.6c5,5.2,10.3,6.6,11.9-1.4c0-0.3,0.1-0.6,0.3-0.9c0.3-2.1,0.7-4.1,0.8-5.8
		c-2.2-1.1-4.7-2.1-7.1-3c0.1,1.7,0.3,5.1,0.5,7.4c0,0.3,0,0.7,0,0.9c0.1,4.1-1.2,4.1-3.5,2.5c-2.7-2-10.8-12.8-11.7-17.4
		c0-0.5,0.1-0.5,0.2-0.4c0,0,0.1,0,0.2,0l0,0c1.9,0.7,8,3.3,14.2,5.8c2.4,1.2,5,2.1,7.2,3.3c2.2,0.9,4.2,1.8,5.7,2.5
		c2.6,1.4,3.7,2.5,2.5,3.6c-5.5,5.7-25.1,13.7-31.8,23.8c0,0,0,0-0.1,0.1c-0.1,0.1-0.1,0.1-0.2,0.5c0,0,0,0-0.1,0.1
		c-0.4,0.7-0.8,1.6-1.1,2.9c-0.2,2.2,1,4.2,4.1,5c0.8,0.1,1.6,0.2,2.7,0.6c0.1,0,0.3,0,0.4,0c6.1,0.2,21.7-3.3,26.4-5.5
		c5-2.2,3.5-4.4,2.1-5.3c-1.1-0.9-6.5-4.1-9.2-5.5c-0.7,0.6-1.3,0.8-2,1.3c4.4,2.8,6.3,4.2,7.3,5c0.5,0.2,0.3,0.7-0.4,0.7
		c-0.1,0-0.4,0-0.5,0c-4.3,0.2-12.4,0.8-16.2,0.9c-0.6,0.3-1.2,0.3-1.5,0.3c0.9-1.1,1.9-1.9,2.4-2.1c8.1-5.8,21.8-13.8,25.8-17.4
		C307.1,44.9,315.1,37.3,297.8,31.1"/>
	</g>
</svg>
