<svg xmlns="http://www.w3.org/2000/svg" width="216.379" height="216.379" viewBox="0 0 216.379 216.379">
  <g id="Grupo_178" data-name="Grupo 178" transform="translate(-3651.766 -998.803)">
    <circle id="Elipse_7" data-name="Elipse 7" cx="108.19" cy="108.19" r="108.19" transform="translate(3651.766 998.803)" fill="#830051"/>
    <circle id="Elipse_8" data-name="Elipse 8" cx="91.142" cy="91.142" r="91.142" transform="translate(3668.814 1015.851)" fill="none" stroke="#fff" stroke-miterlimit="10" stroke-width="4.099"/>
    <path id="Caminho_4875" data-name="Caminho 4875" d="M-62.615-17V-29.221h19.7V-17Zm24.742.087,9.7-1.435A11.833,11.833,0,0,0-25.7-11.436a6.338,6.338,0,0,0,4.914,2.392,6.345,6.345,0,0,0,5.218-2.826q2.131-2.826,2.131-7.827A11.7,11.7,0,0,0-15.48-27a6.083,6.083,0,0,0-4.957-2.652A14.4,14.4,0,0,0-25-28.742l1.087-9.958a8.193,8.193,0,0,0,6.131-2.087,8.2,8.2,0,0,0,2.218-6.131,7.679,7.679,0,0,0-1.609-5.174,5.2,5.2,0,0,0-4.131-1.87,5.6,5.6,0,0,0-4.37,2.152,10.994,10.994,0,0,0-2.2,6.37l-9.262-1.913q1.435-8.74,5.609-12.7A14.689,14.689,0,0,1-21-64.007,13.917,13.917,0,0,1-9.675-58.919a17.284,17.284,0,0,1,4.2,11.262A15.024,15.024,0,0,1-7.37-40.135a17.441,17.441,0,0,1-5.675,5.87A12.408,12.408,0,0,1-5.892-29.09a17.2,17.2,0,0,1,2.761,10q0,8.74-5.2,14.458A16.171,16.171,0,0,1-20.7,1.087,15.715,15.715,0,0,1-32.33-3.74Q-37.091-8.566-37.874-16.915ZM4.479-46.179H13.7v6.305A18.3,18.3,0,0,1,19.132-45.4a11.943,11.943,0,0,1,6.392-1.826A10.944,10.944,0,0,1,31.851-45.4a13.06,13.06,0,0,1,4.37,5.522A19.118,19.118,0,0,1,41.635-45.4a11.328,11.328,0,0,1,6.153-1.826,11.854,11.854,0,0,1,6.675,1.848,11.508,11.508,0,0,1,4.261,5.283q1.457,3.435,1.457,10.566V0H50.136V-26.394q0-6.914-1.218-9.2a4.261,4.261,0,0,0-4.087-2.283,6.172,6.172,0,0,0-5.392,3.2q-2.044,3.2-2.044,12.5V0H27.351V-25.307q0-7.523-.826-9.7a4.256,4.256,0,0,0-4.392-2.87A6.448,6.448,0,0,0,18.045-36.4a8.244,8.244,0,0,0-2.7,4.327,38.856,38.856,0,0,0-.826,9.631V0H4.479Z" transform="translate(3759.955 1134.726)" fill="#fff"/>
  </g>
</svg>
