<svg id="Grupo_13" data-name="Grupo 13" xmlns="http://www.w3.org/2000/svg" xmlns:xlink="http://www.w3.org/1999/xlink" width="203.898" height="203.898" viewBox="0 0 203.898 203.898">
  <defs>
    <clipPath id="clip-path">
      <rect id="Retângulo_7" data-name="Retângulo 7" width="203.898" height="203.898" fill="none"/>
    </clipPath>
  </defs>
  <g id="Grupo_12" data-name="Grupo 12" clip-path="url(#clip-path)">
    <path id="Caminho_49" data-name="Caminho 49" d="M203.9,101.949A101.949,101.949,0,1,1,101.949,0,101.949,101.949,0,0,1,203.9,101.949" fill="#830051"/>
    <path id="Caminho_50" data-name="Caminho 50" d="M171.256,152.671A85.885,85.885,0,1,1,152.671,32.642,85.885,85.885,0,0,1,171.256,152.671Z" fill="none" stroke="#fff" stroke-miterlimit="10" stroke-width="3.863"/>
    <path id="Caminho_51" data-name="Caminho 51" d="M101.949,106.906A28.974,28.974,0,0,1,79.875,97.17C74.539,91.13,71.6,82.863,71.6,73.894s2.938-17.235,8.274-23.276a29.892,29.892,0,0,1,44.148,0c5.336,6.041,8.274,14.307,8.274,23.276s-2.938,17.236-8.274,23.276a28.976,28.976,0,0,1-22.074,9.736m0-63.051A25.7,25.7,0,0,0,82.1,52.586c-4.855,5.5-7.529,13.065-7.529,21.308S77.248,89.705,82.1,95.2a25.7,25.7,0,0,0,19.846,8.731A25.7,25.7,0,0,0,121.795,95.2c4.855-5.5,7.529-13.065,7.529-21.309s-2.674-15.811-7.529-21.308a25.7,25.7,0,0,0-19.846-8.731" fill="#fff"/>
    <path id="Caminho_52" data-name="Caminho 52" d="M101.95,160.039c-17.659,0-29.422-.891-37.017-2.8-8.386-2.112-12.463-5.76-12.463-11.155,0-20.478,10.513-35.023,30.4-42.062a1.487,1.487,0,0,1,.992,2.8c-9.334,3.3-16.492,8.349-21.274,15-4.742,6.592-7.146,14.754-7.146,24.261,0,2.447,1.059,5.967,10.216,8.272,7.351,1.851,18.883,2.713,36.291,2.713s28.938-.862,36.289-2.713c9.157-2.3,10.216-5.825,10.216-8.272,0-9.507-2.4-17.669-7.145-24.26-4.783-6.649-11.941-11.695-21.275-15a1.487,1.487,0,0,1,.992-2.8c19.888,7.041,30.4,21.585,30.4,42.062,0,5.4-4.077,9.043-12.463,11.155-7.6,1.912-19.357,2.8-37.015,2.8" fill="#fff"/>
  </g>
</svg>
