<svg xmlns="http://www.w3.org/2000/svg" width="326.035" height="243.663" viewBox="0 0 326.035 243.663">
  <g id="Grupo_187" data-name="Grupo 187" transform="translate(-4715.392 -1204.199)">
    <circle id="Elipse_9" data-name="Elipse 9" cx="75.68" cy="75.68" r="75.68" transform="translate(4849.363 1286.271)" fill="#e6edff"/>
    <circle id="Elipse_10" data-name="Elipse 10" cx="47.386" cy="47.386" r="47.386" transform="translate(4723.425 1240.229)" fill="#b6cdff"/>
    <g id="Grupo_179" data-name="Grupo 179">
      <path id="Caminho_102" data-name="Caminho 102" d="M4913.738,1284.387l8.551-18.05c-6.8-6.784-6.819-6.8-13.627-13.584l-18.032,8.6-14.01-5.781-6.72-18.813c-9.609.006-9.638,0-19.242.021l-6.665,18.827-14,5.821-18.049-8.551c-6.8,6.8-6.8,6.818-13.585,13.627l8.6,18.032c-2.307,5.59-3.474,8.419-5.781,14.009l-18.825,6.726c.018,9.6.016,9.633.033,19.236l18.827,6.665,5.821,14-8.551,18.049c6.8,6.8,6.818,6.8,13.615,13.589l18.044-8.6,14.009,5.781,6.726,18.826c9.6-.018,9.62-.011,19.236-.034l6.665-18.827,14-5.82,18.049,8.551c6.785-6.8,6.8-6.819,13.589-13.615l-8.6-18.044,5.781-14.01,18.814-6.721c-.006-9.608,0-9.625-.022-19.241l-18.827-6.665Zm-40.26,61.894a34.114,34.114,0,1,1,18.411-44.593A34.115,34.115,0,0,1,4873.478,1346.281Z" fill="#1f3a6f"/>
      <path id="Caminho_103" data-name="Caminho 103" d="M4860.375,1340.184a25.427,25.427,0,0,1-17.709-7.182.75.75,0,1,1,1.045-1.077,23.911,23.911,0,0,0,39.073-25.48.75.75,0,0,1,1.406-.525,25.411,25.411,0,0,1-23.815,34.264Z" fill="#1f3a6f"/>
      <path id="Caminho_104" data-name="Caminho 104" d="M4837.292,1324.147a.751.751,0,0,1-.7-.487,25.408,25.408,0,0,1,41.519-27.094.75.75,0,1,1-1.045,1.076,23.907,23.907,0,0,0-39.069,25.491.751.751,0,0,1-.7,1.014Z" fill="#1f3a6f"/>
    </g>
    <g id="Grupo_180" data-name="Grupo 180">
      <path id="Caminho_105" data-name="Caminho 105" d="M5020.689,1365.321l4.75-13.594c-5.392-4.344-5.409-4.356-10.809-8.7l-12.27,7.545-10.486-3.073-6.257-12.974c-6.888.739-6.909.74-13.793,1.487l-3.338,14.008-9.591,5.243-13.594-4.749c-4.353,5.4-4.356,5.408-8.7,10.808l7.544,12.27c-1.226,4.184-1.846,6.3-3.073,10.486l-12.981,6.262c.747,6.884.748,6.905,1.495,13.788l14.007,3.339,5.244,9.59-4.75,13.594c5.4,4.353,5.409,4.357,10.8,8.7l12.278-7.549,10.486,3.073,6.262,12.982c6.883-.748,6.9-.744,13.788-1.5l3.338-14.008,9.591-5.244,13.594,4.75c4.345-5.392,4.356-5.409,8.7-10.8l-7.549-12.278,3.073-10.487,12.973-6.257c-.739-6.888-.735-6.9-1.487-13.793l-14.007-3.338Zm-24.129,47.454a24.6,24.6,0,1,1,9.788-33.379A24.6,24.6,0,0,1,4996.56,1412.775Z" fill="#6fa0ff"/>
      <path id="Caminho_106" data-name="Caminho 106" d="M4984.757,1409.719a18.544,18.544,0,0,1-11.431-3.942.75.75,0,1,1,.924-1.183,17.03,17.03,0,0,0,25.748-21,.75.75,0,1,1,1.342-.671,18.53,18.53,0,0,1-16.583,26.793Z" fill="#1f3a6f"/>
      <path id="Caminho_107" data-name="Caminho 107" d="M4968.867,1399.887a.751.751,0,0,1-.671-.414,18.528,18.528,0,0,1,28.009-22.86.75.75,0,1,1-.924,1.182,17.028,17.028,0,0,0-25.744,21.005.751.751,0,0,1-.67,1.087Z" fill="#1f3a6f"/>
    </g>
    <g id="Grupo_181" data-name="Grupo 181">
      <path id="Caminho_108" data-name="Caminho 108" d="M4783.386,1386.6l4.425-9.341c-3.517-3.511-3.528-3.521-7.052-7.03l-9.332,4.451-7.25-2.992-3.479-9.737c-4.972,0-4.987,0-9.957.012l-3.45,9.743-7.245,3.012-9.34-4.425c-3.518,3.52-3.522,3.529-7.031,7.052l4.451,9.332c-1.194,2.894-1.8,4.358-2.992,7.251l-9.742,3.48c.009,4.971.008,4.986.017,9.956l9.743,3.449,3.013,7.245-4.426,9.341c3.52,3.517,3.529,3.521,7.046,7.032l9.339-4.453,7.25,2.992,3.481,9.743c4.97-.01,4.979-.006,9.955-.018l3.449-9.743,7.245-3.013,9.341,4.426c3.511-3.517,3.521-3.529,7.033-7.046l-4.453-9.338,2.991-7.251,9.737-3.478c0-4.973,0-4.981-.011-9.958l-9.744-3.449Zm-20.836,32.032a17.655,17.655,0,1,1,9.528-23.078A17.654,17.654,0,0,1,4762.55,1418.632Z" fill="#3b82f4"/>
      <path id="Caminho_109" data-name="Caminho 109" d="M4755.769,1415.839a13.52,13.52,0,0,1-9.416-3.819.75.75,0,1,1,1.044-1.077,12.013,12.013,0,0,0,19.631-12.8.75.75,0,0,1,1.405-.525,13.514,13.514,0,0,1-12.664,18.222Z" fill="#1f3a6f"/>
      <path id="Caminho_110" data-name="Caminho 110" d="M4743.823,1407.539a.751.751,0,0,1-.7-.487,13.511,13.511,0,0,1,22.078-14.409.75.75,0,0,1-1.044,1.077,12.011,12.011,0,0,0-19.629,12.806.748.748,0,0,1-.439.965A.736.736,0,0,1,4743.823,1407.539Z" fill="#1f3a6f"/>
    </g>
    <path id="Caminho_111" data-name="Caminho 111" d="M4859.5,1422.451h-.006c-1.675-.014-3.37-.066-5.036-.157a.75.75,0,0,1,.081-1.5c1.644.089,3.315.141,4.967.155a.75.75,0,0,1-.006,1.5Zm5-.074a.75.75,0,0,1-.028-1.5c1.647-.062,3.314-.164,4.954-.3a.75.75,0,0,1,.126,1.495c-1.663.14-3.353.243-5.023.307Zm-14.991-.469a.666.666,0,0,1-.076,0c-1.665-.168-3.347-.378-5-.623a.75.75,0,1,1,.22-1.484c1.629.242,3.288.448,4.93.614a.75.75,0,0,1-.075,1.5Zm24.948-.371a.75.75,0,0,1-.1-1.494c1.636-.215,3.285-.471,4.9-.762a.75.75,0,0,1,.265,1.477c-1.641.295-3.315.555-4.973.773A.849.849,0,0,1,4874.457,1421.537Zm-34.842-1.1a.725.725,0,0,1-.146-.014c-1.64-.323-3.3-.69-4.919-1.09a.75.75,0,1,1,.359-1.456c1.6.394,3.233.755,4.85,1.074a.75.75,0,0,1-.144,1.486Zm44.679-.666a.75.75,0,0,1-.167-1.481c1.608-.368,3.227-.778,4.812-1.219a.75.75,0,1,1,.4,1.445c-1.607.448-3.249.864-4.88,1.236A.741.741,0,0,1,4884.294,1419.772Zm-54.392-1.726a.751.751,0,0,1-.213-.031c-1.6-.476-3.216-1-4.794-1.548a.75.75,0,1,1,.494-1.416c1.556.543,3.146,1.056,4.727,1.525a.751.751,0,0,1-.214,1.47Zm64.021-.956a.75.75,0,0,1-.235-1.462c1.563-.517,3.136-1.077,4.675-1.667a.75.75,0,1,1,.537,1.4c-1.561.6-3.156,1.167-4.742,1.69A.743.743,0,0,1,4893.923,1417.09Zm-73.464-2.34a.748.748,0,0,1-.28-.054c-1.55-.625-3.106-1.3-4.627-1.992a.75.75,0,0,1,.626-1.364c1.5.688,3.034,1.348,4.562,1.964a.75.75,0,0,1-.281,1.446Zm82.8-1.236a.75.75,0,0,1-.3-1.437c1.508-.661,3.022-1.367,4.5-2.1a.75.75,0,0,1,.666,1.344c-1.5.743-3.033,1.459-4.563,2.129A.748.748,0,0,1,4903.257,1413.514Zm-91.889-2.933a.742.742,0,0,1-.343-.084c-.967-.5-1.94-1.021-2.892-1.551a.75.75,0,1,1,.729-1.311c.939.522,1.9,1.037,2.851,1.53a.75.75,0,0,1-.345,1.416Zm100.847-1.5a.751.751,0,0,1-.365-1.407c1.441-.8,2.882-1.644,4.284-2.511a.75.75,0,1,1,.788,1.276c-1.421.879-2.883,1.736-4.343,2.547A.754.754,0,0,1,4912.215,1409.077Z" fill="#1f3a6f"/>
    <path id="Caminho_112" data-name="Caminho 112" d="M4759.663,1351.489a.749.749,0,0,1-.706-.5c-.562-1.574-1.094-3.183-1.581-4.781a.75.75,0,0,1,1.435-.437c.481,1.575,1,3.161,1.559,4.714a.751.751,0,0,1-.707,1Zm-2.914-9.564a.752.752,0,0,1-.727-.565c-.411-1.62-.789-3.272-1.123-4.909a.75.75,0,1,1,1.47-.3c.329,1.614.7,3.242,1.108,4.839a.75.75,0,0,1-.543.912A.739.739,0,0,1,4756.749,1341.925Zm208.637-6.1a.77.77,0,0,1-.143-.013.751.751,0,0,1-.6-.879c.187-.972.362-1.96.521-2.935a.75.75,0,0,1,1.481.241c-.161.989-.339,1.991-.528,2.978A.75.75,0,0,1,4965.386,1335.825Zm-210.639-3.695a.75.75,0,0,1-.74-.635c-.257-1.649-.479-3.329-.659-4.992a.75.75,0,1,1,1.492-.162c.177,1.641.4,3.3.649,4.923a.75.75,0,0,1-.625.857A.772.772,0,0,1,4754.747,1332.13Zm211.852-4.214c-.028,0-.057,0-.087-.005a.752.752,0,0,1-.659-.832c.189-1.635.341-3.3.454-4.945a.75.75,0,0,1,1.5.1c-.114,1.67-.269,3.357-.46,5.015A.751.751,0,0,1,4966.6,1327.916Zm-212.928-5.726a.75.75,0,0,1-.748-.7c-.1-1.665-.167-3.358-.193-5.031a.751.751,0,0,1,.739-.762h.012a.75.75,0,0,1,.75.739c.025,1.65.089,3.32.19,4.962a.752.752,0,0,1-.7.795Zm213.61-4.25h-.016a.75.75,0,0,1-.734-.766c.018-.792.026-1.595.026-2.388,0-.86-.01-1.727-.031-2.579a.751.751,0,0,1,1.5-.036c.02.864.031,1.743.031,2.615,0,.8-.009,1.618-.027,2.421A.751.751,0,0,1,4967.281,1317.94Zm-213.761-5.746h-.024a.75.75,0,0,1-.727-.772c.052-1.673.143-3.364.271-5.027a.75.75,0,0,1,1.5.115c-.127,1.641-.216,3.308-.267,4.958A.75.75,0,0,1,4753.52,1312.194Zm213.521-4.25a.75.75,0,0,1-.747-.7c-.116-1.645-.271-3.308-.462-4.942a.75.75,0,0,1,1.49-.175c.194,1.657.352,3.344.469,5.012a.751.751,0,0,1-.7.8A.5.5,0,0,1,4967.041,1307.944Zm-212.752-5.716a.775.775,0,0,1-.094-.006.75.75,0,0,1-.652-.837c.206-1.659.454-3.334.737-4.98a.75.75,0,1,1,1.479.255c-.279,1.622-.523,3.274-.727,4.91A.75.75,0,0,1,4754.289,1302.228Zm211.589-4.211a.751.751,0,0,1-.739-.628c-.268-1.627-.578-3.268-.922-4.878a.75.75,0,0,1,1.467-.313c.349,1.633.664,3.3.936,4.946a.752.752,0,0,1-.619.863A.721.721,0,0,1,4965.878,1298.017Zm-209.9-5.64a.758.758,0,0,1-.162-.018.75.75,0,0,1-.571-.894c.361-1.633.765-3.278,1.2-4.89a.75.75,0,1,1,1.448.393c-.43,1.589-.828,3.211-1.184,4.82A.75.75,0,0,1,4755.983,1292.377Zm207.809-4.135a.75.75,0,0,1-.725-.56c-.419-1.592-.883-3.2-1.377-4.769a.751.751,0,0,1,1.432-.45c.5,1.594.971,3.222,1.4,4.837a.752.752,0,0,1-.535.917A.788.788,0,0,1,4963.792,1288.242Zm-205.2-5.514a.737.737,0,0,1-.23-.036.751.751,0,0,1-.484-.944c.514-1.594,1.072-3.2,1.66-4.767a.75.75,0,1,1,1.4.527c-.58,1.547-1.13,3.128-1.637,4.7A.75.75,0,0,1,4758.6,1282.728Zm202.2-4.023a.749.749,0,0,1-.7-.492c-.567-1.543-1.177-3.093-1.815-4.607a.75.75,0,1,1,1.383-.582c.647,1.535,1.266,3.107,1.84,4.672a.75.75,0,0,1-.7,1.009Zm-198.682-5.358a.759.759,0,0,1-.3-.061.752.752,0,0,1-.393-.986c.661-1.537,1.368-3.08,2.1-4.586a.75.75,0,0,1,1.349.657c-.723,1.485-1.42,3.006-2.071,4.522A.751.751,0,0,1,4762.113,1273.347Zm194.811-3.833a.749.749,0,0,1-.677-.427c-.709-1.484-1.462-2.971-2.24-4.421a.75.75,0,0,1,1.322-.709c.789,1.47,1.553,2.979,2.272,4.483a.752.752,0,0,1-.354,1A.743.743,0,0,1,4956.924,1269.514Zm-190.428-5.17a.751.751,0,0,1-.658-1.11c.8-1.468,1.65-2.937,2.52-4.366a.75.75,0,1,1,1.282.78c-.859,1.41-1.7,2.858-2.485,4.305A.75.75,0,0,1,4766.5,1264.344Zm185.711-3.625a.75.75,0,0,1-.645-.365c-.844-1.411-1.734-2.822-2.645-4.195a.75.75,0,0,1,1.251-.829c.923,1.392,1.826,2.823,2.682,4.254a.75.75,0,0,1-.643,1.135ZM4771.7,1255.8a.751.751,0,0,1-.621-1.17c.935-1.386,1.916-2.768,2.915-4.11a.751.751,0,0,1,1.2.9c-.986,1.323-1.953,2.686-2.875,4.052A.75.75,0,0,1,4771.7,1255.8Zm174.985-3.4a.748.748,0,0,1-.606-.307c-.973-1.328-1.991-2.651-3.025-3.932a.751.751,0,0,1,1.168-.943c1.048,1.3,2.08,2.641,3.067,3.988a.75.75,0,0,1-.6,1.194Zm-169.008-4.624a.75.75,0,0,1-.579-1.226c1.059-1.292,2.164-2.576,3.283-3.819a.751.751,0,0,1,1.115,1.005c-1.1,1.225-2.193,2.492-3.238,3.766A.752.752,0,0,1,4777.677,1247.774Zm162.733-3.152a.751.751,0,0,1-.562-.252c-1.093-1.233-2.23-2.456-3.378-3.636a.75.75,0,1,1,1.075-1.047c1.165,1.2,2.317,2.437,3.426,3.687a.749.749,0,0,1-.561,1.248Zm-156.039-4.276a.751.751,0,0,1-.533-1.278c1.175-1.187,2.393-2.363,3.623-3.495a.75.75,0,1,1,1.016,1.1c-1.212,1.117-2.414,2.277-3.572,3.447A.746.746,0,0,1,4784.371,1240.346Zm149.066-2.886a.747.747,0,0,1-.513-.2c-1.2-1.126-2.449-2.239-3.7-3.308a.75.75,0,1,1,.973-1.142c1.272,1.084,2.535,2.212,3.756,3.355a.751.751,0,0,1-.513,1.3Zm-141.714-3.885a.75.75,0,0,1-.482-1.325c1.28-1.074,2.6-2.131,3.929-3.143a.75.75,0,1,1,.91,1.193c-1.309,1-2.613,2.041-3.875,3.1A.75.75,0,0,1,4791.723,1233.575Zm134.1-2.6a.748.748,0,0,1-.46-.157c-1.3-1.01-2.647-2-4-2.951a.75.75,0,1,1,.863-1.228c1.368.962,2.731,1.969,4.053,2.993a.75.75,0,0,1-.46,1.343Zm-126.158-3.455a.75.75,0,0,1-.427-1.367c1.374-.95,2.788-1.879,4.2-2.763a.75.75,0,1,1,.795,1.273c-1.4.871-2.79,1.788-4.145,2.724A.748.748,0,0,1,4799.668,1227.518Zm117.972-2.3a.75.75,0,0,1-.4-.117c-1.393-.885-2.825-1.748-4.257-2.566a.75.75,0,0,1,.745-1.3c1.452.83,2.9,1.7,4.316,2.6a.75.75,0,0,1-.4,1.384Zm-109.5-2.99a.75.75,0,0,1-.368-1.4c1.455-.817,2.949-1.61,4.44-2.357a.75.75,0,1,1,.672,1.341c-1.47.737-2.943,1.519-4.378,2.324A.746.746,0,0,1,4808.138,1222.23Zm100.812-1.975a.745.745,0,0,1-.341-.083c-1.47-.75-2.977-1.476-4.481-2.157a.75.75,0,1,1,.619-1.366c1.525.69,3.054,1.426,4.544,2.187a.751.751,0,0,1-.341,1.419Zm-91.892-2.495a.751.751,0,0,1-.305-1.437c1.525-.676,3.085-1.325,4.638-1.929a.75.75,0,0,1,.544,1.4c-1.532.595-3.07,1.235-4.573,1.9A.742.742,0,0,1,4817.058,1217.76Zm82.768-1.636a.749.749,0,0,1-.276-.053c-1.535-.609-3.1-1.19-4.667-1.726a.751.751,0,0,1,.487-1.42c1.584.544,3.177,1.134,4.734,1.752a.75.75,0,0,1-.278,1.447Zm-73.462-1.981a.75.75,0,0,1-.238-1.462c1.583-.531,3.2-1.032,4.809-1.488a.75.75,0,1,1,.41,1.443c-1.585.45-3.181.944-4.742,1.468A.768.768,0,0,1,4826.364,1214.143Zm64-1.269a.768.768,0,0,1-.21-.03c-1.581-.461-3.195-.891-4.8-1.277a.75.75,0,1,1,.352-1.459c1.625.392,3.262.828,4.865,1.295a.751.751,0,0,1-.21,1.471Zm-54.381-1.46a.75.75,0,0,1-.17-1.481c1.626-.38,3.284-.726,4.928-1.029a.75.75,0,1,1,.272,1.475c-1.621.3-3.256.641-4.859,1.015A.773.773,0,0,1,4835.98,1211.414Zm44.664-.883a.764.764,0,0,1-.142-.013c-1.617-.31-3.264-.586-4.9-.82a.751.751,0,0,1,.213-1.486c1.655.238,3.326.518,4.966.832a.75.75,0,0,1-.141,1.487Zm-34.835-.93a.75.75,0,0,1-.1-1.494c1.654-.225,3.337-.415,5-.563a.75.75,0,1,1,.133,1.494c-1.642.146-3.3.333-4.932.556A.907.907,0,0,1,4845.809,1209.6Zm24.941-.49a.63.63,0,0,1-.073,0c-1.638-.157-3.3-.278-4.951-.36a.75.75,0,0,1,.074-1.5c1.671.083,3.36.206,5.021.366a.75.75,0,0,1-.071,1.5Zm-14.984-.4a.75.75,0,0,1-.031-1.5c1.539-.065,3.1-.1,4.649-.1h.385a.75.75,0,0,1,0,1.5h-.382c-1.524,0-3.067.033-4.586.1Z" fill="#1f3a6f" opacity="0.99"/>
    <circle id="Elipse_11" data-name="Elipse 11" cx="29.976" cy="29.976" r="29.976" transform="translate(4946.34 1249.326)" fill="#61d14a"/>
    <path id="Caminho_113" data-name="Caminho 113" d="M4976.316,1323.559a.75.75,0,0,1,0-1.5,42.757,42.757,0,1,0,0-85.514,42.367,42.367,0,0,0-25.932,8.759.75.75,0,0,1-.911-1.193,44.268,44.268,0,1,1,26.843,79.448Z" fill="#1f3a6f"/>
    <path id="Caminho_114" data-name="Caminho 114" d="M4934.845,1293.244a.75.75,0,0,1-.715-.523,44.361,44.361,0,0,1,5.472-38.141.75.75,0,0,1,1.243.839,42.857,42.857,0,0,0-5.285,36.847.75.75,0,0,1-.488.942A.719.719,0,0,1,4934.845,1293.244Z" fill="#1f3a6f"/>
    <g id="Grupo_182" data-name="Grupo 182">
      <path id="Caminho_115" data-name="Caminho 115" d="M4974,1299.065a.749.749,0,0,1-.706-.5l-1.527-4.273-2.8-1.155-4.1,1.953a.749.749,0,0,1-.853-.146l-1.434-1.431c-.5-.5-.908-.905-1.883-1.88a.749.749,0,0,1-.148-.852l1.941-4.1-1.162-2.8-4.274-1.513a.752.752,0,0,1-.5-.706l-.008-4.687a.751.751,0,0,1,.5-.708l4.273-1.527,1.155-2.8-1.952-4.093a.751.751,0,0,1,.145-.853l1.018-1.022c.749-.752,1.07-1.075,2.293-2.3a.751.751,0,0,1,.852-.148l4.1,1.941,2.795-1.162,1.513-4.273a.749.749,0,0,1,.706-.5c1.981,0,2.29,0,3.759-.005h.931a.749.749,0,0,1,.706.5l1.526,4.271,2.8,1.154,4.093-1.952a.752.752,0,0,1,.853.146l.652.65c1.047,1.041,1.264,1.258,2.669,2.66a.752.752,0,0,1,.148.852l-1.941,4.1,1.162,2.8,4.273,1.513a.752.752,0,0,1,.5.706c0,1.744,0,2.193,0,3.272v1.418a.752.752,0,0,1-.5.707l-4.271,1.525-1.154,2.8,1.953,4.1a.75.75,0,0,1-.146.853l-3.311,3.317a.751.751,0,0,1-.853.148l-4.1-1.941-2.8,1.162-1.512,4.274a.752.752,0,0,1-.706.5l-2.623.005-2.065,0Zm-5.053-7.5a.753.753,0,0,1,.287.057l3.413,1.409a.749.749,0,0,1,.421.441l1.46,4.088,1.536,0,2.093,0,1.447-4.09a.749.749,0,0,1,.419-.442l3.412-1.418a.747.747,0,0,1,.609.014l3.92,1.858,2.563-2.569-1.869-3.918a.752.752,0,0,1-.016-.61l1.408-3.413a.753.753,0,0,1,.441-.421l4.087-1.459v-.889c0-.961,0-1.422,0-2.741l-4.089-1.447a.751.751,0,0,1-.442-.42l-1.419-3.411a.75.75,0,0,1,.015-.609l1.857-3.92c-1.079-1.077-1.347-1.344-2.292-2.285l-.278-.277-3.917,1.868a.75.75,0,0,1-.609.016l-3.414-1.408a.752.752,0,0,1-.42-.442l-1.46-4.086h-.4c-1.326,0-1.707,0-3.228,0l-1.448,4.089a.747.747,0,0,1-.419.442l-3.411,1.419a.753.753,0,0,1-.609-.015l-3.92-1.857c-.924.925-1.252,1.254-1.918,1.923l-.644.647,1.867,3.917a.748.748,0,0,1,.017.609l-1.409,3.414a.75.75,0,0,1-.441.42l-4.088,1.461.006,3.628,4.089,1.448a.748.748,0,0,1,.442.419l1.418,3.411a.748.748,0,0,1-.015.609l-1.857,3.92,1.508,1.505,1.061,1.058,3.918-1.869A.762.762,0,0,1,4968.948,1291.568Zm7.381-3.2a9.065,9.065,0,1,1,3.467-.7h0A9.021,9.021,0,0,1,4976.329,1288.364Zm3.179-1.388h0Zm-3.191-15.242a7.581,7.581,0,1,0,2.885.576A7.555,7.555,0,0,0,4976.317,1271.734Z" fill="#fff"/>
    </g>
    <circle id="Elipse_12" data-name="Elipse 12" cx="7.07" cy="7.07" r="7.07" transform="translate(4827.249 1411.432)" fill="#1f3a6f"/>
    <circle id="Elipse_13" data-name="Elipse 13" cx="7.07" cy="7.07" r="7.07" transform="translate(4882.287 1218.156) rotate(-80.783)" fill="#1f3a6f"/>
    <g id="Grupo_184" data-name="Grupo 184">
      <path id="Caminho_116" data-name="Caminho 116" d="M4860.388,1440.023a126.946,126.946,0,0,1-15.679-.972.75.75,0,1,1,.186-1.489,125.329,125.329,0,0,0,15.493.961,123.5,123.5,0,0,0,64.265-17.977.751.751,0,0,1,.781,1.282,124.66,124.66,0,0,1-65.046,18.195Z" fill="#1f3a6f"/>
      <g id="Grupo_183" data-name="Grupo 183">
        <path id="Caminho_117" data-name="Caminho 117" d="M4850.435,1432.739l.894,1.207-5.951,4.4,4.818,5.615-1.14.977-5.868-6.839Z" fill="#1f3a6f"/>
      </g>
    </g>
    <g id="Grupo_186" data-name="Grupo 186">
      <path id="Caminho_118" data-name="Caminho 118" d="M4743.01,1357.108a.75.75,0,0,1-.707-.5,125.275,125.275,0,0,1,6.155-98.065.75.75,0,0,1,1.34.675,124.135,124.135,0,0,0-6.08,96.889.751.751,0,0,1-.457.958A.763.763,0,0,1,4743.01,1357.108Z" fill="#1f3a6f"/>
      <g id="Grupo_185" data-name="Grupo 185">
        <path id="Caminho_119" data-name="Caminho 119" d="M4752.481,1266.056l-1.437.436-2.142-7.081-6.907,2.654-.538-1.4,8.412-3.231Z" fill="#1f3a6f"/>
      </g>
    </g>
  </g>
</svg>
