<?xml version="1.0" encoding="utf-8"?>
<!-- Generator: Adobe Illustrator 26.5.0, SVG Export Plug-In . SVG Version: 6.00 Build 0)  -->
<svg version="1.1" id="Camada_1" xmlns="http://www.w3.org/2000/svg" xmlns:xlink="http://www.w3.org/1999/xlink" x="0px" y="0px"
	 viewBox="0 0 82.8 81.5" style="enable-background:new 0 0 82.8 81.5;" xml:space="preserve">
<style type="text/css">
	.st0{display:none;}
	.st1{display:inline;}
	.st2{fill:#1D89E4;}
	.st3{opacity:0.3;fill:url(#SVGID_1_);enable-background:new    ;}
	.st4{display:inline;filter:url(#Adobe_OpacityMaskFilter);}
	.st5{fill:#FFFFFF;}
	
		.st6{display:inline;opacity:0.3;mask:url(#SVGID_00000172430950610490919200000001422107808616855985_);fill:url(#SVGID_00000171680792601522440610000017672558934973186751_);enable-background:new    ;}
	.st7{fill:#CE0246;}
	.st8{opacity:0.3;fill:url(#SVGID_00000083070808112654594090000004161725882882354857_);enable-background:new    ;}
	.st9{display:inline;filter:url(#Adobe_OpacityMaskFilter_00000093866968219703666790000006468187739586037946_);}
	
		.st10{display:inline;opacity:0.3;mask:url(#SVGID_00000061461541616967401870000014724199973589707672_);fill:url(#SVGID_00000142884756142494858330000011104530267602092971_);enable-background:new    ;}
	.st11{opacity:0.5;}
	.st12{fill:#A56600;}
</style>
<g class="st0">
	<g class="st1">
		<ellipse class="st2" cx="37" cy="37.3" rx="37.1" ry="37.1"/>
		
			<linearGradient id="SVGID_1_" gradientUnits="userSpaceOnUse" x1="-31.2191" y1="77.336" x2="59.252" y2="44.1443" gradientTransform="matrix(1 0 0 -1 0 84)">
			<stop  offset="2.513970e-02" style="stop-color:#1D89E4"/>
			<stop  offset="0.1586" style="stop-color:#1A7ACB"/>
			<stop  offset="0.4429" style="stop-color:#12538B"/>
			<stop  offset="0.8519" style="stop-color:#051625"/>
			<stop  offset="0.9944" style="stop-color:#000000"/>
		</linearGradient>
		<path class="st3" d="M1,39.2C1,18.7,17.6,2.1,38.1,2.1c14.5,0,27.1,8.3,33.1,20.5C65.6,9.3,52.4,0,37.1,0C16.6,0,0,16.6,0,37.1
			c0,6,1.4,11.6,3.9,16.6C2,49.2,1,44.3,1,39.2z"/>
	</g>
	<defs>
		<filter id="Adobe_OpacityMaskFilter" filterUnits="userSpaceOnUse" x="12.2" y="9.1" width="70.5" height="72.4">
			<feColorMatrix  type="matrix" values="1 0 0 0 0  0 1 0 0 0  0 0 1 0 0  0 0 0 1 0"/>
		</filter>
	</defs>
	
		<mask maskUnits="userSpaceOnUse" x="12.2" y="9.1" width="70.5" height="72.4" id="SVGID_00000172430950610490919200000001422107808616855985_" class="st1">
		<g style="filter:url(#Adobe_OpacityMaskFilter);">
			<ellipse class="st5" cx="37" cy="37.3" rx="37.1" ry="37.1"/>
		</g>
	</mask>
	
		<linearGradient id="SVGID_00000069391537051518112680000012111184706644400052_" gradientUnits="userSpaceOnUse" x1="28.5893" y1="66.8673" x2="55.6169" y2="16.5107" gradientTransform="matrix(1 0 0 -1 0 84)">
		<stop  offset="5.586590e-03" style="stop-color:#000000"/>
		<stop  offset="0.2324" style="stop-color:#404040"/>
		<stop  offset="0.6119" style="stop-color:#A6A6A6"/>
		<stop  offset="0.876" style="stop-color:#E6E6E6"/>
		<stop  offset="1" style="stop-color:#FFFFFF"/>
	</linearGradient>
	
		<path style="display:inline;opacity:0.3;mask:url(#SVGID_00000172430950610490919200000001422107808616855985_);fill:url(#SVGID_00000069391537051518112680000012111184706644400052_);enable-background:new    ;" d="
		M12.2,54.9L37,79.8c0,0,28.8,7.3,39.1-8.5s5.5-23.7,5.5-23.7l-4.1-6.7L44.6,9.1L29.8,32.5l-5.9-5.3c0,0-7.5,8.2-7.6,8.5
		C16.2,35.9,12.2,54.9,12.2,54.9z"/>
	<g class="st1">
		<path class="st5" d="M62.8,30c-0.2-1.9-2-3.3-3.9-3.3H46.1c-0.7,0-1.2-0.7-0.9-1.3c1-2.7,1.8-5.6,2-8.5c0.3-2.7,0.1-6.3-2.7-7.8
			c-1.2-0.6-3.1-1-4.4-0.5c-1.2,0.5-0.8,2.3-0.8,3.3c0,1.5-0.6,2.9-1,4.3c-1.4,2-2.7,4.1-4.1,6c-1.2,1.7-2.7,4-4.9,4.5
			c-1,0.2-1.8,1.1-1.8,2.2v24c0,1.2,1,2.2,2.2,2.2h3.7h8.8h10c1.9,0,3.7-1.4,3.9-3.3c0.2-1.5-0.6-2.9-1.7-3.6l0,0l0,0
			c1.9,0,3.7-1.4,3.9-3.3c0.2-1.5-0.6-2.9-1.7-3.6l0,0l0,0c1.9,0,3.7-1.4,3.9-3.3c0.2-1.5-0.6-2.9-1.8-3.6H59
			C61.3,34.3,63,32.3,62.8,30z"/>
		<path class="st5" d="M23.3,27.1H13.2c-1,0-1.9,0.8-1.9,1.9v24.3c0,1,0.8,1.9,1.9,1.9h10.1c1,0,1.9-0.8,1.9-1.9V29
			C25.2,27.9,24.3,27.1,23.3,27.1z"/>
	</g>
</g>
<g class="st0">
	<g class="st1">
		<circle class="st7" cx="36.7" cy="37" r="37.1"/>
		
			<linearGradient id="SVGID_00000136397088223415041230000004006081124406062504_" gradientUnits="userSpaceOnUse" x1="-31.5995" y1="77.38" x2="58.8715" y2="44.1884" gradientTransform="matrix(1 0 0 -1 0 84)">
			<stop  offset="2.513970e-02" style="stop-color:#EC2E46"/>
			<stop  offset="0.1546" style="stop-color:#D3293F"/>
			<stop  offset="0.4303" style="stop-color:#931D2C"/>
			<stop  offset="0.8269" style="stop-color:#2D090D"/>
			<stop  offset="0.9944" style="stop-color:#000000"/>
		</linearGradient>
		<path style="opacity:0.3;fill:url(#SVGID_00000136397088223415041230000004006081124406062504_);enable-background:new    ;" d="
			M0.6,39.1C0.6,18.6,17.2,2,37.7,2c14.5,0,27.1,8.3,33.1,20.5C65.2,9.3,52,0,36.7,0C16.2,0-0.4,16.5-0.4,37c0,6,1.4,11.6,3.9,16.6
			C1.7,49.2,0.6,44.3,0.6,39.1z"/>
	</g>
	<defs>
		
			<filter id="Adobe_OpacityMaskFilter_00000165942061413791569960000016874905432743377327_" filterUnits="userSpaceOnUse" x="18.8" y="18.9" width="68.1" height="58.3">
			<feColorMatrix  type="matrix" values="1 0 0 0 0  0 1 0 0 0  0 0 1 0 0  0 0 0 1 0"/>
		</filter>
	</defs>
	
		<mask maskUnits="userSpaceOnUse" x="18.8" y="18.9" width="68.1" height="58.3" id="SVGID_00000061461541616967401870000014724199973589707672_" class="st1">
		<g style="filter:url(#Adobe_OpacityMaskFilter_00000165942061413791569960000016874905432743377327_);">
			<circle class="st5" cx="36.7" cy="37" r="37.1"/>
		</g>
	</mask>
	
		<linearGradient id="SVGID_00000078035394558716832200000010310944376501615531_" gradientUnits="userSpaceOnUse" x1="18.0368" y1="69.9866" x2="81.1567" y2="11.2132" gradientTransform="matrix(1 0 0 -1 0 84)">
		<stop  offset="5.586590e-03" style="stop-color:#000000"/>
		<stop  offset="0.2324" style="stop-color:#404040"/>
		<stop  offset="0.6119" style="stop-color:#A6A6A6"/>
		<stop  offset="0.876" style="stop-color:#E6E6E6"/>
		<stop  offset="1" style="stop-color:#FFFFFF"/>
	</linearGradient>
	
		<polygon style="display:inline;opacity:0.3;mask:url(#SVGID_00000061461541616967401870000014724199973589707672_);fill:url(#SVGID_00000078035394558716832200000010310944376501615531_);enable-background:new    ;" points="
		18.8,46.3 51.6,77.2 79.2,70.7 86.9,46.2 55.8,19.2 39.4,24.6 30.9,18.9 21.7,26.8 	"/>
	<g class="st1">
		<path class="st5" d="M36.7,59.2l-7.4-4.8c-0.4-0.2-3.8-2.5-7.3-5.4c-5.1-4.2-11-10.1-11-18.2c0-7.5,6.1-13.6,13.6-13.6
			c5.3,0,9.9,3,12.2,7.5c2.2-4.4,6.8-7.5,12.2-7.5c7.5,0,13.6,6.1,13.6,13.6c0,8.1-5.9,14-11,18.2c-3.5,2.9-7,5.1-7.3,5.4L36.7,59.2
			z"/>
	</g>
</g>
<g id="XMLID_00000157991281977654268740000014686683949244535976_" class="st11">
	<g>
		<g id="XMLID_00000143600072437655604990000013182129458727332004_">
			<path id="XMLID_00000128462405858283613110000001674013939969208763_" class="st12" d="M12.1,40.2h-0.6c-2.6,0-4.7,2.1-4.6,4.7
				c0.1,2.4,2.2,4.3,4.7,4.3h7.8h6.4c1.4,0,2.5,1.2,2.4,2.6l-0.3,3c-0.3,2.8-0.6,6.4,1,8.9c1.4,2.2,3.8,3.6,6.4,3.6h0
				c1.8,0,3.2-1.3,3.4-3c0.3-4,1.4-7.9,3-11.6c0.9-2.1,3.1-3.5,5.4-3.5h3.9c3,0,5.5-2.4,5.5-5.4V18.7c0-2.5-2-4.4-4.5-4.4H40.1h-9.4
				H19.7c-2.2,0-4,1.8-4,3.9l0,0c0,1.6,1,3,2.4,3.6c0.1,0.1,0.2,0.2,0.3,0.3l0,0h-1.5c-2.5,0-4.6,2-4.6,4.5l0,0
				c0,1.9,1.2,3.5,2.8,4.2c0.1,0,0.1,0.1,0.1,0.2c0,0.1-0.1,0.2-0.2,0.2h-1.3c-2.5,0-4.6,2-4.6,4.5l0,0c0,1.9,1.2,3.5,2.9,4.2
				c0.1,0,0.1,0.1,0.1,0.2C12.3,40.1,12.2,40.2,12.1,40.2z"/>
		</g>
		<g id="XMLID_00000078010106943789828950000017974116599245985169_">
			<path id="XMLID_00000098939308327985387110000003663352548443519635_" class="st12" d="M59.2,14.2h15.7c0.6,0,1,0.4,1,1V48
				c0,0.6-0.4,1-1,1H59.2c-0.6,0-1-0.4-1-1V15.3C58.2,14.7,58.7,14.2,59.2,14.2z"/>
		</g>
	</g>
</g>
</svg>
