<?xml version="1.0" encoding="utf-8"?>
<!-- Generator: Adobe Illustrator 26.5.0, SVG Export Plug-In . SVG Version: 6.00 Build 0)  -->
<svg version="1.1" id="Camada_1" xmlns="http://www.w3.org/2000/svg" xmlns:xlink="http://www.w3.org/1999/xlink" x="0px" y="0px"
	 viewBox="0 0 82.8 81.5" style="enable-background:new 0 0 82.8 81.5;" xml:space="preserve">
<style type="text/css">
	.st0{display:none;}
	.st1{display:inline;}
	.st2{fill:#1D89E4;}
	.st3{opacity:0.3;fill:url(#SVGID_1_);enable-background:new    ;}
	.st4{display:inline;filter:url(#Adobe_OpacityMaskFilter);}
	.st5{fill:#FFFFFF;}
	
		.st6{display:inline;opacity:0.3;mask:url(#SVGID_00000077322424601323893270000016490678050168416387_);fill:url(#SVGID_00000048486221338185859030000010070152684785697416_);enable-background:new    ;}
	.st7{fill:#CE0246;}
</style>
<g class="st0">
	<g class="st1">
		<ellipse class="st2" cx="37" cy="37.3" rx="37.1" ry="37.1"/>
		
			<linearGradient id="SVGID_1_" gradientUnits="userSpaceOnUse" x1="-31.2191" y1="77.336" x2="59.252" y2="44.1443" gradientTransform="matrix(1 0 0 -1 0 84)">
			<stop  offset="2.513970e-02" style="stop-color:#1D89E4"/>
			<stop  offset="0.1586" style="stop-color:#1A7ACB"/>
			<stop  offset="0.4429" style="stop-color:#12538B"/>
			<stop  offset="0.8519" style="stop-color:#051625"/>
			<stop  offset="0.9944" style="stop-color:#000000"/>
		</linearGradient>
		<path class="st3" d="M1,39.2C1,18.7,17.6,2.1,38.1,2.1c14.5,0,27.1,8.3,33.1,20.5C65.6,9.3,52.4,0,37.1,0C16.6,0,0,16.6,0,37.1
			c0,6,1.4,11.6,3.9,16.6C2,49.2,1,44.3,1,39.2z"/>
	</g>
	<defs>
		<filter id="Adobe_OpacityMaskFilter" filterUnits="userSpaceOnUse" x="12.2" y="9.1" width="70.5" height="72.4">
			<feColorMatrix  type="matrix" values="1 0 0 0 0  0 1 0 0 0  0 0 1 0 0  0 0 0 1 0"/>
		</filter>
	</defs>
	
		<mask maskUnits="userSpaceOnUse" x="12.2" y="9.1" width="70.5" height="72.4" id="SVGID_00000077322424601323893270000016490678050168416387_" class="st1">
		<g style="filter:url(#Adobe_OpacityMaskFilter);">
			<ellipse class="st5" cx="37" cy="37.3" rx="37.1" ry="37.1"/>
		</g>
	</mask>
	
		<linearGradient id="SVGID_00000092444990998387295480000008371418058019527819_" gradientUnits="userSpaceOnUse" x1="28.5893" y1="66.8673" x2="55.6169" y2="16.5107" gradientTransform="matrix(1 0 0 -1 0 84)">
		<stop  offset="5.586590e-03" style="stop-color:#000000"/>
		<stop  offset="0.2324" style="stop-color:#404040"/>
		<stop  offset="0.6119" style="stop-color:#A6A6A6"/>
		<stop  offset="0.876" style="stop-color:#E6E6E6"/>
		<stop  offset="1" style="stop-color:#FFFFFF"/>
	</linearGradient>
	
		<path style="display:inline;opacity:0.3;mask:url(#SVGID_00000077322424601323893270000016490678050168416387_);fill:url(#SVGID_00000092444990998387295480000008371418058019527819_);enable-background:new    ;" d="
		M12.2,54.9L37,79.8c0,0,28.8,7.3,39.1-8.5s5.5-23.7,5.5-23.7l-4.1-6.7L44.6,9.1L29.8,32.5l-5.9-5.3c0,0-7.5,8.2-7.6,8.5
		C16.2,35.9,12.2,54.9,12.2,54.9z"/>
	<g class="st1">
		<path class="st5" d="M62.8,30c-0.2-1.9-2-3.3-3.9-3.3H46.1c-0.7,0-1.2-0.7-0.9-1.3c1-2.7,1.8-5.6,2-8.5c0.3-2.7,0.1-6.3-2.7-7.8
			c-1.2-0.6-3.1-1-4.4-0.5c-1.2,0.5-0.8,2.3-0.8,3.3c0,1.5-0.6,2.9-1,4.3c-1.4,2-2.7,4.1-4.1,6c-1.2,1.7-2.7,4-4.9,4.5
			c-1,0.2-1.8,1.1-1.8,2.2v24c0,1.2,1,2.2,2.2,2.2h3.7h8.8h10c1.9,0,3.7-1.4,3.9-3.3c0.2-1.5-0.6-2.9-1.7-3.6l0,0l0,0
			c1.9,0,3.7-1.4,3.9-3.3c0.2-1.5-0.6-2.9-1.7-3.6l0,0l0,0c1.9,0,3.7-1.4,3.9-3.3c0.2-1.5-0.6-2.9-1.8-3.6H59
			C61.3,34.3,63,32.3,62.8,30z"/>
		<path class="st5" d="M23.3,27.1H13.2c-1,0-1.9,0.8-1.9,1.9v24.3c0,1,0.8,1.9,1.9,1.9h10.1c1,0,1.9-0.8,1.9-1.9V29
			C25.2,27.9,24.3,27.1,23.3,27.1z"/>
	</g>
</g>
<g>
	<path class="st7" d="M41.4,66l-8.9-5.7c-0.5-0.3-4.6-3-8.8-6.5c-6.2-5.1-13.3-12.2-13.3-21.9c0-9,7.3-16.4,16.4-16.4
		c6.4,0,11.9,3.7,14.6,9c2.7-5.3,8.2-9,14.6-9c9,0,16.4,7.3,16.4,16.4c0,9.7-7.1,16.8-13.3,21.9c-4.3,3.5-8.4,6.2-8.8,6.5L41.4,66z"
		/>
</g>
</svg>
