<?xml version="1.0" encoding="utf-8"?>
<!-- Generator: Adobe Illustrator 26.5.0, SVG Export Plug-In . SVG Version: 6.00 Build 0)  -->
<svg version="1.1" id="Camada_1" xmlns="http://www.w3.org/2000/svg" xmlns:xlink="http://www.w3.org/1999/xlink" x="0px" y="0px"
	 viewBox="0 0 82.8 81.5" style="enable-background:new 0 0 82.8 81.5;" xml:space="preserve">
<style type="text/css">
	.st0{fill:#1D89E4;}
</style>
<g id="XMLID_00000129167176908787309080000012835165610018311081_">
	<g id="XMLID_00000029743206150439837860000004943783106156731574_">
		<path id="XMLID_00000044886797361182386510000002186632541858105753_" class="st0" d="M70.7,41.3h0.6c2.6,0,4.7-2.1,4.6-4.7
			c-0.1-2.4-2.2-4.3-4.7-4.3h-7.8H57c-1.4,0-2.5-1.2-2.4-2.6l0.3-3c0.3-2.8,0.6-6.4-1-8.9c-1.4-2.2-3.8-3.6-6.4-3.6h0
			c-1.8,0-3.2,1.3-3.4,3c-0.3,4-1.3,7.9-3,11.6c-0.9,2.1-3.1,3.5-5.4,3.5H32c-3,0-5.5,2.4-5.5,5.4v25.1c0,2.5,2,4.4,4.5,4.4h11.7
			h9.4h11.1c2.2,0,4-1.8,4-3.9l0,0c0-1.6-1-3-2.4-3.6c-0.1-0.1-0.2-0.2-0.3-0.3l0,0h1.5c2.5,0,4.6-2,4.6-4.5l0,0
			c0-1.9-1.2-3.5-2.8-4.2c-0.1,0-0.1-0.1-0.1-0.2c0-0.1,0.1-0.2,0.2-0.2h1.3c2.5,0,4.6-2,4.6-4.5l0,0c0-1.9-1.2-3.5-2.9-4.2
			c-0.1,0-0.1-0.1-0.1-0.2C70.5,41.4,70.6,41.3,70.7,41.3z"/>
	</g>
	<g id="XMLID_00000174563254817650763330000016466365716032825256_">
		<path id="XMLID_00000120549427683530218230000009581648553698707605_" class="st0" d="M23.6,67.2H7.9c-0.6,0-1-0.4-1-1V33.5
			c0-0.6,0.4-1,1-1h15.7c0.6,0,1,0.4,1,1v32.7C24.6,66.8,24.1,67.2,23.6,67.2z"/>
	</g>
</g>
</svg>
