<?xml version="1.0" encoding="utf-8"?>
<!-- Generator: Adobe Illustrator 26.1.0, SVG Export Plug-In . SVG Version: 6.00 Build 0)  -->
<svg version="1.1" id="Camada_1" xmlns="http://www.w3.org/2000/svg" xmlns:xlink="http://www.w3.org/1999/xlink" x="0px" y="0px"
	 viewBox="0 0 100.4 98.1" style="enable-background:new 0 0 100.4 98.1;" xml:space="preserve">
<style type="text/css">
	.st0{fill:#FEFEFE;}
	.st1{fill:url(#SVGID_1_);}
	.st2{fill:url(#SVGID_00000027600476034389210840000015070289172457665701_);}
</style>
<g>
	<g>
		<g>
			<path class="st0" d="M49,98.1c-27,0-49-22-49-49C0,22,22,0,49,0c12.1,0,23.7,4.5,32.8,12.6l3.2,2.9L68.3,32.2l-2.9-2.5
				c-4.6-3.9-10.4-6-16.4-6c-8.8,0-17.2,4.7-21.7,12.4l-1.9,3.2l-3.3-1.5C21.1,37.3,20,37,19,37c-2,0-3.9,0.8-5.3,2.2
				c-1.4,1.4-2.2,3.3-2.2,5.3c0,2,0.8,3.9,2.2,5.3l0,0c0.4,0.3,0.7,0.7,1,1l22.8,22.8c0.7,0.7,1.5,1.2,2.4,1.6
				c1.8,0.8,3.9,0.8,5.7,0c0.2-0.1,0.5-0.2,0.8-0.4l1-0.6l1.6,0C63,74.4,74.3,63,74.4,49.1l0-1.7l19.5-19.5l2,6.5
				c1.5,4.7,2.2,9.6,2.2,14.6C98.1,76.1,76.1,98.1,49,98.1z M9,56.9c3.7,18.8,20.2,33,40,33c22.5,0,40.8-18.3,40.8-40.8
				c0-1.7-0.1-3.4-0.3-5.1l-6.9,6.9c-0.9,17.5-15.4,31.5-33.1,31.8c-0.2,0.1-0.4,0.2-0.7,0.3c-3.8,1.6-8.2,1.6-12.1,0
				c-1.9-0.8-3.6-1.9-5.1-3.4c0,0-16.2-16.2-21.9-21.9h0L9,56.9z M49,8.2c-15.6,0-29.2,8.8-36,21.7c2.8-1.1,6-1.5,9.1-0.8
				c6.3-8.5,16.4-13.6,27-13.6c6.7,0,13.2,2,18.7,5.7l5.2-5.2C66,11,57.6,8.2,49,8.2z"/>
		</g>
		<g>
			<path class="st0" d="M42.8,80.2c-3.2,0-6.1-1.2-8.4-3.5L10.6,52.9c-2.2-2.2-3.5-5.2-3.5-8.4s1.2-6.1,3.5-8.4
				c4.6-4.6,12.1-4.6,16.8,0l15.4,15.4l37.4-37.4c4.6-4.6,12.1-4.6,16.8,0h0c0,0,0,0,0,0c2.2,2.2,3.5,5.2,3.5,8.4s-1.2,6.1-3.5,8.4
				L51.2,76.7C48.9,79,45.9,80.2,42.8,80.2z M19,40.9c-0.9,0-1.8,0.4-2.6,1.1c-0.7,0.7-1.1,1.6-1.1,2.6s0.4,1.9,1.1,2.6l23.8,23.8
				c1.4,1.4,3.7,1.4,5.1,0l45.7-45.7c0.7-0.7,1.1-1.6,1.1-2.6c0-1-0.4-1.9-1.1-2.6h0c-1.4-1.4-3.7-1.4-5.1,0L42.8,63.3L21.5,42
				C20.8,41.3,19.9,40.9,19,40.9z"/>
		</g>
	</g>
	<g>
		<linearGradient id="SVGID_1_" gradientUnits="userSpaceOnUse" x1="86.4173" y1="11.6638" x2="18.6106" y2="79.4705">
			<stop  offset="0" style="stop-color:#52C42B"/>
			<stop  offset="1" style="stop-color:#1F9120"/>
		</linearGradient>
		<path class="st1" d="M78.5,49.1c0,16.2-13.2,29.4-29.5,29.4c-0.2,0-0.4,0-0.6,0c-0.4,0.2-0.8,0.4-1.3,0.6
			c-1.4,0.6-2.9,0.9-4.5,0.9s-3.1-0.3-4.5-0.9c-1.4-0.6-2.7-1.4-3.8-2.5c0,0-23.8-23.8-23.8-23.8c-2.3-2.3-3.4-5.3-3.4-8.2
			c0-3,1.1-6,3.4-8.2C13,34,16,32.9,19,32.9c1.6,0,3.3,0.4,4.8,1c5.1-8.6,14.6-14.4,25.3-14.4c7.3,0,13.9,2.6,19,7
			c4.8-4.8,10.2-10.2,11-11c-8-7.2-18.5-11.5-30-11.5C24.3,4.1,4.1,24.3,4.1,49C4.1,73.8,24.3,94,49,94C73.8,94,94,73.8,94,49
			c0-4.7-0.7-9.1-2-13.4C88.5,39.1,83.7,43.9,78.5,49.1z"/>
		
			<linearGradient id="SVGID_00000022532373974575689220000003232421709095460492_" gradientUnits="userSpaceOnUse" x1="81.034" y1="6.2805" x2="13.2273" y2="74.0872">
			<stop  offset="0" style="stop-color:#52C42B"/>
			<stop  offset="1" style="stop-color:#1F9120"/>
		</linearGradient>
		<path style="fill:url(#SVGID_00000022532373974575689220000003232421709095460492_);" d="M94,17.2c-3-3-7.9-3-10.9,0L42.8,57.4
			L24.4,39.1c-3-3-7.9-3-10.9,0c-3,3-3,7.9,0,10.9l23.8,23.8c1.4,1.5,3.4,2.3,5.5,2.3c2.1,0,4-0.8,5.5-2.3L94,28.1
			C97,25.1,97,20.2,94,17.2z"/>
	</g>
</g>
</svg>
