<svg xmlns="http://www.w3.org/2000/svg" width="1005.029" height="203.994" viewBox="0 0 1005.029 203.994">
  <path id="Caminho_1" data-name="Caminho 1" d="M884.464,1879.447l-44.048-76.293a25.632,25.632,0,0,0-22.2-12.816H510.357v2.559a25.6,25.6,0,0,0-11.15-2.559H191.346v.02c-.206-.005-.41-.02-.617-.02H-117.132v203.994H190.729c.207,0,.411-.015.617-.021v.021H499.207a25.6,25.6,0,0,0,11.15-2.559v2.559H818.218a25.632,25.632,0,0,0,22.2-12.816l44.048-76.293a25.908,25.908,0,0,0,0-25.776Z" transform="translate(117.132 -1790.338)" fill="#003865"/>
</svg>
