<?xml version="1.0" encoding="utf-8"?>
<!-- Generator: Adobe Illustrator 26.1.0, SVG Export Plug-In . SVG Version: 6.00 Build 0)  -->
<svg version="1.1" id="Camada_1" xmlns="http://www.w3.org/2000/svg" xmlns:xlink="http://www.w3.org/1999/xlink" x="0px" y="0px"
	 viewBox="0 0 100.4 98.1" style="enable-background:new 0 0 100.4 98.1;" xml:space="preserve">
<style type="text/css">
	.st0{fill:#FEFEFE;}
	.st1{fill:url(#SVGID_1_);}
	.st2{fill:url(#SVGID_00000135668350281100645540000002815068154733105806_);}
	.st3{fill:url(#SVGID_00000029005799054716577530000012519676733581453479_);}
	.st4{fill:url(#SVGID_00000078010608032677436740000007341961673550546073_);}
	.st5{fill:url(#SVGID_00000129890144781874257870000006987794388597744780_);}
</style>
<g>
	<g>
		<g>
			<path class="st0" d="M62.1,26.6l-2.5-1c-6-2.4-12.7-2.4-18.7,0l-2.5,1L21.1,9.4l4.6-2.7c7.4-4.3,15.9-6.6,24.4-6.6
				s17,2.3,24.4,6.6l4.6,2.7L62.1,26.6z M34.8,11.4l5.6,5.6c6.3-2,13.3-2,19.6,0l5.6-5.6C55.8,7.4,44.5,7.4,34.8,11.4z"/>
		</g>
		<g>
			<path class="st0" d="M89.8,78.1l-3.8-3.8c-0.3-0.3-5.8-5.8-11.5-11.5l-1.9-1.9l1-2.5c1.2-3,1.8-6.1,1.8-9.3
				c0-3.2-0.6-6.4-1.8-9.3l-1-2.5L89.8,20l2.7,4.6c4.3,7.4,6.6,15.9,6.6,24.4c0,8.6-2.3,17-6.6,24.4L89.8,78.1z M82.2,58.8
				c2.1,2.1,4,4,5.6,5.6c2-4.9,3-10.1,3-15.4c0-5.3-1-10.5-3-15.4l-5.6,5.6c1,3.2,1.5,6.5,1.5,9.8C83.7,52.4,83.2,55.7,82.2,58.8z"
				/>
		</g>
		<g>
			<path class="st0" d="M50.2,97.9c-8.6,0-17-2.3-24.4-6.6l-4.6-2.7l17.2-17.2l2.5,1c6,2.4,12.7,2.4,18.7,0l2.5-1l17.2,17.2
				l-4.6,2.7C67.2,95.7,58.8,97.9,50.2,97.9z M34.8,86.7c9.8,4,21.1,4,30.8,0L60,81.1c-6.3,2-13.3,2-19.6,0L34.8,86.7z"/>
		</g>
		<g>
			<path class="st0" d="M10.5,78.1l-2.7-4.6C3.6,66.1,1.3,57.6,1.3,49c0-8.6,2.3-17,6.6-24.4l2.7-4.6l3.8,3.8
				c0.3,0.3,5.8,5.8,11.5,11.5l1.9,1.9l-1,2.5c-1.2,3-1.8,6.1-1.8,9.3c0,3.2,0.6,6.4,1.8,9.3l1,2.5L10.5,78.1z M12.6,33.6
				c-2,4.9-3,10.1-3,15.4c0,5.3,1,10.5,3,15.4l5.6-5.6c-1-3.2-1.5-6.5-1.5-9.8c0-3.3,0.5-6.6,1.5-9.8C16.1,37.2,14.2,35.2,12.6,33.6
				z"/>
		</g>
		<g>
			<path class="st0" d="M81.1,91.8c-3.2,0-6.1-1.2-8.4-3.5L50.2,65.8L27.6,88.3c-2.2,2.2-5.2,3.5-8.4,3.5c-3.2,0-6.1-1.2-8.4-3.5
				c-2.2-2.2-3.5-5.2-3.5-8.4c0-3.2,1.2-6.1,3.5-8.4L33.5,49L10.9,26.5c-2.2-2.2-3.5-5.2-3.5-8.4s1.2-6.1,3.5-8.4
				c4.6-4.6,12.1-4.6,16.7,0l22.6,22.6L72.7,9.8c4.6-4.6,12.1-4.6,16.7,0c2.2,2.2,3.5,5.2,3.5,8.4s-1.2,6.1-3.5,8.4L66.9,49
				l22.6,22.6c2.2,2.2,3.5,5.2,3.5,8.4c0,3.2-1.2,6.1-3.5,8.4C87.2,90.5,84.3,91.8,81.1,91.8z M50.2,54.1l28.4,28.4
				c1.4,1.4,3.7,1.4,5.1,0c0.7-0.7,1.1-1.6,1.1-2.5c0-1-0.4-1.9-1.1-2.5L55.3,49l28.4-28.4c0.7-0.7,1.1-1.6,1.1-2.5
				c0-1-0.4-1.9-1.1-2.5c-1.4-1.4-3.7-1.4-5.1,0L50.2,44L21.8,15.6c-1.4-1.4-3.7-1.4-5.1,0c-0.7,0.7-1.1,1.6-1.1,2.5
				c0,1,0.4,1.9,1.1,2.5L45.1,49L16.7,77.4C16,78.1,15.7,79,15.7,80c0,1,0.4,1.9,1.1,2.5c1.4,1.4,3.7,1.4,5.1,0L50.2,54.1z"/>
		</g>
	</g>
	<g>
		<linearGradient id="SVGID_1_" gradientUnits="userSpaceOnUse" x1="68.8702" y1="-8.4243" x2="-4.8423" y2="65.2881">
			<stop  offset="0" style="stop-color:#F50000"/>
			<stop  offset="1" style="stop-color:#9E0008"/>
		</linearGradient>
		<path class="st1" d="M50.2,19.7c3.8,0,7.5,0.7,10.9,2.1l11.5-11.5c-6.6-3.8-14.2-6-22.4-6c-8.1,0-15.8,2.2-22.4,6l11.5,11.5
			C42.7,20.4,46.3,19.7,50.2,19.7z"/>
		
			<linearGradient id="SVGID_00000116944865729162690650000003241620038373815738_" gradientUnits="userSpaceOnUse" x1="107.6505" y1="30.3562" x2="33.9381" y2="104.0686">
			<stop  offset="0" style="stop-color:#F50000"/>
			<stop  offset="1" style="stop-color:#9E0008"/>
		</linearGradient>
		<path style="fill:url(#SVGID_00000116944865729162690650000003241620038373815738_);" d="M89,26.7c-1.3,1.3-6.5,6.5-11.5,11.5
			c1.3,3.4,2.1,7,2.1,10.9c0,3.8-0.7,7.5-2.1,10.9c5.7,5.7,11.2,11.2,11.5,11.5c3.8-6.6,6-14.2,6-22.4S92.8,33.3,89,26.7z"/>
		
			<linearGradient id="SVGID_00000109726915197726993900000017646569670910932889_" gradientUnits="userSpaceOnUse" x1="107.6506" y1="30.3562" x2="33.9382" y2="104.0686">
			<stop  offset="0" style="stop-color:#F50000"/>
			<stop  offset="1" style="stop-color:#9E0008"/>
		</linearGradient>
		<path style="fill:url(#SVGID_00000109726915197726993900000017646569670910932889_);" d="M50.2,78.4c-3.8,0-7.5-0.7-10.9-2.1
			L27.8,87.8c6.6,3.8,14.2,6,22.4,6c8.1,0,15.8-2.2,22.4-6L61.1,76.3C57.7,77.7,54,78.4,50.2,78.4z"/>
		
			<linearGradient id="SVGID_00000161595855763398452460000011006721944340204194_" gradientUnits="userSpaceOnUse" x1="68.8701" y1="-8.4243" x2="-4.8423" y2="65.2881">
			<stop  offset="0" style="stop-color:#F50000"/>
			<stop  offset="1" style="stop-color:#9E0008"/>
		</linearGradient>
		<path style="fill:url(#SVGID_00000161595855763398452460000011006721944340204194_);" d="M20.8,49c0-3.8,0.7-7.5,2.1-10.9
			C17.2,32.4,11.7,27,11.4,26.7c-3.8,6.6-6,14.2-6,22.4c0,8.1,2.2,15.8,6,22.4c1.3-1.3,6.5-6.5,11.5-11.5
			C21.6,56.5,20.8,52.9,20.8,49z"/>
		
			<linearGradient id="SVGID_00000067919429960505360170000013909102041522730915_" gradientUnits="userSpaceOnUse" x1="88.2604" y1="10.9659" x2="14.5477" y2="84.6786">
			<stop  offset="0" style="stop-color:#F50000"/>
			<stop  offset="1" style="stop-color:#9E0008"/>
		</linearGradient>
		<path style="fill:url(#SVGID_00000067919429960505360170000013909102041522730915_);" d="M61.1,49l25.5-25.5c3-3,3-7.9,0-10.9
			c-3-3-7.9-3-10.9,0L50.2,38.1L24.7,12.7c-3-3-7.9-3-10.9,0c-3,3-3,7.9,0,10.9L39.3,49L13.8,74.5c-3,3-3,7.9,0,10.9
			c1.5,1.5,3.5,2.3,5.5,2.3c2,0,3.9-0.8,5.5-2.3l25.5-25.5l25.5,25.5c1.5,1.5,3.5,2.3,5.5,2.3s3.9-0.8,5.5-2.3c3-3,3-7.9,0-10.9
			L61.1,49z"/>
	</g>
</g>
</svg>
