<?xml version="1.0" encoding="utf-8"?>
<!-- Generator: Adobe Illustrator 26.1.0, SVG Export Plug-In . SVG Version: 6.00 Build 0)  -->
<svg version="1.1" id="Camada_1" xmlns="http://www.w3.org/2000/svg" xmlns:xlink="http://www.w3.org/1999/xlink" x="0px" y="0px"
	 viewBox="0 0 127.4 127.4" style="enable-background:new 0 0 127.4 127.4;" xml:space="preserve">
<style type="text/css">
	.st0{fill:#003660;}
	.st1{fill:#FFFFFF;}
</style>
<g>
	<path class="st0" d="M0,63.7C0,28.5,28.5,0,63.7,0c35.2,0,63.7,28.5,63.7,63.7c0,35.2-28.5,63.7-63.7,63.7
		C28.5,127.4,0,98.9,0,63.7z"/>
	<path class="st1" d="M64.2,32.7c0-0.6-0.5-1.2-1.2-1.1c-2.6,0.1-5.3,0.4-7.8,1.2c-0.6,0.2-1,0.8-0.8,1.4c0.1,0.5,0.6,0.9,1.1,0.9
		c0.1,0,0.2,0,0.3,0c2.3-0.7,4.8-1,7.2-1.1C63.7,33.9,64.2,33.4,64.2,32.7z"/>
	<path class="st1" d="M67.4,85.8c-0.1-0.5-0.4-0.8-0.8-1l-2.3,2.4c0.7,0,1.4,0,2.1-0.1C67,87,67.4,86.4,67.4,85.8z"/>
	<path class="st1" d="M76.6,80.3c-1.9,1.5-4,2.7-6.3,3.5c-0.6,0.2-0.9,0.9-0.7,1.5c0.2,0.5,0.6,0.8,1.1,0.8c0.1,0,0.2,0,0.4-0.1
		c2.5-0.9,4.9-2.2,7-3.9c0.5-0.4,0.6-1.1,0.2-1.6C77.8,80,77.1,79.9,76.6,80.3z"/>
	<path class="st1" d="M60,41.6c0.1,0.5,0.4,0.8,0.8,1l2.3-2.4c-0.7,0-1.4,0-2.1,0.1C60.3,40.4,59.9,41,60,41.6z"/>
	<path class="st1" d="M49.1,46.9c0.2,0.3,0.6,0.4,0.9,0.4c0.2,0,0.5-0.1,0.7-0.3c1.9-1.5,4-2.7,6.3-3.5c0.6-0.2,0.9-0.9,0.7-1.5
		c-0.2-0.6-0.8-0.9-1.4-0.7c-2.5,0.9-4.9,2.2-7,3.9C48.8,45.7,48.7,46.4,49.1,46.9z"/>
	<path class="st1" d="M72.8,33.6L64.6,42c-0.1,0.1-0.2,0.3-0.3,0.3l-4.7,4.8c2.3-0.6,4.6-0.7,6.9-0.4l9.7-9.8C78,35,80.4,34,83,34
		c2.6,0,5.1,1,6.9,2.9c1.8,1.9,2.9,4.4,2.9,7c0,2.7-1,5.2-2.9,7L70.4,70.9c-3.8,3.9-10,3.9-13.8,0c-2.1-2.2-3.1-5.1-2.8-7.9l-3.9,4
		c-0.8,2.9,1.5,5.2,3.5,7.3c2.1,2.1,4.7,3.5,7.4,4c0,0,0,0,0,0c0.6,0.1,1.1,0.2,1.7,0.2c0.1,0,0.3,0,0.4,0c0.4,0,0.8,0,1.2,0
		c0.2,0,0.3,0,0.5,0c0.4,0,0.8-0.1,1.2-0.1c0.1,0,0.3,0,0.4-0.1c0.5-0.1,1.1-0.2,1.6-0.4c0.1,0,0.1,0,0.2-0.1
		c0.5-0.1,0.9-0.3,1.3-0.5c0.1-0.1,0.3-0.1,0.4-0.2c0.4-0.2,0.7-0.4,1-0.5c0.1-0.1,0.3-0.2,0.4-0.3c0.3-0.2,0.7-0.4,1-0.7
		c0.1-0.1,0.3-0.2,0.4-0.3c0.4-0.3,0.9-0.7,1.2-1.1l11-11.2c0.1-0.1,0.2-0.3,0.3-0.3l8.2-8.4c2.7-2.8,4.2-6.5,4.2-10.4
		c0-3.9-1.5-7.6-4.2-10.4C87.6,27.8,78.5,27.8,72.8,33.6z"/>
	<path class="st1" d="M54.5,93.8l8.2-8.4c0.1-0.1,0.2-0.3,0.3-0.3l4.7-4.8c-0.2,0-0.3,0.1-0.5,0.1c-0.3,0.1-0.6,0.1-0.9,0.2
		c-0.2,0-0.5,0.1-0.8,0.1c-0.3,0-0.6,0.1-0.9,0.1c-0.2,0-0.5,0-0.7,0c-0.3,0-0.6,0-1,0c-0.2,0-0.5,0-0.7,0c-0.3,0-0.7-0.1-1-0.1
		c-0.1,0-0.3,0-0.4,0l-9.6,9.8c-1.8,1.9-4.3,2.9-6.9,2.9c-2.6,0-5.1-1-6.9-2.9c-1.8-1.9-2.9-4.4-2.9-7c0-2.7,1-5.2,2.9-7L48,65.6
		l8.6-8.7l0.4-0.4c3.8-3.9,10-3.9,13.8,0c2.1,2.2,3.1,5.1,2.8,7.9l3.9-4c0.8-2.9-1.5-5.2-3.5-7.3c-1.9-2-4.3-3.3-6.8-3.9
		c-0.4-0.1-0.9-0.2-1.4-0.3c-0.5-0.1-1-0.1-1.5-0.1c-0.2,0-0.4,0-0.6,0c-2.7,0-5.4,0.8-7.8,2.3c-0.5,0.3-1,0.7-1.5,1.2
		c-0.3,0.3-0.6,0.5-0.9,0.8l-0.3,0.3L42.7,64.3c-0.1,0.1-0.2,0.3-0.3,0.3l-8.2,8.4c-2.7,2.8-4.2,6.5-4.2,10.4
		c0,3.9,1.5,7.6,4.2,10.4C39.7,99.6,48.9,99.6,54.5,93.8z"/>
</g>
</svg>
