<svg xmlns="http://www.w3.org/2000/svg" width="224.228" height="134.946" viewBox="0 0 224.228 134.946">
  <g id="Grupo_2" data-name="Grupo 2" transform="translate(-220.109 -2726.917)">
    <path id="Caminho_2" data-name="Caminho 2" d="M442.4,2785.864,417.549,2735.4c-2.583-5.246-7.358-8.478-12.524-8.478H220.109v134.946H405.025c5.166,0,9.941-3.232,12.524-8.478l24.851-50.469a19.733,19.733,0,0,0,0-17.052Z" fill="#cd006f"/>
    <g id="Grupo_1" data-name="Grupo 1">
      <path id="Caminho_3" data-name="Caminho 3" d="M323.841,2759.437a16.184,16.184,0,1,0-24.086,14.118l.336-10.735a7.966,7.966,0,0,1,7.968-7.961h.446a6.274,6.274,0,0,1,6.274,6.272v12.826A16.173,16.173,0,0,0,323.841,2759.437Z" fill="#68cfdc"/>
      <path id="Caminho_4" data-name="Caminho 4" d="M314.779,2761.131a6.274,6.274,0,0,0-6.274-6.272h-.446a7.966,7.966,0,0,0-7.968,7.961l-.336,10.735-.741,23.663c-.169.728-.273,17.177-.273,17.177-1.385-1.415-2.932-3.034-4.328-4.588-3.247-3.622-9.21-6.063-13.176-6.513a6.538,6.538,0,0,0-4.743.845,10.334,10.334,0,0,0-.994.858c-2.039,2.017-3.587,5.274-2.159,7.659a8.269,8.269,0,0,0,2.807,2.461c1.5.971,4.017,2.02,5.9,4.432,3.179,4.053,10.514,13.118,15.024,17.957.933.583,2.92,2.565,3.859,3.066a34.964,34.964,0,0,1,5.98,4.458,29.066,29.066,0,0,0,4.354,2.629c3.011,1.909,8.5,3.69,14.827,3.69s12.062.379,16.307-3.354h.236l.1-.284a20.936,20.936,0,0,0,7-15.491v-28.965c0-1.424-.31-6.18-4.313-7.611a7.078,7.078,0,0,0-5.286.243l-.366.019-.113.007a6.069,6.069,0,0,0-5-4.749,8.372,8.372,0,0,0-6.549,1.327c-1.288-2.765-3.871-4.206-7.358-3.914a8.551,8.551,0,0,0-5.98,3.2v-30.65Z" fill="#fff"/>
      <path id="Caminho_5" data-name="Caminho 5" d="M384.93,2763.163c1.347-1.145,2.528-2.146,3.373-2.858.421-.359.758-.644.991-.842l.265-.226.07-.059.014-.009,0-.007h.006l0,0a5.67,5.67,0,0,0,.012-8.637l-17.841-15.212a1.133,1.133,0,0,0-1.6.129l-5.878,6.9a1.129,1.129,0,0,0,.131,1.595l6.168,5.261-36.66,0a1.128,1.128,0,0,0-1.133,1.133v9.062a1.143,1.143,0,0,0,.33.8,1.131,1.131,0,0,0,.8.33h36.562c-.964.825-1.893,1.621-2.715,2.328-.878.75-1.642,1.411-2.244,1.939-.3.262-.563.492-.78.686s-.4.359-.593.547a1.128,1.128,0,0,0-.029,1.6l6.3,6.517a1.136,1.136,0,0,0,1.576.048l.294-.269-.006.007c.664-.589,2.124-1.855,3.878-3.358C378.876,2768.3,382.236,2765.449,384.93,2763.163Z" fill="#fff"/>
    </g>
  </g>
</svg>
