<?xml version="1.0" encoding="utf-8"?>
<!-- Generator: Adobe Illustrator 26.1.0, SVG Export Plug-In . SVG Version: 6.00 Build 0)  -->
<svg version="1.1" id="Camada_1" xmlns="http://www.w3.org/2000/svg" xmlns:xlink="http://www.w3.org/1999/xlink" x="0px" y="0px"
	 viewBox="0 0 164.1 140.5" style="enable-background:new 0 0 164.1 140.5;" xml:space="preserve">
<style type="text/css">
	.st0{fill:#221F1F;}
	.st1{fill:#F3C224;}
	.st2{filter:url(#Adobe_OpacityMaskFilter);}
	.st3{filter:url(#Adobe_OpacityMaskFilter_00000097476762622459405510000002129425905848154508_);}
	
		.st4{mask:url(#XMLID_00000140709875789457248190000016716010412104343701_);fill:url(#XMLID_00000145740842541239468100000002984408707585782921_);}
	.st5{opacity:0.19;fill:url(#XMLID_00000101817259073908538420000007971598051859603134_);}
</style>
<g id="XMLID_2_">
	<g id="XMLID_3_">
		<g id="XMLID_37_">
			<path id="XMLID_307_" class="st0" d="M150.7,134.5H13.4c-5.8,0-9.4-6.6-6.4-11.7L75,9.7c2.9-4.8,9.7-4.9,12.7-0.1L157,122.8
				C160.2,127.9,156.6,134.5,150.7,134.5z"/>
			<path id="XMLID_38_" class="st1" d="M150.7,140.5H13.4c-2.5,0-4.9-0.7-7-2c-2-1.2-3.6-3-4.7-5c-1.1-2.1-1.7-4.4-1.7-6.7
				c0-2.5,0.7-5,2-7.1L70,6.5C72.4,2.5,76.7,0,81.3,0c0,0,0,0,0.1,0c4.6,0,8.9,2.4,11.3,6.4L162,119.6c2.6,4.2,2.7,9.5,0.4,13.9
				C160.1,137.8,155.6,140.5,150.7,140.5z M81.4,12.1C81.4,12.1,81.4,12.1,81.4,12.1c-0.4,0-1,0.1-1.3,0.8L12,126
				c-0.4,0.7-0.2,1.2,0,1.6c0.2,0.4,0.6,0.8,1.4,0.8h137.4c0.8,0,1.2-0.4,1.4-0.8c0.2-0.4,0.4-1,0-1.6L82.7,12.8
				C82.3,12.2,81.8,12.1,81.4,12.1z"/>
		</g>
		<g id="XMLID_4_">
			<path id="XMLID_36_" class="st1" d="M150.7,134.5H13.4c-5.8,0-9.4-6.6-6.4-11.7L75,9.7c2.9-4.8,9.7-4.9,12.7-0.1L157,122.8
				C160.2,127.9,156.6,134.5,150.7,134.5z"/>
			<path id="XMLID_17_" class="st0" d="M150.7,137H13.4c-3.6,0-6.9-1.9-8.7-5.2c-1.8-3.3-1.7-7.1,0.2-10.3l68-113.2
				c1.8-3,5-4.8,8.4-4.8c0,0,0,0,0,0c3.4,0,6.6,1.8,8.4,4.8l69.3,113.2c1.9,3.2,2.1,7,0.3,10.3C157.6,135.1,154.4,137,150.7,137z
				 M81.4,8.6C81.4,8.6,81.4,8.6,81.4,8.6c-1.8,0-3.3,0.9-4.3,2.4l-68,113.2c-1,1.6-1,3.5-0.1,5.2c0.9,1.6,2.5,2.6,4.4,2.6h137.4
				c1.8,0,3.5-1,4.4-2.6c0.9-1.7,0.8-3.6-0.1-5.2L85.6,11C84.7,9.4,83.1,8.6,81.4,8.6z"/>
		</g>
	</g>
	<g id="XMLID_312_">
		<path id="XMLID_309_" class="st0" d="M82,31.5c-6,0-10.1,8.6-9.2,17.4l5.4,54.1c0.1,1.3,1.9,2.4,3.8,2.4c2,0,3.7-1,3.8-2.4
			l5.4-54.1C92.2,40.1,88.1,31.5,82,31.5z"/>
		<circle id="XMLID_313_" class="st0" cx="82" cy="113.3" r="5.9"/>
	</g>
	<defs>
		<filter id="Adobe_OpacityMaskFilter" filterUnits="userSpaceOnUse" x="0" y="0" width="116.6" height="132.9">
			<feFlood  style="flood-color:white;flood-opacity:1" result="back"/>
			<feBlend  in="SourceGraphic" in2="back" mode="normal"/>
		</filter>
	</defs>
	
		<mask maskUnits="userSpaceOnUse" x="0" y="0" width="116.6" height="132.9" id="XMLID_00000140713483504149765070000004333012108159407804_">
		<g id="XMLID_00000077324250816541173570000016890022737447679381_" class="st2">
			<defs>
				
					<filter id="Adobe_OpacityMaskFilter_00000009550355467494723530000006558494612692902806_" filterUnits="userSpaceOnUse" x="0" y="0" width="116.6" height="132.9">
					<feFlood  style="flood-color:white;flood-opacity:1" result="back"/>
					<feBlend  in="SourceGraphic" in2="back" mode="normal"/>
				</filter>
			</defs>
			
				<mask maskUnits="userSpaceOnUse" x="0" y="0" width="116.6" height="132.9" id="XMLID_00000140713483504149765070000004333012108159407804_">
				
					<g id="XMLID_00000147910895350960764250000000105041017016502448_" style="filter:url(#Adobe_OpacityMaskFilter_00000009550355467494723530000006558494612692902806_);">
				</g>
			</mask>
			
				<linearGradient id="XMLID_00000078727542339211185180000006239936714038360749_" gradientUnits="userSpaceOnUse" x1="6.929877e-06" y1="66.4738" x2="116.5853" y2="66.4738">
				<stop  offset="5.376340e-03" style="stop-color:#000000"/>
				<stop  offset="5.073645e-02" style="stop-color:#2C2C2C"/>
				<stop  offset="0.1037" style="stop-color:#585858"/>
				<stop  offset="0.1622" style="stop-color:#808080"/>
				<stop  offset="0.2251" style="stop-color:#A2A2A2"/>
				<stop  offset="0.2935" style="stop-color:#BFBFBF"/>
				<stop  offset="0.3693" style="stop-color:#D7D7D7"/>
				<stop  offset="0.4556" style="stop-color:#E9E9E9"/>
				<stop  offset="0.5587" style="stop-color:#F6F6F6"/>
				<stop  offset="0.6953" style="stop-color:#FDFDFD"/>
				<stop  offset="1" style="stop-color:#FFFFFF"/>
			</linearGradient>
			
				<path id="XMLID_00000165217505129031148750000011772077345966531252_" style="mask:url(#XMLID_00000140713483504149765070000004333012108159407804_);fill:url(#XMLID_00000078727542339211185180000006239936714038360749_);" d="
				M116.6,45.4c-0.3,48.4-41,87.6-91.3,87.6c-8.7,0-17.1-1.2-25.1-3.4c-0.2-0.9-0.3-1.9-0.3-2.8c0-2.5,0.7-5,2-7.1L70,6.5
				C72.4,2.5,76.7,0,81.3,0c0,0,0,0,0.1,0c4.6,0,8.9,2.4,11.3,6.4L116.6,45.4z"/>
		</g>
	</mask>
	
		<linearGradient id="XMLID_00000132080845428610709170000004577161455755411337_" gradientUnits="userSpaceOnUse" x1="6.929877e-06" y1="66.4738" x2="116.5853" y2="66.4738">
		<stop  offset="5.376340e-03" style="stop-color:#FFFFFF"/>
		<stop  offset="0.1516" style="stop-color:#FFFFFF"/>
		<stop  offset="1" style="stop-color:#FFFFFF"/>
	</linearGradient>
	<path id="XMLID_308_" style="opacity:0.19;fill:url(#XMLID_00000132080845428610709170000004577161455755411337_);" d="M116.6,45.4
		c-0.3,48.4-41,87.6-91.3,87.6c-8.7,0-17.1-1.2-25.1-3.4c-0.2-0.9-0.3-1.9-0.3-2.8c0-2.5,0.7-5,2-7.1L70,6.5C72.4,2.5,76.7,0,81.3,0
		c0,0,0,0,0.1,0c4.6,0,8.9,2.4,11.3,6.4L116.6,45.4z"/>
</g>
</svg>
