<?xml version="1.0" encoding="utf-8"?>
<!-- Generator: Adobe Illustrator 26.1.0, SVG Export Plug-In . SVG Version: 6.00 Build 0)  -->
<svg version="1.1" id="Camada_1" xmlns="http://www.w3.org/2000/svg" xmlns:xlink="http://www.w3.org/1999/xlink" x="0px" y="0px"
	 viewBox="0 0 127.4 127.4" style="enable-background:new 0 0 127.4 127.4;" xml:space="preserve">
<style type="text/css">
	.st0{fill:#850052;}
	.st1{fill:#FFFFFF;}
</style>
<g>
	<path class="st0" d="M0,63.7C0,28.5,28.5,0,63.7,0c35.2,0,63.7,28.5,63.7,63.7c0,35.2-28.5,63.7-63.7,63.7
		C28.5,127.4,0,98.9,0,63.7z"/>
	<path class="st1" d="M90,55h-0.2l-0.1,0c-1.5,0-2.8,0.6-3.9,1.5v-0.2c0-3.7-2.9-6.8-6.6-6.9l-0.1,0h-0.2c-1.6,0-3,0.5-4.2,1.4v-0.6
		c0-3.7-2.9-6.8-6.6-6.9l-0.1,0h-0.2c-1.8,0-3.4,0.7-4.6,1.8V20.4c0-3.7-2.9-6.8-6.6-6.9l-0.1,0h-0.2c-3.7,0-6.8,3-6.8,6.8
		l-0.3,43.4l-7.4-7.4c-1.3-1.3-3.1-2-4.9-2c-1.7,0-3.4,0.6-4.6,1.8c-1.3,1.3-2.1,3-2.1,4.8c0,1.7,0.6,3.3,1.7,4.6l20.4,31.3
		c0.6,0.8,0.8,1.8,0.8,2.8v1.8c0,3.8,3.1,6.9,6.9,6.9h24.1c3.8,0,6.9-3.1,6.9-6.9c0-2.6,0.7-5,1.9-7c2.1-3.4,3.3-7.2,3.3-10.7V61.7
		C96.8,58,93.7,55,90,55z M93.3,83.6c0,3-1.1,6.2-2.8,8.9c-1.7,2.6-2.5,5.7-2.5,8.9c0,1.9-1.5,3.4-3.4,3.4H60.4
		c-1.9,0-3.4-1.5-3.4-3.4v-1.8c0-1.7-0.5-3.3-1.4-4.7L35.1,63.2c-1.3-1.3-1.3-3.4,0.1-4.7c0.6-0.6,1.4-0.9,2.2-0.9
		c0.9,0,1.8,0.4,2.5,1l10.4,10.4c0.4,0.4,0.8,0.5,1.2,0.5c0.9,0,1.7-0.7,1.7-1.7l0.4-47.6c0-1.8,1.5-3.3,3.3-3.3h0.1
		c1.8,0.1,3.2,1.6,3.2,3.4v30.9c0,1.3,1.1,2.4,2.4,2.4c1.3,0,2.4-1.1,2.4-2.4V50c0-1.8,1.5-3.3,3.3-3.3h0.1c1.8,0.1,3.2,1.6,3.2,3.4
		v8.8c0,1.2,1,2.2,2.2,2.2c1.2,0,2.2-1,2.2-2.2v-2.8c0-1.8,1.5-3.3,3.3-3.3h0.1c1.8,0.1,3.2,1.6,3.2,3.4v7.5c0,1.2,1,2.2,2.2,2.2
		c1.2,0,2.2-1,2.2-2.2v-1.8c0-1.8,1.4-3.4,3.2-3.4H90c1.8,0,3.3,1.5,3.3,3.3V83.6z"/>
</g>
</svg>
