<svg xmlns="http://www.w3.org/2000/svg" width="1377.507" height="203.994" viewBox="0 0 1377.507 203.994">
  <path id="Caminho_12" data-name="Caminho 12" d="M1727.525,2327.094l-44.048-76.293a25.63,25.63,0,0,0-22.2-12.816H1353.418v2.559a25.6,25.6,0,0,0-11.15-2.559H661.929v.02c-.206,0-.41-.02-.617-.02H353.451v203.994H661.312c.207,0,.411-.016.617-.021v.021h680.339a25.6,25.6,0,0,0,11.15-2.559v2.559h307.861a25.63,25.63,0,0,0,22.2-12.816l44.048-76.293a25.909,25.909,0,0,0,0-25.776Z" transform="translate(-353.451 -2237.985)" fill="#fff"/>
</svg>
