<svg xmlns="http://www.w3.org/2000/svg" width="65.765" height="91.554" viewBox="0 0 65.765 91.554">
  <g id="Grupo_3" data-name="Grupo 3" transform="translate(-728.668 -2453.529)">
    <path id="Caminho_6" data-name="Caminho 6" d="M766.122,2487.161a4.026,4.026,0,0,0-4.026-4.026h-.29a5.11,5.11,0,0,0-5.112,5.109l-.216,6.894L756,2510.327c-.109.468-.171,11.028-.171,11.028-.893-.91-1.887-1.951-2.779-2.947a15,15,0,0,0-8.461-4.182,4.218,4.218,0,0,0-3.046.542,6.419,6.419,0,0,0-.632.553c-1.314,1.294-2.306,3.384-1.388,4.916a5.249,5.249,0,0,0,1.8,1.579,12.674,12.674,0,0,1,3.79,2.846c2.034,2.6,6.745,8.421,9.64,11.527.6.374,1.877,1.646,2.479,1.968a22.531,22.531,0,0,1,3.837,2.861,22.012,22.012,0,0,0,12.316,4.058c4.058,0,7.744.243,10.469-2.154H784l.071-.181a13.46,13.46,0,0,0,4.495-9.946V2514.2c0-.912-.2-3.967-2.769-4.884a4.547,4.547,0,0,0-3.4.157l-.233.01-.072,0a3.9,3.9,0,0,0-3.212-3.049,5.379,5.379,0,0,0-4.2.853,4.419,4.419,0,0,0-4.722-2.511,5.481,5.481,0,0,0-3.837,2.055v-19.675Z" fill="#fff"/>
    <path id="Caminho_7" data-name="Caminho 7" d="M784.738,2503.326l2.062,2.3a.944.944,0,0,0,1.465-.064,32.862,32.862,0,0,0-26.715-52.028,34.022,34.022,0,0,0-3.753.209,32.865,32.865,0,0,0-22.965,51.819.947.947,0,0,0,1.468.067l2.06-2.293a.939.939,0,0,0,.067-1.165,28,28,0,1,1,46.239-.005A.941.941,0,0,0,784.738,2503.326Z" fill="#fff"/>
    <path id="Caminho_8" data-name="Caminho 8" d="M775.494,2493.039l2.184,2.429a.951.951,0,0,0,1.557-.211,19.5,19.5,0,0,0,2.105-8.845,19.79,19.79,0,1,0-39.579,0,19.512,19.512,0,0,0,2.1,8.845.954.954,0,0,0,1.56.211l2.181-2.429a.949.949,0,0,0,.164-1,14.788,14.788,0,0,1-1.121-5.63,14.9,14.9,0,1,1,28.686,5.63A.947.947,0,0,0,775.494,2493.039Z" fill="#fff"/>
  </g>
</svg>
