<svg xmlns="http://www.w3.org/2000/svg" width="224.229" height="134.946" viewBox="0 0 224.229 134.946">
  <g id="Grupo_2" data-name="Grupo 2" transform="translate(-848 -473)">
    <g id="Grupo_1" data-name="Grupo 1" transform="translate(449.606 -5424.886)">
      <path id="Caminho_1" data-name="Caminho 1" d="M620.686,5956.833l-24.851-50.469c-2.584-5.246-7.358-8.478-12.524-8.478H398.394v134.946H583.311c5.166,0,9.94-3.232,12.524-8.478l24.851-50.469a19.732,19.732,0,0,0,0-17.052" fill="#003865"/>
      <path id="Caminho_2" data-name="Caminho 2" d="M541.162,5930.406a16.183,16.183,0,1,0-24.086,14.118l.336-10.735a7.965,7.965,0,0,1,7.968-7.961h.447a6.273,6.273,0,0,1,6.274,6.271v12.826a16.171,16.171,0,0,0,9.061-14.519" fill="#68cfdc"/>
      <path id="Caminho_3" data-name="Caminho 3" d="M532.1,5932.1a6.273,6.273,0,0,0-6.274-6.271h-.447a7.964,7.964,0,0,0-7.967,7.961l-.336,10.734-.742,23.663c-.169.728-.273,17.177-.273,17.177-1.385-1.415-2.932-3.033-4.327-4.587-3.247-3.623-9.21-6.064-13.176-6.513a6.531,6.531,0,0,0-4.743.844,10.377,10.377,0,0,0-.994.858c-2.039,2.017-3.587,5.274-2.159,7.66a8.274,8.274,0,0,0,2.806,2.46c1.5.971,4.018,2.02,5.9,4.432,3.179,4.053,10.515,13.118,15.025,17.957.932.583,2.92,2.565,3.858,3.067a34.868,34.868,0,0,1,5.98,4.457,29.1,29.1,0,0,0,4.355,2.629c3.01,1.91,8.5,3.69,14.827,3.69s12.062.38,16.306-3.353h.237l.1-.285a20.933,20.933,0,0,0,7-15.491v-28.965c0-1.424-.311-6.18-4.313-7.611a7.08,7.08,0,0,0-5.286.243l-.366.019-.113.007a6.069,6.069,0,0,0-5-4.749,8.377,8.377,0,0,0-6.549,1.327c-1.289-2.765-3.872-4.206-7.359-3.914a8.553,8.553,0,0,0-5.979,3.205V5932.1Z" fill="#fff"/>
      <path id="Caminho_4" data-name="Caminho 4" d="M430.22,5934.132c-1.347-1.146-2.528-2.146-3.373-2.858-.421-.36-.758-.645-.991-.842l-.265-.227-.07-.058-.014-.009,0-.008H425.5l0,0a5.669,5.669,0,0,1-.012-8.637l17.841-15.212a1.134,1.134,0,0,1,1.6.129l5.878,6.9a1.13,1.13,0,0,1-.131,1.6l-6.168,5.26,36.66,0a1.127,1.127,0,0,1,1.133,1.133v9.061a1.143,1.143,0,0,1-.33.8,1.128,1.128,0,0,1-.8.33H444.6c.964.826,1.893,1.622,2.715,2.328.878.751,1.642,1.411,2.244,1.939.3.262.563.492.78.686s.4.36.593.548a1.126,1.126,0,0,1,.029,1.6l-6.3,6.518a1.137,1.137,0,0,1-1.576.048l-.294-.269.006.006c-.664-.589-2.124-1.855-3.878-3.357-2.642-2.266-6-5.121-8.7-7.407" fill="#fff"/>
    </g>
  </g>
</svg>
