<svg xmlns="http://www.w3.org/2000/svg" width="136.32" height="140.362" viewBox="0 0 136.32 140.362">
  <g id="Grupo_4" data-name="Grupo 4" transform="translate(-496.303 -6979.852)">
    <g id="Grupo_3" data-name="Grupo 3">
      <path id="Caminho_5" data-name="Caminho 5" d="M632.517,7115.365l-8.123-35.278a68.371,68.371,0,1,0-30.686,29.276l33.764,10.662a3.953,3.953,0,0,0,5.045-4.66" fill="#3c1053"/>
      <path id="Caminho_6" data-name="Caminho 6" d="M557.441,7057.089l-2.136-31.977q-.6-9.346-.6-13.419,0-5.539,2.9-8.645a9.98,9.98,0,0,1,7.644-3.1q5.74,0,7.677,3.973t1.936,11.449a87.46,87.46,0,0,1-.468,8.946l-2.87,32.911a25.82,25.82,0,0,1-2,9.013,5.247,5.247,0,0,1-5.074,3.138,5.049,5.049,0,0,1-5.007-3.038,30.225,30.225,0,0,1-2-9.246" fill="#fff"/>
    </g>
    <path id="Caminho_7" data-name="Caminho 7" d="M564.851,7096.7a10.5,10.5,0,0,1-7.11-2.637,9.246,9.246,0,0,1-3.037-7.377,9.915,9.915,0,0,1,10.014-9.947,9.89,9.89,0,0,1,7.176,2.9,9.486,9.486,0,0,1,2.971,7.043,9.32,9.32,0,0,1-3,7.344,10.228,10.228,0,0,1-7.01,2.67" fill="#fff"/>
  </g>
</svg>
