<?xml version="1.0" encoding="utf-8"?>
<!-- Generator: Adobe Illustrator 26.1.0, SVG Export Plug-In . SVG Version: 6.00 Build 0)  -->
<svg version="1.1" id="Camada_1" xmlns="http://www.w3.org/2000/svg" xmlns:xlink="http://www.w3.org/1999/xlink" x="0px" y="0px"
	 viewBox="0 0 113.1 113" style="enable-background:new 0 0 113.1 113;" xml:space="preserve">
<style type="text/css">
	.st0{fill:#EB0088;}
</style>
<path class="st0" d="M58.7,58.4c-0.4,0.6-1.2,1-1.9,1.1c-0.8,0-1.5-0.3-2-0.9c-7.5-8.6-16.6-13.8-27-15.2c-1.1-0.2-2.3-0.3-3.5-0.3
	c-0.3,0-0.6,0.1-0.7,0.4c-0.1,0.3-0.1,0.6,0.2,0.8c7.4,7.1,21.2,22.5,30.2,45c0.1,0.2,0.3,0.4,0.6,0.4c0,0,0,0,0.1,0
	c0.2,0,0.4-0.1,0.6-0.3c15.7-23.5,36.6-53,59.9-73.1c0.3-0.2,0.3-0.6,0.1-0.9c-0.2-0.3-0.5-0.4-0.9-0.3C79,30.2,60.7,55.6,58.7,58.4
	z"/>
<path class="st0" d="M97.5,95.5c8.4-8.8,13.7-19.9,15.1-32.1c1.5-12.1-0.9-24-6.9-34.6c-0.1-0.2-0.3-0.3-0.5-0.3
	c-0.2,0-0.4,0-0.6,0.2c-3.1,2.9-6.2,6.2-9.4,9.8c-0.2,0.2-0.2,0.5-0.1,0.7c3.5,7.6,4.6,16,3.2,24.3c-1.8,11.1-7.9,20.8-17,27.3
	c-7.1,5.1-15.6,7.8-24.3,7.8h-0.1c-1.6,0-3.2-0.1-4.8-0.3C40.3,97,29.6,90.7,22.7,81.1c-13.5-18.9-9.1-45.2,9.8-58.7
	c7.2-5.1,15.6-7.8,24.3-7.9h0.1c1.6,0,3.2,0.1,4.8,0.3c9.6,1.1,18.7,5.6,25.4,12.6c0.2,0.2,0.6,0.3,0.9,0.1
	c3.6-2.4,7.4-4.6,11.3-6.5c0.2-0.1,0.3-0.3,0.4-0.5c0-0.2,0-0.4-0.2-0.6C90.3,9,77.3,2,63,0.4C60.8,0.1,58.7,0,56.5,0l-0.2,0
	C44.6,0,33.3,3.7,23.7,10.6C11.4,19.3,3.3,32.4,0.8,47.3c-2.5,14.9,1,29.9,9.8,42.1c9.3,12.9,23.7,21.4,39.5,23.3
	c2.2,0.2,4.3,0.4,6.5,0.4h0.1c8.3,0,16.4-1.8,23.9-5.4c3.1-1.5,6.1-3.2,8.8-5.2C92.3,100.5,95,98.1,97.5,95.5z"/>
</svg>
