<?xml version="1.0" encoding="utf-8"?>
<!-- Generator: Adobe Illustrator 26.1.0, SVG Export Plug-In . SVG Version: 6.00 Build 0)  -->
<svg version="1.1" id="Camada_1" xmlns="http://www.w3.org/2000/svg" xmlns:xlink="http://www.w3.org/1999/xlink" x="0px" y="0px"
	 viewBox="0 0 302.4 170.3" style="enable-background:new 0 0 302.4 170.3;" xml:space="preserve">
<style type="text/css">
	.st0{fill:#EB0088;}
	.st1{fill:#FFFFFF;}
	.st2{fill:#231F20;}
</style>
<g>
	<path class="st0" d="M284.3,0H18.1C8.2,0,0,8,0,17.8v67.3c0,9.8,8.2,17.8,18.1,17.8h266.2c10,0,18.1-8,18.1-17.8V17.8
		C302.4,8,294.3,0,284.3,0z"/>
	<g>
		<g>
			<path class="st1" d="M110.5,125.4L110.5,125.4l-11.2-24.2c-1.6-3.5-5.2-5.4-7.9-4.2c-2.8,1.2-3.7,5-2.1,8.5l2.2,4.8l-0.2,0.1
				l-3.2-6.9c-1.6-3.5-5.4-5.3-8.4-4.1h0c-3,1.2-4.1,5-2.5,8.5l3.1,6.6l-0.3,0.1l-4.4-9.1c-1.7-3.4-5.4-5.2-8.4-3.8l0,0
				c-2.9,1.3-4,5.2-2.3,8.7l2.5,5.2L52.8,89.8c-1.8-3.1-5.6-4.3-8.4-2.7l0,0c-2.8,1.6-3.7,5.5-1.9,8.6L68.2,141l-8.3-6.5
				c-3-2.3-6.8-1.9-8.4,0.9l0,0c-1.7,2.8-0.6,7,2.4,9.3l20,16c9.1,8.1,21.1,10.5,30.3,5.2C116.4,158.9,119.3,140.7,110.5,125.4z"/>
			<path class="st2" d="M93.3,170.3C93.3,170.3,93.3,170.3,93.3,170.3c-7.1,0-14.4-3-20.5-8.4l-19.9-16c-3.5-2.7-4.8-7.8-2.7-11.2
				c1.2-2,3.2-3.2,5.6-3.2c1.7,0,3.5,0.6,5,1.8l2.3,1.8l-22-38.7c-1-1.8-1.4-3.9-0.9-5.9c0.5-2,1.7-3.7,3.4-4.7
				c1.1-0.6,2.3-0.9,3.5-0.9c2.8,0,5.5,1.6,6.9,4.1l8.8,15.5c0-0.1,0.1-0.2,0.1-0.4c0.6-1.8,1.9-3.2,3.5-3.9
				c0.9-0.4,1.8-0.6,2.7-0.6c2.2,0,4.3,1,5.9,2.7c0.1-0.2,0.1-0.4,0.2-0.6c0.7-1.7,2-3.1,3.7-3.8c0.8-0.3,1.6-0.5,2.5-0.5
				c2.1,0,4.1,0.9,5.7,2.4c0.1-0.3,0.2-0.5,0.2-0.8c0.6-1.6,1.8-2.9,3.3-3.5c0.7-0.3,1.5-0.5,2.4-0.5c3,0,6.1,2.2,7.5,5.4l11,23.9
				c0,0.1,0.1,0.1,0.1,0.2c4.4,7.7,6.2,16.3,4.9,24.3c-1.3,8.1-5.5,14.6-11.9,18.2C101.4,169.3,97.5,170.3,93.3,170.3z M55.8,134.5
				c-1.3,0-2.4,0.6-3,1.7c-1.3,2.2-0.4,5.5,2,7.3l20,16c0,0,0,0,0.1,0c5.6,4.9,12.1,7.6,18.5,7.6c0,0,0,0,0,0c3.6,0,7-0.9,10.1-2.6
				c5.6-3.2,9.2-8.9,10.4-16.1c1.1-7.2-0.4-15-4.4-22.1c-0.1-0.1-0.2-0.2-0.3-0.4l-11.2-24.3c-1-2.1-3-3.6-4.8-3.6
				c-0.4,0-0.8,0.1-1.2,0.2c-0.9,0.4-1.4,1.2-1.7,1.8c-0.5,1.3-0.4,3.1,0.3,4.6l2.2,4.8c0.2,0.4,0.2,0.8,0,1.2
				c-0.2,0.4-0.5,0.7-0.9,0.8l-0.2,0.1c-0.7,0.3-1.6-0.1-1.9-0.8l-3.2-6.9c-1-2.1-3.1-3.6-5.1-3.6c-0.5,0-1,0.1-1.4,0.3
				c-1.1,0.5-1.7,1.4-2,2.1c-0.5,1.3-0.4,2.9,0.3,4.4l3.1,6.6c0.2,0.4,0.2,0.8,0,1.2c-0.2,0.4-0.5,0.7-0.9,0.8l-0.3,0.1
				c-0.7,0.3-1.5-0.1-1.9-0.8l-4.4-9.1c-1-2.1-3-3.4-4.9-3.4c-0.5,0-1,0.1-1.5,0.3c-1.1,0.5-1.7,1.5-1.9,2.2c-0.5,1.4-0.4,3,0.4,4.5
				l2.5,5.2c0.4,0.7,0.1,1.6-0.7,2c-0.7,0.4-1.6,0.1-2-0.6L51.5,90.5c-0.9-1.6-2.6-2.6-4.3-2.6c-0.7,0-1.4,0.2-2,0.5
				c-1,0.6-1.7,1.6-2,2.8c-0.3,1.3-0.1,2.6,0.6,3.8l25.8,45.3c0.4,0.6,0.2,1.4-0.3,1.9c-0.5,0.5-1.3,0.5-1.9,0.1l-8.3-6.5
				C58,135,56.9,134.5,55.8,134.5z"/>
		</g>
		<g>
			<path class="st2" d="M35.7,68.8c-0.6,0.3-0.9,1-0.6,1.7l3.9,8c0.3,0.6,1,0.9,1.7,0.6c0.6-0.3,0.9-1,0.6-1.7l-3.9-8
				C37,68.7,36.3,68.5,35.7,68.8z"/>
			<g>
				<path class="st2" d="M49.6,67.8c-0.7-0.2-1.4,0.2-1.6,0.8l-2.6,8.5c-0.2,0.7,0.2,1.4,0.8,1.6c0.7,0.2,1.4-0.2,1.6-0.8l2.6-8.5
					C50.6,68.7,50.2,68,49.6,67.8z"/>
				<path class="st2" d="M59.4,76.4c-0.4-0.6-1.1-0.7-1.7-0.4l-7.5,4.9c-0.6,0.4-0.7,1.1-0.4,1.7c0.4,0.6,1.1,0.7,1.7,0.4l7.5-4.9
					C59.6,77.8,59.8,77,59.4,76.4z"/>
			</g>
			<g>
				<path class="st2" d="M25.1,78.6c0.3-0.6,1-0.9,1.6-0.7l8.3,3.3c0.6,0.3,0.9,1,0.7,1.6c-0.3,0.6-1,0.9-1.6,0.7l-8.3-3.3
					C25.2,79.9,24.9,79.2,25.1,78.6z"/>
				<path class="st2" d="M25.7,91.6c-0.2-0.6,0.1-1.4,0.8-1.6l8.5-2.8c0.6-0.2,1.4,0.1,1.6,0.8c0.2,0.6-0.1,1.4-0.8,1.6l-8.5,2.8
					C26.6,92.6,25.9,92.3,25.7,91.6z"/>
			</g>
		</g>
	</g>
	<g>
		<path class="st1" d="M152.6,30.8c1.6,1.4,2.7,3.2,3.5,5.2c0.7,2,1,4,0.9,6c-0.2,1.9-0.8,3.6-1.8,5.2c-1,1.6-2.6,2.8-4.7,3.6
			c-1.6,0.7-3.3,1.2-4.9,1.5c-1.6,0.3-3.4,0.5-5.3,0.7c-0.9,0.1-1.6,0.1-2.2,0.2c-0.6,0-1.3,0.1-2.1,0.1c-0.2,0-0.4,0-0.8,0
			c-0.4,0-0.7,0-0.8,0.1v12.8c-0.1,0.8-0.3,1.6-0.5,2.4c-0.2,0.8-0.7,1.5-1.5,1.9c-0.5,0.2-1,0.4-1.7,0.4c-0.7,0-1.3,0-1.8-0.1
			c-0.6-0.1-1.1-0.2-1.5-0.5c-0.4-0.2-0.7-0.6-1-1.2c-0.2-0.4-0.3-0.8-0.5-1.3c-0.1-0.5-0.2-1.1-0.2-1.8V31.9c0-0.3,0-0.6,0.1-0.8
			c0-0.2,0.1-0.5,0.1-0.7c0.1-0.2,0.1-0.4,0.2-0.7c0-0.2,0.1-0.5,0.2-0.7c0.1-0.2,0.2-0.4,0.3-0.6c0.1-0.2,0.2-0.3,0.4-0.4
			c0.2-0.2,0.5-0.4,1-0.6c0.4-0.2,1.1-0.2,1.9-0.2h0.1c1.3-0.1,2.7-0.2,4.3-0.2c1.6-0.1,2.9,0,3.9,0.1c0.6,0.1,1.1,0.1,1.6,0.2
			c0.5,0,1,0.1,1.4,0.1c0.5,0,1,0.1,1.5,0.1c0.5,0,1,0.1,1.5,0.2c0.4,0.1,0.8,0.1,1.1,0.2c0.3,0,0.7,0.1,1.1,0.2
			c0.3,0.1,0.7,0.2,1.1,0.2c0.4,0.1,0.8,0.2,1.1,0.4c0.9,0.2,1.6,0.6,2.2,0.9C151.4,30,152,30.4,152.6,30.8z M148.9,41
			c0-1-0.2-1.9-0.6-2.6c-0.4-0.7-1-1.4-1.8-1.9c-0.8-0.5-1.7-0.9-2.7-1.2c-1-0.3-2-0.5-3-0.6c-0.2,0-0.6,0-1,0c-0.4,0-0.9,0-1.4-0.1
			c-0.5,0-1,0-1.4-0.1c-0.4,0-0.8,0-1,0c-0.2,0-0.5-0.1-0.7-0.1c-0.3,0-0.6,0-1,0c0,1.3,0.1,2.5,0.1,3.7c0,1.2,0,2.4,0,3.8
			c0,0.7-0.1,1.5-0.1,2.2c0,0.7,0,1.5,0,2.2l3.8-0.1c1,0,2.1-0.1,3.3-0.2c1.2-0.1,2.3-0.4,3.4-0.7c1.1-0.4,2-0.9,2.8-1.6
			C148.3,43.1,148.7,42.2,148.9,41z"/>
		<path class="st1" d="M190.5,66c0.1,0.2,0.1,0.5,0.1,0.9c0,0.4,0,0.7,0,1c0,0.3-0.1,0.6-0.2,0.9c-0.1,0.3-0.3,0.6-0.5,0.8
			c-0.4,0.5-0.9,0.9-1.6,1.1c-1,0.3-1.9,0.5-2.8,0.5c-0.5,0-0.9,0.1-1.4,0.1s-1,0-1.5,0.1h-0.2c-3.2,0-6.4,0-9.8,0
			c-0.8,0-1.8,0-2.8,0c-1,0.1-2,0-3-0.1c-1-0.1-1.9-0.4-2.7-0.7c-0.8-0.4-1.4-1-1.7-1.9c-0.1-0.2-0.1-0.4-0.2-0.6
			c0-0.2-0.1-0.4-0.1-0.6c-0.2-1.4-0.2-2.8-0.2-4.1c0-1.4,0.1-2.7,0.1-4l0.1-9v-8.3c0-1.5,0-2.8,0-4c0-1.2,0.1-2.4,0.1-3.8V34
			c0-0.4,0.1-0.8,0.1-1.2c0-0.4,0-0.8,0-1.2c0.1-0.9,0.3-1.8,0.7-2.4c0.2-0.6,0.7-1.1,1.3-1.5c0.5-0.4,1.2-0.6,1.9-0.6
			c0.3,0,0.6,0,0.8,0c0.3,0,0.5,0.1,0.8,0.1c0.2,0,0.5,0.1,0.7,0.2c0.2,0.1,0.5,0.3,0.7,0.5c0.2,0.3,0.5,0.6,0.7,1.1
			c0.2,0.5,0.3,0.9,0.3,1.4c0,0.3,0.1,0.6,0.1,0.8c0,0.2,0.1,0.5,0.1,0.7c-0.1,0.2-0.1,0.5-0.1,0.7c0,0.2,0,0.5,0,0.7v1.1l-0.2,29.1
			l12.2,0.1h2.9c0.2,0,0.5,0,0.8,0c0.3,0,0.6,0.1,0.9,0.1c0.3,0,0.6,0.1,0.9,0.1c0.2,0,0.5,0.1,0.7,0.2c0.5,0.1,0.8,0.3,1.1,0.6
			C190.1,65.2,190.4,65.6,190.5,66z"/>
		<path class="st1" d="M233.7,66.5c0,0.2,0.1,0.5,0.1,0.7c0,0.2,0,0.5,0,0.8c0,0.5-0.1,0.9-0.4,1.4c-0.1,0.2-0.3,0.4-0.5,0.6
			c-0.2,0.2-0.5,0.3-0.7,0.5c-1,0.6-2.1,0.8-3.3,0.6c-0.6-0.2-1.1-0.4-1.5-0.8c-0.1-0.1-0.1-0.1-0.2-0.2c0,0-0.1-0.1-0.1-0.2
			c0,0-0.1-0.1-0.1-0.2c0-0.1-0.1-0.1-0.2-0.2c-0.2-0.2-0.4-0.4-0.5-0.6c-0.1-0.2-0.2-0.4-0.4-0.6c-0.1-0.2-0.2-0.4-0.3-0.6
			c-0.1-0.2-0.2-0.4-0.3-0.6c-0.1-0.2-0.2-0.3-0.2-0.5c-0.1-0.1-0.1-0.3-0.2-0.5c-0.2-0.4-0.3-0.7-0.3-1l-1.3-3c-2.8,0-5.7,0-8.5,0
			c-2.8,0-5.7,0-8.5,0l-1.3,3c-0.1,0.2-0.1,0.3-0.2,0.5c0,0.2-0.1,0.3-0.2,0.5c-0.1,0.2-0.2,0.3-0.2,0.5c-0.1,0.1-0.1,0.3-0.2,0.5
			c-0.1,0.2-0.2,0.4-0.3,0.6c-0.1,0.2-0.2,0.4-0.3,0.6c-0.1,0.2-0.2,0.4-0.3,0.6c-0.1,0.2-0.3,0.4-0.5,0.6c-0.1,0-0.1,0.1-0.2,0.2
			c0,0.1-0.1,0.1-0.1,0.2c0,0.1-0.1,0.1-0.1,0.2c0,0-0.1,0.1-0.2,0.2c-0.5,0.4-1,0.6-1.5,0.8c-1.2,0.2-2.2,0-3.3-0.6
			c-0.3-0.1-0.5-0.3-0.7-0.5c-0.2-0.2-0.4-0.4-0.5-0.6c-0.3-0.4-0.4-0.9-0.4-1.4c0-0.3,0-0.5,0-0.8c0-0.2,0.1-0.5,0.1-0.7
			c0.1-0.4,0.2-0.7,0.3-1.1l0.2-0.6l12.9-31.6l0.4-1c0.1-0.2,0.2-0.5,0.3-0.7c0.1-0.2,0.2-0.5,0.3-0.7c0.2-0.5,0.4-1,0.7-1.4
			c0.1-0.2,0.3-0.5,0.4-0.7c0.2-0.2,0.3-0.4,0.5-0.6c0.2-0.3,0.6-0.6,1.1-0.8c0.6-0.2,1.2-0.3,2-0.3c0.8,0,1.4,0.1,2,0.3
			c0.5,0.2,0.8,0.5,1.1,0.8c0.3,0.4,0.6,0.8,0.9,1.3c0.2,0.4,0.5,0.9,0.7,1.4c0.1,0.3,0.2,0.5,0.3,0.7c0.1,0.2,0.2,0.4,0.3,0.7
			l0.4,1l12.9,31.6l0.2,0.6C233.5,65.8,233.6,66.1,233.7,66.5z M219.1,51.3c-0.5-1.2-1.1-2.4-1.6-3.7c-0.6-1.3-1.1-2.6-1.8-3.9
			c-0.2-0.4-0.3-0.8-0.5-1.1c-0.2-0.4-0.3-0.8-0.5-1.1c-0.1,0.4-0.3,0.8-0.4,1.1c-0.2,0.4-0.3,0.8-0.5,1.1c-0.6,1.3-1.2,2.6-1.8,3.9
			c-0.6,1.3-1.1,2.5-1.6,3.7l-1.1,2.7h10.9L219.1,51.3z"/>
		<path class="st1" d="M265.9,29.6c0,0.2,0.1,0.4,0,0.6c0,0.2-0.1,0.4-0.2,0.7c-0.2,0.6-0.4,1.1-0.6,1.5c-0.2,0.6-0.6,1.1-0.9,1.5
			c-0.2,0.2-0.3,0.5-0.5,0.7c-0.1,0.2-0.3,0.4-0.4,0.6l-0.8,1.1l-7.9,11.4l-1.4,1.8V66c-0.1,0.2-0.1,0.4-0.1,0.6
			c0,0.2,0,0.4-0.1,0.7c-0.1,0.2-0.1,0.4-0.2,0.6c0,0.2-0.1,0.4-0.2,0.6c-0.1,0.2-0.1,0.3-0.1,0.4c0,0.1-0.1,0.1-0.1,0.2
			c0,0-0.1,0.1-0.1,0.2c-0.2,0.4-0.6,0.8-1.1,1.1c-0.9,0.5-1.9,0.6-3.1,0.3c-0.7-0.1-1.2-0.3-1.5-0.6c-0.2-0.1-0.4-0.3-0.5-0.4
			c-0.1-0.2-0.2-0.3-0.4-0.6c-0.1-0.2-0.2-0.5-0.2-0.7c-0.1-0.2-0.1-0.4-0.2-0.6c-0.1-0.2-0.1-0.4-0.1-0.6c0-0.2,0-0.4,0-0.5V49.7
			l-1.4-2.1l-8-11.4l-0.7-1.1c-0.2-0.4-0.6-0.8-0.9-1.3c-0.3-0.5-0.6-0.9-0.9-1.5c-0.2-0.2-0.3-0.5-0.4-0.8
			c-0.1-0.3-0.2-0.5-0.3-0.8c-0.1-0.4-0.1-0.8-0.1-1.2c0.1-0.5,0.4-1,0.7-1.4c0.4-0.4,0.8-0.7,1.3-0.9c0.6-0.4,1.2-0.6,2-0.5
			c0.5,0,0.8,0.1,1.2,0.2c0.3,0.2,0.7,0.4,1,0.6c0.4,0.3,0.7,0.6,1.1,0.9c0.3,0.3,0.7,0.7,1,1.1c0.3,0.4,0.6,0.8,0.9,1.1
			c0.3,0.4,0.6,0.8,0.9,1.2l0.2,0.2c1,1.3,1.9,2.6,2.8,3.8c0.9,1.2,1.8,2.5,2.7,3.9c0.1,0.1,0.2,0.2,0.4,0.5
			c0.2,0.2,0.3,0.5,0.6,0.9c0.2-0.3,0.3-0.5,0.5-0.8c0.1-0.2,0.3-0.4,0.3-0.5c0.9-1.4,1.9-2.7,2.7-4c0.9-1.2,1.8-2.5,2.8-3.8
			l0.1-0.2c0.3-0.4,0.6-0.8,0.9-1.1c0.3-0.4,0.6-0.8,0.9-1.2c0.5-0.7,1.3-1.4,2.2-1.9c0.7-0.5,1.3-0.7,2-0.9c0.8-0.1,1.5,0.1,2,0.5
			c0.2,0.2,0.5,0.3,0.7,0.4c0.2,0.1,0.4,0.3,0.6,0.4C265.4,28.6,265.7,29.1,265.9,29.6z"/>
	</g>
	<g>
		<circle class="st1" cx="66.1" cy="50" r="35.2"/>
		<g>
			<g>
				<path class="st0" d="M53.5,31.2v37.5c0,2.9,3.2,4.6,5.6,3L87.1,53c2.1-1.4,2.1-4.6,0-6L59.1,28.2C56.7,26.6,53.5,28.3,53.5,31.2
					z"/>
			</g>
		</g>
	</g>
</g>
</svg>
