<svg xmlns="http://www.w3.org/2000/svg"
  xmlns:xlink="http://www.w3.org/1999/xlink" width="129.303" height="129.305" viewBox="0 0 129.303 129.305">
  <defs>
    <clipPath id="clip-path">
      <path id="Caminho_89" data-name="Caminho 89" d="M1427.788,1668.665a64.651,64.651,0,1,0,121.5-30.76l-8.3,8.3a53.561,53.561,0,1,1-21.2-23.5l8.087-8.086a64.618,64.618,0,0,0-100.09,54.047" fill="none"/>
    </clipPath>
    <linearGradient id="linear-gradient" x1="-11.042" y1="80.718" x2="-11.034" y2="80.718" gradientUnits="objectBoundingBox">
      <stop offset="0" stop-color="#f84c3e"/>
      <stop offset="0.04" stop-color="#f84c3e"/>
      <stop offset="0.192" stop-color="#f84c3e"/>
      <stop offset="0.406" stop-color="#f84c3e"/>
      <stop offset="1" stop-color="#f84c3e"/>
    </linearGradient>
    <clipPath id="clip-path-2">
      <path id="Caminho_90" data-name="Caminho 90" d="M1495.785,1654.6l-26.315-26.312-14.46,14.46,26.312,26.312-22.359,22.362,14.46,14.46,22.362-22.359,21.758,21.759,14.46-14.46-21.758-21.762,46.8-46.794-14.46-14.46Z" fill="none"/>
    </clipPath>
    <linearGradient id="linear-gradient-2" x1="-14.261" y1="106.379" x2="-14.251" y2="106.379" xlink:href="#linear-gradient"/>
  </defs>
  <g id="Grupo_29" data-name="Grupo 29" transform="translate(-1427.788 -1604.011)">
    <g id="Grupo_26" data-name="Grupo 26">
      <g id="Grupo_25" data-name="Grupo 25" clip-path="url(#clip-path)">
        <rect id="Ret창ngulo_7" data-name="Ret창ngulo 7" width="129.303" height="129.305" transform="translate(1427.788 1604.012)" fill="url(#linear-gradient)"/>
      </g>
    </g>
    <g id="Grupo_28" data-name="Grupo 28">
      <g id="Grupo_27" data-name="Grupo 27" clip-path="url(#clip-path-2)">
        <rect id="Ret창ngulo_8" data-name="Ret창ngulo 8" width="102.03" height="98.077" transform="translate(1455.01 1607.804)" fill="url(#linear-gradient-2)"/>
      </g>
    </g>
  </g>
</svg>
