<svg xmlns="http://www.w3.org/2000/svg" width="224.229" height="134.944" viewBox="0 0 224.229 134.944">
  <g id="Grupo_1" data-name="Grupo 1" transform="translate(-208.298 -864.559)">
    <path id="Caminho_1" data-name="Caminho 1" d="M430.59,923.5l-24.851-50.469c-2.584-5.246-7.358-8.476-12.524-8.476H208.3V999.5H393.215c5.166,0,9.94-3.231,12.524-8.478l24.851-50.468a19.735,19.735,0,0,0,0-17.053" fill="#003865"/>
    <path id="Caminho_2" data-name="Caminho 2" d="M322.989,894.162A16.184,16.184,0,1,0,298.9,908.28l.336-10.733a7.964,7.964,0,0,1,7.968-7.961h.447a6.272,6.272,0,0,1,6.274,6.269v12.828a16.174,16.174,0,0,0,9.061-14.521" fill="#68cfdc"/>
    <path id="Caminho_3" data-name="Caminho 3" d="M313.928,895.855a6.273,6.273,0,0,0-6.274-6.27h-.447a7.965,7.965,0,0,0-7.967,7.961l-.336,10.735-.741,23.662c-.17.728-.274,17.178-.274,17.178-1.385-1.415-2.932-3.035-4.327-4.588-3.247-3.623-9.21-6.064-13.176-6.513a6.53,6.53,0,0,0-4.743.845,10.209,10.209,0,0,0-.994.858c-2.039,2.016-3.587,5.274-2.159,7.659a8.273,8.273,0,0,0,2.806,2.46c1.5.971,4.018,2.021,5.9,4.433,3.179,4.053,10.515,13.117,15.025,17.957.932.583,2.92,2.564,3.858,3.066a34.937,34.937,0,0,1,5.98,4.457,29.023,29.023,0,0,0,4.355,2.629c3.01,1.91,8.5,3.691,14.827,3.691s12.062.379,16.306-3.354h.237l.1-.284a20.937,20.937,0,0,0,7-15.491V937.979c0-1.423-.311-6.179-4.313-7.609a7.083,7.083,0,0,0-5.286.242l-.366.019-.113.008a6.07,6.07,0,0,0-5-4.75,8.38,8.38,0,0,0-6.549,1.327c-1.289-2.764-3.872-4.206-7.359-3.914a8.555,8.555,0,0,0-5.979,3.205V895.855Z" fill="#fff"/>
  </g>
</svg>
