<svg xmlns="http://www.w3.org/2000/svg" width="199.556" height="185.24" viewBox="0 0 199.556 185.24">
  <g id="Grupo_921" data-name="Grupo 921" transform="translate(1513.72 -9708)">
    <path id="Caminho_4859" data-name="Caminho 4859" d="M415.581,77.776a95.143,95.143,0,0,0-6.369-20.484A96.626,96.626,0,0,0,361.256,8.539a93.5,93.5,0,0,0-97.772,12.114,95.176,95.176,0,0,0-22.329,25.7A92.532,92.532,0,0,0,229.538,78.2a91.43,91.43,0,0,0,13.422,64.8,92.658,92.658,0,0,0,22.866,24.366,91.648,91.648,0,0,0,29.891,14.588,89.016,89.016,0,0,0,32.982,2.811,90.1,90.1,0,0,0,75-56.713,91.223,91.223,0,0,1-4.909,9.778l-9.935-5.736-1.4,2.424,9.9,5.713a92.111,92.111,0,0,1-11.527,14.931,90.065,90.065,0,0,1-19.48,15.232l-5.4-9.361-2.424,1.4,5.387,9.331c-1.428.778-2.869,1.531-4.334,2.234a89.937,89.937,0,0,1-31.1,8.153q-3.084.238-6.176.248V172.145h-2.8v10.222a86.364,86.364,0,0,1-22.8-3.763,87.26,87.26,0,0,1-18.172-7.929l4.754-8.234-2.423-1.4-4.729,8.191A87.859,87.859,0,0,1,247.4,140.219c-.253-.416-.5-.837-.745-1.258l7.68-4.434-1.4-2.424-7.658,4.421a86.241,86.241,0,0,1-9.076-25.748,82.744,82.744,0,0,1-1.349-14.894h8.378v-2.8H234.9a86.37,86.37,0,0,1,1.529-13.641,85.117,85.117,0,0,1,9.893-26.4l6.623,3.824,1.4-2.423-6.582-3.8c.041-.065.08-.132.121-.2a86.9,86.9,0,0,1,20.99-22.9,85.766,85.766,0,0,1,8.49-5.677l3.5,6.057,2.423-1.4L279.8,20.492a84.62,84.62,0,0,1,16.631-6.87,81.887,81.887,0,0,1,23.073-3.3v6.5h2.8V10.366c1.561.048,3.12.134,4.674.267a83.009,83.009,0,0,1,29.416,8.179c1.707.84,3.374,1.757,5.018,2.711l-2.888,5,2.424,1.4,2.866-4.963a84.319,84.319,0,0,1,28.112,28.9l-4.463,2.576,1.4,2.424,4.436-2.562a81.76,81.76,0,0,1,8.42,23.475H389.254L398.9,94.483l9.645,16.706,9.646-16.706,9.645-16.707Z" transform="translate(-1742 9708)"/>
    <path id="Caminho_4860" data-name="Caminho 4860" d="M316.866,96.248H292.772v-.2l5.876-4.9c9.3-8.228,16.944-16.748,16.944-27.522,0-11.459-7.835-19.883-22.33-19.883-8.521,0-16.063,2.938-20.765,6.562l4.211,10.579c3.331-2.449,8.13-5.191,13.615-5.191,7.346,0,10.381,4.113,10.381,9.3-.1,7.444-6.855,14.594-20.862,27.13l-8.128,7.346v9.011h45.152Z" transform="translate(-1742 9708)"/>
    <path id="Caminho_4861" data-name="Caminho 4861" d="M364.466,93.309h7.541V82.144h-7.541V44.827H346.151l-24,38.786v9.7h28.208v15.182h14.1Zm-14.1-25.269v14.1h-14.4l.1-.2,8.423-13.908c2.155-4.016,3.918-7.738,5.975-11.851h.294c-.2,4.113-.392,8.031-.392,11.851" transform="translate(-1742 9708)"/>
    <path id="Caminho_4862" data-name="Caminho 4862" d="M277.948,143.6V122.82H280.2v8.534h8.86V122.82h2.254V143.6h-2.254v-9.8H280.2v9.8Z" transform="translate(-1742 9708)"/>
    <path id="Caminho_4863" data-name="Caminho 4863" d="M294.506,133.479q0-5.314,2.339-8.172a7.24,7.24,0,0,1,5.826-2.857,7.1,7.1,0,0,1,4.112,1.277,8.605,8.605,0,0,1,2.941,3.707,14.13,14.13,0,0,1,1.084,5.791,12.561,12.561,0,0,1-2.1,7.527,7.28,7.28,0,0,1-12.121-.085,12.22,12.22,0,0,1-2.084-7.188m2.325.036a9.341,9.341,0,0,0,1.694,5.966,5.085,5.085,0,0,0,8.279-.021q1.68-2.142,1.68-6.3a12.58,12.58,0,0,0-.865-4.795,5.9,5.9,0,0,0-2.006-2.589,4.878,4.878,0,0,0-2.927-.972,5.1,5.1,0,0,0-4.2,2.128q-1.653,2.128-1.652,6.583" transform="translate(-1742 9708)"/>
    <path id="Caminho_4864" data-name="Caminho 4864" d="M313.658,143.6V122.82h7.556a7.982,7.982,0,0,1,3.494.58,4.436,4.436,0,0,1,1.85,1.934,6.559,6.559,0,0,1,.723,3.138,5.278,5.278,0,0,1-4.791,5.667,5.826,5.826,0,0,1,1.446,1.155,14.672,14.672,0,0,1,1.772,2.651l2.976,5.656h-2.835l-2.272-4.321a27.264,27.264,0,0,0-1.994-3.416,3.9,3.9,0,0,0-1.3-1.186,4.118,4.118,0,0,0-1.763-.3h-2.605V143.6Zm2.254-11.61h4.848a5.907,5.907,0,0,0,2.41-.383,2.907,2.907,0,0,0,1.3-1.2,3.72,3.72,0,0,0,.482-1.914,3.3,3.3,0,0,0-.921-2.474,3.769,3.769,0,0,0-2.736-.9h-5.387Z" transform="translate(-1742 9708)"/>
    <path id="Caminho_4865" data-name="Caminho 4865" d="M328.982,143.6l6.572-20.782h2.411l6.979,20.782h-2.58l-1.983-6.294h-7.169L331.36,143.6Zm4.889-8.534h5.8l-1.771-5.755q-.822-2.652-1.2-4.31a30.521,30.521,0,0,1-.933,3.969Z" transform="translate(-1742 9708)"/>
    <path id="Caminho_4866" data-name="Caminho 4866" d="M345.965,136.91l2.126-.227a6.191,6.191,0,0,0,.773,2.673,4.357,4.357,0,0,0,1.722,1.538,5.4,5.4,0,0,0,2.524.581,4.567,4.567,0,0,0,3.125-.983,3.248,3.248,0,0,0,1.113-2.554,3.1,3.1,0,0,0-.4-1.605,3.047,3.047,0,0,0-1.219-1.125,22.877,22.877,0,0,0-3.523-1.24,12.412,12.412,0,0,1-3.43-1.438,5,5,0,0,1-1.588-1.836,5.465,5.465,0,0,1-.567-2.516,5.531,5.531,0,0,1,1.63-4.125,6,6,0,0,1,4.395-1.6,7.025,7.025,0,0,1,3.324.751,5.341,5.341,0,0,1,2.212,2.155,7.1,7.1,0,0,1,.843,3.3l-2.169.2a4.478,4.478,0,0,0-1.212-3.005,4.113,4.113,0,0,0-2.927-.978,4.387,4.387,0,0,0-2.921.858,2.777,2.777,0,0,0-1.006,2.217,2.553,2.553,0,0,0,.738,1.956,8.773,8.773,0,0,0,3.315,1.407,21.733,21.733,0,0,1,3.543,1.211,5.742,5.742,0,0,1,2.354,2.093,5.8,5.8,0,0,1,.8,3.094,6.448,6.448,0,0,1-.836,3.25,5.622,5.622,0,0,1-2.275,2.23,7.3,7.3,0,0,1-3.466.765,6.766,6.766,0,0,1-5.04-1.9,7.236,7.236,0,0,1-1.949-5.146" transform="translate(-1742 9708)"/>
  </g>
</svg>
