<?xml version="1.0" encoding="utf-8"?>
<!-- Generator: Adobe Illustrator 26.1.0, SVG Export Plug-In . SVG Version: 6.00 Build 0)  -->
<svg version="1.1" id="Camada_1" xmlns="http://www.w3.org/2000/svg" xmlns:xlink="http://www.w3.org/1999/xlink" x="0px" y="0px"
	 viewBox="0 0 114.2 118.9" style="enable-background:new 0 0 114.2 118.9;" xml:space="preserve">
<style type="text/css">
	.st0{fill:#8E9C28;}
</style>
<g>
	<path class="st0" d="M52.4,51.9c0.2,0.2,0.6,0.4,0.9,0.4c0.2,0,0.3,0,0.5-0.1c0.5-0.2,0.8-0.6,0.8-1.1V1.2C54.5,0.6,54,0,53.3,0
		C39.9,0,27.3,5.1,17.7,14.4c-0.5,0.5-0.5,1.3,0,1.7L52.4,51.9z"/>
	<path class="st0" d="M52.3,64.7c0-0.4-0.1-0.7-0.3-1L17.3,28c-0.2-0.2-0.5-0.4-0.9-0.4c-0.3,0-0.6,0.1-0.9,0.3
		C5.5,37.6,0,50.7,0,64.6c0,10.6,3.3,20.9,9.4,29.5c0.2,0.3,0.6,0.5,1,0.5c0.2,0,0.5-0.1,0.7-0.2l40.7-28.8
		C52.1,65.4,52.3,65.1,52.3,64.7z M13,86.1C8.6,79.5,6.3,71.9,6.3,64c0-10.5,4-20.3,11.4-27.8l26.8,27.7L13,86.1z"/>
	<path class="st0" d="M114.2,66.7c0-2.2-0.2-4.4-0.5-6.7c-0.1-0.8-0.2-1.7-0.4-2.5c-0.3-1.8-0.7-3.5-1.2-5.2
		c-0.2-0.7-0.4-1.5-0.7-2.2c-0.5-1.6-1.2-3.1-1.8-4.6c-0.3-0.7-0.6-1.3-0.9-1.9c-0.7-1.4-1.5-2.8-2.3-4.1c-0.4-0.6-0.7-1.2-1.1-1.7
		c-1-1.4-2-2.8-3.1-4.1c-0.4-0.5-0.9-1-1.3-1.5c-1-1.1-2.1-2.2-3.2-3.3c-0.5-0.5-1-0.9-1.5-1.4c-1.2-1-2.4-2-3.6-2.8
		c-0.6-0.4-1.1-0.8-1.7-1.2c-1.3-0.9-2.7-1.7-4-2.4c-0.6-0.3-1.3-0.7-1.9-1c-1.6-0.8-3.3-1.5-5-2.1c-0.7-0.3-1.4-0.5-2.1-0.7
		c-1.7-0.5-3.4-1-5.1-1.3c-0.8-0.2-1.6-0.3-2.4-0.4c-1.9-0.3-3.9-0.5-5.9-0.6c-0.7,0-1.4-0.1-2.1-0.1c-1.2,0-2.2,1-2.2,2.2v48.7
		L20.2,93.9c-0.5,0.3-0.8,0.9-0.9,1.4c-0.1,0.6,0,1.2,0.4,1.7l0.2,0.3c0.8,1.2,1.8,2.4,2.9,3.6c0.4,0.5,0.9,1,1.4,1.5
		c1,1.1,2.1,2.2,3.3,3.2c0.5,0.5,1,0.9,1.5,1.3c1.4,1.2,2.8,2.2,4.1,3.1c0.5,0.3,1,0.7,1.6,1l0.2,0.1c1.4,0.8,2.7,1.6,4.1,2.3
		c0.6,0.3,1.3,0.6,1.9,0.9c1.4,0.6,3,1.2,4.6,1.8c0.7,0.2,1.4,0.5,2.2,0.7c1.8,0.5,3.5,0.9,5.2,1.3c0.8,0.2,1.7,0.3,2.5,0.4
		c2.3,0.3,4.5,0.5,6.7,0.5c0,0,0.2,0,0.2,0c0.9,0,1.9,0,2.8-0.1c2.5-0.1,5-0.4,7.4-0.9c1.2-0.2,2.4-0.5,3.8-0.9
		c3.8-1.1,7.4-2.5,10.8-4.4c3.4-1.9,6.6-4.1,9.6-6.7c1.6-1.4,3.2-3,4.7-4.7c2.6-3,4.9-6.2,6.7-9.6c1.8-3.4,3.3-7,4.4-10.8
		c0.4-1.3,0.7-2.6,0.9-3.8c0.5-2.4,0.8-4.9,0.9-7.4c0-0.9,0.1-1.9,0.1-2.8C114.2,66.9,114.2,66.7,114.2,66.7z"/>
</g>
</svg>
