<svg xmlns="http://www.w3.org/2000/svg" width="199.556" height="185.24" viewBox="0 0 199.556 185.24">
  <g id="Grupo_920" data-name="Grupo 920" transform="translate(0)">
    <path id="Caminho_4827" data-name="Caminho 4827" d="M187.3,77.776a95.143,95.143,0,0,0-6.369-20.484A96.626,96.626,0,0,0,132.976,8.539,93.5,93.5,0,0,0,35.2,20.653a95.176,95.176,0,0,0-22.329,25.7A92.532,92.532,0,0,0,1.258,78.2a91.43,91.43,0,0,0,13.422,64.8,92.657,92.657,0,0,0,22.866,24.366,91.648,91.648,0,0,0,29.891,14.588,89.014,89.014,0,0,0,32.982,2.811,90.325,90.325,0,0,0,57.764-29.006,92.367,92.367,0,0,0,17.236-27.707,91.124,91.124,0,0,1-4.909,9.778l-9.935-5.736-1.4,2.424,9.9,5.714a92.149,92.149,0,0,1-11.527,14.93A90.089,90.089,0,0,1,138.066,170.4l-5.4-9.361-2.423,1.4,5.387,9.331c-1.429.778-2.871,1.532-4.336,2.235a89.942,89.942,0,0,1-31.1,8.153q-3.084.238-6.176.248V172.145h-2.8v10.222a86.364,86.364,0,0,1-22.8-3.763,87.26,87.26,0,0,1-18.172-7.929L55,162.44l-2.423-1.4-4.729,8.191a87.859,87.859,0,0,1-28.722-29.013c-.254-.417-.5-.838-.746-1.259l7.681-4.435-1.4-2.424L17,136.523a86.234,86.234,0,0,1-9.076-25.747A82.744,82.744,0,0,1,6.577,95.882h8.378v-2.8H6.615A86.37,86.37,0,0,1,8.144,79.443a85.117,85.117,0,0,1,9.893-26.4l6.623,3.824,1.4-2.423-6.582-3.8c.041-.065.08-.132.121-.2a86.9,86.9,0,0,1,20.99-22.9,85.767,85.767,0,0,1,8.49-5.677l3.5,6.057L55,26.525l-3.483-6.033a84.62,84.62,0,0,1,16.631-6.87,81.887,81.887,0,0,1,23.073-3.3v6.5h2.8V10.366c1.561.048,3.12.134,4.674.267a83.015,83.015,0,0,1,29.416,8.179c1.707.84,3.374,1.757,5.019,2.711l-2.888,5,2.423,1.4,2.865-4.963a84.294,84.294,0,0,1,28.112,28.9l-4.462,2.576,1.4,2.424,4.437-2.562a82.613,82.613,0,0,1,3.849,8.123,81.716,81.716,0,0,1,4.571,15.352H160.974l9.646,16.707,9.645,16.706,9.646-16.706,9.645-16.707Z"/>
    <path id="Caminho_4828" data-name="Caminho 4828" d="M76.734,44.827H64.491L47.547,52.662,50,63.828,62.14,58.049h.2V108.49h14.4Z"/>
    <path id="Caminho_4829" data-name="Caminho 4829" d="M140.985,96.248H116.891v-.2l5.877-4.9c9.3-8.228,16.944-16.748,16.944-27.522,0-11.459-7.836-19.883-22.331-19.883-8.522,0-16.063,2.938-20.765,6.562l4.212,10.579c3.33-2.449,8.129-5.191,13.614-5.191,7.346,0,10.382,4.113,10.382,9.3-.1,7.444-6.856,14.594-20.862,27.13L95.833,99.48v9.011h45.152Z"/>
    <path id="Caminho_4839" data-name="Caminho 4839" d="M50.745,143.6V122.82H53v8.534h8.86V122.82h2.254V143.6H61.859v-9.8H53v9.8Z"/>
    <path id="Caminho_4840" data-name="Caminho 4840" d="M67.3,133.479q0-5.314,2.339-8.172a7.24,7.24,0,0,1,5.826-2.857,7.1,7.1,0,0,1,4.112,1.277,8.605,8.605,0,0,1,2.941,3.707,14.13,14.13,0,0,1,1.084,5.791,12.561,12.561,0,0,1-2.1,7.527,7.28,7.28,0,0,1-12.121-.085,12.22,12.22,0,0,1-2.084-7.188m2.325.036a9.341,9.341,0,0,0,1.694,5.966,5.085,5.085,0,0,0,8.279-.021q1.68-2.142,1.68-6.3a12.58,12.58,0,0,0-.865-4.795,5.9,5.9,0,0,0-2.006-2.589,4.878,4.878,0,0,0-2.927-.972,5.1,5.1,0,0,0-4.2,2.128q-1.653,2.128-1.652,6.583"/>
    <path id="Caminho_4841" data-name="Caminho 4841" d="M86.454,143.6V122.82H94.01a7.981,7.981,0,0,1,3.494.58,4.43,4.43,0,0,1,1.85,1.934,6.559,6.559,0,0,1,.723,3.138,5.278,5.278,0,0,1-4.791,5.667,5.826,5.826,0,0,1,1.446,1.155,14.618,14.618,0,0,1,1.772,2.651l2.976,5.656H98.645l-2.272-4.321a27.138,27.138,0,0,0-1.994-3.416,3.9,3.9,0,0,0-1.3-1.186,4.117,4.117,0,0,0-1.763-.3H88.708V143.6Zm2.254-11.61h4.848a5.907,5.907,0,0,0,2.41-.383,2.907,2.907,0,0,0,1.3-1.2,3.72,3.72,0,0,0,.482-1.914,3.3,3.3,0,0,0-.921-2.474,3.769,3.769,0,0,0-2.736-.9H88.708Z"/>
    <path id="Caminho_4842" data-name="Caminho 4842" d="M101.779,143.6l6.572-20.782h2.411l6.979,20.782h-2.58l-1.983-6.294h-7.169l-1.852,6.294Zm4.889-8.534h5.805l-1.771-5.755q-.822-2.652-1.205-4.31a30.522,30.522,0,0,1-.933,3.969Z"/>
    <path id="Caminho_4843" data-name="Caminho 4843" d="M118.761,136.91l2.126-.227a6.192,6.192,0,0,0,.773,2.673,4.357,4.357,0,0,0,1.722,1.538,5.4,5.4,0,0,0,2.524.581,4.567,4.567,0,0,0,3.125-.983,3.248,3.248,0,0,0,1.113-2.554,3.1,3.1,0,0,0-.4-1.605,3.047,3.047,0,0,0-1.219-1.125,22.875,22.875,0,0,0-3.523-1.24,12.412,12.412,0,0,1-3.43-1.438,4.994,4.994,0,0,1-1.588-1.836,5.464,5.464,0,0,1-.567-2.516,5.531,5.531,0,0,1,1.63-4.125,6,6,0,0,1,4.4-1.6,7.025,7.025,0,0,1,3.324.751,5.341,5.341,0,0,1,2.212,2.155,7.1,7.1,0,0,1,.843,3.3l-2.169.2a4.478,4.478,0,0,0-1.212-3.005,4.113,4.113,0,0,0-2.927-.978,4.387,4.387,0,0,0-2.921.858,2.777,2.777,0,0,0-1.006,2.217,2.556,2.556,0,0,0,.737,1.956,8.787,8.787,0,0,0,3.316,1.407,21.732,21.732,0,0,1,3.543,1.211,5.742,5.742,0,0,1,2.354,2.093,5.8,5.8,0,0,1,.795,3.094,6.448,6.448,0,0,1-.836,3.25,5.622,5.622,0,0,1-2.275,2.23,7.3,7.3,0,0,1-3.466.765,6.766,6.766,0,0,1-5.04-1.9,7.236,7.236,0,0,1-1.949-5.146"/>
  </g>
</svg>
