<svg xmlns="http://www.w3.org/2000/svg" width="155.172" height="155.172" viewBox="0 0 155.172 155.172">
  <g id="Grupo_678" data-name="Grupo 678" transform="translate(-397.743 -9315.376)">
    <circle id="Elipse_50" data-name="Elipse 50" cx="77.586" cy="77.586" r="77.586" transform="translate(397.743 9315.376)" fill="#003865"/>
    <g id="Grupo_677" data-name="Grupo 677">
      <path id="Caminho_1750" data-name="Caminho 1750" d="M460.408,9384.954l-31.136,35.714a11.523,11.523,0,0,1-.792-4.221v-46.97a11.6,11.6,0,0,1,2.457-7.122Z" fill="#fff"/>
      <path id="Caminho_1751" data-name="Caminho 1751" d="M516.3,9359.367l-35.068,25.861a9.743,9.743,0,0,1-11.653-.108l-34.235-26.252c.03-.013.06-.027.087-.04l.346-.146c.063-.026.125-.052.188-.075.139-.056.28-.1.422-.153.038-.013.079-.03.117-.043.183-.061.365-.115.55-.166l.145-.038c.136-.036.275-.069.414-.1.065-.015.133-.027.2-.041.123-.027.243-.05.365-.071.074-.011.147-.024.221-.035l.36-.049.217-.025c.131-.013.259-.021.39-.033.063,0,.125-.008.188-.01.193-.011.387-.017.58-.017h70.394c.231,0,.463.008.694.021l.207.017c.166.014.332.029.5.049.073.009.144.017.215.028.194.026.384.057.572.092.036.008.071.014.106.019.221.044.442.1.662.156.06.013.12.032.18.049.163.046.321.095.482.147.068.021.136.046.207.067.166.061.332.122.5.188.046.019.095.035.141.057.21.087.417.181.619.278.046.023.092.049.139.071.158.081.316.162.468.253C516.24,9359.334,516.27,9359.351,516.3,9359.367Z" fill="#fff"/>
      <path id="Caminho_1752" data-name="Caminho 1752" d="M522.178,9369.478v46.97a11.605,11.605,0,0,1-1.877,6.3l-30.362-37.18,30.373-22.4A11.547,11.547,0,0,1,522.178,9369.478Z" fill="#fff"/>
      <path id="Caminho_1753" data-name="Caminho 1753" d="M516.349,9426.525a11.574,11.574,0,0,1-5.823,1.573H440.132a11.559,11.559,0,0,1-7.618-2.856l32.227-36.965,1.52,1.166a15.213,15.213,0,0,0,18.2.169l1.086-.8Z" fill="#fff"/>
    </g>
  </g>
</svg>
