<svg xmlns="http://www.w3.org/2000/svg" width="213.543" height="199.587" viewBox="0 0 213.543 199.587">
  <g id="Grupo_19" data-name="Grupo 19" transform="translate(-126.057 -3067.563)">
    <g id="Grupo_18" data-name="Grupo 18">
      <path id="Caminho_84" data-name="Caminho 84" d="M163.328,3267.15a37.217,37.217,0,0,1-32.537-55.287l69.5-125.15a37.215,37.215,0,0,1,65.073,0l69.5,125.151a37.216,37.216,0,0,1-32.535,55.286Z" fill="#ff2424"/>
      <path id="Caminho_85" data-name="Caminho 85" d="M148.443,3221.667l69.5-125.15a17.024,17.024,0,0,1,29.768,0l69.5,125.15a17.024,17.024,0,0,1-14.884,25.29h-139a17.024,17.024,0,0,1-14.884-25.29" fill="#fff"/>
    </g>
    <path id="Caminho_86" data-name="Caminho 86" d="M221.7,3195.814l-4.463-49.38v-.933a4.286,4.286,0,0,1,4.285-4.285h22.625a4.285,4.285,0,0,1,4.285,4.285v.933l-4.561,49.388a4.092,4.092,0,0,1-4.074,3.715H225.77a4.091,4.091,0,0,1-4.075-3.723m-.707,23.282v-10.531a3.289,3.289,0,0,1,3.289-3.29h17a3.29,3.29,0,0,1,3.29,3.29V3219.1a3.29,3.29,0,0,1-3.29,3.289h-17a3.29,3.29,0,0,1-3.289-3.289"/>
  </g>
</svg>
