<svg xmlns="http://www.w3.org/2000/svg" width="199.556" height="185.24" viewBox="0 0 199.556 185.24">
  <g id="Grupo_922" data-name="Grupo 922" transform="translate(-456.56)">
    <path id="Caminho_4867" data-name="Caminho 4867" d="M643.861,77.776a95.143,95.143,0,0,0-6.369-20.484A96.626,96.626,0,0,0,589.536,8.539a93.5,93.5,0,0,0-97.772,12.114,95.176,95.176,0,0,0-22.329,25.7A92.532,92.532,0,0,0,457.818,78.2a91.43,91.43,0,0,0,13.422,64.8,92.658,92.658,0,0,0,22.866,24.366A91.648,91.648,0,0,0,524,181.962a89.016,89.016,0,0,0,32.982,2.811,90.1,90.1,0,0,0,75-56.713,91.218,91.218,0,0,1-4.909,9.778l-9.934-5.736-1.4,2.424,9.9,5.713A92.1,92.1,0,0,1,614.1,155.17,90.089,90.089,0,0,1,594.626,170.4l-5.4-9.361-2.424,1.4,5.387,9.332c-1.429.778-2.87,1.531-4.335,2.234a89.937,89.937,0,0,1-31.1,8.153q-3.084.238-6.176.248V172.145h-2.8v10.222a86.363,86.363,0,0,1-22.8-3.763,87.26,87.26,0,0,1-18.172-7.929l4.754-8.234-2.424-1.4-4.728,8.19a87.825,87.825,0,0,1-28.722-29.012c-.253-.417-.5-.837-.745-1.258l7.68-4.434-1.4-2.424-7.658,4.421a86.241,86.241,0,0,1-9.076-25.748,82.744,82.744,0,0,1-1.349-14.894h8.378v-2.8h-8.34a86.373,86.373,0,0,1,1.529-13.64,85.117,85.117,0,0,1,9.893-26.4l6.623,3.824,1.4-2.423-6.582-3.8c.041-.065.08-.132.121-.2a86.9,86.9,0,0,1,20.99-22.9,85.582,85.582,0,0,1,8.49-5.676l3.5,6.056,2.424-1.4-3.483-6.033a84.62,84.62,0,0,1,16.631-6.87,81.885,81.885,0,0,1,23.072-3.3v6.5h2.8V10.366c1.561.048,3.12.134,4.674.267a83.009,83.009,0,0,1,29.416,8.179c1.707.84,3.374,1.757,5.018,2.711l-2.888,5,2.424,1.4,2.866-4.963a84.318,84.318,0,0,1,28.112,28.9l-4.463,2.577,1.4,2.423,4.437-2.562a82.634,82.634,0,0,1,3.849,8.123,81.717,81.717,0,0,1,4.571,15.352H617.534l9.646,16.707,9.645,16.706,9.646-16.706,9.645-16.707Z"/>
    <path id="Caminho_4868" data-name="Caminho 4868" d="M547.888,82.144h-7.542V44.827H522.031l-24,38.786v9.7h28.208v15.182h14.1V93.309h7.542Zm-21.645-14.1v14.1h-14.4l.1-.2,8.423-13.908c2.155-4.016,3.918-7.738,5.975-11.851h.293c-.2,4.113-.391,8.031-.391,11.851"/>
    <path id="Caminho_4869" data-name="Caminho 4869" d="M599.406,90.175c0-8.129-5.485-13.418-11.753-15.769v-.293c6.366-3.134,9.3-8.521,9.3-14.006,0-7.738-6.17-16.357-21.058-16.357-12.732,0-22.429,7.15-22.429,17.924,0,5.583,3.037,10.774,9.207,14.006v.2c-6.954,3.036-11.361,8.325-11.361,15.964,0,8.62,7.443,17.728,23.6,17.728,14.79,0,24.486-7.835,24.486-19.393M575.214,53.838c5.485,0,7.738,3.918,7.738,7.934,0,3.917-3.037,7.052-6.465,8.031-5.093-1.567-8.913-4.31-8.913-8.619,0-3.918,2.547-7.346,7.64-7.346m.294,45.446a8.72,8.72,0,0,1-9.012-8.912c0-4.6,2.841-8.13,7.739-9.5,5.778,1.567,9.989,4.9,9.989,10.48,0,4.505-3.525,7.933-8.716,7.933"/>
    <path id="Caminho_4870" data-name="Caminho 4870" d="M507.394,143.6V122.82h2.254v8.534h8.86V122.82h2.254V143.6h-2.254v-9.8h-8.86v9.8Z"/>
    <path id="Caminho_4871" data-name="Caminho 4871" d="M523.952,133.479q0-5.314,2.339-8.172a7.24,7.24,0,0,1,5.826-2.857,7.1,7.1,0,0,1,4.112,1.277,8.605,8.605,0,0,1,2.941,3.707,14.13,14.13,0,0,1,1.084,5.791,12.561,12.561,0,0,1-2.1,7.527,7.28,7.28,0,0,1-12.121-.085,12.22,12.22,0,0,1-2.084-7.188m2.325.036a9.34,9.34,0,0,0,1.694,5.966,5.085,5.085,0,0,0,8.279-.021q1.68-2.142,1.68-6.3a12.581,12.581,0,0,0-.865-4.795,5.9,5.9,0,0,0-2.006-2.589,4.878,4.878,0,0,0-2.927-.972,5.1,5.1,0,0,0-4.2,2.128q-1.653,2.128-1.652,6.583"/>
    <path id="Caminho_4872" data-name="Caminho 4872" d="M543.1,143.6V122.82h7.556a7.981,7.981,0,0,1,3.494.58,4.436,4.436,0,0,1,1.85,1.934,6.559,6.559,0,0,1,.723,3.138,5.278,5.278,0,0,1-4.791,5.667,5.826,5.826,0,0,1,1.446,1.155,14.619,14.619,0,0,1,1.772,2.651l2.976,5.656h-2.835l-2.272-4.321a27.131,27.131,0,0,0-1.994-3.416,3.9,3.9,0,0,0-1.3-1.186,4.118,4.118,0,0,0-1.763-.3h-2.605V143.6Zm2.254-11.61h4.848a5.907,5.907,0,0,0,2.41-.383,2.907,2.907,0,0,0,1.3-1.2,3.72,3.72,0,0,0,.482-1.914,3.3,3.3,0,0,0-.921-2.474,3.769,3.769,0,0,0-2.736-.9h-5.387Z"/>
    <path id="Caminho_4873" data-name="Caminho 4873" d="M558.428,143.6,565,122.82h2.411L574.39,143.6h-2.58l-1.983-6.294h-7.169l-1.852,6.294Zm4.889-8.534h5.8l-1.771-5.755q-.822-2.652-1.205-4.31a30.521,30.521,0,0,1-.933,3.969Z"/>
    <path id="Caminho_4874" data-name="Caminho 4874" d="M575.411,136.91l2.126-.227a6.192,6.192,0,0,0,.773,2.673,4.357,4.357,0,0,0,1.722,1.538,5.4,5.4,0,0,0,2.524.581,4.565,4.565,0,0,0,3.125-.983,3.248,3.248,0,0,0,1.113-2.554,3.1,3.1,0,0,0-.4-1.605,3.047,3.047,0,0,0-1.219-1.125,22.877,22.877,0,0,0-3.523-1.24,12.412,12.412,0,0,1-3.43-1.438,4.994,4.994,0,0,1-1.588-1.836,5.465,5.465,0,0,1-.567-2.516,5.531,5.531,0,0,1,1.63-4.125,6,6,0,0,1,4.4-1.6,7.022,7.022,0,0,1,3.324.751,5.341,5.341,0,0,1,2.212,2.155,7.1,7.1,0,0,1,.843,3.3l-2.169.2a4.478,4.478,0,0,0-1.212-3.005,4.113,4.113,0,0,0-2.927-.978,4.387,4.387,0,0,0-2.921.858,2.777,2.777,0,0,0-1.006,2.217,2.556,2.556,0,0,0,.737,1.956,8.787,8.787,0,0,0,3.316,1.407,21.733,21.733,0,0,1,3.543,1.211,5.742,5.742,0,0,1,2.354,2.093,5.8,5.8,0,0,1,.795,3.094,6.448,6.448,0,0,1-.836,3.25,5.622,5.622,0,0,1-2.275,2.23,7.3,7.3,0,0,1-3.466.765,6.766,6.766,0,0,1-5.04-1.9,7.236,7.236,0,0,1-1.949-5.146"/>
  </g>
</svg>
