<svg xmlns="http://www.w3.org/2000/svg" width="199.556" height="185.24" viewBox="0 0 199.556 185.24">
  <g id="Grupo_923" data-name="Grupo 923" transform="translate(1057.16 -9708)">
    <g id="Grupo_919" data-name="Grupo 919" transform="translate(-1742 9708)">
      <path id="Caminho_4836" data-name="Caminho 4836" d="M872.141,77.776a95.139,95.139,0,0,0-6.369-20.484A96.626,96.626,0,0,0,817.816,8.539a93.5,93.5,0,0,0-97.772,12.114,95.176,95.176,0,0,0-22.329,25.7A92.53,92.53,0,0,0,686.1,78.2a91.43,91.43,0,0,0,13.422,64.8,92.658,92.658,0,0,0,22.866,24.366,91.649,91.649,0,0,0,29.891,14.588,89.016,89.016,0,0,0,32.982,2.811,90.1,90.1,0,0,0,75-56.713,91.025,91.025,0,0,1-4.909,9.778l-9.934-5.736-1.4,2.424,9.9,5.713a92.1,92.1,0,0,1-11.527,14.931A90.085,90.085,0,0,1,822.906,170.4l-5.405-9.361-2.424,1.4,5.387,9.331c-1.428.778-2.869,1.531-4.334,2.234a89.937,89.937,0,0,1-31.1,8.153q-3.084.238-6.176.248V172.145h-2.8v10.222a86.364,86.364,0,0,1-22.8-3.763,87.262,87.262,0,0,1-18.172-7.929l4.755-8.235-2.424-1.4-4.729,8.19a87.826,87.826,0,0,1-28.722-29.012c-.253-.417-.5-.837-.746-1.258l7.681-4.434-1.4-2.424-7.658,4.421a86.242,86.242,0,0,1-9.076-25.748,82.747,82.747,0,0,1-1.349-14.894h8.378v-2.8h-8.34a86.372,86.372,0,0,1,1.529-13.641,85.117,85.117,0,0,1,9.893-26.4l6.623,3.824,1.4-2.424-6.582-3.8c.041-.065.08-.132.121-.2a86.9,86.9,0,0,1,20.99-22.9,85.686,85.686,0,0,1,8.489-5.676l3.5,6.056,2.424-1.4-3.483-6.033a84.621,84.621,0,0,1,16.631-6.87,81.884,81.884,0,0,1,23.072-3.3v6.5h2.8V10.366c1.561.048,3.12.134,4.674.267a83.009,83.009,0,0,1,29.416,8.179c1.707.84,3.374,1.757,5.018,2.711l-2.888,5,2.424,1.4,2.866-4.963a84.318,84.318,0,0,1,28.112,28.9l-4.463,2.577,1.4,2.423,4.436-2.561a81.731,81.731,0,0,1,8.42,23.474H845.814l9.646,16.707,9.645,16.706,9.646-16.706L884.4,77.776Z"/>
      <path id="Caminho_4837" data-name="Caminho 4837" d="M773.817,44.827H728.86V57.07h29.188v.2L731.8,108.49h15.769l26.249-54.26Z"/>
      <path id="Caminho_4838" data-name="Caminho 4838" d="M825.825,96.248H801.731v-.2l5.877-4.9c9.3-8.228,16.944-16.748,16.944-27.522,0-11.459-7.836-19.883-22.331-19.883-8.522,0-16.063,2.938-20.764,6.562l4.211,10.579C789,58.442,793.8,55.7,799.282,55.7c7.346,0,10.382,4.113,10.382,9.3-.1,7.444-6.856,14.594-20.861,27.13l-8.13,7.346v9.011h45.152Z"/>
      <path id="Caminho_4854" data-name="Caminho 4854" d="M734.508,143.6V122.82h2.254v8.534h8.86V122.82h2.254V143.6h-2.254v-9.8h-8.86v9.8Z"/>
      <path id="Caminho_4855" data-name="Caminho 4855" d="M751.066,133.479q0-5.314,2.339-8.172a7.24,7.24,0,0,1,5.826-2.857,7.1,7.1,0,0,1,4.112,1.277,8.606,8.606,0,0,1,2.941,3.707,14.13,14.13,0,0,1,1.084,5.791,12.561,12.561,0,0,1-2.1,7.527,7.28,7.28,0,0,1-12.121-.085,12.22,12.22,0,0,1-2.084-7.188m2.325.036a9.34,9.34,0,0,0,1.694,5.966,5.085,5.085,0,0,0,8.279-.021q1.68-2.142,1.68-6.3a12.581,12.581,0,0,0-.865-4.795,5.9,5.9,0,0,0-2.006-2.589,4.878,4.878,0,0,0-2.927-.972,5.1,5.1,0,0,0-4.2,2.128q-1.653,2.128-1.652,6.583"/>
      <path id="Caminho_4856" data-name="Caminho 4856" d="M770.218,143.6V122.82h7.556a7.981,7.981,0,0,1,3.494.58,4.436,4.436,0,0,1,1.85,1.934,6.559,6.559,0,0,1,.723,3.138,5.278,5.278,0,0,1-4.791,5.667,5.826,5.826,0,0,1,1.446,1.155,14.616,14.616,0,0,1,1.772,2.651l2.976,5.656h-2.835l-2.272-4.321a27.146,27.146,0,0,0-1.994-3.416,3.9,3.9,0,0,0-1.3-1.186,4.118,4.118,0,0,0-1.763-.3h-2.605V143.6Zm2.254-11.61h4.848a5.907,5.907,0,0,0,2.41-.383,2.907,2.907,0,0,0,1.3-1.2,3.72,3.72,0,0,0,.482-1.914,3.3,3.3,0,0,0-.921-2.474,3.769,3.769,0,0,0-2.736-.9h-5.387Z"/>
      <path id="Caminho_4857" data-name="Caminho 4857" d="M785.542,143.6l6.572-20.782h2.411L801.5,143.6h-2.58l-1.983-6.294h-7.169L787.92,143.6Zm4.889-8.534h5.8l-1.771-5.755q-.822-2.652-1.2-4.31a30.7,30.7,0,0,1-.934,3.969Z"/>
      <path id="Caminho_4858" data-name="Caminho 4858" d="M802.524,136.91l2.127-.227a6.179,6.179,0,0,0,.772,2.673,4.364,4.364,0,0,0,1.722,1.538,5.4,5.4,0,0,0,2.524.581,4.565,4.565,0,0,0,3.125-.983,3.248,3.248,0,0,0,1.113-2.554,3.1,3.1,0,0,0-.4-1.605,3.046,3.046,0,0,0-1.219-1.125,22.877,22.877,0,0,0-3.523-1.24,12.412,12.412,0,0,1-3.43-1.438,5,5,0,0,1-1.588-1.836,5.465,5.465,0,0,1-.567-2.516,5.531,5.531,0,0,1,1.63-4.125,6,6,0,0,1,4.395-1.6,7.023,7.023,0,0,1,3.324.751,5.342,5.342,0,0,1,2.212,2.155,7.1,7.1,0,0,1,.843,3.3l-2.169.2a4.478,4.478,0,0,0-1.212-3.005,4.112,4.112,0,0,0-2.927-.978,4.382,4.382,0,0,0-2.92.858,2.774,2.774,0,0,0-1.007,2.217,2.553,2.553,0,0,0,.738,1.956,8.78,8.78,0,0,0,3.315,1.407,21.732,21.732,0,0,1,3.543,1.211,5.436,5.436,0,0,1,3.15,5.187,6.449,6.449,0,0,1-.837,3.25,5.623,5.623,0,0,1-2.275,2.23,7.292,7.292,0,0,1-3.466.765,6.765,6.765,0,0,1-5.04-1.9,7.236,7.236,0,0,1-1.949-5.146"/>
    </g>
  </g>
</svg>
