<?xml version="1.0" encoding="utf-8"?>
<!-- Generator: Adobe Illustrator 26.1.0, SVG Export Plug-In . SVG Version: 6.00 Build 0)  -->
<svg version="1.1" id="Camada_1" xmlns="http://www.w3.org/2000/svg" xmlns:xlink="http://www.w3.org/1999/xlink" x="0px" y="0px"
	 viewBox="0 0 233.4 231.3" style="enable-background:new 0 0 233.4 231.3;" xml:space="preserve">
<style type="text/css">
	.st0{fill:#FBAE17;}
	.st1{fill:#1D1D1B;}
	.st2{fill:#FFFFFF;}
	.st3{font-family:'HelveticaNeue-MediumCond';}
	.st4{font-size:60px;}
</style>
<g>
	<path class="st0" d="M223.6,123.1c0-59.1-47.9-106.9-106.9-106.9C57.6,16.2,9.8,64.1,9.8,123.1c0,31.3,13.4,59.4,34.8,78.9
		l-13.4,13.3c-3.6,3.6-3.6,9.5,0,13.1c3.6,3.6,9.5,3.6,13.1,0l15.1-15.1c16.5,10.5,36.2,16.6,57.2,16.6c21.1,0,40.7-6.1,57.2-16.6
		l15.1,15.1c3.6,3.6,9.5,3.6,13.1,0c3.6-3.6,3.6-9.5,0-13.1l-13.4-13.3C210.2,182.5,223.6,154.4,223.6,123.1z M116.7,205.7
		c-45.6,0-82.5-37-82.5-82.5c0-45.6,37-82.5,82.5-82.5c45.6,0,82.5,37,82.5,82.5C199.2,168.7,162.3,205.7,116.7,205.7z"/>
	<path class="st0" d="M169.2,3.6c-4.8,4.8-4.8,12.6,0,17.4l43.2,43.2c4.8,4.8,12.6,4.8,17.4,0c4.8-4.8,4.8-12.6,0-17.4L186.6,3.6
		C181.8-1.2,174-1.2,169.2,3.6z"/>
	<path class="st0" d="M46.8,3.6L3.6,46.8c-4.8,4.8-4.8,12.6,0,17.4C8.4,69,16.2,69,21,64.2L64.2,21c4.8-4.8,4.8-12.6,0-17.4
		C59.4-1.2,51.6-1.2,46.8,3.6z"/>
</g>
<path class="st1" d="M116.7,53.5C78.3,53.5,47,84.7,47,123.1c0,38.4,31.3,69.7,69.7,69.7c38.4,0,69.7-31.3,69.7-69.7
	C186.4,84.7,155.1,53.5,116.7,53.5z"/>
<g>
	<text transform="matrix(1 0 0 1 73.4564 144.4309)" class="st2 st3 st4">24h</text>
</g>
</svg>
