<?xml version="1.0" encoding="utf-8"?>
<!-- Generator: Adobe Illustrator 26.1.0, SVG Export Plug-In . SVG Version: 6.00 Build 0)  -->
<svg version="1.1" id="Camada_1" xmlns="http://www.w3.org/2000/svg" xmlns:xlink="http://www.w3.org/1999/xlink" x="0px" y="0px"
	 viewBox="0 0 120.2 121.6" style="enable-background:new 0 0 120.2 121.6;" xml:space="preserve">
<style type="text/css">
	.st0{fill:#FBAE17;}
	.st1{fill:#FFFFFF;}
</style>
<g>
	<path class="st0" d="M78.9,34.4c4.4,0.2,7.9,3.8,7.9,8.2v44c0,4.6-3.7,8.3-8.3,8.3h-44c-4.6,0-8.3-3.7-8.3-8.3v-44
		c0-4.6,3.7-8.3,8.3-8.3h35.3v-9.2c0-5.2,1.6-9.9,4.2-13.9c-5.5-1.8-11.4-2.8-17.5-2.8C25.3,8.5,0,33.8,0,65
		c0,31.2,25.3,56.5,56.5,56.5S113,96.2,113,65c0-21.8-12.3-40.7-30.4-50.1c-2.3,2.8-3.7,6.4-3.7,10.3V34.4z"/>
	<path class="st0" d="M56.5,49.7c-4.9,0-8.9,4-8.9,9c0,3.2,1.7,6,4.3,7.6v16.5h9.4V66.3c2.5-1.6,4.3-4.4,4.3-7.6
		C65.5,53.7,61.5,49.7,56.5,49.7z"/>
	<path class="st0" d="M120.2,43.4V25.2C120.2,11.3,108.9,0,95,0c-8.8,0-16.5,4.5-21,11.3c3,1,5.9,2.2,8.7,3.6
		c3-3.5,7.4-5.8,12.3-5.8c8.9,0,16.1,7.2,16.1,16.1v18.2H120.2z"/>
	<path class="st1" d="M69.8,25.2v9.2H34.5c-4.6,0-8.3,3.7-8.3,8.3v44c0,4.6,3.7,8.3,8.3,8.3h44c4.6,0,8.3-3.7,8.3-8.3v-44
		c0-4.4-3.5-8-7.9-8.2v-9.2c0-3.9,1.4-7.5,3.7-10.3c-2.8-1.4-5.6-2.7-8.7-3.6C71.3,15.3,69.8,20.1,69.8,25.2z M61.2,66.3v16.5h-9.4
		V66.3c-2.5-1.6-4.3-4.4-4.3-7.6c0-4.9,4-9,8.9-9c4.9,0,8.9,4,8.9,9C65.5,61.9,63.8,64.7,61.2,66.3z"/>
</g>
</svg>
