<?xml version="1.0" encoding="utf-8"?>
<!-- Generator: Adobe Illustrator 26.1.0, SVG Export Plug-In . SVG Version: 6.00 Build 0)  -->
<svg version="1.1" id="Camada_1" xmlns="http://www.w3.org/2000/svg" xmlns:xlink="http://www.w3.org/1999/xlink" x="0px" y="0px"
	 viewBox="0 0 233.4 231.3" style="enable-background:new 0 0 233.4 231.3;" xml:space="preserve">
<style type="text/css">
	.st0{fill:#5A6E7F;}
	.st1{fill:#5CBFAB;}
	.st2{fill:#97D5C9;}
</style>
<g>
	<path class="st0" d="M223.6,123.1c0-59.1-47.9-106.9-106.9-106.9C57.6,16.2,9.8,64.1,9.8,123.1c0,31.3,13.4,59.4,34.8,78.9
		l-13.4,13.3c-3.6,3.6-3.6,9.5,0,13.1c3.6,3.6,9.5,3.6,13.1,0l15.1-15.1c16.5,10.5,36.2,16.6,57.2,16.6c21.1,0,40.7-6.1,57.2-16.6
		l15.1,15.1c3.6,3.6,9.5,3.6,13.1,0c3.6-3.6,3.6-9.5,0-13.1l-13.4-13.3C210.2,182.5,223.6,154.4,223.6,123.1z M116.7,205.7
		c-45.6,0-82.5-37-82.5-82.5c0-45.6,37-82.5,82.5-82.5c45.6,0,82.5,37,82.5,82.5C199.2,168.7,162.3,205.7,116.7,205.7z"/>
	<path class="st1" d="M47,123.1c0,38.4,31.3,69.7,69.7,69.7c38.4,0,69.7-31.3,69.7-69.7c0-38.4-31.2-69.7-69.7-69.7
		C78.3,53.5,47,84.7,47,123.1z M120.7,81.3v44.1l34.2,35.5c2,2,1.9,5.3-0.1,7.2c-2,2-5.3,1.9-7.3-0.1l-35.6-37
		c-0.9-1-1.4-2.2-1.4-3.6V81.3c0-2.8,2.3-5.1,5.1-5.1C118.4,76.2,120.7,78.5,120.7,81.3z"/>
	<path class="st2" d="M34.1,123.1c0,45.6,37,82.5,82.5,82.5c45.6,0,82.5-37,82.5-82.5c0-45.6-37-82.5-82.5-82.5
		C71.1,40.6,34.1,77.6,34.1,123.1z M186.4,123.1c0,38.4-31.2,69.7-69.7,69.7c-38.4,0-69.7-31.3-69.7-69.7
		c0-38.4,31.3-69.7,69.7-69.7C155.1,53.5,186.4,84.7,186.4,123.1z"/>
	<path class="st0" d="M115.6,76.2c-2.8,0-5.1,2.3-5.1,5.1v46.1c0,1.3,0.5,2.6,1.4,3.6l35.6,37c2,2,5.2,2.1,7.3,0.1
		c2-2,2.1-5.2,0.1-7.2l-34.2-35.5V81.3C120.7,78.5,118.4,76.2,115.6,76.2z"/>
	<path class="st0" d="M169.2,3.6c-4.8,4.8-4.8,12.6,0,17.4l43.2,43.2c4.8,4.8,12.6,4.8,17.4,0c4.8-4.8,4.8-12.6,0-17.4L186.6,3.6
		C181.8-1.2,174-1.2,169.2,3.6z"/>
	<path class="st0" d="M46.8,3.6L3.6,46.8c-4.8,4.8-4.8,12.6,0,17.4C8.4,69,16.2,69,21,64.2L64.2,21c4.8-4.8,4.8-12.6,0-17.4
		C59.4-1.2,51.6-1.2,46.8,3.6z"/>
</g>
</svg>
