<?xml version="1.0" encoding="utf-8"?>
<!-- Generator: Adobe Illustrator 26.1.0, SVG Export Plug-In . SVG Version: 6.00 Build 0)  -->
<svg version="1.1" id="Camada_1" xmlns="http://www.w3.org/2000/svg" xmlns:xlink="http://www.w3.org/1999/xlink" x="0px" y="0px"
	 viewBox="0 0 233.4 231.3" style="enable-background:new 0 0 233.4 231.3;" xml:space="preserve">
<style type="text/css">
	.st0{fill:#FFFFFF;}
	.st1{fill:#FBAE17;}
	.st2{fill:#1D1D1B;}
</style>
<g>
	<path class="st0" d="M223.6,123.1c0-59.1-47.9-106.9-106.9-106.9C57.6,16.2,9.8,64.1,9.8,123.1c0,31.3,13.4,59.4,34.8,78.9
		l-13.4,13.3c-3.6,3.6-3.6,9.5,0,13.1c3.6,3.6,9.5,3.6,13.1,0l15.1-15.1c16.5,10.5,36.2,16.6,57.2,16.6c21.1,0,40.7-6.1,57.2-16.6
		l15.1,15.1c3.6,3.6,9.5,3.6,13.1,0c3.6-3.6,3.6-9.5,0-13.1l-13.4-13.3C210.2,182.5,223.6,154.4,223.6,123.1z M116.7,205.7
		c-45.6,0-82.5-37-82.5-82.5c0-45.6,37-82.5,82.5-82.5c45.6,0,82.5,37,82.5,82.5C199.2,168.7,162.3,205.7,116.7,205.7z"/>
	<path class="st0" d="M169.2,3.6c-4.8,4.8-4.8,12.6,0,17.4l43.2,43.2c4.8,4.8,12.6,4.8,17.4,0c4.8-4.8,4.8-12.6,0-17.4L186.6,3.6
		C181.8-1.2,174-1.2,169.2,3.6z"/>
	<path class="st0" d="M46.8,3.6L3.6,46.8c-4.8,4.8-4.8,12.6,0,17.4C8.4,69,16.2,69,21,64.2L64.2,21c4.8-4.8,4.8-12.6,0-17.4
		C59.4-1.2,51.6-1.2,46.8,3.6z"/>
</g>
<path class="st0" d="M116.7,53.5C78.3,53.5,47,84.7,47,123.1c0,38.4,31.3,69.7,69.7,69.7c38.4,0,69.7-31.3,69.7-69.7
	C186.4,84.7,155.1,53.5,116.7,53.5z"/>
<g>
	<path class="st1" d="M582.1,1625.3c0-59.1-47.9-106.9-106.9-106.9c-59.1,0-106.9,47.9-106.9,106.9c0,31.3,13.4,59.4,34.8,78.9
		l-13.4,13.3c-3.6,3.6-3.6,9.5,0,13.1c3.6,3.6,9.5,3.6,13.1,0l15.1-15.1c16.5,10.5,36.2,16.6,57.2,16.6c21.1,0,40.7-6.1,57.2-16.6
		l15.1,15.1c3.6,3.6,9.5,3.6,13.1,0c3.6-3.6,3.6-9.5,0-13.1l-13.4-13.3C568.6,1684.7,582.1,1656.6,582.1,1625.3z M475.1,1707.8
		c-45.6,0-82.5-37-82.5-82.5c0-45.6,37-82.5,82.5-82.5c45.6,0,82.5,37,82.5,82.5C557.7,1670.9,520.7,1707.8,475.1,1707.8z"/>
	<path class="st1" d="M527.6,1505.8c-4.8,4.8-4.8,12.6,0,17.4l43.2,43.2c4.8,4.8,12.6,4.8,17.4,0c4.8-4.8,4.8-12.6,0-17.4
		l-43.2-43.2C540.2,1501,532.4,1501,527.6,1505.8z"/>
	<path class="st1" d="M405.2,1505.8L362,1549c-4.8,4.8-4.8,12.6,0,17.4c4.8,4.8,12.6,4.8,17.4,0l43.2-43.2c4.8-4.8,4.8-12.6,0-17.4
		C417.8,1501,410,1501,405.2,1505.8z"/>
</g>
<path class="st2" d="M475.1,1555.6c-38.4,0-69.7,31.3-69.7,69.7c0,38.4,31.3,69.7,69.7,69.7c38.4,0,69.7-31.3,69.7-69.7
	C544.8,1586.9,513.5,1555.6,475.1,1555.6z"/>
<g>
	
		<text transform="matrix(1 0 0 1 431.8901 1646.593)" class="st0" style="font-family:'HelveticaNeue-MediumCond'; font-size:60px;">24h</text>
</g>
<g>
	<path class="st1" d="M100.3,144.4H75.4c0-18.5,17.8-18.1,17.8-31.3c0-3.5-1.5-6.4-5.3-6.4c-5.1,0-5.9,4.6-5.9,8.9h-6.5
		c0-8.5,3.5-13.7,12.5-13.7c8.7,0,12,5.2,12,11.3c0,14.1-13.8,15-17,25.4h17.2V144.4z"/>
	<path class="st1" d="M103.5,129l14.7-27.1h7v27.5h4.6v5.5h-4.6v9.5h-6.5v-9.5h-15.2V129z M118.7,111.9h-0.1l-9.5,17.5h9.7V111.9z"
		/>
	<path class="st1" d="M134.2,101.6h6.5v14l0.2,0.1c1.8-2.8,4.6-4.4,7.9-4.4c4.9,0,8,2.2,8,8.8v24.4h-6.5v-22.1
		c0-4.2-1.3-5.8-4.5-5.8c-2.6,0-5.2,2.1-5.2,6.3v21.7h-6.5V101.6z"/>
</g>
</svg>
