<?xml version="1.0" encoding="utf-8"?>
<!-- Generator: Adobe Illustrator 26.1.0, SVG Export Plug-In . SVG Version: 6.00 Build 0)  -->
<svg version="1.1" id="Camada_1" xmlns="http://www.w3.org/2000/svg" xmlns:xlink="http://www.w3.org/1999/xlink" x="0px" y="0px"
	 viewBox="0 0 228.6 325.6" style="enable-background:new 0 0 228.6 325.6;" xml:space="preserve">
<style type="text/css">
	.st0{fill:#003660;}
</style>
<g>
	<g>
		<g>
			<g>
				<g>
					<path class="st0" d="M169.1,105.4l16.1-4.6c0.7-7.5,0.4-15-0.7-22.2L168.1,75c-0.8-3.2-1.7-6.4-2.9-9.5l11.6-12
						c-3.2-6.7-7.1-13.1-11.8-18.9l-15.9,5.1c-2.3-2.4-4.7-4.7-7.2-6.8l4-16.2c-6-4.2-12.6-7.7-19.7-10.5l-11.2,12.4
						c-2.3-0.7-4.7-1.3-7.1-1.8c-0.8-0.2-1.7-0.3-2.5-0.4l-4.6-16.1c-7.6-0.7-15-0.4-22.3,0.7L75,17.5c-3.2,0.8-6.4,1.7-9.5,2.9
						l-12-11.6c-6.8,3.2-13.1,7.1-18.9,11.8l5.1,15.9c-2.4,2.3-4.7,4.7-6.8,7.2l-16.2-4c-4.2,6-7.7,12.6-10.5,19.7l12.4,11.2
						c-0.7,2.3-1.3,4.7-1.8,7.1c-0.2,0.8-0.3,1.7-0.4,2.5L0.4,84.8c-0.7,7.5-0.4,15,0.7,22.3l16.4,3.5c0.8,3.2,1.7,6.4,2.9,9.5
						l-11.6,12c3.2,6.8,7.1,13.1,11.8,18.9l15.9-5.1c2.3,2.4,4.7,4.7,7.2,6.8l-4,16.2c6,4.2,12.6,7.7,19.7,10.5l11.2-12.4
						c2.3,0.7,4.7,1.3,7.1,1.8c0.8,0.2,1.7,0.3,2.5,0.4l4.6,16.1c7.6,0.7,15,0.4,22.3-0.7l3.5-16.4c3.2-0.8,6.4-1.7,9.5-2.9l12,11.6
						c6.7-3.2,13.1-7.1,18.9-11.8l-5.1-15.9c2.4-2.3,4.7-4.7,6.8-7.2l16.2,4c4.2-6,7.7-12.6,10.5-19.7l-12.4-11.2
						c0.7-2.3,1.3-4.7,1.8-7.1C168.9,107.1,169,106.3,169.1,105.4z M154.4,105.1c-6.8,34-39.9,56.1-73.9,49.3
						c-34-6.8-56.1-39.9-49.3-73.9c6.8-34,39.9-56.1,73.9-49.3C139.1,38,161.1,71.1,154.4,105.1z"/>
				</g>
			</g>
		</g>
	</g>
</g>
<g>
	<g>
		<g>
			<g>
				<path class="st0" d="M206,264.2l22.3-4.7c0.1-1.2,0.3-2.4,0.4-3.7c0.2-2.9,0.2-5.8,0.1-8.6l-21.9-6.4c-0.2-1.4-0.6-2.7-0.9-4
					l17-15.2c-1.6-3.8-3.5-7.5-5.7-10.9l-22.2,5.4c-0.9-1-1.8-2-2.8-3l7.2-21.7c-3.3-2.5-6.7-4.7-10.4-6.6l-16.5,15.8
					c-1.3-0.4-2.6-0.9-3.9-1.2l-4.6-22.4c-1.2-0.1-2.4-0.3-3.7-0.4c-2.9-0.2-5.8-0.2-8.6-0.1l-6.4,21.9c-1.3,0.2-2.7,0.6-4,0.9
					l-15.2-17c-3.8,1.6-7.5,3.5-10.9,5.7l5.4,22.2c-1,0.9-2,1.8-3,2.8L96,205.8c-2.5,3.3-4.7,6.7-6.6,10.4l15.8,16.5
					c-0.5,1.3-0.9,2.6-1.2,3.9l-22.4,4.6c-0.1,1.2-0.3,2.4-0.4,3.7c-0.2,2.9-0.2,5.8-0.1,8.6L103,260c0.2,1.3,0.6,2.7,0.9,4
					l-17,15.2c1.6,3.8,3.5,7.5,5.7,10.9l22.2-5.4c0.9,1,1.8,2,2.8,3l-7.2,21.7c3.3,2.5,6.7,4.7,10.4,6.6l16.5-15.8
					c1.3,0.5,2.6,0.9,3.9,1.2l4.6,22.3c1.2,0.2,2.4,0.3,3.7,0.4c2.9,0.2,5.8,0.2,8.6,0.1l6.4-21.9c1.3-0.3,2.7-0.6,4-0.9l15.2,17
					c3.8-1.6,7.5-3.5,10.9-5.7l-5.4-22.2c1-0.9,2-1.8,3-2.8l21.7,7.2c2.5-3.3,4.7-6.7,6.6-10.4l-15.8-16.5
					C205.2,266.8,205.6,265.5,206,264.2z M151.8,293.6c-23.9-1.8-41.8-22.5-40-46.4c1.8-23.9,22.5-41.8,46.4-40
					c23.9,1.8,41.8,22.5,40,46.4C196.4,277.5,175.6,295.4,151.8,293.6z"/>
			</g>
		</g>
	</g>
</g>
</svg>
