<?xml version="1.0" encoding="utf-8"?>
<!-- Generator: Adobe Illustrator 26.1.0, SVG Export Plug-In . SVG Version: 6.00 Build 0)  -->
<svg version="1.1" id="Camada_1" xmlns="http://www.w3.org/2000/svg" xmlns:xlink="http://www.w3.org/1999/xlink" x="0px" y="0px"
	 viewBox="0 0 113.9 100.5" style="enable-background:new 0 0 113.9 100.5;" xml:space="preserve">
<style type="text/css">
	.st0{fill:#003660;}
	.st1{fill:#FFFFFF;}
</style>
<g>
	<path class="st0" d="M11.7,8.1H7.9H7.1c-1.9,0-3.7,0.8-5,2.1c-1.3,1.3-2.1,3.1-2.1,5v8.2h113.9v-8.2c0-1.9-0.8-3.7-2.1-5
		c-1.3-1.3-3.1-2.1-5-2.1h-12v9.2c0,1.7-1.4,3.1-3.1,3.1h-6.6c-1.7,0-3.1-1.4-3.1-3.1V8.1H31.9v9.2c0,1.7-1.4,3.1-3.1,3.1h-6.6
		c-1.7,0-3.1-1.4-3.1-3.1V8.1H11.7z"/>
	<polygon class="st0" points="22.2,17.4 28.8,17.4 28.8,8.1 28.8,0 22.2,0 22.2,8.1 	"/>
	<polygon class="st0" points="85.1,17.4 91.7,17.4 91.7,8.1 91.7,0 85.1,0 85.1,8.1 	"/>
	<path class="st0" d="M0,26.5v66.9c0,1.9,0.8,3.7,2.1,5c1.3,1.3,3.1,2.1,5,2.1h0.9h3.8h95.1c1.9,0,3.7-0.8,5-2.1
		c1.3-1.3,2.1-3.1,2.1-5V26.5H0z"/>
	<rect x="27.7" y="36.9" class="st1" width="16.3" height="14.5"/>
	<rect x="48.8" y="36.9" class="st1" width="16.3" height="14.5"/>
	<rect x="69.9" y="36.9" class="st1" width="16.3" height="14.5"/>
	<rect x="91" y="36.9" class="st1" width="16.3" height="14.5"/>
	<rect x="6.6" y="55.4" class="st1" width="16.3" height="14.5"/>
	<rect x="27.7" y="55.4" class="st1" width="16.3" height="14.5"/>
	<rect x="48.8" y="55.4" class="st1" width="16.3" height="14.5"/>
	<rect x="69.9" y="55.4" class="st1" width="16.3" height="14.5"/>
	<rect x="91" y="55.4" class="st1" width="16.3" height="14.5"/>
	<rect x="6.6" y="73.9" class="st1" width="16.3" height="14.5"/>
	<rect x="27.7" y="73.9" class="st1" width="16.3" height="14.5"/>
	<rect x="48.8" y="73.9" class="st1" width="16.3" height="14.5"/>
	<rect x="69.9" y="73.9" class="st1" width="16.3" height="14.5"/>
</g>
</svg>
