<svg xmlns="http://www.w3.org/2000/svg" width="96.639" height="134.535" viewBox="0 0 96.639 134.535">
  <g id="Grupo_4" data-name="Grupo 4" transform="translate(-221.168 -5961.541)">
    <path id="Caminho_13" data-name="Caminho 13" d="M276.2,6010.962a5.916,5.916,0,0,0-5.916-5.916h-.426a7.509,7.509,0,0,0-7.511,7.507l-.317,10.131-.7,22.319c-.16.688-.251,16.207-.251,16.207-1.312-1.338-2.772-2.868-4.084-4.332-3.063-3.417-8.691-5.719-12.432-6.145a6.19,6.19,0,0,0-4.477.8,9.3,9.3,0,0,0-.928.813c-1.931,1.9-3.388,4.972-2.04,7.223a7.732,7.732,0,0,0,2.648,2.321c1.41.914,3.785,1.9,5.57,4.181,2.989,3.825,9.912,12.374,14.166,16.938.885.551,2.758,2.42,3.643,2.893a33.11,33.11,0,0,1,5.638,4.2,27.43,27.43,0,0,0,4.109,2.48c2.842,1.8,8.014,3.483,13.988,3.483s11.38.356,15.384-3.165h.214l.106-.267a19.777,19.777,0,0,0,6.6-14.614V6050.7c0-1.34-.294-5.829-4.069-7.176a6.674,6.674,0,0,0-4.99.23l-.342.014-.106.007a5.733,5.733,0,0,0-4.721-4.48,7.9,7.9,0,0,0-6.178,1.253c-1.213-2.608-3.646-3.967-6.939-3.69a8.051,8.051,0,0,0-5.639,3.02v-28.912Z" fill="#003660"/>
    <path id="Caminho_14" data-name="Caminho 14" d="M303.56,6034.716l3.031,3.373a1.388,1.388,0,0,0,2.153-.095,48.29,48.29,0,0,0-39.257-76.453,50.027,50.027,0,0,0-5.516.306,48.295,48.295,0,0,0-33.745,76.147,1.392,1.392,0,0,0,2.157.1l3.027-3.369a1.383,1.383,0,0,0,.1-1.713,41.145,41.145,0,1,1,67.947-.006,1.381,1.381,0,0,0,.105,1.712" fill="#003660"/>
    <path id="Caminho_15" data-name="Caminho 15" d="M289.977,6019.6l3.209,3.57a1.4,1.4,0,0,0,2.288-.31,28.648,28.648,0,0,0,3.093-13,29.08,29.08,0,0,0-58.16,0,28.66,28.66,0,0,0,3.09,13,1.4,1.4,0,0,0,2.291.31l3.205-3.57a1.391,1.391,0,0,0,.241-1.464,21.72,21.72,0,0,1-1.647-8.273,21.9,21.9,0,1,1,42.153,8.273,1.392,1.392,0,0,0,.237,1.464" fill="#003660"/>
  </g>
</svg>
