<?xml version="1.0" encoding="utf-8"?>
<!-- Generator: Adobe Illustrator 26.1.0, SVG Export Plug-In . SVG Version: 6.00 Build 0)  -->
<svg version="1.1" id="Camada_1" xmlns="http://www.w3.org/2000/svg" xmlns:xlink="http://www.w3.org/1999/xlink" x="0px" y="0px"
	 viewBox="0 0 110.9 130.8" style="enable-background:new 0 0 110.9 130.8;" xml:space="preserve">
<style type="text/css">
	.st0{fill:#203232;}
</style>
<g>
	<path class="st0" d="M99.6,32.3L86.9,42.3c4.9,6.6,7.8,14.7,7.8,23.5c0,21.7-17.6,39.2-39.2,39.2c-1.4,0-2.9-0.1-4.2-0.2V89.4
		L24,110.1l7.2,5.4l-0.1,0.1c0.2,0.1,0.5,0.2,0.7,0.3l19.4,14.8v-9.6c1.4,0.1,2.8,0.2,4.2,0.2c30.6,0,55.5-24.8,55.5-55.5
		C110.9,51.7,108.3,42.1,99.6,32.3z"/>
	<path class="st0" d="M16.2,65.9c0-21.7,17.6-39.2,39.2-39.2c2.1,0,4.1,0.2,6,0.5v14.3l27.2-20.7L61.5,0v10.7c-2-0.2-4-0.3-6-0.3
		C24.8,10.4,0,35.2,0,65.9C0,80,2.6,89.7,11.3,99.5l12.8-10.1C19.2,82.8,16.2,74.7,16.2,65.9z"/>
</g>
</svg>
