<?xml version="1.0" encoding="utf-8"?>
<!-- Generator: Adobe Illustrator 26.1.0, SVG Export Plug-In . SVG Version: 6.00 Build 0)  -->
<svg version="1.1" id="Camada_1" xmlns="http://www.w3.org/2000/svg" xmlns:xlink="http://www.w3.org/1999/xlink" x="0px" y="0px"
	 viewBox="0 0 314.8 571.9" style="enable-background:new 0 0 314.8 571.9;" xml:space="preserve">
<style type="text/css">
	.st0{fill:#231F20;}
	.st1{fill:url(#SVGID_1_);}
	.st2{fill:url(#SVGID_00000082328566260910021740000013170281588542619789_);}
	.st3{fill:url(#SVGID_00000058584225684694126350000005918770084149044111_);}
	.st4{fill:#9BD1CA;}
	.st5{fill:url(#SVGID_00000152985625029385211340000014526356599802809500_);}
	.st6{opacity:0.8;}
	.st7{fill:url(#SVGID_00000039098826657238848750000012462113665722904762_);}
	.st8{fill:#FFFFFF;}
	.st9{fill:url(#SVGID_00000029025131606318234840000003861631797945789073_);}
	.st10{fill:url(#SVGID_00000151518273322354162400000015684175105325117845_);}
	.st11{fill:url(#SVGID_00000049217721680923584560000011006758465419033232_);}
	.st12{fill:url(#SVGID_00000067233775682444551970000007972294907558806929_);}
	.st13{fill:url(#SVGID_00000168824914917280722470000018190304982834291883_);}
	.st14{fill:#00FFDC;}
	.st15{fill:url(#SVGID_00000090280426798252653450000018310638741912466567_);}
</style>
<g>
	<path class="st0" d="M161.1,416.9c0.4,2.5,0.7,5.2,1.1,7.8l1,7.9c0.6,5.2,1.2,10.5,1.8,15.7c0.5,5.2,1,10.5,1.5,15.7
		c0.4,5.2,0.7,10.5,0.9,15.7v0.1c0.1,4,3.5,7,7.4,6.9c3.7-0.1,6.6-3,6.9-6.6c0.4-5.5,0.7-10.9,0.9-16.3s0.3-10.8,0.3-16.2
		c0-5.4,0-10.8,0-16.2l-0.1-8.1c-0.1-2.7-0.1-5.4-0.2-8.2c-0.2-5.9-5.2-10.6-11.1-10.4c-5.9,0.2-10.6,5.2-10.4,11.1
		C161,416.1,161.1,416.5,161.1,416.9L161.1,416.9z"/>
	<path class="st0" d="M116.4,411.7c-1.5,5.6-2.9,11-4.3,16.5l-4.2,16.5c-2.8,11-5.5,22-8.1,33.1c-0.9,3.9,1.5,7.7,5.3,8.6
		c3.6,0.9,7.2-1.1,8.4-4.5l0,0c3.8-10.6,7.6-21.3,11.5-31.9l5.9-15.9c2-5.3,4-10.6,6-15.8l0,0c2.1-5.5-0.6-11.8-6.2-13.9
		c-5.5-2.1-11.8,0.6-13.9,6.2C116.6,411,116.5,411.4,116.4,411.7z"/>
	<path class="st0" d="M185.8,299.4c0.5,1.5,1.1,2.9,1.6,4.4l1.6,4.3c1.1,2.9,2.2,5.7,3.3,8.6c2.3,5.7,4.6,11.4,7.1,17.1
		c1.2,2.8,2.5,5.7,3.8,8.5s2.7,5.6,4.1,8.4c1.4,2.8,2.9,5.6,4.6,8.4c1.7,2.8,3.4,5.6,5.7,8.4c2.5,3.1,7,3.6,10.1,1.2
		c2.9-2.3,3.5-6.4,1.6-9.4l-0.1-0.2c-1.3-2.1-2.6-4.5-3.8-7s-2.3-5.2-3.4-7.9c-1.1-2.7-2.1-5.4-3-8.2c-1-2.8-1.9-5.6-2.8-8.4
		c-1.8-5.6-3.5-11.3-5.1-17c-0.8-2.9-1.6-5.7-2.4-8.6l-1.1-4.3c-0.4-1.4-0.7-2.9-1.1-4.2c-1.4-5.8-7.2-9.3-13-7.9s-9.3,7.2-7.9,13
		C185.6,298.7,185.7,299.1,185.8,299.4L185.8,299.4z"/>
	<path class="st0" d="M67.6,351.7l42.6-48.6l0.1-0.2c3.9-4.5,3.5-11.3-1-15.2s-11.3-3.5-15.2,1c-0.3,0.3-0.5,0.6-0.7,0.9l-37.2,53.2
		c-2.3,3.2-1.5,7.7,1.8,10C61.1,355,65.1,354.5,67.6,351.7L67.6,351.7z"/>
	
		<radialGradient id="SVGID_1_" cx="-672.3334" cy="233.1232" r="22.4041" gradientTransform="matrix(-1.3108 0 0 -1.3108 -789.8868 582.326)" gradientUnits="userSpaceOnUse">
		<stop  offset="0.1534" style="stop-color:#FFFFFF"/>
		<stop  offset="0.4375" style="stop-color:#FDFEFE"/>
		<stop  offset="0.5956" style="stop-color:#F5F9F9"/>
		<stop  offset="0.7227" style="stop-color:#E7F2F1"/>
		<stop  offset="0.8333" style="stop-color:#D3E8E5"/>
		<stop  offset="0.9323" style="stop-color:#BADBD6"/>
		<stop  offset="1" style="stop-color:#A4CFC9"/>
	</radialGradient>
	<path class="st1" d="M75.8,308.8c4.2,5.4,14.8,2.6,26.8-5.5s20.2-17.4,16.8-23.8c-3.5-6.7-18.2-6-30.2,2.2
		C77.1,289.7,71.1,302.9,75.8,308.8z"/>
	
		<radialGradient id="SVGID_00000070819412135551817350000012270813079354961281_" cx="97.04" cy="258.7042" r="22.4032" gradientTransform="matrix(1.3063 0.1088 0.1087 -1.3063 51.5276 605.9651)" gradientUnits="userSpaceOnUse">
		<stop  offset="0.1534" style="stop-color:#FFFFFF"/>
		<stop  offset="0.4375" style="stop-color:#FDFEFE"/>
		<stop  offset="0.5956" style="stop-color:#F5F9F9"/>
		<stop  offset="0.7227" style="stop-color:#E7F2F1"/>
		<stop  offset="0.8333" style="stop-color:#D3E8E5"/>
		<stop  offset="0.9323" style="stop-color:#BADBD6"/>
		<stop  offset="1" style="stop-color:#A4CFC9"/>
	</radialGradient>
	<path style="fill:url(#SVGID_00000070819412135551817350000012270813079354961281_);" d="M219.3,311.8c-4.6,5-14.9,1.4-26.2-7.7
		s-18.6-19-14.7-25.2c4-6.4,18.6-4.4,29.9,4.7C219.6,292.7,224.5,306.3,219.3,311.8z"/>
	<path class="st0" d="M136.7,395.4h22.7c5.9,0,10.7-4.8,10.7-10.7v-12.5h-44v12.5C126,390.7,130.8,395.4,136.7,395.4z"/>
	<g>
		
			<radialGradient id="SVGID_00000164508622294317839670000006301828555540752827_" cx="-724.6504" cy="220.576" r="32.0621" gradientTransform="matrix(-1.4918 0 0 -1.4918 -848.2615 660.0526)" gradientUnits="userSpaceOnUse">
			<stop  offset="0.1534" style="stop-color:#FFFFFF"/>
			<stop  offset="0.4375" style="stop-color:#FDFEFE"/>
			<stop  offset="0.5956" style="stop-color:#F5F9F9"/>
			<stop  offset="0.7227" style="stop-color:#E7F2F1"/>
			<stop  offset="0.8333" style="stop-color:#D3E8E5"/>
			<stop  offset="0.9323" style="stop-color:#BADBD6"/>
			<stop  offset="1" style="stop-color:#A4CFC9"/>
		</radialGradient>
		<path style="fill:url(#SVGID_00000164508622294317839670000006301828555540752827_);" d="M263.4,316.5c-1.5-1-3.4-1.1-5-0.2
			c-4.8,2.6-16.2,8.9-27,15c-5.4,3.1-9.1,8.3-10.4,14.3c-2.6,12.1-5.4,31.4,2.3,33.7c10,3,40.6-37.6,47.6-47c1-1.3,1.2-3,0.6-4.6
			C270.5,324.8,268.1,319.8,263.4,316.5z"/>
		<path class="st4" d="M218.4,363.2c16.9,0,42.9-24.1,51.1-39.9c1,1.7,1.7,3.3,2.1,4.6c0.5,1.5,0.3,3.2-0.7,4.5
			c-7,9.5-37.6,50-47.6,47C218.9,378.1,218,371.1,218.4,363.2z"/>
	</g>
	<g>
		
			<radialGradient id="SVGID_00000114793608277754552300000007812039656295220649_" cx="-668.4393" cy="185.9796" r="31.8234" gradientTransform="matrix(-1.4918 0 0 -1.4918 -848.2615 660.0526)" gradientUnits="userSpaceOnUse">
			<stop  offset="0.1534" style="stop-color:#FFFFFF"/>
			<stop  offset="0.4375" style="stop-color:#FDFEFE"/>
			<stop  offset="0.5956" style="stop-color:#F5F9F9"/>
			<stop  offset="0.7227" style="stop-color:#E7F2F1"/>
			<stop  offset="0.8333" style="stop-color:#D3E8E5"/>
			<stop  offset="0.9323" style="stop-color:#BADBD6"/>
			<stop  offset="1" style="stop-color:#A4CFC9"/>
		</radialGradient>
		<path style="fill:url(#SVGID_00000114793608277754552300000007812039656295220649_);" d="M148,433.2L148,433.2
			c20.6,0,37.3-16.7,37.3-37.3V392c0-3-2.4-5.4-5.4-5.4h-30.7H116c-3,0-5.4,2.4-5.4,5.4v3.9C110.7,416.5,127.4,433.2,148,433.2z"/>
		<g class="st6">
			<path class="st4" d="M134.5,431.5c0.5,0,0.9-0.4,0.9-0.9v-17.7c0-7,5.7-12.6,12.6-12.6c7,0,12.6,5.7,12.6,12.6v17.7
				c0,0.5,0.4,0.9,0.9,0.9s0.9-0.4,0.9-0.9v-17.7c0-8-6.5-14.4-14.4-14.4s-14.4,6.5-14.4,14.4v17.7
				C133.6,431.1,134,431.5,134.5,431.5z"/>
		</g>
		<path class="st4" d="M110.7,391.9c0-3,2.4-5.4,5.4-5.4h0.4c11,60.9,55.1,38.2,55.4,38.1c-6.5,5.4-14.8,8.6-23.8,8.6
			c-20.6,0-37.3-16.7-37.3-37.3L110.7,391.9L110.7,391.9z"/>
		<path class="st0" d="M111.3,391.3h73.4c1.7,0,3-1.3,3-3l0,0c0-1.7-1.3-3-3-3h-73.4c-1.7,0-3,1.3-3,3l0,0
			C108.3,390,109.6,391.3,111.3,391.3z"/>
	</g>
	<g>
		
			<radialGradient id="SVGID_00000149368872931629509810000017019726931862810557_" cx="-621.6699" cy="109.0944" r="31.6691" gradientTransform="matrix(-1.4918 0 0 -1.4918 -848.2615 660.0526)" gradientUnits="userSpaceOnUse">
			<stop  offset="0.1534" style="stop-color:#FFFFFF"/>
			<stop  offset="0.4375" style="stop-color:#FDFEFE"/>
			<stop  offset="0.5956" style="stop-color:#F5F9F9"/>
			<stop  offset="0.7227" style="stop-color:#E7F2F1"/>
			<stop  offset="0.8333" style="stop-color:#D3E8E5"/>
			<stop  offset="0.9323" style="stop-color:#BADBD6"/>
			<stop  offset="1" style="stop-color:#A4CFC9"/>
		</radialGradient>
		<path style="fill:url(#SVGID_00000149368872931629509810000017019726931862810557_);" d="M102,463.9L102,463.9
			c-9.2,8.9-22.3,34.6-27.3,65.6c-0.5,3.3,1.8,6,5.1,6h27.5c3.3,0,6.4-2.7,6.8-6c2.5-20.9,7.7-39.4,5.2-51.9
			C117.7,469.4,110.8,463.9,102,463.9z"/>
		<path class="st4" d="M102,463.9c5.7,0,10.6,2.3,13.8,6.2c-2.1,4.8-7.2,12.7-19.2,15.6c-3.9,1-5.9-0.7-6.6-3.9
			C94.1,473.7,98.4,467.5,102,463.9z"/>
		<path class="st8" d="M106.6,473.7c-2,7.1-6.5,12.5-10.1,12s-4.8-6.7-2.8-13.8c2-7.1,6.5-12.5,10.1-12S108.6,466.6,106.6,473.7z"/>
		<path class="st4" d="M113,467.4L113,467.4c3.2,2.4,5.5,5.9,6.3,10.1c2.4,12.6-2.7,31-5.2,51.9c-0.4,3.3-3.5,6-6.8,6h-9
			C109.6,512.1,113,467.4,113,467.4z"/>
	</g>
	<g>
		
			<radialGradient id="SVGID_00000005248257485026985420000018432441610970767291_" cx="-693.0543" cy="106.1605" r="27.5639" gradientTransform="matrix(-1.4918 0 0 -1.4918 -848.2615 660.0526)" gradientUnits="userSpaceOnUse">
			<stop  offset="0.1534" style="stop-color:#FFFFFF"/>
			<stop  offset="0.4375" style="stop-color:#FDFEFE"/>
			<stop  offset="0.5956" style="stop-color:#F5F9F9"/>
			<stop  offset="0.7227" style="stop-color:#E7F2F1"/>
			<stop  offset="0.8333" style="stop-color:#D3E8E5"/>
			<stop  offset="0.9323" style="stop-color:#BADBD6"/>
			<stop  offset="1" style="stop-color:#A4CFC9"/>
		</radialGradient>
		<path style="fill:url(#SVGID_00000005248257485026985420000018432441610970767291_);" d="M181.2,463L181.2,463
			c7.9,9,12,35,12.7,66.4c0.1,3.3-2.6,6.1-6,6.1h-27.5c-3.3,0-6-2.8-6-6.1c0.5-21.2,3.3-39.9,7.5-52.6
			C164.7,468.5,172.4,463,181.2,463z"/>
		<path class="st4" d="M168.8,467.2c3.5-2.6,7.8-4.2,12.3-4.2c0.8,0.9,1.5,2,2.2,3.1l1.6,18.4C184.9,484.5,172.5,488.7,168.8,467.2z
			"/>
		<ellipse transform="matrix(0.9907 -0.1361 0.1361 0.9907 -62.546 29.1362)" class="st8" cx="181.8" cy="472" rx="6.6" ry="13.2"/>
		<path class="st4" d="M168.6,467.4c-0.7,13.7-2,46.1-0.8,68.2h-7.4c-3.3,0-6-2.8-6-6.1c0.5-21.2,3.3-39.9,7.5-52.6
			C163.2,473,165.5,469.8,168.6,467.4z"/>
	</g>
	<path class="st0" d="M110.5,377.1c5.6,1.2,9.2,8.6,10.2,14.1c0.5,2.7,3.3,9.6,4.5,11.1c1.5,1.9-2,5.3-6,1.6c-4-3.6-2.1-7.5-5.4-6.9
		c-2.2,0.4-1.5,4.8-1.3,6.2c0.5,3.6,1.5,6.8,3,10c0.7,1.6,3.9,9.9,0.2,10.2c-1.1,0.1-2.2-1.7-2.7-2.3c-2.5-3.1-3.1-5.9-5.8-8.8
		c-5.2-5.7-6.9-14.6-6.6-21.9c0.1-2.8,0.3-5.6,0.9-8.3c0.3-1.2,1.9-4,3.2-4.4C106.5,377.1,109.2,376.8,110.5,377.1z"/>
	<g>
		
			<radialGradient id="SVGID_00000145052874206746976740000004859093166751804349_" cx="-291.8324" cy="21.8735" r="32.6381" gradientTransform="matrix(-0.7056 1.3144 -1.3144 -0.7056 -118.3104 777.1924)" gradientUnits="userSpaceOnUse">
			<stop  offset="0.1534" style="stop-color:#FFFFFF"/>
			<stop  offset="0.4375" style="stop-color:#FDFEFE"/>
			<stop  offset="0.5956" style="stop-color:#F5F9F9"/>
			<stop  offset="0.7227" style="stop-color:#E7F2F1"/>
			<stop  offset="0.8333" style="stop-color:#D3E8E5"/>
			<stop  offset="0.9323" style="stop-color:#BADBD6"/>
			<stop  offset="1" style="stop-color:#A4CFC9"/>
		</radialGradient>
		<path style="fill:url(#SVGID_00000145052874206746976740000004859093166751804349_);" d="M85,346.5c-5.1-5.9-12.9-8.6-20.6-7
			c-10.6,2.2-24.4,6-26.3,11.9c-2.9,8.9,50.3,31.5,59.9,35.5c1.1,0.5,2.3,0.4,3.4,0c2-0.9,5.3-2.8,8.2-7.1c1.1-1.6,1-3.8-0.3-5.3
			L85,346.5z"/>
		<path class="st4" d="M107.3,382.6c-17.9-23.9-42.7-35-56.4-39.7c4.3-1.5,9.2-2.6,13.5-3.5c7.6-1.5,15.5,1.2,20.6,7l24.3,28
			c1.3,1.5,1.4,3.7,0.3,5.3C108.9,380.9,108.1,381.8,107.3,382.6z"/>
	</g>
	<g>
		
			<radialGradient id="SVGID_00000017487268184918036850000018267855959792695960_" cx="-695.4623" cy="75.2526" r="21.0729" gradientTransform="matrix(-1.4918 0 0 -1.4918 -848.2615 660.0526)" gradientUnits="userSpaceOnUse">
			<stop  offset="0.1534" style="stop-color:#FFFFFF"/>
			<stop  offset="0.4375" style="stop-color:#FDFEFE"/>
			<stop  offset="0.5956" style="stop-color:#F5F9F9"/>
			<stop  offset="0.7227" style="stop-color:#E7F2F1"/>
			<stop  offset="0.8333" style="stop-color:#D3E8E5"/>
			<stop  offset="0.9323" style="stop-color:#BADBD6"/>
			<stop  offset="1" style="stop-color:#A4CFC9"/>
		</radialGradient>
		<path style="fill:url(#SVGID_00000017487268184918036850000018267855959792695960_);" d="M202.7,557.6h-47.9
			c-2.7,0-4.9-2.4-4.6-5.1c1.3-11.3,6.3-18.4,6.3-18.4s8.3,1.3,12.8,0.1c7.5-2.1,11.9-6.8,19.1-4.8c4.6,1.3,15.4,9.1,18.7,22.5
			C207.9,554.8,205.7,557.6,202.7,557.6z"/>
		<path class="st4" d="M171.8,557.6h-17c-2.7,0-4.9-2.4-4.6-5.1c1.3-11.3,6.3-18.4,6.3-18.4s8.3,1.3,12.8,0.1
			c7.5-2.1,11.9-6.8,19.1-4.8c1.7,0.5,4.3,1.9,7.1,4.2c-14.3-4.1-22.3-0.8-26.7,9.6C162.8,557.5,171.8,557.6,171.8,557.6z"/>
		
			<ellipse transform="matrix(0.2236 -0.9747 0.9747 0.2236 -406.6382 573.1295)" class="st0" cx="156.4" cy="541.8" rx="9.4" ry="6"/>
	</g>
	<g>
		
			<radialGradient id="SVGID_00000050645988313297126690000008683211344598584473_" cx="-653.9542" cy="73.427" r="20.5153" gradientTransform="matrix(-1.4918 0 0.2568 -1.4918 -918.2264 660.0527)" gradientUnits="userSpaceOnUse">
			<stop  offset="0.1534" style="stop-color:#FFFFFF"/>
			<stop  offset="0.4375" style="stop-color:#FDFEFE"/>
			<stop  offset="0.5956" style="stop-color:#F5F9F9"/>
			<stop  offset="0.7227" style="stop-color:#E7F2F1"/>
			<stop  offset="0.8333" style="stop-color:#D3E8E5"/>
			<stop  offset="0.9323" style="stop-color:#BADBD6"/>
			<stop  offset="1" style="stop-color:#A4CFC9"/>
		</radialGradient>
		<path style="fill:url(#SVGID_00000050645988313297126690000008683211344598584473_);" d="M59.6,557.6h47.9c2.7,0,5.3-2.4,5.5-5.1
			c0.7-11.3-3.1-18.4-3.1-18.4s-8.5,1.3-12.9,0.1c-7.2-2.1-10.7-6.8-18.3-4.8c-4.9,1.3-18.4,7.3-22.6,22.5
			C55.3,554.9,56.7,557.6,59.6,557.6z"/>
		<path class="st4" d="M97.3,549.9c4.7-7.7-7.3-18.6-7.3-18.6l0,0c2.1,1,4.3,2.2,7,3c4.3,1.2,12.9-0.1,12.9-0.1s3.8,7.1,3.1,18.4
			c-0.2,2.7-2.7,5.1-5.5,5.1H79.7C79.7,557.6,92.6,557.6,97.3,549.9z"/>
		
			<ellipse transform="matrix(7.077103e-02 -0.9975 0.9975 7.077103e-02 -439.6071 611.7592)" class="st0" cx="108.5" cy="541.8" rx="9.3" ry="6.1"/>
	</g>
	<path class="st0" d="M264.2,309.8c1.8-5.1,5.8-8.9,8.7-14c1-1.8,2-3.6,2.7-5.5c0.9-2.3,1.7-4.8,4.8-3.4c5.4,2.4,1.2,8.6,1.2,12.6
		c0,0.6,0.1,1.3,0.5,1.9c0.5,0.7,1.3,1,2.1,1.1c2.9,0.3,7.9-0.7,10.8-0.9c3.4-0.3,6.8-0.7,10.2-1c2-0.2,4.1-0.4,6,0.3
		c1.9,0.6,3.7,2.3,3.7,4.4c0,2.2-1.9,3.9-3.6,5.2c-4.4,3.3-9.4,5.5-14.1,8.3c-6.5,3.9-14.1,10.2-21.9,10.6
		c-8,0.4-12.3-7.1-11.9-14.3C263.3,313.1,263.7,311.4,264.2,309.8z"/>
	<g>
		
			<radialGradient id="SVGID_00000118388143865096339880000005470030871916658087_" cx="-675.7421" cy="234.5106" r="48.1041" gradientTransform="matrix(-1.4918 0 0 -1.4918 -848.2615 660.0526)" gradientUnits="userSpaceOnUse">
			<stop  offset="0.1534" style="stop-color:#FFFFFF"/>
			<stop  offset="0.4375" style="stop-color:#FDFEFE"/>
			<stop  offset="0.5956" style="stop-color:#F5F9F9"/>
			<stop  offset="0.7227" style="stop-color:#E7F2F1"/>
			<stop  offset="0.8333" style="stop-color:#D3E8E5"/>
			<stop  offset="0.9323" style="stop-color:#BADBD6"/>
			<stop  offset="1" style="stop-color:#A4CFC9"/>
		</radialGradient>
		<path style="fill:url(#SVGID_00000118388143865096339880000005470030871916658087_);" d="M99,325.3c0,27.1,21.9,57,49,57
			s49-29.9,49-57s-21.9-49-49-49S99,298.2,99,325.3z"/>
		<path class="st4" d="M148,367.8c25.9,0,47-23.6,48.9-46.1c0.1,1.2,0.1,2.4,0.1,3.6c0,27.1-21.9,57-49,57s-49-29.9-49-57
			c0-1.2,0.1-2.4,0.1-3.6C101,344.2,122.1,367.8,148,367.8z"/>
		<g class="st6">
			<path class="st4" d="M121.7,372c0.5,0,0.9-0.4,0.9-0.9v-86c0-0.5-0.4-0.9-0.9-0.9s-0.9,0.4-0.9,0.9v86
				C120.8,371.6,121.2,372,121.7,372z"/>
		</g>
		<path class="st0" d="M148,292L148,292c8.2,0,14.8-6.6,14.8-14.8v-11.7h-29.7v11.7C133.1,285.4,139.8,292,148,292z"/>
		<path class="st4" d="M166.2,279.8c0,0.2,0,0.5,0,0.7c0,10.1-8.2,18.2-18.2,18.2c-10.1,0-18.2-8.2-18.2-18.2c0-0.2,0-0.5,0-0.7
			c5.6-2.2,11.8-3.5,18.2-3.5S160.6,277.5,166.2,279.8z"/>
		<g>
			<ellipse class="st14" cx="121.7" cy="313.2" rx="5.9" ry="8.7"/>
			<path class="st4" d="M115,313.2c0-5.3,3-9.6,6.8-9.6c3.7,0,6.8,4.3,6.8,9.6c0,5.3-3,9.6-6.8,9.6C118,322.8,115,318.5,115,313.2z
				 M116.8,313.2c0,4.2,2.3,7.8,5,7.8s5-3.6,5-7.8c0-4.2-2.3-7.8-5-7.8C119,305.3,116.8,308.9,116.8,313.2z"/>
		</g>
	</g>
	<g>
		
			<ellipse transform="matrix(0.9881 -0.1538 0.1538 0.9881 -24.1281 6.9129)" class="st0" cx="32.6" cy="159.4" rx="31.4" ry="65.5"/>
		<path class="st14" d="M23.7,215.7c-1.7-1.7-3.3-3.6-4.8-5.8l-14.3-96c0.9-2.4,1.9-4.7,3-6.7L23.7,215.7z"/>
		
			<ellipse transform="matrix(0.1307 -0.9914 0.9914 0.1307 72.147 401.0279)" class="st0" cx="264.8" cy="159.4" rx="65.5" ry="31.7"/>
		<path class="st14" d="M291.8,113.1L280,209.6c-1.5,2.2-3.1,4.1-4.7,5.9l13.4-109C289.8,108.5,290.9,110.7,291.8,113.1z"/>
		
			<radialGradient id="SVGID_00000123411124911923490850000007391310411267765694_" cx="-666.6136" cy="360.0875" r="121.1368" gradientTransform="matrix(-1.4918 0 0 -1.4638 -848.2615 648.0701)" gradientUnits="userSpaceOnUse">
			<stop  offset="0.1534" style="stop-color:#FFFFFF"/>
			<stop  offset="0.4375" style="stop-color:#FDFEFE"/>
			<stop  offset="0.5956" style="stop-color:#F5F9F9"/>
			<stop  offset="0.7227" style="stop-color:#E7F2F1"/>
			<stop  offset="0.8333" style="stop-color:#D3E8E5"/>
			<stop  offset="0.9323" style="stop-color:#BADBD6"/>
			<stop  offset="1" style="stop-color:#A4CFC9"/>
		</radialGradient>
		<path style="fill:url(#SVGID_00000123411124911923490850000007391310411267765694_);" d="M18.2,102C18.2,45.6,76.3,0,148,0
			s129.8,45.6,129.8,102c0,1.6-0.1,3.1-0.2,4.7h0.1l-0.3,2c-0.2,2.3-0.5,4.6-0.9,6.9l-6.8,53.6l-6,47.6c-1.9,15.4-10.8,29-24.1,37.3
			c-23.5,14.6-55.9,23.6-91.8,23.6c-34.2,0-65.3-8.2-88.5-21.6c-13.7-8-22.9-21.7-25.2-37.2L19.8,117.8c-0.7-3.7-1.2-7.4-1.4-11.1
			v-0.1l0,0C18.2,105.1,18.2,103.5,18.2,102z"/>
		<g class="st6">
			<path class="st4" d="M148,59.9c19.4,0,35.2-15.5,35.2-34.6V3.6c0-0.5-0.4-0.9-0.9-0.9s-0.9,0.4-0.9,0.9v21.6
				c0,18.1-15,32.8-33.4,32.8s-33.4-14.7-33.4-32.8V3.6c0-0.5-0.4-0.9-0.9-0.9s-0.9,0.4-0.9,0.9v21.6
				C112.8,44.3,128.6,59.9,148,59.9z"/>
		</g>
		<g class="st6">
			<path class="st4" d="M66.1,260.4C66.2,260.4,66.2,260.4,66.1,260.4c0.6,0,0.9-0.5,0.9-1c-3.4-46.7-11.9-157.6-16-177.5
				C46.4,59.8,33.7,54.3,33.2,54c-0.5-0.2-1,0-1.2,0.5s0,1,0.5,1.2l0,0c0.1,0.1,12.3,5.5,16.7,26.6c4.1,19.8,12.6,130.6,16.1,177.3
				C65.3,260,65.7,260.4,66.1,260.4z"/>
		</g>
		<g class="st6">
			<path class="st4" d="M231.7,259.5c0.5,0,0.9-0.4,0.9-0.8c3.4-46.5,11.9-156.7,16-176.3c4.4-21.1,15.3-25.8,15.4-25.9
				c0.5-0.2,0.7-0.7,0.5-1.2s-0.7-0.7-1.2-0.5s-11.9,5.1-16.5,27.2c-4.1,19.8-12.6,130.1-16,176.6
				C230.8,259,231.1,259.4,231.7,259.5C231.6,259.5,231.7,259.5,231.7,259.5z"/>
		</g>
		<g>
			<path class="st0" d="M217.2,125.3c21.1,0,37.5,18.5,34.9,39.5l0,0l-6,48.5c-1.3,10.4-7.2,19.6-16,25.2
				c-21.7,13.7-50.8,21.3-82.1,21.3c-29.8,0-58-7-79.4-19.6c-9-5.3-15.1-14.4-16.6-25l-7-49.8c-3-21.2,13.4-40.1,34.8-40.1
				C79.8,125.3,217.2,125.3,217.2,125.3z"/>
			<path class="st4" d="M67.7,241.6c-9.5-5.6-15.8-15.2-17.4-26.3l-7.1-49.8c-1.5-10.6,1.7-21.3,8.7-29.4c7-8.1,17.2-12.7,27.9-12.7
				h137.4c10.6,0,20.7,4.5,27.7,12.5c7,7.9,10.3,18.5,9,29l-6,48.5c-1.4,10.9-7.5,20.6-16.8,26.5c-22,13.9-51.5,21.5-83.1,21.5
				C117.9,261.5,89.4,254.4,67.7,241.6z M79.8,127.1c-9.7,0-18.9,4.2-25.2,11.5s-9.2,17-7.8,26.6l7.1,49.8
				c1.4,10,7.1,18.6,15.7,23.7c21.1,12.5,49,19.3,78.5,19.3c30.9,0,59.8-7.5,81.2-21c8.4-5.3,14-14,15.2-23.9l6-48.5
				c1.2-9.5-1.8-19-8.1-26.2s-15.4-11.3-25-11.3C217.4,127.1,79.8,127.1,79.8,127.1z"/>
		</g>
		<path class="st4" d="M24.6,70.2c-3.9,23,11.9,91.2,15.2,124.4c3.6,36.1,15.9,73.8,108.2,73.8s113.3-41.2,113.4-41.2
			c-3.9,11-11.4,20.4-21.6,26.8c-23.5,14.6-55.9,23.6-91.8,23.6c-34.2,0-65.3-8.2-88.5-21.6c-13.7-8-22.9-21.7-25.2-37.2l-14.5-101
			c-0.7-3.7-1.2-7.4-1.4-11.1v-0.1l0,0c-0.1-1.5-0.2-3.1-0.2-4.7C18.2,90.9,20.5,80.2,24.6,70.2z"/>
		<g>
			<ellipse class="st14" cx="203.1" cy="181" rx="15.9" ry="15.9"/>
			<ellipse class="st14" cx="93.9" cy="176.2" rx="15.9" ry="15.9"/>
		</g>
		<path class="st14" d="M163.9,201.7c1.7,0,2.9,1.7,2.3,3.3c-1.6,4.1-5.9,10.4-16.6,10.4c-10.2,0-14.2-6.5-15.6-10.5
			c-0.6-1.6,0.6-3.2,2.3-3.2H163.9z"/>
	</g>
</g>
</svg>
