<svg xmlns="http://www.w3.org/2000/svg" width="308.811" height="280.521" viewBox="0 0 308.811 280.521">
  <g id="Grupo_6" data-name="Grupo 6" transform="translate(-79.164 -7835.145)">
    <path id="Caminho_16" data-name="Caminho 16" d="M184.843,8080.107H168.666v35.559H299.049v-35.559H184.843Z" fill="#ffd18b"/>
    <path id="Caminho_17" data-name="Caminho 17" d="M384.055,7865.885c-5.457-9.616-15.238-14.044-25.516-11.542a23.483,23.483,0,0,0-11.263,6.383c.9-5.239,1.2-8.323,1.2-8.323,8.809,0,8.427-8.851,8.4-9.313l.077-.007s-.774-7.938-7.845-7.938H118c-7.071,0-7.844,7.938-7.844,7.938l.077.007c-.026.462-.407,9.313,8.4,9.313,0,0,.3,3.084,1.2,8.323a23.467,23.467,0,0,0-11.258-6.383c-10.278-2.5-20.049,1.926-25.507,11.542-4.893,8.623-6.182,25.288,1.971,43.082,16.06,35.052,55.038,47.518,76.842,51.829.341.068,9.005,2.076,9.34,2.076a1.249,1.249,0,0,0,.226-.026,105.531,105.531,0,0,0,40.673,22.1v55.4c0,27.128-27.283,39.753-27.283,39.753h97.425s-26.68-12.625-26.68-39.753v-55.4a106.815,106.815,0,0,0,40.371-22.1c.07.011-.02.026.074.026.336,0,8.924-2.008,9.265-2.076,21.8-4.311,60.744-16.777,76.8-51.829,8.153-17.794,6.846-34.459,1.952-43.082M94.49,7904.64c-6.295-13.739-5.962-27.315-2.38-33.626,4.494-7.918,11.3-7.235,14.016-6.576,4.383,1.065,9.2,4.8,9.425,10.475.415,10.6-9.484,13.683-10.649,14.009a5.194,5.194,0,0,0,2.676,10.038c5.274-1.39,14.176-6.365,17.265-16.11,5.479,19.6,15.5,45.269,33.381,66.515-20.349-4.85-50.863-16.639-63.734-44.725m278.13,0c-12.871,28.086-43.385,39.875-63.733,44.725,17.88-21.246,27.9-46.918,33.38-66.515,3.089,9.745,11.991,14.72,17.265,16.11a5.194,5.194,0,0,0,2.676-10.038c-1.165-.326-11.064-3.413-10.649-14.009.223-5.677,5.042-9.41,9.425-10.475,2.716-.659,9.522-1.342,14.017,6.576,3.581,6.311,3.914,19.887-2.381,33.626" fill="#ffd18b"/>
  </g>
</svg>
