<?xml version="1.0" encoding="utf-8"?>
<!-- Generator: Adobe Illustrator 26.1.0, SVG Export Plug-In . SVG Version: 6.00 Build 0)  -->
<svg version="1.1" id="Camada_1" xmlns="http://www.w3.org/2000/svg" xmlns:xlink="http://www.w3.org/1999/xlink" x="0px" y="0px"
	 viewBox="0 0 119.5 125.2" style="enable-background:new 0 0 119.5 125.2;" xml:space="preserve">
<style type="text/css">
	.st0{opacity:0.3;}
	.st1{fill:#FFFFFF;}
	.st2{fill:#213038;}
	.st3{fill:#FFEC00;}
	.st4{opacity:0.15;}
	.st5{fill:#DDDB00;}
	.st6{fill:#FFFFFF;stroke:#213038;stroke-width:3.1567;stroke-miterlimit:10;}
</style>
<g id="yes_x5F_button_1_">
	<circle id="shadow_1_" class="st0" cx="59.8" cy="65.4" r="59.8"/>
	<g id="Button_1_">
		<circle class="st1" cx="59.8" cy="59.8" r="59.8"/>
		<circle class="st2" cx="59.8" cy="59.8" r="56.5"/>
		<circle class="st3" cx="59.8" cy="57.2" r="50.9"/>
		<path class="st4" d="M59.8,100.2c-26.8,0-48.7-20.7-50.7-46.9c-0.1,1.3-0.2,2.6-0.2,3.9c0,28.1,22.8,50.9,50.9,50.9
			c28.1,0,50.9-22.8,50.9-50.9c0-1.3-0.1-2.6-0.2-3.9C108.5,79.5,86.5,100.2,59.8,100.2z"/>
		<path class="st5" d="M59.8,11.3c27.3,0,49.5,21.4,50.8,48.4c0-0.8,0.1-1.6,0.1-2.5c0-28.1-22.8-50.9-50.9-50.9
			C31.7,6.3,8.9,29.1,8.9,57.2c0,0.8,0,1.7,0.1,2.5C10.3,32.7,32.5,11.3,59.8,11.3z"/>
	</g>
</g>
<g>
	<path class="st6" d="M52.2,46.9V26.1h15.2v20.8l-1.8,23.4H53.8L52.2,46.9z M52.5,74.5h14.6v13.8H52.5V74.5z"/>
</g>
</svg>
