<?xml version="1.0" encoding="utf-8"?>
<!-- Generator: Adobe Illustrator 26.1.0, SVG Export Plug-In . SVG Version: 6.00 Build 0)  -->
<svg version="1.1" id="Camada_1" xmlns="http://www.w3.org/2000/svg" xmlns:xlink="http://www.w3.org/1999/xlink" x="0px" y="0px"
	 viewBox="0 0 119.5 125.2" style="enable-background:new 0 0 119.5 125.2;" xml:space="preserve">
<style type="text/css">
	.st0{opacity:0.3;}
	.st1{fill:#FFFFFF;}
	.st2{fill:#213038;}
	.st3{fill:#BD1622;}
	.st4{opacity:0.15;fill:#A2195B;}
	.st5{fill:#E20613;}
	.st6{opacity:0.15;}
</style>
<g id="no_x5F_button">
	<circle id="shadow_5_" class="st0" cx="59.8" cy="65.4" r="59.8"/>
	<g id="Button_5_">
		<circle class="st1" cx="59.8" cy="59.8" r="59.8"/>
		<circle class="st2" cx="59.8" cy="59.8" r="56.5"/>
		<circle class="st3" cx="59.8" cy="57.2" r="50.9"/>
		<path class="st4" d="M59.8,100.2c-26.8,0-48.7-20.7-50.7-46.9c-0.1,1.3-0.2,2.6-0.2,3.9c0,28.1,22.8,50.9,50.9,50.9
			c28.1,0,50.9-22.8,50.9-50.9c0-1.3-0.1-2.6-0.2-3.9C108.5,79.5,86.5,100.2,59.8,100.2z"/>
		<path class="st5" d="M59.8,11.3c27.3,0,49.5,21.4,50.8,48.4c0-0.8,0.1-1.6,0.1-2.5c0-28.1-22.8-50.9-50.9-50.9
			C31.7,6.3,8.9,29.1,8.9,57.2c0,0.8,0,1.7,0.1,2.5C10.3,32.7,32.5,11.3,59.8,11.3z"/>
		<path class="st1" d="M82.6,69.7L69.8,56.9l12.8-12.8c1.2-1.2,1.2-3.1,0-4.3l-5.9-5.9c-1.2-1.2-3.1-1.2-4.3,0L59.5,46.7L46.7,33.9
			c-1.2-1.2-3.1-1.2-4.3,0l-5.9,5.9c-1.2,1.2-1.2,3.1,0,4.3l12.8,12.8L36.5,69.7c-1.2,1.2-1.2,3.1,0,4.3l5.9,5.9
			c1.2,1.2,3.1,1.2,4.3,0l12.8-12.8L72.3,80c1.2,1.2,3.1,1.2,4.3,0l5.9-5.9C83.8,72.9,83.8,70.9,82.6,69.7z"/>
		<path class="st2" d="M74.5,33c0.8,0,1.6,0.3,2.2,0.9l5.9,5.9c1.2,1.2,1.2,3.1,0,4.3L69.8,56.9l12.8,12.8c1.2,1.2,1.2,3.1,0,4.3
			L76.7,80c-0.6,0.6-1.4,0.9-2.2,0.9c-0.8,0-1.6-0.3-2.2-0.9L59.5,67.2L46.7,80c-0.6,0.6-1.4,0.9-2.2,0.9c-0.8,0-1.6-0.3-2.2-0.9
			l-5.9-5.9c-1.2-1.2-1.2-3.1,0-4.3l12.8-12.8L36.5,44.1c-1.2-1.2-1.2-3.1,0-4.3l5.9-5.9c0.6-0.6,1.4-0.9,2.2-0.9
			c0.8,0,1.6,0.3,2.2,0.9l12.8,12.8l12.8-12.8C72.9,33.3,73.7,33,74.5,33 M74.5,30.5c-1.5,0-2.8,0.6-3.9,1.6L59.5,43.2L48.5,32.1
			c-1-1-2.4-1.6-3.9-1.6c-1.5,0-2.8,0.6-3.9,1.6l-5.9,5.9c-2.1,2.1-2.1,5.6,0,7.8l11.1,11.1L34.7,68c-2.1,2.1-2.1,5.6,0,7.8l5.9,5.9
			c1,1,2.4,1.6,3.9,1.6s2.8-0.6,3.9-1.6l11.1-11.1l11.1,11.1c1,1,2.4,1.6,3.9,1.6c1.5,0,2.8-0.6,3.9-1.6l5.9-5.9
			c2.1-2.1,2.1-5.6,0-7.8L73.3,56.9l11.1-11.1c1-1,1.6-2.4,1.6-3.9c0-1.5-0.6-2.8-1.6-3.9l-5.9-5.9C77.3,31.1,76,30.5,74.5,30.5
			L74.5,30.5z"/>
		<path class="st6" d="M36.5,69.7c-1.2,1.2-1.2,3.1,0,4.3l5.9,5.9c1.2,1.2,3.1,1.2,4.3,0l12.8-12.8L72.3,80c1.2,1.2,3.1,1.2,4.3,0
			l5.9-5.9c1.2-1.2,1.2-3.1,0-4.3L70,57.2H49L36.5,69.7z"/>
	</g>
</g>
</svg>
