<?xml version="1.0" encoding="utf-8"?>
<!-- Generator: Adobe Illustrator 26.1.0, SVG Export Plug-In . SVG Version: 6.00 Build 0)  -->
<svg version="1.1" id="Camada_1" xmlns="http://www.w3.org/2000/svg" xmlns:xlink="http://www.w3.org/1999/xlink" x="0px" y="0px"
	 viewBox="0 0 426.7 108.1" style="enable-background:new 0 0 426.7 108.1;" xml:space="preserve">
<style type="text/css">
	.st0{fill:#196AFF;}
	.st1{fill:url(#SVGID_1_);}
	.st2{fill:url(#SVGID_00000050663389336673586870000006587051147595131067_);}
	.st3{fill:url(#SVGID_00000170260791450349657430000001291350237827587744_);}
	.st4{fill:#FFFFFF;}
</style>
<path class="st0" d="M372.6,108.1H54.1C24.2,108.1,0,83.9,0,54.1l0,0C0,24.2,24.2,0,54.1,0h318.6c29.9,0,54.1,24.2,54.1,54.1l0,0
	C426.7,83.9,402.5,108.1,372.6,108.1z"/>
<linearGradient id="SVGID_1_" gradientUnits="userSpaceOnUse" x1="213.3558" y1="3.218" x2="213.3558" y2="112.7235">
	<stop  offset="0" style="stop-color:#FFFFFF"/>
	<stop  offset="0.204" style="stop-color:#FCFCFC"/>
	<stop  offset="0.374" style="stop-color:#F1F1F1"/>
	<stop  offset="0.5318" style="stop-color:#E0E0E0"/>
	<stop  offset="0.6813" style="stop-color:#C8C8C8"/>
	<stop  offset="0.8159" style="stop-color:#ABABAB"/>
	<stop  offset="1" style="stop-color:#FFFFFF"/>
</linearGradient>
<path class="st1" d="M372.6,108.1H54.1C24.2,108.1,0,83.9,0,54.1l0,0C0,24.2,24.2,0,54.1,0h318.6c29.9,0,54.1,24.2,54.1,54.1l0,0
	C426.7,83.9,402.5,108.1,372.6,108.1z"/>
<radialGradient id="SVGID_00000008840728792315547730000012432201859379788216_" cx="217.5393" cy="151.891" r="202.1549" gradientUnits="userSpaceOnUse">
	<stop  offset="0.1741" style="stop-color:#858585"/>
	<stop  offset="0.3644" style="stop-color:#575757"/>
	<stop  offset="0.5521" style="stop-color:#313131"/>
	<stop  offset="0.7251" style="stop-color:#161616"/>
	<stop  offset="0.8781" style="stop-color:#060606"/>
	<stop  offset="0.995" style="stop-color:#000000"/>
</radialGradient>
<path style="fill:url(#SVGID_00000008840728792315547730000012432201859379788216_);" d="M372.6,108.1H54.1
	C24.2,108.1,0,83.9,0,54.1l0,0C0,24.2,24.2,0,54.1,0h318.6c29.9,0,54.1,24.2,54.1,54.1l0,0C426.7,83.9,402.5,108.1,372.6,108.1z"/>
<linearGradient id="SVGID_00000065056405534166989190000013433209781367989888_" gradientUnits="userSpaceOnUse" x1="229.1519" y1="67.7932" x2="229.1519" y2="1.7033">
	<stop  offset="4.975120e-03" style="stop-color:#000000"/>
	<stop  offset="0.1393" style="stop-color:#020304"/>
	<stop  offset="0.2654" style="stop-color:#080C0F"/>
	<stop  offset="0.3884" style="stop-color:#121C22"/>
	<stop  offset="0.5094" style="stop-color:#21323D"/>
	<stop  offset="0.6291" style="stop-color:#334E5F"/>
	<stop  offset="0.7476" style="stop-color:#4A718A"/>
	<stop  offset="0.8653" style="stop-color:#659BBC"/>
	<stop  offset="0.9796" style="stop-color:#83C9F4"/>
	<stop  offset="1" style="stop-color:#89D2FF"/>
</linearGradient>
<path style="fill:url(#SVGID_00000065056405534166989190000013433209781367989888_);" d="M393,46.3H65.3c-10.1,0-18.2-8.2-18.2-18.2
	v-2.2c0-10.1,8.2-18.2,18.2-18.2H393c10.1,0,18.2,8.2,18.2,18.2v2.2C411.2,38.2,403,46.3,393,46.3z"/>
<g>
	<path class="st4" d="M372.6,110.4H54.1C23,110.4-2.3,85.1-2.3,54.1S23-2.3,54.1-2.3h318.6C403.7-2.3,429,23,429,54.1
		S403.7,110.4,372.6,110.4z M54.1,2.3C25.5,2.3,2.3,25.5,2.3,54.1c0,28.6,23.2,51.8,51.8,51.8h318.6c28.6,0,51.8-23.2,51.8-51.8
		c0-28.6-23.2-51.8-51.8-51.8H54.1z"/>
</g>
<g>
	<path class="st4" d="M109.5,36.7h20.6v5.2h-14.4v10.7h13.6v5.2h-13.6v17.5h-6.2V36.7z"/>
	<path class="st4" d="M134.3,36.7h6.2v38.6h-6.2V36.7z"/>
	<path class="st4" d="M146.5,36.7h7.5l11.2,28.7h0.1V36.7h5.8v38.6h-7.5l-11.2-29.5h-0.1v29.5h-5.8V36.7z"/>
	<path class="st4" d="M184.8,36.7h7.9l10.2,38.6h-6.4l-2.4-9.5h-11.3l-2.5,9.5h-6.4L184.8,36.7z M193,60.9l-4.4-19h-0.1l-4.6,19H193
		z"/>
	<path class="st4" d="M204.9,36.7h6.2v33.4h14.9v5.2h-21.1V36.7z"/>
	<path class="st4" d="M229.3,36.7h6.2v38.6h-6.2V36.7z"/>
	<path class="st4" d="M239.3,70.4l16.1-28.5h-15.2v-5.2h21.9v5.2l-16.1,28.2h16.3v5.2h-23.1V70.4z"/>
	<path class="st4" d="M273.8,36.7h7.9l10.2,38.6h-6.4l-2.4-9.5h-11.3l-2.5,9.5h-6.4L273.8,36.7z M282,60.9l-4.4-19h-0.1l-4.6,19H282
		z"/>
	<path class="st4" d="M294.5,36.7h13.6c5.4,0,9.8,2.7,9.8,9.9c0,5-2.2,8.8-6.4,9.5v0.1c3.8,0.4,5.8,2.5,6,7.9
		c0.1,2.5,0.1,5.5,0.2,7.8c0.1,1.9,1,2.8,1.8,3.3h-7c-0.6-0.7-0.9-1.9-1-3.4c-0.2-2.3-0.2-4.5-0.3-7.3c-0.1-4.2-1.4-6-5.6-6h-5v16.7
		h-6.2V36.7z M305.6,53.9c3.9,0,6.2-2.4,6.2-6.3c0-4.1-1.8-6.3-5.8-6.3h-5.2v12.5H305.6z"/>
</g>
</svg>
