<?xml version="1.0" encoding="utf-8"?>
<!-- Generator: Adobe Illustrator 26.1.0, SVG Export Plug-In . SVG Version: 6.00 Build 0)  -->
<svg version="1.1" id="Camada_1" xmlns="http://www.w3.org/2000/svg" xmlns:xlink="http://www.w3.org/1999/xlink" x="0px" y="0px"
	 viewBox="0 0 119.5 125.2" style="enable-background:new 0 0 119.5 125.2;" xml:space="preserve">
<style type="text/css">
	.st0{opacity:0.3;}
	.st1{fill:#FFFFFF;}
	.st2{fill:#213038;}
	.st3{fill:#009540;}
	.st4{opacity:0.15;}
	.st5{fill:#93C01F;}
</style>
<g id="yes_x5F_button">
	<circle id="shadow_4_" class="st0" cx="59.8" cy="65.4" r="59.8"/>
	<g id="Button_4_">
		<circle class="st1" cx="59.8" cy="59.8" r="59.8"/>
		<circle class="st2" cx="59.8" cy="59.8" r="56.5"/>
		<circle class="st3" cx="59.8" cy="57.2" r="50.9"/>
		<path class="st4" d="M59.8,100.2c-26.8,0-48.7-20.7-50.7-46.9c-0.1,1.3-0.2,2.6-0.2,3.9c0,28.1,22.8,50.9,50.9,50.9
			c28.1,0,50.9-22.8,50.9-50.9c0-1.3-0.1-2.6-0.2-3.9C108.5,79.5,86.5,100.2,59.8,100.2z"/>
		<path class="st5" d="M59.8,11.3c27.3,0,49.5,21.4,50.8,48.4c0-0.8,0.1-1.6,0.1-2.5c0-28.1-22.8-50.9-50.9-50.9
			C31.7,6.3,8.9,29.1,8.9,57.2c0,0.8,0,1.7,0.1,2.5C10.3,32.7,32.5,11.3,59.8,11.3z"/>
		<path class="st1" d="M92,41.6l-5.9-5.9c-1.2-1.2-3.1-1.2-4.3,0L50.5,66.8L37.8,54.1c-1.2-1.2-3.1-1.2-4.3,0L27.5,60
			c-1.2,1.2-1.2,3.1,0,4.3l14.9,14.9l3.8,3.8c2.4,2.4,6.2,2.4,8.6,0l3.8-3.8L92,45.9C93.2,44.7,93.2,42.7,92,41.6z"/>
		<path class="st2" d="M83.9,34.7c0.8,0,1.6,0.3,2.2,0.9l5.9,5.9c1.2,1.2,1.2,3.1,0,4.3L58.6,79.3L54.9,83c-1.2,1.2-2.8,1.8-4.3,1.8
			c-1.6,0-3.1-0.6-4.3-1.8l-3.8-3.8L27.5,64.3c-1.2-1.2-1.2-3.1,0-4.3l5.9-5.9c0.6-0.6,1.4-0.9,2.2-0.9s1.6,0.3,2.2,0.9l12.7,12.7
			l31.2-31.2C82.4,35,83.1,34.7,83.9,34.7 M83.9,32.3c-1.5,0-2.8,0.6-3.9,1.6L50.5,63.4l-11-11c-1-1-2.4-1.6-3.9-1.6
			c-1.5,0-2.8,0.6-3.9,1.6l-5.9,5.9c-2.1,2.1-2.1,5.6,0,7.8L40.7,81l3.8,3.8c1.6,1.6,3.8,2.5,6,2.5c2.3,0,4.4-0.9,6-2.5l3.8-3.8
			l33.4-33.4c1-1,1.6-2.4,1.6-3.9c0-1.5-0.6-2.8-1.6-3.9l-5.9-5.9C86.8,32.8,85.4,32.3,83.9,32.3L83.9,32.3z"/>
		<path class="st4" d="M57.6,59.8l-7.1,7.1L37.8,54.1c-1.2-1.2-3.1-1.2-4.3,0L27.5,60c-1.2,1.2-1.2,3.1,0,4.3l14.9,14.9l3.8,3.8
			c2.4,2.4,6.2,2.4,8.6,0l3.8-3.8l19.5-19.5H57.6z"/>
	</g>
</g>
</svg>
