<svg xmlns="http://www.w3.org/2000/svg" width="118.503" height="372.436" viewBox="0 0 118.503 372.436">
  <g id="Grupo_9" data-name="Grupo 9" transform="translate(-267.363 -11273.76)">
    <path id="Caminho_26" data-name="Caminho 26" d="M360.875,11646.2H292.354a25.065,25.065,0,0,1-24.991-24.991v-322.453a25.065,25.065,0,0,1,24.991-24.991h68.521a25.065,25.065,0,0,1,24.991,24.991V11621.2a25.065,25.065,0,0,1-24.991,24.991" fill="#262422"/>
    <path id="Caminho_27" data-name="Caminho 27" d="M368.285,11350.443a41.671,41.671,0,1,1-41.671-41.671,41.671,41.671,0,0,1,41.671,41.671" fill="#ea0606"/>
    <path id="Caminho_28" data-name="Caminho 28" d="M368.285,11459.978a41.671,41.671,0,1,1-41.671-41.671,41.672,41.672,0,0,1,41.671,41.671" fill="#6f6f6e"/>
    <path id="Caminho_29" data-name="Caminho 29" d="M368.285,11569.513a41.671,41.671,0,1,1-41.671-41.671,41.671,41.671,0,0,1,41.671,41.671" fill="#6f6f6e"/>
  </g>
</svg>
