<svg xmlns="http://www.w3.org/2000/svg" width="118.503" height="372.436" viewBox="0 0 118.503 372.436">
  <g id="Grupo_8" data-name="Grupo 8" transform="translate(-267.363 -10857.889)">
    <path id="Caminho_22" data-name="Caminho 22" d="M360.875,11230.324H292.354a25.065,25.065,0,0,1-24.991-24.991V10882.88a25.065,25.065,0,0,1,24.991-24.991h68.521a25.065,25.065,0,0,1,24.991,24.991v322.453a25.065,25.065,0,0,1-24.991,24.991" fill="#262422"/>
    <path id="Caminho_23" data-name="Caminho 23" d="M368.285,10934.571a41.671,41.671,0,1,1-41.671-41.671,41.671,41.671,0,0,1,41.671,41.671" fill="#6f6f6e"/>
    <path id="Caminho_24" data-name="Caminho 24" d="M368.285,11044.106a41.671,41.671,0,1,1-41.671-41.672,41.671,41.671,0,0,1,41.671,41.672" fill="#e4ea0a"/>
    <path id="Caminho_25" data-name="Caminho 25" d="M368.285,11153.641a41.671,41.671,0,1,1-41.671-41.671,41.671,41.671,0,0,1,41.671,41.671" fill="#6f6f6e"/>
  </g>
</svg>
