<svg xmlns="http://www.w3.org/2000/svg" width="118.503" height="372.436" viewBox="0 0 118.503 372.436">
  <g id="Grupo_7" data-name="Grupo 7" transform="translate(-267.363 -10442.017)">
    <path id="Caminho_18" data-name="Caminho 18" d="M360.875,10814.452H292.354a25.065,25.065,0,0,1-24.991-24.991v-322.453a25.065,25.065,0,0,1,24.991-24.991h68.521a25.065,25.065,0,0,1,24.991,24.991v322.453a25.065,25.065,0,0,1-24.991,24.991" fill="#262422"/>
    <path id="Caminho_19" data-name="Caminho 19" d="M368.285,10518.7a41.671,41.671,0,1,1-41.671-41.671,41.671,41.671,0,0,1,41.671,41.671" fill="#6f6f6e"/>
    <path id="Caminho_20" data-name="Caminho 20" d="M368.285,10628.234a41.671,41.671,0,1,1-41.671-41.671,41.671,41.671,0,0,1,41.671,41.671" fill="#6f6f6e"/>
    <path id="Caminho_21" data-name="Caminho 21" d="M368.285,10737.769a41.671,41.671,0,1,1-41.671-41.671,41.672,41.672,0,0,1,41.671,41.671" fill="#53bc1b"/>
  </g>
</svg>
