<svg xmlns="http://www.w3.org/2000/svg" xmlns:xlink="http://www.w3.org/1999/xlink" width="162.433" height="162.432" viewBox="0 0 162.433 162.432">
  <defs>
    <linearGradient id="linear-gradient" x1="1.517" y1="1.149" x2="1.517" y2="0.15" gradientUnits="objectBoundingBox">
      <stop offset="0" stop-color="#126bff"/>
      <stop offset="1" stop-color="#c61bff"/>
    </linearGradient>
  </defs>
  <g id="Grupo_470" data-name="Grupo 470" transform="translate(-4146.705 -3375.546)">
    <path id="Caminho_265" data-name="Caminho 265" d="M4243.4,3536.48a81.208,81.208,0,1,1,64.241-95.228A81.316,81.316,0,0,1,4243.4,3536.48Z" fill="url(#linear-gradient)"/>
    <g id="Grupo_469" data-name="Grupo 469">
      <path id="Caminho_266" data-name="Caminho 266" d="M4199.35,3440.049l1.891,9.734,10.472-2.035-1.891-9.733Zm9.953,2.989-2.549,3.778a2.086,2.086,0,0,1-1.324.877,2.16,2.16,0,0,1-1.557-.317l-1.847-1.246a2.054,2.054,0,0,1-.56-2.882,2.087,2.087,0,0,1,2.882-.56l.126.085,1.416-2.1a2.053,2.053,0,0,1,2.881-.56A2.2,2.2,0,0,1,4209.3,3443.038Z" fill="#fff"/>
      <path id="Caminho_267" data-name="Caminho 267" d="M4259.887,3414.72l17.174,88.379a1.255,1.255,0,0,1-.963,1.427l-74.955,14.565a1.255,1.255,0,0,1-1.427-.963l-17.167-88.343a1.254,1.254,0,0,1,.963-1.427l13.248-2.575.621,3.2-9.172,1.782a2.039,2.039,0,0,0-1.613,2.393l15.6,80.261a2.04,2.04,0,0,0,2.392,1.614l66.838-12.988a2.041,2.041,0,0,0,1.614-2.393l-15.6-80.3a2.039,2.039,0,0,0-2.392-1.614l-9.172,1.783-.621-3.2,13.248-2.575A1.157,1.157,0,0,1,4259.887,3414.72Z" fill="#fff"/>
      <rect id="Retângulo_61" data-name="Retângulo 61" width="27.35" height="13.03" transform="translate(4203.821 3404.317) rotate(-10.997)" fill="#fff"/>
      <path id="Caminho_268" data-name="Caminho 268" d="M4246.1,3423.708a1.8,1.8,0,0,1-.233.3c-.028.042-.092.091-.12.132a2.138,2.138,0,0,1-.388.258.214.214,0,0,1-.133.063l-.035.006-.036.007a1.33,1.33,0,0,1-.169.069l-.21.041-44.453,8.639-.211.041a1.366,1.366,0,0,0-.183,0l-.035.006-.035.007c-.035.007-.112-.014-.147-.008a2.136,2.136,0,0,1-.456-.093c-.042-.029-.112-.015-.161-.079a1.974,1.974,0,0,1-.329-.191l-7.766,1.509,14.853,76.249,62.831-12.21-14.818-76.255Zm-27.471,11.392,31.416-6.1a2.04,2.04,0,0,1,.779,4.006l-31.416,6.1a2.038,2.038,0,0,1-2.392-1.614A2.016,2.016,0,0,1,4218.627,3435.1Zm38.035,15.948a2.016,2.016,0,0,1-1.613,2.392l-7.31,1.421a2.04,2.04,0,0,1-.778-4.006l7.309-1.421A2.039,2.039,0,0,1,4256.662,3451.048Zm-36.464-7.866,20.171-3.919a2.04,2.04,0,1,1,.778,4.006l-20.171,3.919a2.039,2.039,0,0,1-2.392-1.613A2.018,2.018,0,0,1,4220.2,3443.182Zm-25.314-4.344a2.041,2.041,0,0,1,1.614-2.392l14.548-2.827a2.04,2.04,0,0,1,2.392,1.614l2.677,13.775a2.038,2.038,0,0,1-1.614,2.392l-14.548,2.827a2.039,2.039,0,0,1-2.392-1.613Zm5.93,20.947,40.447-7.859a2.04,2.04,0,0,1,.779,4.006l-40.447,7.859a2.038,2.038,0,0,1-2.392-1.613A2.017,2.017,0,0,1,4200.814,3459.785Zm1.571,8.083,7.309-1.421a2.04,2.04,0,0,1,.779,4.006l-7.31,1.421a2.04,2.04,0,0,1-2.392-1.614A2.016,2.016,0,0,1,4202.385,3467.868Zm1.571,8.082,40.446-7.86a2.04,2.04,0,1,1,.779,4.006l-40.447,7.86a2.038,2.038,0,0,1-2.392-1.614A2.017,2.017,0,0,1,4203.956,3475.95Zm1.57,8.083,7.309-1.421a2.04,2.04,0,1,1,.779,4.006l-7.309,1.421a2.041,2.041,0,0,1-2.393-1.614A2.016,2.016,0,0,1,4205.526,3484.033Zm1.571,8.082,40.447-7.86a2.04,2.04,0,1,1,.778,4.006l-40.447,7.86a2.04,2.04,0,0,1-2.392-1.614A2.017,2.017,0,0,1,4207.1,3492.115Zm9.665,10.7-7.31,1.42a2.039,2.039,0,0,1-2.392-1.613,2,2,0,0,1,1.614-2.393l7.309-1.42a2.041,2.041,0,1,1,.779,4.006Zm46.146-8.931-40.411,7.853a2.041,2.041,0,1,1-.779-4.006l40.447-7.86a2.04,2.04,0,0,1,2.392,1.614A2.069,2.069,0,0,1,4262.908,3493.887Zm-11.272-8.276a2.04,2.04,0,0,1,1.614-2.392l7.309-1.42a2.038,2.038,0,0,1,2.392,1.614,2.017,2.017,0,0,1-1.613,2.392l-7.31,1.42A2.039,2.039,0,0,1,4251.636,3485.611Zm8.131-7.888-40.412,7.852a2.04,2.04,0,1,1-.778-4.006l40.447-7.859a2.039,2.039,0,0,1,2.392,1.614A2.07,2.07,0,0,1,4259.767,3477.723Zm-11.272-8.276a2.039,2.039,0,0,1,1.614-2.392l7.309-1.421a2.04,2.04,0,0,1,.779,4.006l-7.31,1.421A2.041,2.041,0,0,1,4248.5,3469.447Zm8.124-7.924-40.412,7.853a2.04,2.04,0,1,1-.778-4.006l40.447-7.86a2.041,2.041,0,1,1,.743,4.013Z" fill="#fff"/>
      <path id="Caminho_269" data-name="Caminho 269" d="M4242.014,3420.892l-40.412,7.852-2.779-14.3,2.706-.526,1.16,5.974a2.047,2.047,0,0,0,2.4,1.649l30.924-6.009a2.07,2.07,0,0,0,1.607-2.427l-1.161-5.974,2.706-.526Z" fill="#fff"/>
    </g>
  </g>
</svg>
