<?xml version="1.0" encoding="UTF-8"?>
<svg xmlns="http://www.w3.org/2000/svg" version="1.1" viewBox="0 0 229.3 46.5">
  <defs>
    <style>
      .cls-1 {
        fill: #8a1351;
      }
    </style>
  </defs>
  <!-- Generator: Adobe Illustrator 28.7.1, SVG Export Plug-In . SVG Version: 1.2.0 Build 142)  -->
  <g>
    <g id="Camada_1">
      <g>
        <path class="cls-1" d="M.6,46.5c-.1,0-.2,0-.3,0-.2-.1-.3-.3-.3-.5V.6C0,.4.1.2.3,0,.5,0,.7,0,.9,0l39.2,22.6c.2.1.3.3.3.5s-.1.4-.3.5L.9,46.4c0,0-.2,0-.3,0"/>
        <path class="cls-1" d="M63.6,46.5c-.1,0-.2,0-.3,0-.2-.1-.3-.3-.3-.5V.6c0-.2.1-.4.3-.5.2-.1.4-.1.6,0l39.2,22.6c.2.1.3.3.3.5s-.1.4-.3.5l-39.2,22.6c0,0-.2,0-.3,0"/>
        <path class="cls-1" d="M126.6,46.5c-.1,0-.2,0-.3,0-.2-.1-.3-.3-.3-.5V.6c0-.2.1-.4.3-.5.2-.1.4-.1.6,0l39.2,22.6c.2.1.3.3.3.5s-.1.4-.3.5l-39.2,22.6c0,0-.2,0-.3,0"/>
        <path class="cls-1" d="M189.5,46.5c-.1,0-.2,0-.3,0-.2-.1-.3-.3-.3-.5V.6c0-.2.1-.4.3-.5.2-.1.4-.1.6,0l39.2,22.6c.2.1.3.3.3.5s-.1.4-.3.5l-39.2,22.6c0,0-.2,0-.3,0"/>
      </g>
    </g>
  </g>
</svg>