<?xml version="1.0" encoding="UTF-8"?>
<svg xmlns="http://www.w3.org/2000/svg" version="1.1" viewBox="0 0 149.3 149.3">
  <defs>
    <style>
      .cls-1 {
        fill: #15385c;
      }

      .cls-2 {
        fill: #fff;
      }
    </style>
  </defs>
  <!-- Generator: Adobe Illustrator 28.7.1, SVG Export Plug-In . SVG Version: 1.2.0 Build 142)  -->
  <g>
    <g id="Camada_1">
      <rect class="cls-2" x="21.9" y="21.9" width="105.5" height="105.5" transform="translate(-30.9 74.6) rotate(-45)"/>
      <path class="cls-1" d="M80.7,116.2c-.4-.2-.8-.6-.8-1.2v-23.5h-10.5v23.5c0,.6-.4,1-.8,1.2s-1.1,0-1.5-.2l-10.9-10.8v10.6l19.5,17,17.2-17v-10.6l-10.9,10.8c-.2.2-.8.2-1.3.2"/>
      <path class="cls-1" d="M32.6,80.7c.2-.4.6-.8,1.3-.8h22.3v-10.4h-22.3c-.6,0-1-.4-1.3-.8-.2-.4,0-1,.2-1.5l10.9-10.8h-10.7l-17.2,19.3,17.2,17h10.7l-10.9-10.8c-.2-.2-.2-.8-.2-1.2"/>
      <path class="cls-1" d="M68.5,33.1c.4.2.8.6.8,1.2v23.5h10.5v-23.5c0-.6.4-1,.8-1.2s1.1,0,1.5.2l10.9,10.8v-10.6l-17.2-17-19.5,17v10.6l10.9-10.8c.2-.2.8-.2,1.3-.2"/>
      <path class="cls-1" d="M116,56.6h-10.7l10.9,10.8c.4.4.4.8.2,1.5-.2.4-.6.8-1.3.8h-22.1v10.4h22.3c.6,0,1.1.4,1.3.8.2.4,0,1-.2,1.5l-10.9,10.8h10.7l17.2-17-17.4-19.5Z"/>
    </g>
  </g>
</svg>