<?xml version="1.0" encoding="UTF-8"?>
<svg xmlns="http://www.w3.org/2000/svg" xmlns:xlink="http://www.w3.org/1999/xlink" version="1.1" viewBox="0 0 82.7 82.7">
  <!-- Generator: Adobe Illustrator 29.7.1, SVG Export Plug-In . SVG Version: 2.1.1 Build 8)  -->
  <defs>
    <style>
      .st0 {
        fill: url(#linear-gradient2);
      }

      .st0, .st1 {
        mix-blend-mode: screen;
        opacity: .2;
      }

      .st2 {
        fill: url(#radial-gradient);
      }

      .st2, .st3, .st4, .st5 {
        fill-rule: evenodd;
      }

      .st3 {
        fill: #e5097c;
      }

      .st1 {
        fill: url(#linear-gradient);
      }

      .st6 {
        isolation: isolate;
      }

      .st7 {
        fill: #fff;
      }

      .st4 {
        fill: url(#radial-gradient1);
        mix-blend-mode: soft-light;
        opacity: .5;
      }

      .st5 {
        fill: url(#linear-gradient1);
      }
    </style>
    <radialGradient id="radial-gradient" cx="39.4" cy="-3" fx="39.4" fy="-3" r="81.8" gradientTransform="translate(0 0)" gradientUnits="userSpaceOnUse">
      <stop offset="0" stop-color="#8a1351"/>
      <stop offset=".4" stop-color="#5e133d"/>
      <stop offset=".5" stop-color="#511034"/>
      <stop offset=".8" stop-color="#300a1f"/>
      <stop offset="1" stop-color="#010101"/>
    </radialGradient>
    <radialGradient id="radial-gradient1" cx="41.4" cy="32" fx="41.4" fy="32" r="54.9" gradientTransform="translate(0 0)" gradientUnits="userSpaceOnUse">
      <stop offset="0" stop-color="#fff"/>
      <stop offset=".2" stop-color="#fbedf4"/>
      <stop offset=".5" stop-color="#f2bed7"/>
      <stop offset="1" stop-color="#e374aa"/>
      <stop offset="1" stop-color="#e370a8"/>
    </radialGradient>
    <linearGradient id="linear-gradient" x1="47.6" y1="53.3" x2="17.2" y2="11.4" gradientUnits="userSpaceOnUse">
      <stop offset="0" stop-color="#010101"/>
      <stop offset="0" stop-color="#060606"/>
      <stop offset=".2" stop-color="#151515"/>
      <stop offset=".4" stop-color="#2f2f2f"/>
      <stop offset=".5" stop-color="#525252"/>
      <stop offset=".7" stop-color="gray"/>
      <stop offset=".8" stop-color="#b8b8b8"/>
      <stop offset="1" stop-color="#f9f9f9"/>
      <stop offset="1" stop-color="#fff"/>
    </linearGradient>
    <linearGradient id="linear-gradient1" x1=".7" y1="41.4" x2="82" y2="41.4" gradientUnits="userSpaceOnUse">
      <stop offset="0" stop-color="#e03b8d"/>
      <stop offset="0" stop-color="#e34f99"/>
      <stop offset="0" stop-color="#ea7db4"/>
      <stop offset=".1" stop-color="#f1a4cb"/>
      <stop offset=".2" stop-color="#f5c1dc"/>
      <stop offset=".2" stop-color="#f9d7e8"/>
      <stop offset=".2" stop-color="#fbe3f0"/>
      <stop offset=".3" stop-color="#fce8f3"/>
      <stop offset=".4" stop-color="#f2b9d5"/>
      <stop offset=".6" stop-color="#e987b6"/>
      <stop offset=".6" stop-color="#ec97c0"/>
      <stop offset=".6" stop-color="#f2bcd6"/>
      <stop offset=".7" stop-color="#f8d9e8"/>
      <stop offset=".7" stop-color="#fbeef4"/>
      <stop offset=".8" stop-color="#fefafc"/>
      <stop offset=".8" stop-color="#fff"/>
      <stop offset=".9" stop-color="#fbedf4"/>
      <stop offset=".9" stop-color="#f2bed7"/>
      <stop offset="1" stop-color="#e374aa"/>
      <stop offset="1" stop-color="#e370a8"/>
    </linearGradient>
    <linearGradient id="linear-gradient2" x1="-183.7" y1="-246" x2="-168.9" y2="-217.9" gradientTransform="translate(284.1 179.3) rotate(87) scale(1 -1)" gradientUnits="userSpaceOnUse">
      <stop offset="0" stop-color="#010101"/>
      <stop offset=".2" stop-color="#030201"/>
      <stop offset=".4" stop-color="#0b0801"/>
      <stop offset=".5" stop-color="#191201"/>
      <stop offset=".6" stop-color="#2d2002"/>
      <stop offset=".7" stop-color="#463202"/>
      <stop offset=".8" stop-color="#664803"/>
      <stop offset=".8" stop-color="#8b6204"/>
      <stop offset=".9" stop-color="#b68105"/>
      <stop offset="1" stop-color="#e6a206"/>
      <stop offset="1" stop-color="#f8af07"/>
    </linearGradient>
  </defs>
  <g class="st6">
    <g id="Camada_1">
      <g>
        <g>
          <g>
            <path class="st3" d="M82.7,41.4c0,22.8-18.5,41.4-41.3,41.4S0,64.2,0,41.4,18.5,0,41.3,0s41.3,18.5,41.3,41.4Z"/>
            <path class="st2" d="M80.3,41.4c0,21.5-17.5,39-39,39S2.4,62.9,2.4,41.4,19.8,2.4,41.3,2.4s39,17.4,39,38.9Z"/>
            <path class="st4" d="M41.3,82c16.5,0,30.7-9.8,37.1-24-5.1-15.6-19.7-26.9-37.1-26.9S9.3,42.4,4.3,58c6.4,14.2,20.6,24,37.1,24Z"/>
            <path class="st1" d="M76.6,30.2c-15.6-8.7-31.1-13.1-46.1-13.1s-15.5,1.3-21.9,3.2c-3.9,6.1-6.2,13.3-6.2,21s4,19.6,10.5,26.6c16.3-12.5,38.9-26.7,62.3-31.8.5-2,1-4,1.4-5.9Z"/>
            <path class="st5" d="M41.3.7C18.9.7.7,18.9.7,41.4s18.2,40.6,40.6,40.6,40.6-18.2,40.6-40.6S63.8.7,41.3.7ZM41.3,80.3c-21.5,0-39-17.4-39-39S19.8,2.4,41.3,2.4s39,17.4,39,38.9-17.5,39-39,39Z"/>
          </g>
          <path class="st0" d="M41.1,23.7c9.2-.5,16.4-5.1,16.1-10.3-.3-5.2-7.9-9-17.1-8.6-9.2.5-16.4,5.1-16.1,10.3.3,5.2,7.9,9,17.1,8.6Z"/>
        </g>
        <path class="st7" d="M34.6,25.4c-1.7-1.2-3-.4-3,1.6v28c0,2.1,1.3,2.8,3,1.6l21.7-13.9c1.6-1.2,1.6-3.1,0-4.2l-21.6-13.1Z"/>
      </g>
    </g>
  </g>
</svg>