<?xml version="1.0" standalone="no"?>
<!DOCTYPE svg PUBLIC "-//W3C//DTD SVG 1.1//EN" "http://www.w3.org/Graphics/SVG/1.1/DTD/svg11.dtd" >
<svg xmlns="http://www.w3.org/2000/svg" xmlns:xlink="http://www.w3.org/1999/xlink" version="1.1">
<metadata>
Created by FontForge 20170731 at Fri Nov  9 19:27:46 2001
 By Aleksey,,,
Copyright (c) 1990 Adobe Systems Incorporated.  All Rights Reserved.Helvetica is a trademark of Linotype AG and/or its subsidiaries.
</metadata>
<defs>
<font id="HelveticaNeueCondBoldItalic" horiz-adv-x="480" >
  <font-face 
    font-family="HelveticaNeueCond"
    font-weight="17661"
    font-style="italic"
    font-stretch="normal"
    units-per-em="1000"
    panose-1="0 0 -79 0 0 0 0 0 0 0"
    ascent="800"
    descent="-200"
    x-height="538"
    cap-height="714"
    bbox="-171 -224 1116 961"
    underline-thickness="50"
    underline-position="-175"
    unicode-range="U+0020-F002"
  />
<missing-glyph horiz-adv-x="500" 
d="M63 0v809h375v-809h-375zM125 63h250v684h-250v-684z" />
    <glyph glyph-name=".notdef" horiz-adv-x="500" 
d="M63 0v809h375v-809h-375zM125 63h250v684h-250v-684z" />
    <glyph glyph-name=".null" horiz-adv-x="0" 
 />
    <glyph glyph-name="nonmarkingreturn" horiz-adv-x="240" 
 />
    <glyph glyph-name="space" unicode=" " horiz-adv-x="240" 
 />
    <glyph glyph-name="exclam" unicode="!" horiz-adv-x="296" 
d="M240 199h-100l41 283l50 232h138l-50 -232zM107 132h138l-28 -132h-138z" />
    <glyph glyph-name="quotedbl" unicode="&#x22;" horiz-adv-x="463" 
d="M351 393l68 321h124l-68 -321h-124zM156 393l68 321h124l-68 -321h-124z" />
    <glyph glyph-name="numbersign" unicode="#" 
d="M37 174l24 112h87l42 122h-73l24 112h86l59 174h96l-58 -174h97l59 174h97l-59 -174h73l-24 -112h-86l-42 -122h73l-24 -112h-86l-59 -174h-97l59 174h-98l-58 -174h-97l59 174h-74zM286 408l-41 -122h97l42 122h-98z" />
    <glyph glyph-name="dollar" unicode="$" 
d="M326 269l-37 -177q37 8 57.5 39t20.5 71q0 43 -41 67zM299 442l34 160q-52 -15 -65 -76q-3 -12 -3 -23q0 -38 34 -61zM184 -101l18 87q-161 13 -161 136q0 29 9 69l4 21h138q-8 -38 -8 -60q0 -49 41 -60l42 202l-46 18q-102 40 -102 140q0 24 6 52q39 183 230 204l15 69
h64l-15 -69q151 -13 151 -136q0 -24 -6 -53l-3 -14h-138q5 24 5 42q0 44 -31 55l-40 -189l72 -32q91 -40 91 -124q0 -25 -6 -57q-43 -200 -248 -214l-18 -87h-64z" />
    <glyph glyph-name="percent" unicode="%" horiz-adv-x="778" 
d="M583 100q0 -38 31 -38q28 0 44 30q11 23 25 89q11 51 11 73q0 38 -31 38q-28 0 -43 -29q-12 -22 -24.5 -81t-12.5 -82zM489 177q21 103 59 144q43 47 131 47q66 0 94 -24t28 -76q0 -34 -12 -91q-22 -103 -59 -144q-43 -47 -132 -47q-66 0 -93.5 24t-27.5 76q0 34 12 91z
M137 517q22 103 59 144q43 47 131 47q66 0 94 -24t28 -76q0 -34 -12 -91q-22 -103 -59 -144q-43 -47 -132 -47q-66 0 -93.5 24t-27.5 76q0 34 12 91zM231 440q0 -38 31 -38q28 0 44 30q12 23 26 89q11 51 11 73q0 38 -32 38q-27 0 -43 -29q-11 -22 -24 -81t-13 -82zM133 -31
l567 756h89l-567 -756h-89z" />
    <glyph glyph-name="ampersand" unicode="&#x26;" horiz-adv-x="593" 
d="M321 557q0 -26 20 -67l12 -24l31 22q63 45 63 94q0 44 -52 44q-30 0 -52 -20t-22 -49zM373 143l-83 170q-101 -67 -101 -140q0 -31 21 -53t61 -22q57 0 102 45zM400 380l76 -145q36 52 48 108h124q-23 -107 -118 -211l66 -132h-153l-28 55q-73 -69 -187 -69
q-181 0 -181 154q0 152 194 258l-18 37q-25 54 -25 91q0 16 5 38q15 69 73.5 109.5t140.5 40.5q150 0 150 -114q0 -17 -4 -35q-21 -98 -163 -185z" />
    <glyph glyph-name="quotesingle" unicode="'" horiz-adv-x="260" 
d="M152 393l68 321h124l-68 -321h-124z" />
    <glyph glyph-name="parenleft" unicode="(" horiz-adv-x="296" 
d="M342 714h106q-158 -207 -210 -449q-23 -112 -23 -203q0 -120 42 -246h-106q-61 146 -61 296q0 77 16 153q48 226 236 449z" />
    <glyph glyph-name="parenright" unicode=")" horiz-adv-x="296" 
d="M152 714h106q60 -146 60 -296q0 -77 -16 -153q-48 -226 -235 -449h-106q158 207 209 449q24 112 24 203q0 120 -42 246z" />
    <glyph glyph-name="asterisk" unicode="*" horiz-adv-x="390" 
d="M306 714h82l-27 -128l130 40l8 -78l-130 -40l54 -104l-77 -48l-53 104l-97 -104l-57 48l98 104l-114 40l42 78l114 -40z" />
    <glyph glyph-name="plus" unicode="+" horiz-adv-x="600" 
d="M238 0l41 191h-191l26 124h191l41 191h124l-41 -191h191l-26 -124h-191l-41 -191h-124z" />
    <glyph glyph-name="comma" unicode="," horiz-adv-x="240" 
d="M87 156h132l-27 -130q-19 -88 -54 -131q-42 -53 -119 -60l15 70q54 9 69 79l3 16h-52z" />
    <glyph glyph-name="hyphen" unicode="-" horiz-adv-x="370" 
d="M118 348h282l-25 -118h-282z" />
    <glyph glyph-name="hyphen" unicode="&#x2010;" horiz-adv-x="370" 
d="M118 348h282l-25 -118h-282z" />
    <glyph glyph-name="period" unicode="." horiz-adv-x="240" 
d="M87 156h132l-33 -156h-132z" />
    <glyph glyph-name="slash" unicode="/" horiz-adv-x="332" 
d="M-6 -14l384 742h112l-384 -742h-112z" />
    <glyph glyph-name="zero" unicode="0" 
d="M242 376l-16 -77q-24 -109 -24 -155q0 -64 55 -64q47 0 73 51q26 48 56 187l16 77q23 109 23 155q0 64 -54 64q-47 0 -73.5 -49.5t-55.5 -188.5zM88 330q40 186 88 263q72 115 214 115q92 0 132.5 -38.5t40.5 -126.5q0 -67 -24 -179q-39 -186 -87 -263
q-73 -115 -215 -115q-92 0 -132.5 38.5t-40.5 126.5q0 67 24 179z" />
    <glyph glyph-name="one" unicode="1" 
d="M326 0h-144l106 500h-141l20 94h13q146 0 190 114h106z" />
    <glyph glyph-name="two" unicode="2" 
d="M478 112l-24 -112h-436q19 92 74 166q50 68 148 144l69 54q55 43 76 74.5t33 87.5q4 18 4 32q0 56 -55 56q-49 0 -76 -41q-18 -29 -34 -97h-138l6 27q43 205 263 205q178 0 178 -139q0 -25 -7 -54q-14 -69 -49.5 -119t-107.5 -106l-96 -74q-73 -56 -95 -104h267z" />
    <glyph glyph-name="three" unicode="3" 
d="M64 207h138q-7 -40 -7 -64q0 -63 59 -63q48 0 73 34q18 25 30 80q7 30 7 51q0 70 -74 70h-48l20 94h47q82 0 106 112q5 23 5 40q0 53 -54 53q-44 0 -67 -32q-19 -26 -31 -83h-132q44 209 252 209q172 0 172 -130q0 -24 -6 -52q-28 -132 -141 -156l-1 -2q97 -15 97 -112
q0 -25 -6 -55q-46 -215 -281 -215q-166 0 -166 150q0 31 7 68z" />
    <glyph glyph-name="four" unicode="4" 
d="M321 259l57 269h-2l-195 -269h140zM45 147l25 118l329 443h149l-95 -449h68l-24 -112h-68l-31 -147h-132l31 147h-252z" />
    <glyph glyph-name="five" unicode="5" 
d="M573 694l-24 -112h-261l-50 -161h2q50 53 142 53q134 0 134 -143q0 -38 -9 -83q-27 -128 -86 -189q-69 -73 -197 -73q-174 0 -174 140q0 27 7 57l4 19h138q-7 -30 -7 -53q0 -63 52 -63q84 0 114 138q12 58 12 88q0 62 -64 62q-59 0 -81 -65h-129l108 385h369z" />
    <glyph glyph-name="six" unicode="6" 
d="M561 528h-138q5 20 5 35q0 51 -51 51q-53 0 -84 -51q-24 -40 -43 -129l-7 -35h2q52 61 146 61q135 0 135 -140q0 -36 -9 -81q-54 -253 -283 -253q-173 0 -173 173q0 60 20 158q42 195 89 270q76 121 232 121q164 0 164 -132q0 -22 -5 -48zM212 220q-10 -46 -10 -74
q0 -66 59 -66q48 0 74 40q19 30 34 100q9 42 9 69q0 65 -59 65q-43 0 -67.5 -31t-39.5 -103z" />
    <glyph glyph-name="seven" unicode="7" 
d="M170 694h436l-24 -110q-218 -237 -332 -584h-151q112 328 342 570h-298z" />
    <glyph glyph-name="eight" unicode="8" 
d="M57 200q14 69 55 116t102 59v2q-76 21 -76 104q0 16 3 32q41 195 249 195q174 0 174 -135q0 -28 -7 -60q-9 -44 -39 -80q-37 -42 -92 -56v-2q89 -19 89 -122q0 -25 -6 -53q-46 -214 -272 -214q-187 0 -187 153q0 29 7 61zM280 517q-4 -20 -4 -37q0 -62 53 -62q70 0 91 99
q5 22 5 39q0 58 -54 58q-70 0 -91 -97zM201 202q-7 -31 -7 -53q0 -69 63 -69q82 0 108 122q7 31 7 53q0 69 -63 69q-82 0 -108 -122z" />
    <glyph glyph-name="nine" unicode="9" 
d="M66 165h138q-4 -20 -4 -34q0 -51 51 -51q53 0 83 51q24 40 43 129l7 34h-2q-52 -60 -145 -60q-136 0 -136 140q0 36 10 81q53 253 282 253q174 0 174 -173q0 -60 -21 -158q-41 -196 -89 -271q-75 -120 -232 -120q-164 0 -164 131q0 22 5 48zM259 474q-9 -42 -9 -69
q0 -65 58 -65q43 0 68 31t40 103q9 46 9 74q0 66 -58 66q-49 0 -74 -40q-19 -30 -34 -100z" />
    <glyph glyph-name="colon" unicode=":" horiz-adv-x="240" 
d="M54 0l33 156h132l-33 -156h-132zM132 365l33 156h132l-33 -156h-132z" />
    <glyph glyph-name="semicolon" unicode=";" horiz-adv-x="240" 
d="M87 156h132l-27 -130q-19 -88 -54 -131q-42 -53 -119 -60l15 70q54 9 69 79l3 16h-52zM165 521h132l-33 -156h-132z" />
    <glyph glyph-name="less" unicode="&#x3c;" horiz-adv-x="600" 
d="M90 200l22 106l550 208l-26 -124l-367 -137l309 -137l-27 -124z" />
    <glyph glyph-name="equal" unicode="=" horiz-adv-x="600" 
d="M111 300l26 124h506l-26 -124h-506zM64 82l27 124h506l-27 -124h-506z" />
    <glyph glyph-name="greater" unicode="&#x3e;" horiz-adv-x="600" 
d="M45 -8l27 124l367 137l-309 137l26 124l462 -208l-22 -106z" />
    <glyph glyph-name="question" unicode="?" horiz-adv-x="481" 
d="M273 493h-132l5 23q19 93 82 149.5t159 56.5q176 0 176 -142q0 -24 -6 -51q-18 -85 -96 -156l-49 -45q-61 -55 -74 -115l-3 -15h-124l8 39q19 87 96 157l47 43q47 43 60 106q4 15 4 29q0 56 -54 56q-71 0 -94 -110zM190 132h138l-28 -132h-138z" />
    <glyph glyph-name="at" unicode="@" horiz-adv-x="800" 
d="M366 305q0 -60 56 -60q50 0 97.5 47t47.5 97q0 26 -17 43t-44 17q-49 0 -94.5 -47t-45.5 -97zM626 488l24 53h88l-111 -250q-12 -26 -15 -41q-4 -20 16 -20q33 0 77 48q48 53 64 126q4 22 4 42q0 82 -63.5 135t-157.5 53q-116 0 -214 -84t-121 -194q-6 -28 -6 -55
q0 -94 65 -157.5t165 -63.5q112 0 231 64h89q-145 -158 -364 -158q-133 0 -216.5 83t-83.5 210q0 39 8 78q33 154 164.5 262.5t285.5 108.5q136 0 224.5 -67t88.5 -178q0 -28 -7 -58q-29 -139 -148 -222q-91 -64 -163 -64q-61 0 -54 53h-2q-61 -53 -131 -53
q-48 0 -81.5 34.5t-33.5 92.5q0 21 5 43q20 97 93 169q79 77 173 77q80 0 107 -67z" />
    <glyph glyph-name="A" unicode="A" horiz-adv-x="556" 
d="M0 0l341 714h178l37 -714h-150l-1 151h-190l-65 -151h-150zM402 590l-137 -321h140l-1 321h-2z" />
    <glyph glyph-name="B" unicode="B" horiz-adv-x="556" 
d="M50 0l152 714h241q171 0 171 -127q0 -25 -7 -54q-26 -126 -141 -156v-2q100 -14 100 -119q0 -22 -6 -47q-44 -209 -267 -209h-243zM323 608l-40 -187h41q115 0 135 94q4 17 4 31q0 62 -88 62h-52zM262 321l-45 -215h56q116 0 138 108q5 19 5 35q0 72 -92 72h-62z" />
    <glyph glyph-name="C" unicode="C" horiz-adv-x="537" 
d="M600 473h-144q10 48 10 79q0 70 -65 70q-53 0 -85 -62q-30 -57 -63 -213q-25 -116 -25 -173q0 -47 17 -66q14 -16 46 -16q44 0 71 33q34 41 57 148h144q-28 -134 -85 -201q-73 -86 -203 -86q-104 0 -149 49q-41 43 -41 132q0 68 26 190q40 188 97 267q76 104 225 104
q179 0 179 -155q0 -40 -12 -100z" />
    <glyph glyph-name="D" unicode="D" horiz-adv-x="574" 
d="M57 0l152 714h236q100 0 144 -47q40 -42 40 -130q0 -64 -22 -170q-42 -197 -110 -278q-74 -89 -213 -89h-227zM330 608l-106 -502h64q73 0 109 56q33 51 65 201q22 102 22 149q0 96 -93 96h-61z" />
    <glyph glyph-name="E" unicode="E" horiz-adv-x="481" 
d="M202 714h399l-25 -118h-255l-36 -168h240l-25 -118h-240l-41 -192h265l-25 -118h-409z" />
    <glyph glyph-name="F" unicode="F" horiz-adv-x="463" 
d="M50 0l152 714h399l-25 -118h-255l-36 -168h240l-25 -118h-240l-66 -310h-144z" />
    <glyph glyph-name="G" unicode="G" horiz-adv-x="556" 
d="M612 502h-138q4 19 4 38q0 82 -61 82q-52 0 -87.5 -58t-63.5 -192q-26 -122 -26 -183q0 -97 66 -97q30 0 63 28q39 33 50 86l15 73h-95l23 106h233l-82 -385h-106l14 66h-2q-66 -80 -167 -80q-86 0 -124 43q-36 40 -36 126q0 75 29 210q39 188 108 271q75 92 209 92
q183 0 183 -150q0 -34 -9 -76z" />
    <glyph glyph-name="H" unicode="H" horiz-adv-x="556" 
d="M50 0l152 714h144l-58 -273h168l58 273h144l-152 -714h-144l67 317h-168l-67 -317h-144z" />
    <glyph glyph-name="I" unicode="I" horiz-adv-x="258" 
d="M201 0h-144l152 714h144z" />
    <glyph glyph-name="J" unicode="J" horiz-adv-x="463" 
d="M427 714h144l-109 -514q-24 -113 -87 -163.5t-174 -50.5q-153 0 -153 134q0 33 8 75l7 31h132l-5 -22q-8 -39 -8 -61q0 -51 49 -51q37 0 56 26t31 86z" />
    <glyph glyph-name="K" unicode="K" horiz-adv-x="537" 
d="M202 714h144l-61 -286h2l243 286h156l-259 -306l129 -408h-162l-85 293l-70 -81l-45 -212h-144z" />
    <glyph glyph-name="L" unicode="L" horiz-adv-x="463" 
d="M449 0h-399l152 714h144l-127 -596h255z" />
    <glyph glyph-name="M" unicode="M" horiz-adv-x="740" 
d="M53 0l152 714h214l-5 -504h2l210 504h213l-152 -714h-132l121 570h-2l-248 -570h-112l-6 570h-2l-121 -570h-132z" />
    <glyph glyph-name="N" unicode="N" horiz-adv-x="574" 
d="M202 714h166l70 -489h2l104 489h132l-152 -714h-164l-70 500h-2l-106 -500h-132z" />
    <glyph glyph-name="O" unicode="O" horiz-adv-x="556" 
d="M111 357q40 188 97 267q76 104 225 104q103 0 149 -49q41 -43 41 -132q0 -68 -26 -190q-40 -188 -97 -267q-76 -104 -225 -104q-104 0 -149 49q-41 43 -41 132q0 68 26 190zM255 357q-27 -128 -27 -181q0 -84 70 -84q61 0 94 60q29 53 61 205q27 127 27 181q0 84 -70 84
q-61 0 -94 -61q-29 -53 -61 -204z" />
    <glyph glyph-name="P" unicode="P" horiz-adv-x="519" 
d="M50 0l152 714h252q157 0 157 -151q0 -30 -7 -63q-23 -108 -97 -163q-70 -52 -175 -52h-77l-61 -285h-144zM323 608l-46 -217h64q96 0 119 107q5 22 5 39q0 71 -82 71h-60z" />
    <glyph glyph-name="Q" unicode="Q" horiz-adv-x="556" 
d="M541 -11l-102 -77l-66 88q-39 -14 -98 -14q-104 0 -149 49q-41 43 -41 132q0 68 26 190q40 188 97 267q76 104 225 104q103 0 149 -49q41 -43 41 -132q0 -68 -26 -190q-45 -210 -117 -290zM255 357q-27 -128 -27 -181q0 -84 70 -84q61 0 94 60q29 53 61 205
q27 127 27 181q0 84 -70 84q-61 0 -94 -61q-29 -53 -61 -204z" />
    <glyph glyph-name="R" unicode="R" horiz-adv-x="556" 
d="M323 608l-44 -206h60q108 0 131 107q4 17 4 31q0 68 -83 68h-68zM50 0l152 714h266q157 0 157 -131q0 -25 -6 -53q-32 -151 -157 -176v-2q46 -6 65.5 -27.5t19.5 -66.5q0 -40 -17 -124q-12 -61 -12 -86q0 -32 17 -42l-1 -6h-156q-11 24 -2 75l25 137q3 15 3 27
q0 63 -69 63h-77l-64 -302h-144z" />
    <glyph glyph-name="S" unicode="S" horiz-adv-x="519" 
d="M69 223h144l-4 -21q-6 -26 -6 -44q0 -66 78 -66q35 0 65 23t39 65q4 16 4 28q0 33 -25 54q-23 18 -81 40q-77 29 -110 63q-37 38 -37 97q0 25 6 56q22 102 92 156t174 54q186 0 186 -140q0 -24 -6 -52l-4 -20h-138q5 24 5 42q0 64 -61 64q-82 0 -99 -83q-4 -16 -4 -28
q0 -42 57 -69l101 -48q102 -49 102 -134q0 -24 -6 -55q-47 -219 -295 -219q-190 0 -190 143q0 29 7 65z" />
    <glyph glyph-name="T" unicode="T" 
d="M164 714h456l-25 -118h-156l-127 -596h-144l127 596h-156z" />
    <glyph glyph-name="U" unicode="U" horiz-adv-x="538" 
d="M193 714h144l-106 -498q-7 -32 -7 -55q0 -69 65 -69q84 0 110 124l106 498h144l-106 -498q-49 -230 -277 -230q-188 0 -188 153q0 34 9 77z" />
    <glyph glyph-name="V" unicode="V" horiz-adv-x="519" 
d="M155 714h154l-11 -528h3l218 528h149l-316 -714h-185z" />
    <glyph glyph-name="W" unicode="W" horiz-adv-x="760" 
d="M138 0l22 714h138l-33 -528h2l196 528h138l-28 -528h2l191 528h138l-282 -714h-161l30 518h-2l-190 -518h-161z" />
    <glyph glyph-name="X" unicode="X" horiz-adv-x="537" 
d="M261 361l-89 353h159l43 -231l140 231h157l-241 -353l101 -361h-162l-52 242l-153 -242h-158z" />
    <glyph glyph-name="Y" unicode="Y" horiz-adv-x="520" 
d="M155 714h162l35 -276h2l159 276h156l-277 -433l-60 -281h-144l60 281z" />
    <glyph glyph-name="Z" unicode="Z" horiz-adv-x="481" 
d="M24 0l22 105l368 491h-245l25 118h411l-23 -109l-371 -487h271l-25 -118h-433z" />
    <glyph glyph-name="bracketleft" unicode="[" horiz-adv-x="315" 
d="M41 -184l191 898h229l-21 -100h-105l-149 -698h105l-21 -100h-229z" />
    <glyph glyph-name="backslash" unicode="\" horiz-adv-x="332" 
d="M220 -14l-68 742h112l68 -742h-112z" />
    <glyph glyph-name="bracketright" unicode="]" horiz-adv-x="315" 
d="M-33 -184l21 100h105l149 698h-105l21 100h229l-191 -898h-229z" />
    <glyph glyph-name="asciicircum" unicode="^" horiz-adv-x="600" 
d="M246 309h-124l270 385h112l106 -385h-124l-68 247z" />
    <glyph glyph-name="underscore" unicode="_" horiz-adv-x="500" 
d="M473 -125h-500l11 50h500z" />
    <glyph glyph-name="grave" unicode="`" horiz-adv-x="222" 
d="M304 601h-94l-68 144h138z" />
    <glyph glyph-name="a" unicode="a" horiz-adv-x="481" 
d="M248 373h-124l3 13q35 166 224 166q167 0 167 -108q0 -24 -7 -57l-60 -283q-14 -66 -5 -104h-132q-5 15 -5 56h-2q-32 -40 -68 -56q-32 -14 -84 -14q-102 0 -102 109q0 22 5 45q15 74 56 112q38 36 115 56l83 21q58 15 68 63q3 12 3 22q0 44 -53 44q-64 0 -79 -70z
M332 163l22 106q-31 -20 -65 -27q-81 -17 -96 -87q-3 -15 -3 -28q0 -47 39 -47q32 0 60 19q34 23 43 64z" />
    <glyph glyph-name="b" unicode="b" horiz-adv-x="500" 
d="M241 269q-16 -75 -16 -112q0 -65 52 -65q42 0 68 45q21 38 41 132q16 75 16 112q0 65 -50 65q-44 0 -69 -45q-22 -38 -42 -132zM46 0l152 714h138l-48 -226h2q56 64 129 64q123 0 123 -144q0 -56 -18 -139q-31 -149 -85.5 -216t-139.5 -67q-79 0 -107 71h-2l-12 -57h-132
z" />
    <glyph glyph-name="c" unicode="c" horiz-adv-x="463" 
d="M510 344h-132q6 30 6 51q0 57 -45 57q-48 0 -75 -46q-22 -37 -43 -138q-18 -85 -18 -124q0 -64 52 -64q67 0 94 126h132q-47 -220 -252 -220q-82 0 -122 35.5t-40 119.5q0 52 16 128q33 156 109 224q65 59 169 59q156 0 156 -145q0 -29 -7 -63z" />
    <glyph glyph-name="d" unicode="d" horiz-adv-x="500" 
d="M228 269q-16 -75 -16 -112q0 -65 51 -65q43 0 68 45q22 38 42 132q16 75 16 112q0 65 -51 65q-43 0 -68 -45q-22 -38 -42 -132zM322 0l12 57h-2q-58 -71 -137 -71q-122 0 -122 144q0 56 17 139q32 149 86 216t139 67q73 0 103 -64h2l48 226h138l-152 -714h-132z" />
    <glyph glyph-name="e" unicode="e" horiz-adv-x="463" 
d="M490 248h-273l-9 -43q-7 -31 -7 -56q0 -69 48 -69q61 0 94 101h124q-49 -195 -236 -195q-166 0 -166 150q0 48 19 138q28 130 79 193q68 85 194 85q155 0 155 -148q0 -50 -16 -125zM234 330h141q8 45 8 70q0 58 -51 58q-71 0 -93 -107z" />
    <glyph glyph-name="f" unicode="f" horiz-adv-x="296" 
d="M76 0l94 444h-70l20 94h70l13 61q28 129 172 129q36 0 73 -3l-21 -98q-9 1 -27 1q-53 0 -62 -43l-10 -47h80l-20 -94h-80l-94 -444h-138z" />
    <glyph glyph-name="g" unicode="g" horiz-adv-x="500" 
d="M431 538h132l-108 -511q-23 -108 -86.5 -159.5t-182.5 -51.5q-156 0 -156 110q0 16 3 34h132q-5 -25 12 -40.5t44 -15.5q76 0 96 97l15 71h-2q-60 -66 -129 -66q-123 0 -123 141q0 54 16 131q26 121 68 184q59 90 159 90q77 0 96 -74h2zM227 252q-10 -46 -10 -75
q0 -65 49 -65q75 0 108 154q16 76 16 115q0 65 -50 65q-45 0 -68 -43q-21 -38 -45 -151z" />
    <glyph glyph-name="h" unicode="h" horiz-adv-x="500" 
d="M46 0l152 714h138l-49 -231h2q53 69 145 69q111 0 111 -101q0 -23 -6 -52l-85 -399h-138l79 371q4 18 4 32q0 43 -47 43q-73 0 -92 -89l-76 -357h-138z" />
    <glyph glyph-name="i" unicode="i" horiz-adv-x="240" 
d="M51 0l114 538h138l-114 -538h-138zM179 604l25 118h138l-25 -118h-138z" />
    <glyph glyph-name="j" unicode="j" horiz-adv-x="240" 
d="M53 10l112 528h138l-122 -575q-15 -71 -54 -103q-44 -36 -133 -36q-16 0 -56 2l21 100q7 -2 22 -2q34 0 50 21q12 16 22 65zM179 604l25 118h138l-25 -118h-138z" />
    <glyph glyph-name="k" unicode="k" horiz-adv-x="500" 
d="M203 714h138l-80 -377h2l181 201h152l-200 -212l109 -326h-152l-68 221l-63 -64l-33 -157h-138z" />
    <glyph glyph-name="l" unicode="l" horiz-adv-x="240" 
d="M51 0l152 714h138l-152 -714h-138z" />
    <glyph glyph-name="m" unicode="m" horiz-adv-x="758" 
d="M46 0l114 538h132l-11 -55h2q64 69 150 69q101 0 106 -86h2q50 86 154 86q107 0 107 -103q0 -26 -7 -58l-83 -391h-138l80 376q3 16 3 28q0 42 -42 42q-72 0 -92 -92l-75 -354h-138l80 376q3 16 3 28q0 42 -42 42q-72 0 -92 -92l-75 -354h-138z" />
    <glyph glyph-name="n" unicode="n" horiz-adv-x="500" 
d="M46 0l114 538h132l-13 -63h2q58 77 153 77q111 0 111 -101q0 -23 -6 -52l-85 -399h-138l79 371q4 18 4 32q0 43 -47 43q-73 0 -92 -89l-76 -357h-138z" />
    <glyph glyph-name="o" unicode="o" 
d="M85 269q31 143 92 210q65 72 180 73q90 1 129.5 -37t39.5 -116q0 -52 -17 -130q-30 -143 -91 -210q-66 -72 -181 -73q-90 -1 -129 37t-39 116q0 52 16 130zM223 269q-18 -84 -18 -122q0 -67 52 -67q41 0 66.5 43.5t47.5 145.5q17 78 17 120q0 69 -51 69q-46 0 -73 -53
q-20 -39 -41 -136z" />
    <glyph glyph-name="p" unicode="p" horiz-adv-x="500" 
d="M241 269q-16 -75 -16 -112q0 -65 52 -65q42 0 68 45q21 38 41 132q16 75 16 112q0 65 -50 65q-44 0 -69 -45q-22 -38 -42 -132zM9 -176l151 714h132l-12 -57h2q58 71 137 71q123 0 123 -144q0 -56 -18 -139q-31 -149 -85.5 -216t-139.5 -67q-73 0 -102 64h-2l-48 -226
h-138z" />
    <glyph glyph-name="q" unicode="q" horiz-adv-x="500" 
d="M373 269q16 75 16 112q0 65 -51 65q-43 0 -68 -45q-22 -38 -42 -132q-16 -75 -16 -112q0 -65 51 -65q43 0 68 45q22 38 42 132zM279 -176l48 226h-2q-57 -64 -130 -64q-122 0 -122 144q0 56 17 139q32 149 86 216t139 67q80 0 107 -71h2l12 57h132l-151 -714h-138z" />
    <glyph glyph-name="r" unicode="r" horiz-adv-x="333" 
d="M46 0l114 538h132l-15 -72h2q65 86 142 86q9 0 25 -2l-28 -132q-28 2 -43 2q-41 0 -73 -22q-39 -25 -49 -75l-69 -323h-138z" />
    <glyph glyph-name="s" unicode="s" horiz-adv-x="444" 
d="M60 176h124l-3 -18q-3 -12 -3 -23q0 -55 58 -55q70 0 84 64q1 8 1 14q0 32 -38 47l-90 35q-87 34 -87 112q0 18 4 38q15 72 70 114q62 48 162 48q156 0 156 -112q0 -19 -4 -41l-5 -22h-124q4 20 4 35q0 46 -48 46q-31 0 -54.5 -20t-23.5 -51q0 -33 48 -50l77 -28
q91 -33 91 -109q0 -20 -5 -45q-18 -82 -84 -127q-62 -42 -152 -42q-168 0 -168 116q0 24 6 55z" />
    <glyph glyph-name="t" unicode="t" horiz-adv-x="296" 
d="M190 538l33 154h138l-33 -154h80l-20 -94h-80l-61 -291q-4 -17 -4 -28q0 -31 40 -31q13 0 31 2l-20 -96q-61 -6 -91 -6q-60 0 -84 15.5t-24 55.5q0 25 10 71l65 308h-70l20 94h70z" />
    <glyph glyph-name="u" unicode="u" horiz-adv-x="500" 
d="M322 0l13 63h-2q-58 -77 -153 -77q-111 0 -111 101q0 23 7 52l84 399h138l-79 -371q-3 -18 -3 -32q0 -43 47 -43q73 0 91 89l76 357h138l-114 -538h-132z" />
    <glyph glyph-name="v" unicode="v" horiz-adv-x="444" 
d="M261 153l154 385h138l-249 -538h-160l-25 538h144l-4 -385h2z" />
    <glyph glyph-name="w" unicode="w" horiz-adv-x="704" 
d="M124 0l-3 538h138l-18 -382h2l148 382h150l-10 -382h2l146 382h132l-230 -538h-157l10 382h-2l-148 -382h-160z" />
    <glyph glyph-name="x" unicode="x" horiz-adv-x="462" 
d="M311 376l108 162h144l-195 -261l87 -277h-144l-43 176l-117 -176h-144l205 277l-85 261h144z" />
    <glyph glyph-name="y" unicode="y" horiz-adv-x="444" 
d="M9 -176l21 103q18 -3 36 -3q68 0 90 76l-37 538h144l1 -372h2l149 372h138l-236 -502q-65 -138 -110 -175t-142 -37h-56z" />
    <glyph glyph-name="z" unicode="z" horiz-adv-x="426" 
d="M24 0l23 106l283 320h-205l23 112h368l-22 -106l-283 -320h215l-24 -112h-378z" />
    <glyph glyph-name="braceleft" unicode="{" horiz-adv-x="315" 
d="M78 224l17 82q26 0 51 23.5t32 57.5l41 193q29 134 133 134h89l-21 -100h-30q-39 0 -55 -72l-35 -166q-9 -44 -35.5 -74t-59.5 -36l-1 -2q52 -10 52 -77q0 -15 -3 -33l-36 -166q-4 -21 -4 -36q0 -36 28 -36h30l-21 -100h-89q-81 0 -81 86q0 22 5 48l41 193q3 10 3 20
q0 27 -15 44t-36 17z" />
    <glyph glyph-name="bar" unicode="|" horiz-adv-x="222" 
d="M46 -14l158 742h124l-158 -742h-124z" />
    <glyph glyph-name="braceright" unicode="}" horiz-adv-x="315" 
d="M-13 -184l21 100h30q39 0 54 72l36 166q9 44 35 74t60 36l1 2q-53 10 -53 77q0 15 4 33l35 166q5 21 5 36q0 36 -28 36h-30l21 100h89q81 0 81 -86q0 -22 -6 -48l-41 -193q-2 -10 -2 -20q0 -27 15 -44t36 -17l-17 -82q-26 0 -51 -23.5t-33 -57.5l-41 -193
q-28 -134 -132 -134h-89z" />
    <glyph glyph-name="asciitilde" unicode="~" horiz-adv-x="600" 
d="M569 349v0l14 -106q-64 -86 -142 -86q-51 0 -110.5 34t-87.5 34q-27 0 -61 -25q-29 -21 -44 -43l-13 106q64 86 141 86q54 0 103 -29q66 -39 96 -39q26 0 60 25q30 21 44 43z" />
    <glyph glyph-name="exclamdown" unicode="&#xa1;" horiz-adv-x="296" 
d="M42 -176l49 232l79 283h100l-41 -283l-49 -232h-138zM165 406l28 132h138l-28 -132h-138z" />
    <glyph glyph-name="cent" unicode="&#xa2;" 
d="M240 86l78 366q-33 -11 -54 -58q-17 -38 -35.5 -124t-18.5 -121q0 -54 30 -63zM200 -102l19 88q-144 7 -144 158q0 52 14 121q28 130 77 195q62 84 173 92l16 76h52l-16 -76q138 -10 138 -134q0 -31 -8 -70h-132q7 32 7 52q0 42 -26 52l-78 -366q46 24 67 123h132
q-43 -203 -220 -223l-19 -88h-52z" />
    <glyph glyph-name="sterling" unicode="&#xa3;" 
d="M74 306l17 82h67q-18 60 -18 105q0 20 4 37q16 79 80 126q68 52 171 52q181 0 181 -146q0 -28 -7 -61h-132q6 25 6 45q0 68 -59 68q-84 0 -101 -79q-8 -37 7 -90l15 -57h167l-17 -82h-141q2 -12 -3 -39q-18 -82 -123 -156l3 -2q26 7 47 7q13 0 51.5 -15t55.5 -15
q41 0 113 42l24 -94q-84 -48 -159 -48q-22 0 -82.5 18t-91.5 18q-42 0 -104 -28l-23 86q133 75 155 177q4 22 -1 49h-102z" />
    <glyph glyph-name="currency" unicode="&#xa4;" 
d="M84 107l-48 62l61 50q-17 37 -17 80q0 96 71 176l-39 50l74 62l40 -50q66 39 136 39t120 -39l62 50l48 -62l-61 -50q17 -37 17 -80q0 -96 -71 -176l39 -50l-74 -62l-40 51q-67 -40 -137 -40q-71 0 -119 40zM191 347q-4 -19 -4 -35q0 -44 26.5 -69t72.5 -25q56 0 97 34.5
t54 94.5q4 19 4 35q0 44 -26.5 69t-73.5 25q-56 0 -97 -34.5t-53 -94.5z" />
    <glyph glyph-name="yen" unicode="&#xa5;" 
d="M178 0l34 159h-142l17 82h142l9 43l-6 23h-131l18 82h92l-80 305h149l49 -269h2l170 269h144l-210 -305h92l-18 -82h-131l-16 -23l-9 -43h142l-17 -82h-142l-34 -159h-124z" />
    <glyph glyph-name="brokenbar" unicode="&#xa6;" horiz-adv-x="222" 
d="M46 -14l58 271h124l-58 -271h-124zM146 457l58 271h124l-58 -271h-124z" />
    <glyph glyph-name="section" unicode="&#xa7;" horiz-adv-x="481" 
d="M46 37h132l-3 -15q-3 -12 -3 -23q0 -57 56 -57q36 0 59 25.5t23 61.5q0 38 -48 64l-111 59q-77 41 -77 118q0 57 36 107q34 47 88 72q-39 35 -39 84q0 14 4 30q18 85 86 127q62 38 154 38q160 0 160 -119q0 -20 -5 -43h-132q15 68 -54 68q-29 0 -52 -19.5t-23 -47.5
q0 -33 50 -59l107 -56q80 -42 80 -122q0 -19 -5 -41q-8 -39 -38.5 -80.5t-69.5 -61.5q33 -31 33 -82q0 -20 -5 -42q-37 -175 -241 -175q-170 0 -170 128q0 22 5 46zM223 272l87 -54q19 -11 34 -25q65 46 65 92q0 34 -53 65l-85 51q-72 -39 -72 -86q0 -28 24 -43z" />
    <glyph glyph-name="dieresis" unicode="&#xa8;" horiz-adv-x="222" 
d="M99 610l25 118h112l-25 -118h-112zM271 610l25 118h112l-25 -118h-112z" />
    <glyph glyph-name="copyright" unicode="&#xa9;" horiz-adv-x="800" 
d="M558 298h100q-26 -72 -88 -115q-58 -41 -125 -41q-78 0 -123 47q-43 44 -43 117q0 26 6 54q20 95 86 155q70 63 164 63q69 0 110 -39q42 -42 36 -114h-96q-3 67 -73 67q-51 0 -86 -36.5t-47 -95.5q-5 -20 -5 -38q0 -42 21 -68t59 -26q79 0 104 70zM217 357q-6 -30 -6 -58
q0 -90 57 -148.5t152 -58.5q110 0 202 78q89 77 113 187q6 30 6 58q0 90 -57 148.5t-152 58.5q-110 0 -201 -77.5t-114 -187.5zM105 357q33 154 164.5 262.5t285.5 108.5q132 0 216 -83t84 -210q0 -39 -8 -78q-33 -154 -164.5 -262.5t-285.5 -108.5q-133 0 -216.5 83
t-83.5 210q0 39 8 78z" />
    <glyph glyph-name="ordfeminine" unicode="&#xaa;" horiz-adv-x="314" 
d="M422 609l-36 -172q-8 -39 -3 -63h-100q-1 5 -3 35q-36 -42 -103 -42q-72 0 -72 67q0 12 3 25q9 46 34.5 69t75.5 33l61 12q37 7 43 34q1 6 1 11q0 26 -30 26q-41 0 -49 -39l-2 -9h-94l2 13q21 99 158 99q118 0 118 -67q0 -14 -4 -32zM295 478l12 59q-17 -11 -38 -15
q-50 -10 -58 -49q-2 -8 -2 -15q0 -27 25 -27q51 0 61 47z" />
    <glyph glyph-name="guillemotleft" unicode="&#xab;" horiz-adv-x="426" 
d="M269 208l35 162l174 120l-28 -132l-94 -69l65 -69l-28 -132zM96 208l35 162l174 120l-28 -132l-94 -69l65 -69l-28 -132z" />
    <glyph glyph-name="logicalnot" unicode="&#xac;" horiz-adv-x="600" 
d="M450 98l43 202h-382l26 124h506l-69 -326h-124z" />
    <glyph glyph-name="minus" unicode="&#xad;" horiz-adv-x="600" 
d="M88 191l26 124h506l-26 -124h-506z" />
    <glyph glyph-name="minus" unicode="&#x2212;" horiz-adv-x="600" 
d="M88 191l26 124h506l-26 -124h-506z" />
    <glyph glyph-name="registered" unicode="&#xae;" horiz-adv-x="800" 
d="M288 157l85 400h156q132 0 132 -92q0 -15 -4 -32q-10 -48 -44 -76.5t-79 -34.5l64 -165h-96l-59 161h-32l-35 -161h-88zM447 487l-22 -99h67q67 0 78 50q1 6 1 12q0 37 -66 37h-58zM105 357q33 154 164.5 262.5t285.5 108.5q132 0 216 -83t84 -210q0 -39 -8 -78
q-33 -154 -164.5 -262.5t-285.5 -108.5q-133 0 -216.5 83t-83.5 210q0 39 8 78zM217 357q-6 -30 -6 -58q0 -90 57 -148.5t152 -58.5q110 0 202 78q89 77 113 187q6 30 6 58q0 90 -57 148.5t-152 58.5q-110 0 -201 -77.5t-114 -187.5z" />
    <glyph glyph-name="macron" unicode="&#xaf;" horiz-adv-x="222" 
d="M116 714h294l-16 -76h-294z" />
    <glyph glyph-name="macron" unicode="&#x2c9;" horiz-adv-x="222" 
d="M116 714h294l-16 -76h-294z" />
    <glyph glyph-name="degree" unicode="&#xb0;" horiz-adv-x="400" 
d="M350 708q54 0 87 -33t33 -84q0 -70 -56 -124.5t-126 -54.5q-53 0 -86.5 33t-33.5 84q0 70 56 124.5t126 54.5zM245 545q0 -25 16.5 -41t42.5 -16q34 0 61.5 26.5t27.5 60.5q0 25 -16.5 41t-42.5 16q-34 0 -61.5 -26.5t-27.5 -60.5z" />
    <glyph glyph-name="plusminus" unicode="&#xb1;" horiz-adv-x="600" 
d="M323 398l23 108h124l-23 -108h191l-27 -124h-191l-23 -108h-124l23 108h-191l27 124h191zM47 0l26 124h506l-26 -124h-506z" />
    <glyph glyph-name="twosuperior" unicode="&#xb2;" horiz-adv-x="312" 
d="M372 280h-312q24 115 140 188l58 36q68 42 68 93q0 35 -35 35q-48 0 -66 -73h-106l5 25q26 124 186 124q132 0 132 -83q0 -12 -2 -25q-17 -79 -94 -130l-66 -44q-54 -35 -67 -64h176z" />
    <glyph glyph-name="threesuperior" unicode="&#xb3;" horiz-adv-x="312" 
d="M88 416h106q-2 -14 -2 -26q0 -41 37 -41q28 0 44 24q15 21 15 50q0 42 -49 42h-28l15 70h28q27 0 46.5 18.5t19.5 45.5q0 33 -33 33q-46 0 -58 -60h-100q28 136 173 136q129 0 129 -80q0 -13 -4 -29q-17 -81 -90 -95v-2q64 -11 64 -70q0 -80 -61 -122q-54 -37 -139 -37
q-119 0 -119 94q0 18 4 39z" />
    <glyph glyph-name="acute" unicode="&#xb4;" horiz-adv-x="222" 
d="M174 601l84 144h138l-128 -144h-94z" />
    <glyph glyph-name="mu" unicode="&#xb5;" horiz-adv-x="500" 
d="M354 181l76 357h138l-114 -538h-132l13 63h-2q-58 -77 -122 -77q-18 0 -28 8l-36 -170h-138l151 714h138l-79 -371q-3 -18 -3 -32q0 -43 47 -43q73 0 91 89z" />
    <glyph glyph-name="mu" unicode="&#x3bc;" horiz-adv-x="500" 
d="M354 181l76 357h138l-114 -538h-132l13 63h-2q-58 -77 -122 -77q-18 0 -28 8l-36 -170h-138l151 714h138l-79 -371q-3 -18 -3 -32q0 -43 47 -43q73 0 91 89z" />
    <glyph glyph-name="paragraph" unicode="&#xb6;" 
d="M153 -138l100 473q-148 0 -148 129q0 26 7 57q23 108 87 154q55 39 152 39h268l-181 -852h-106l161 758h-73l-161 -758h-106z" />
    <glyph glyph-name="periodcentered" unicode="&#xb7;" horiz-adv-x="240" 
d="M201 379q34 0 56 -21.5t22 -54.5q0 -46 -36.5 -82t-83.5 -36q-35 0 -56.5 21.5t-21.5 54.5q0 46 36.5 82t83.5 36z" />
    <glyph glyph-name="periodcentered" unicode="&#x2219;" horiz-adv-x="240" 
d="M201 379q34 0 56 -21.5t22 -54.5q0 -46 -36.5 -82t-83.5 -36q-35 0 -56.5 21.5t-21.5 54.5q0 46 36.5 82t83.5 36z" />
    <glyph glyph-name="cedilla" unicode="&#xb8;" horiz-adv-x="222" 
d="M93 0h54l-51 -61q21 5 34 5q28 0 49 -16t21 -44q0 -53 -50 -83q-42 -25 -98 -25q-66 0 -96 19l29 46q23 -15 66 -15q21 0 37.5 10t19.5 24q7 34 -37 34q-17 0 -35 -6l-18 20z" />
    <glyph glyph-name="onesuperior" unicode="&#xb9;" horiz-adv-x="312" 
d="M175 280l61 290h-91l15 70h8q96 0 123 68h86l-90 -428h-112z" />
    <glyph glyph-name="ordmasculine" unicode="&#xba;" horiz-adv-x="314" 
d="M126 537q19 87 58 127q44 43 123 44q119 1 119 -96q0 -30 -10 -75q-18 -87 -58 -126q-43 -43 -123 -44q-118 -1 -118 96q0 30 9 74zM226 537q-9 -45 -9 -66q0 -40 32 -40q45 0 67 106q9 41 9 65q0 42 -31 42q-28 0 -44 -30q-12 -22 -24 -77z" />
    <glyph glyph-name="guillemotright" unicode="&#xbb;" horiz-adv-x="426" 
d="M71 88l28 132l93 69l-64 69l28 132l124 -120l-35 -162zM244 88l28 132l93 69l-64 69l28 132l124 -120l-35 -162z" />
    <glyph glyph-name="onequarter" unicode="&#xbc;" horiz-adv-x="721" 
d="M605 159l31 145h-2l-117 -145h88zM417 77l20 91l207 260h124l-57 -269h44l-18 -82h-44l-16 -77h-106l16 77h-170zM89 -31l567 756h89l-567 -756h-89zM151 280l61 290h-91l15 70h8q96 0 123 68h86l-90 -428h-112z" />
    <glyph glyph-name="onehalf" unicode="&#xbd;" horiz-adv-x="721" 
d="M65 -31l567 756h89l-567 -756h-89zM151 280l61 290h-91l15 70h8q96 0 123 68h86l-90 -428h-112zM721 0h-312q25 115 141 188l58 36q67 42 67 93q0 35 -34 35q-49 0 -67 -73h-106l6 25q26 124 186 124q132 0 132 -83q0 -12 -3 -25q-17 -79 -94 -130l-66 -44
q-53 -35 -67 -64h176z" />
    <glyph glyph-name="threequarters" unicode="&#xbe;" horiz-adv-x="721" 
d="M417 77l20 91l207 260h124l-57 -269h44l-18 -82h-44l-16 -77h-106l16 77h-170zM517 159h88l31 145h-2zM128 -31l567 756h89l-567 -756h-89zM88 416h106q-2 -14 -2 -26q0 -41 37 -41q28 0 44 24q15 21 15 50q0 42 -49 42h-28l15 70h28q27 0 46.5 18.5t19.5 45.5
q0 33 -33 33q-46 0 -58 -60h-100q28 136 173 136q129 0 129 -80q0 -13 -4 -29q-17 -81 -90 -95v-2q64 -11 64 -70q0 -80 -61 -122q-54 -37 -139 -37q-119 0 -119 94q0 18 4 39z" />
    <glyph glyph-name="questiondown" unicode="&#xbf;" horiz-adv-x="481" 
d="M323 45h132l-5 -23q-20 -93 -81 -148q-65 -58 -161 -58q-176 0 -176 142q0 24 6 51q18 85 96 156l50 45q60 55 73 115l3 15h124l-8 -39q-18 -87 -95 -157l-48 -43q-47 -43 -60 -106q-3 -15 -3 -29q0 -56 53 -56q71 0 94 110zM405 406h-138l28 132h138z" />
    <glyph glyph-name="Agrave" unicode="&#xc0;" horiz-adv-x="556" 
d="M0 0l341 714h178l37 -714h-150l-1 151h-190l-65 -151h-150zM402 590l-137 -321h140l-1 321h-2zM504 756h-94l-68 144h138z" />
    <glyph glyph-name="Aacute" unicode="&#xc1;" horiz-adv-x="556" 
d="M0 0l341 714h178l37 -714h-150l-1 151h-190l-65 -151h-150zM402 590l-137 -321h140l-1 321h-2zM374 756l84 144h138l-128 -144h-94z" />
    <glyph glyph-name="Acircumflex" unicode="&#xc2;" horiz-adv-x="556" 
d="M0 0l341 714h178l37 -714h-150l-1 151h-190l-65 -151h-150zM402 590l-137 -321h140l-1 321h-2zM289 756l108 144h144l48 -144h-106l-28 85l-66 -85h-100z" />
    <glyph glyph-name="Atilde" unicode="&#xc3;" horiz-adv-x="556" 
d="M0 0l341 714h178l37 -714h-150l-1 151h-190l-65 -151h-150zM402 590l-137 -321h140l-1 321h-2zM354 765v0h-70q44 124 119 124q27 0 42 -7l43 -21q13 -6 29 -6q13 0 23 12t12 24h72q-17 -55 -49 -89.5t-70 -34.5q-23 0 -60 17t-52 17q-24 0 -39 -36z" />
    <glyph glyph-name="Adieresis" unicode="&#xc4;" horiz-adv-x="556" 
d="M0 0l341 714h178l37 -714h-150l-1 151h-190l-65 -151h-150zM402 590l-137 -321h140l-1 321h-2zM299 765l25 118h112l-25 -118h-112zM471 765l25 118h112l-25 -118h-112z" />
    <glyph glyph-name="Aring" unicode="&#xc5;" horiz-adv-x="556" 
d="M0 0l341 714h178l37 -714h-150l-1 151h-190l-65 -151h-150zM402 590l-137 -321h140l-1 321h-2zM483 961q40 0 66 -25.5t26 -64.5q0 -54 -43.5 -96t-97.5 -42q-41 0 -66.5 25.5t-25.5 64.5q0 54 43.5 96t97.5 42zM399 835q0 -20 13 -33t34 -13q27 0 49.5 21.5t22.5 48.5
q0 20 -13.5 33t-33.5 13q-28 0 -50 -21.5t-22 -48.5z" />
    <glyph glyph-name="AE" unicode="&#xc6;" horiz-adv-x="759" 
d="M-5 0l421 714h463l-25 -118h-235l-36 -168h220l-25 -118h-220l-41 -192h245l-25 -118h-383l32 151h-159l-82 -151h-150zM291 269h120l71 333h-9z" />
    <glyph glyph-name="Ccedilla" unicode="&#xc7;" horiz-adv-x="537" 
d="M194 -92l64 78q-94 4 -136 53q-37 43 -37 128q0 68 26 190q40 188 97 267q76 104 225 104q179 0 179 -155q0 -40 -12 -100h-144q10 48 10 79q0 70 -65 70q-53 0 -85 -62q-30 -57 -63 -213q-25 -116 -25 -173q0 -47 17 -66q14 -16 46 -16q44 0 71 33q34 41 57 148h144
q-26 -124 -77 -191q-63 -83 -174 -95l-40 -48q21 5 34 5q28 0 49 -16t21 -44q0 -53 -50 -83q-42 -25 -98 -25q-66 0 -96 19l29 46q23 -15 66 -15q21 0 37.5 10t19.5 24q7 34 -37 34q-17 0 -35 -6z" />
    <glyph glyph-name="Egrave" unicode="&#xc8;" horiz-adv-x="481" 
d="M202 714h399l-25 -118h-255l-36 -168h240l-25 -118h-240l-41 -192h265l-25 -118h-409zM479 756h-94l-68 144h138z" />
    <glyph glyph-name="Eacute" unicode="&#xc9;" horiz-adv-x="481" 
d="M202 714h399l-25 -118h-255l-36 -168h240l-25 -118h-240l-41 -192h265l-25 -118h-409zM349 756l84 144h138l-128 -144h-94z" />
    <glyph glyph-name="Ecircumflex" unicode="&#xca;" horiz-adv-x="481" 
d="M202 714h399l-25 -118h-255l-36 -168h240l-25 -118h-240l-41 -192h265l-25 -118h-409zM264 756l108 144h144l48 -144h-106l-28 85l-66 -85h-100z" />
    <glyph glyph-name="Edieresis" unicode="&#xcb;" horiz-adv-x="481" 
d="M202 714h399l-25 -118h-255l-36 -168h240l-25 -118h-240l-41 -192h265l-25 -118h-409zM274 765l25 118h112l-25 -118h-112zM446 765l25 118h112l-25 -118h-112z" />
    <glyph glyph-name="Igrave" unicode="&#xcc;" horiz-adv-x="258" 
d="M201 0h-144l152 714h144zM355 756h-94l-68 144h138z" />
    <glyph glyph-name="Iacute" unicode="&#xcd;" horiz-adv-x="258" 
d="M201 0h-144l152 714h144zM225 756l84 144h138l-128 -144h-94z" />
    <glyph glyph-name="Icircumflex" unicode="&#xce;" horiz-adv-x="258" 
d="M201 0h-144l152 714h144zM140 756l108 144h144l48 -144h-106l-28 85l-66 -85h-100z" />
    <glyph glyph-name="Idieresis" unicode="&#xcf;" horiz-adv-x="258" 
d="M201 0h-144l152 714h144zM150 765l25 118h112l-25 -118h-112zM322 765l25 118h112l-25 -118h-112z" />
    <glyph glyph-name="Eth" unicode="&#xd0;" horiz-adv-x="574" 
d="M57 0l67 315h-57l22 106h57l63 293h236q100 0 144 -47q40 -42 40 -130q0 -64 -22 -170q-42 -197 -110 -278q-74 -89 -213 -89h-227zM330 608l-40 -187h93l-22 -106h-93l-44 -209h64q73 0 109 56q33 51 65 201q22 102 22 149q0 96 -93 96h-61z" />
    <glyph glyph-name="Ntilde" unicode="&#xd1;" horiz-adv-x="574" 
d="M202 714h166l70 -489h2l104 489h132l-152 -714h-164l-70 500h-2l-106 -500h-132zM363 765v0h-70q44 124 119 124q27 0 42 -7l43 -21q13 -6 29 -6q13 0 23 12t12 24h72q-17 -55 -49 -89.5t-70 -34.5q-23 0 -60 17t-52 17q-24 0 -39 -36z" />
    <glyph glyph-name="Ograve" unicode="&#xd2;" horiz-adv-x="556" 
d="M111 357q40 188 97 267q76 104 225 104q103 0 149 -49q41 -43 41 -132q0 -68 -26 -190q-40 -188 -97 -267q-76 -104 -225 -104q-104 0 -149 49q-41 43 -41 132q0 68 26 190zM255 357q-27 -128 -27 -181q0 -84 70 -84q61 0 94 60q29 53 61 205q27 127 27 181q0 84 -70 84
q-61 0 -94 -61q-29 -53 -61 -204zM504 756h-94l-68 144h138z" />
    <glyph glyph-name="Oacute" unicode="&#xd3;" horiz-adv-x="556" 
d="M111 357q40 188 97 267q76 104 225 104q103 0 149 -49q41 -43 41 -132q0 -68 -26 -190q-40 -188 -97 -267q-76 -104 -225 -104q-104 0 -149 49q-41 43 -41 132q0 68 26 190zM255 357q-27 -128 -27 -181q0 -84 70 -84q61 0 94 60q29 53 61 205q27 127 27 181q0 84 -70 84
q-61 0 -94 -61q-29 -53 -61 -204zM374 756l84 144h138l-128 -144h-94z" />
    <glyph glyph-name="Ocircumflex" unicode="&#xd4;" horiz-adv-x="556" 
d="M111 357q40 188 97 267q76 104 225 104q103 0 149 -49q41 -43 41 -132q0 -68 -26 -190q-40 -188 -97 -267q-76 -104 -225 -104q-104 0 -149 49q-41 43 -41 132q0 68 26 190zM255 357q-27 -128 -27 -181q0 -84 70 -84q61 0 94 60q29 53 61 205q27 127 27 181q0 84 -70 84
q-61 0 -94 -61q-29 -53 -61 -204zM289 756l108 144h144l48 -144h-106l-28 85l-66 -85h-100z" />
    <glyph glyph-name="Otilde" unicode="&#xd5;" horiz-adv-x="556" 
d="M111 357q40 188 97 267q76 104 225 104q103 0 149 -49q41 -43 41 -132q0 -68 -26 -190q-40 -188 -97 -267q-76 -104 -225 -104q-104 0 -149 49q-41 43 -41 132q0 68 26 190zM255 357q-27 -128 -27 -181q0 -84 70 -84q61 0 94 60q29 53 61 205q27 127 27 181q0 84 -70 84
q-61 0 -94 -61q-29 -53 -61 -204zM354 765v0h-70q44 124 119 124q27 0 42 -7l43 -21q13 -6 29 -6q13 0 23 12t12 24h72q-17 -55 -49 -89.5t-70 -34.5q-23 0 -60 17t-52 17q-24 0 -39 -36z" />
    <glyph glyph-name="Odieresis" unicode="&#xd6;" horiz-adv-x="556" 
d="M111 357q40 188 97 267q76 104 225 104q103 0 149 -49q41 -43 41 -132q0 -68 -26 -190q-40 -188 -97 -267q-76 -104 -225 -104q-104 0 -149 49q-41 43 -41 132q0 68 26 190zM255 357q-27 -128 -27 -181q0 -84 70 -84q61 0 94 60q29 53 61 205q27 127 27 181q0 84 -70 84
q-61 0 -94 -61q-29 -53 -61 -204zM299 765l25 118h112l-25 -118h-112zM471 765l25 118h112l-25 -118h-112z" />
    <glyph glyph-name="multiply" unicode="&#xd7;" horiz-adv-x="600" 
d="M80 98l189 155l-123 155l104 86l122 -156l188 156l68 -86l-189 -155l123 -155l-104 -86l-122 156l-188 -156z" />
    <glyph glyph-name="Oslash" unicode="&#xd8;" horiz-adv-x="556" 
d="M231 209l242 377q-14 36 -63 36q-61 0 -94 -61q-29 -53 -61 -204q-22 -104 -26 -148h2zM476 505l-241 -376q12 -37 63 -37q61 0 94 60q29 53 61 205q22 102 25 148h-2zM77 -30l45 70q-37 42 -37 126q0 68 26 191q40 188 97 267q76 104 225 104q73 0 116 -24l39 61l43 -21
l-45 -70q37 -42 37 -126q0 -68 -26 -191q-40 -188 -97 -267q-76 -104 -225 -104q-74 0 -116 24l-39 -61z" />
    <glyph glyph-name="Ugrave" unicode="&#xd9;" horiz-adv-x="538" 
d="M193 714h144l-106 -498q-7 -32 -7 -55q0 -69 65 -69q84 0 110 124l106 498h144l-106 -498q-49 -230 -277 -230q-188 0 -188 153q0 34 9 77zM495 756h-94l-68 144h138z" />
    <glyph glyph-name="Uacute" unicode="&#xda;" horiz-adv-x="538" 
d="M193 714h144l-106 -498q-7 -32 -7 -55q0 -69 65 -69q84 0 110 124l106 498h144l-106 -498q-49 -230 -277 -230q-188 0 -188 153q0 34 9 77zM365 756l84 144h138l-128 -144h-94z" />
    <glyph glyph-name="Ucircumflex" unicode="&#xdb;" horiz-adv-x="538" 
d="M193 714h144l-106 -498q-7 -32 -7 -55q0 -69 65 -69q84 0 110 124l106 498h144l-106 -498q-49 -230 -277 -230q-188 0 -188 153q0 34 9 77zM280 756l108 144h144l48 -144h-106l-28 85l-66 -85h-100z" />
    <glyph glyph-name="Udieresis" unicode="&#xdc;" horiz-adv-x="538" 
d="M193 714h144l-106 -498q-7 -32 -7 -55q0 -69 65 -69q84 0 110 124l106 498h144l-106 -498q-49 -230 -277 -230q-188 0 -188 153q0 34 9 77zM290 765l25 118h112l-25 -118h-112zM462 765l25 118h112l-25 -118h-112z" />
    <glyph glyph-name="Yacute" unicode="&#xdd;" horiz-adv-x="520" 
d="M155 714h162l35 -276h2l159 276h156l-277 -433l-60 -281h-144l60 281zM356 756l84 144h138l-128 -144h-94z" />
    <glyph glyph-name="Thorn" unicode="&#xde;" horiz-adv-x="519" 
d="M50 0l152 714h144l-27 -128h108q157 0 157 -151q0 -30 -7 -63q-23 -108 -97 -163q-70 -52 -176 -52h-77l-33 -157h-144zM296 480l-46 -217h64q96 0 119 107q4 22 4 39q0 71 -81 71h-60z" />
    <glyph glyph-name="germandbls" unicode="&#xdf;" horiz-adv-x="500" 
d="M179 0h-138l112 527q43 201 255 201q166 0 166 -126q0 -21 -6 -45q-12 -58 -37 -90q-28 -35 -83 -57v-2q80 -13 80 -112q0 -35 -10 -80q-47 -222 -226 -222q-46 0 -65 4l20 94q11 -4 20 -4q51 0 78 39q23 32 39 107q6 32 6 54q0 67 -61 67h-25l20 94h17q66 0 87 95
q4 19 4 35q0 55 -51 55q-67 0 -91 -110z" />
    <glyph glyph-name="agrave" unicode="&#xe0;" horiz-adv-x="481" 
d="M248 373h-124l3 13q35 166 224 166q167 0 167 -108q0 -24 -7 -57l-60 -283q-14 -66 -5 -104h-132q-5 15 -5 56h-2q-32 -40 -68 -56q-32 -14 -84 -14q-102 0 -102 109q0 22 5 45q15 74 56 112q38 36 115 56l83 21q58 15 68 63q3 12 3 22q0 44 -53 44q-64 0 -79 -70z
M332 163l22 106q-31 -20 -65 -27q-81 -17 -96 -87q-3 -15 -3 -28q0 -47 39 -47q32 0 60 19q34 23 43 64zM434 601h-94l-68 144h138z" />
    <glyph glyph-name="aacute" unicode="&#xe1;" horiz-adv-x="481" 
d="M248 373h-124l3 13q35 166 224 166q167 0 167 -108q0 -24 -7 -57l-60 -283q-14 -66 -5 -104h-132q-5 15 -5 56h-2q-32 -40 -68 -56q-32 -14 -84 -14q-102 0 -102 109q0 22 5 45q15 74 56 112q38 36 115 56l83 21q58 15 68 63q3 12 3 22q0 44 -53 44q-64 0 -79 -70z
M332 163l22 106q-31 -20 -65 -27q-81 -17 -96 -87q-3 -15 -3 -28q0 -47 39 -47q32 0 60 19q34 23 43 64zM304 601l84 144h138l-128 -144h-94z" />
    <glyph glyph-name="acircumflex" unicode="&#xe2;" horiz-adv-x="481" 
d="M248 373h-124l3 13q35 166 224 166q167 0 167 -108q0 -24 -7 -57l-60 -283q-14 -66 -5 -104h-132q-5 15 -5 56h-2q-32 -40 -68 -56q-32 -14 -84 -14q-102 0 -102 109q0 22 5 45q15 74 56 112q38 36 115 56l83 21q58 15 68 63q3 12 3 22q0 44 -53 44q-64 0 -79 -70z
M332 163l22 106q-31 -20 -65 -27q-81 -17 -96 -87q-3 -15 -3 -28q0 -47 39 -47q32 0 60 19q34 23 43 64zM219 601l108 144h144l48 -144h-106l-28 85l-66 -85h-100z" />
    <glyph glyph-name="atilde" unicode="&#xe3;" horiz-adv-x="481" 
d="M248 373h-124l3 13q35 166 224 166q167 0 167 -108q0 -24 -7 -57l-60 -283q-14 -66 -5 -104h-132q-5 15 -5 56h-2q-32 -40 -68 -56q-32 -14 -84 -14q-102 0 -102 109q0 22 5 45q15 74 56 112q38 36 115 56l83 21q58 15 68 63q3 12 3 22q0 44 -53 44q-64 0 -79 -70z
M332 163l22 106q-31 -20 -65 -27q-81 -17 -96 -87q-3 -15 -3 -28q0 -47 39 -47q32 0 60 19q34 23 43 64zM284 610v0h-70q44 124 119 124q27 0 42 -7l43 -21q13 -6 29 -6q13 0 23 12t12 24h72q-17 -55 -49 -89.5t-70 -34.5q-23 0 -60 17t-52 17q-24 0 -39 -36z" />
    <glyph glyph-name="adieresis" unicode="&#xe4;" horiz-adv-x="481" 
d="M248 373h-124l3 13q35 166 224 166q167 0 167 -108q0 -24 -7 -57l-60 -283q-14 -66 -5 -104h-132q-5 15 -5 56h-2q-32 -40 -68 -56q-32 -14 -84 -14q-102 0 -102 109q0 22 5 45q15 74 56 112q38 36 115 56l83 21q58 15 68 63q3 12 3 22q0 44 -53 44q-64 0 -79 -70z
M332 163l22 106q-31 -20 -65 -27q-81 -17 -96 -87q-3 -15 -3 -28q0 -47 39 -47q32 0 60 19q34 23 43 64zM229 610l25 118h112l-25 -118h-112zM401 610l25 118h112l-25 -118h-112z" />
    <glyph glyph-name="aring" unicode="&#xe5;" horiz-adv-x="481" 
d="M248 373h-124l3 13q35 166 224 166q167 0 167 -108q0 -24 -7 -57l-60 -283q-14 -66 -5 -104h-132q-5 15 -5 56h-2q-32 -40 -68 -56q-32 -14 -84 -14q-102 0 -102 109q0 22 5 45q15 74 56 112q38 36 115 56l83 21q58 15 68 63q3 12 3 22q0 44 -53 44q-64 0 -79 -70z
M332 163l22 106q-31 -20 -65 -27q-81 -17 -96 -87q-3 -15 -3 -28q0 -47 39 -47q32 0 60 19q34 23 43 64zM414 812q40 0 66 -25.5t26 -64.5q0 -54 -43.5 -96t-97.5 -42q-41 0 -66.5 25.5t-25.5 64.5q0 54 43.5 96t97.5 42zM330 686q0 -20 13 -33t34 -13q27 0 49.5 21.5
t22.5 48.5q0 20 -13.5 33t-33.5 13q-28 0 -50 -21.5t-22 -48.5z" />
    <glyph glyph-name="ae" unicode="&#xe6;" horiz-adv-x="722" 
d="M331 163l22 106q-31 -20 -65 -27q-81 -17 -96 -87q-3 -15 -3 -28q0 -47 39 -47q32 0 60 19q34 23 43 64zM494 330h139q8 46 8 70q0 58 -50 58q-70 0 -92 -107zM247 373h-124l3 13q35 166 224 166q55 0 83.5 -14t42.5 -50q45 64 140 64q154 0 154 -148q0 -50 -16 -125
l-6 -31h-271l-9 -43q-7 -31 -7 -56q0 -69 47 -69q60 0 93 101h124q-49 -195 -235 -195q-124 0 -142 93q-43 -57 -88 -76q-37 -17 -106 -17q-102 0 -102 109q0 22 5 45q15 74 56 112q38 36 115 56l83 21q58 15 68 63q3 12 3 22q0 44 -53 44q-64 0 -79 -70z" />
    <glyph glyph-name="ccedilla" unicode="&#xe7;" horiz-adv-x="463" 
d="M151 -92l64 78q-75 3 -110 38q-38 37 -38 117q0 52 16 128q33 156 109 224q65 59 169 59q156 0 156 -145q0 -29 -7 -63h-132q6 30 6 51q0 57 -45 57q-48 0 -75 -46q-22 -37 -43 -138q-18 -85 -18 -124q0 -64 52 -64q67 0 94 126h132q-42 -198 -211 -218l-41 -49
q21 5 34 5q28 0 49 -16t21 -44q0 -53 -50 -83q-42 -25 -98 -25q-66 0 -96 19l29 46q23 -15 66 -15q21 0 37.5 10t19.5 24q7 34 -37 34q-17 0 -35 -6z" />
    <glyph glyph-name="egrave" unicode="&#xe8;" horiz-adv-x="463" 
d="M490 248h-273l-9 -43q-7 -31 -7 -56q0 -69 48 -69q61 0 94 101h124q-49 -195 -236 -195q-166 0 -166 150q0 48 19 138q28 130 79 193q68 85 194 85q155 0 155 -148q0 -50 -16 -125zM234 330h141q8 45 8 70q0 58 -51 58q-71 0 -93 -107zM425 601h-94l-68 144h138z" />
    <glyph glyph-name="eacute" unicode="&#xe9;" horiz-adv-x="463" 
d="M490 248h-273l-9 -43q-7 -31 -7 -56q0 -69 48 -69q61 0 94 101h124q-49 -195 -236 -195q-166 0 -166 150q0 48 19 138q28 130 79 193q68 85 194 85q155 0 155 -148q0 -50 -16 -125zM234 330h141q8 45 8 70q0 58 -51 58q-71 0 -93 -107zM295 601l84 144h138l-128 -144h-94
z" />
    <glyph glyph-name="ecircumflex" unicode="&#xea;" horiz-adv-x="463" 
d="M490 248h-273l-9 -43q-7 -31 -7 -56q0 -69 48 -69q61 0 94 101h124q-49 -195 -236 -195q-166 0 -166 150q0 48 19 138q28 130 79 193q68 85 194 85q155 0 155 -148q0 -50 -16 -125zM234 330h141q8 45 8 70q0 58 -51 58q-71 0 -93 -107zM210 601l108 144h144l48 -144h-106
l-28 85l-66 -85h-100z" />
    <glyph glyph-name="edieresis" unicode="&#xeb;" horiz-adv-x="463" 
d="M490 248h-273l-9 -43q-7 -31 -7 -56q0 -69 48 -69q61 0 94 101h124q-49 -195 -236 -195q-166 0 -166 150q0 48 19 138q28 130 79 193q68 85 194 85q155 0 155 -148q0 -50 -16 -125zM234 330h141q8 45 8 70q0 58 -51 58q-71 0 -93 -107zM220 610l25 118h112l-25 -118h-112
zM392 610l25 118h112l-25 -118h-112z" />
    <glyph glyph-name="igrave" unicode="&#xec;" horiz-adv-x="240" 
d="M51 0l114 538h138l-114 -538h-138zM313 601h-94l-68 144h138z" />
    <glyph glyph-name="iacute" unicode="&#xed;" horiz-adv-x="240" 
d="M51 0l114 538h138l-114 -538h-138zM183 601l84 144h138l-128 -144h-94z" />
    <glyph glyph-name="icircumflex" unicode="&#xee;" horiz-adv-x="240" 
d="M51 0l114 538h138l-114 -538h-138zM98 601l108 144h144l48 -144h-106l-28 85l-66 -85h-100z" />
    <glyph glyph-name="idieresis" unicode="&#xef;" horiz-adv-x="240" 
d="M51 0l114 538h138l-114 -538h-138zM108 610l25 118h112l-25 -118h-112zM280 610l25 118h112l-25 -118h-112z" />
    <glyph glyph-name="eth" unicode="&#xf0;" 
d="M222 262q-17 -80 -17 -116q0 -66 52 -66q41 0 67 43q25 40 46 139q14 69 14 107q0 69 -51 69q-46 0 -73 -51q-19 -36 -38 -125zM229 583l-30 42l85 45q-18 24 -52 64l117 61q26 -28 54 -63l84 45l34 -42l-86 -45q91 -130 91 -277q0 -67 -17 -144q-30 -143 -91 -210
q-66 -72 -181 -73q-90 -1 -129 37t-39 116q0 52 16 130q56 263 230 263q38 0 65 -26l2 2q-20 50 -67 120z" />
    <glyph glyph-name="ntilde" unicode="&#xf1;" horiz-adv-x="500" 
d="M46 0l114 538h132l-13 -63h2q58 77 153 77q111 0 111 -101q0 -23 -6 -52l-85 -399h-138l79 371q4 18 4 32q0 43 -47 43q-73 0 -92 -89l-76 -357h-138zM293 610v0h-70q44 124 119 124q27 0 42 -7l43 -21q13 -6 29 -6q13 0 23 12t12 24h72q-17 -55 -49 -89.5t-70 -34.5
q-23 0 -60 17t-52 17q-24 0 -39 -36z" />
    <glyph glyph-name="ograve" unicode="&#xf2;" 
d="M85 269q31 143 92 210q65 72 180 73q90 1 129.5 -37t39.5 -116q0 -52 -17 -130q-30 -143 -91 -210q-66 -72 -181 -73q-90 -1 -129 37t-39 116q0 52 16 130zM223 269q-18 -84 -18 -122q0 -67 52 -67q41 0 66.5 43.5t47.5 145.5q17 78 17 120q0 69 -51 69q-46 0 -73 -53
q-20 -39 -41 -136zM433 601h-94l-68 144h138z" />
    <glyph glyph-name="oacute" unicode="&#xf3;" 
d="M85 269q31 143 92 210q65 72 180 73q90 1 129.5 -37t39.5 -116q0 -52 -17 -130q-30 -143 -91 -210q-66 -72 -181 -73q-90 -1 -129 37t-39 116q0 52 16 130zM223 269q-18 -84 -18 -122q0 -67 52 -67q41 0 66.5 43.5t47.5 145.5q17 78 17 120q0 69 -51 69q-46 0 -73 -53
q-20 -39 -41 -136zM303 601l84 144h138l-128 -144h-94z" />
    <glyph glyph-name="ocircumflex" unicode="&#xf4;" 
d="M85 269q31 143 92 210q65 72 180 73q90 1 129.5 -37t39.5 -116q0 -52 -17 -130q-30 -143 -91 -210q-66 -72 -181 -73q-90 -1 -129 37t-39 116q0 52 16 130zM223 269q-18 -84 -18 -122q0 -67 52 -67q41 0 66.5 43.5t47.5 145.5q17 78 17 120q0 69 -51 69q-46 0 -73 -53
q-20 -39 -41 -136zM218 601l108 144h144l48 -144h-106l-28 85l-66 -85h-100z" />
    <glyph glyph-name="otilde" unicode="&#xf5;" 
d="M85 269q31 143 92 210q65 72 180 73q90 1 129.5 -37t39.5 -116q0 -52 -17 -130q-30 -143 -91 -210q-66 -72 -181 -73q-90 -1 -129 37t-39 116q0 52 16 130zM223 269q-18 -84 -18 -122q0 -67 52 -67q41 0 66.5 43.5t47.5 145.5q17 78 17 120q0 69 -51 69q-46 0 -73 -53
q-20 -39 -41 -136zM283 610v0h-70q44 124 119 124q27 0 42 -7l43 -21q13 -6 29 -6q13 0 23 12t12 24h72q-17 -55 -49 -89.5t-70 -34.5q-23 0 -60 17t-52 17q-24 0 -39 -36z" />
    <glyph glyph-name="odieresis" unicode="&#xf6;" 
d="M85 269q31 143 92 210q65 72 180 73q90 1 129.5 -37t39.5 -116q0 -52 -17 -130q-30 -143 -91 -210q-66 -72 -181 -73q-90 -1 -129 37t-39 116q0 52 16 130zM223 269q-18 -84 -18 -122q0 -67 52 -67q41 0 66.5 43.5t47.5 145.5q17 78 17 120q0 69 -51 69q-46 0 -73 -53
q-20 -39 -41 -136zM228 610l25 118h112l-25 -118h-112zM400 610l25 118h112l-25 -118h-112z" />
    <glyph glyph-name="divide" unicode="&#xf7;" horiz-adv-x="600" 
d="M88 191l26 124h506l-26 -124h-506zM419 562q35 0 57 -21.5t22 -54.5q0 -46 -36.5 -82t-83.5 -36q-35 0 -56.5 21.5t-21.5 54.5q0 46 36.5 82t82.5 36zM329 138q35 0 57 -21.5t22 -54.5q0 -46 -37 -82t-83 -36q-35 0 -57 21.5t-22 54.5q0 46 37 82t83 36z" />
    <glyph glyph-name="oslash" unicode="&#xf8;" 
d="M210 186l173 238q-8 34 -46 34q-46 0 -73 -53q-20 -39 -41 -136q-6 -29 -15 -83h2zM385 351l-175 -238q9 -33 47 -33q41 0 66.5 43.5t47.5 145.5q8 36 16 82h-2zM46 -35l51 70q-28 36 -28 104q0 52 16 130q31 143 92 210q65 72 180 73q70 0 105 -21l48 65l39 -23l-52 -70
q29 -36 29 -104q0 -52 -17 -130q-30 -143 -91 -210q-66 -72 -181 -73q-71 0 -105 21l-47 -65z" />
    <glyph glyph-name="ugrave" unicode="&#xf9;" horiz-adv-x="500" 
d="M322 0l13 63h-2q-58 -77 -153 -77q-111 0 -111 101q0 23 7 52l84 399h138l-79 -371q-3 -18 -3 -32q0 -43 47 -43q73 0 91 89l76 357h138l-114 -538h-132zM443 601h-94l-68 144h138z" />
    <glyph glyph-name="uacute" unicode="&#xfa;" horiz-adv-x="500" 
d="M322 0l13 63h-2q-58 -77 -153 -77q-111 0 -111 101q0 23 7 52l84 399h138l-79 -371q-3 -18 -3 -32q0 -43 47 -43q73 0 91 89l76 357h138l-114 -538h-132zM313 601l84 144h138l-128 -144h-94z" />
    <glyph glyph-name="ucircumflex" unicode="&#xfb;" horiz-adv-x="500" 
d="M322 0l13 63h-2q-58 -77 -153 -77q-111 0 -111 101q0 23 7 52l84 399h138l-79 -371q-3 -18 -3 -32q0 -43 47 -43q73 0 91 89l76 357h138l-114 -538h-132zM228 601l108 144h144l48 -144h-106l-28 85l-66 -85h-100z" />
    <glyph glyph-name="udieresis" unicode="&#xfc;" horiz-adv-x="500" 
d="M322 0l13 63h-2q-58 -77 -153 -77q-111 0 -111 101q0 23 7 52l84 399h138l-79 -371q-3 -18 -3 -32q0 -43 47 -43q73 0 91 89l76 357h138l-114 -538h-132zM238 610l25 118h112l-25 -118h-112zM410 610l25 118h112l-25 -118h-112z" />
    <glyph glyph-name="yacute" unicode="&#xfd;" horiz-adv-x="444" 
d="M9 -176l21 103q18 -3 36 -3q68 0 90 76l-37 538h144l1 -372h2l149 372h138l-236 -502q-65 -138 -110 -175t-142 -37h-56zM285 601l84 144h138l-128 -144h-94z" />
    <glyph glyph-name="thorn" unicode="&#xfe;" horiz-adv-x="500" 
d="M241 269q-16 -75 -16 -112q0 -65 52 -65q42 0 68 45q21 38 41 132q16 75 16 112q0 65 -50 65q-44 0 -69 -45q-22 -38 -42 -132zM9 -176l189 890h138l-50 -233h2q49 71 131 71q123 0 123 -144q0 -56 -18 -139q-31 -149 -85.5 -216t-139.5 -67q-73 0 -102 64h-2l-48 -226
h-138z" />
    <glyph glyph-name="ydieresis" unicode="&#xff;" horiz-adv-x="444" 
d="M9 -176l21 103q18 -3 36 -3q68 0 90 76l-37 538h144l1 -372h2l149 372h138l-236 -502q-65 -138 -110 -175t-142 -37h-56zM210 610l25 118h112l-25 -118h-112zM382 610l25 118h112l-25 -118h-112z" />
    <glyph glyph-name="dotlessi" unicode="&#x131;" horiz-adv-x="240" 
d="M51 0l114 538h138l-114 -538h-138z" />
    <glyph glyph-name="Lslash" unicode="&#x141;" horiz-adv-x="463" 
d="M50 0l54 256l-56 -31l22 106l57 31l75 352h144l-56 -262l143 79l-23 -106l-142 -79l-49 -228h255l-25 -118h-399z" />
    <glyph glyph-name="lslash" unicode="&#x142;" horiz-adv-x="240" 
d="M51 0l60 282l-72 -42l19 88l72 42l73 344h138l-54 -253l72 41l-19 -88l-72 -41l-79 -373h-138z" />
    <glyph glyph-name="OE" unicode="&#x152;" horiz-adv-x="778" 
d="M900 714l-25 -118h-242l-36 -168h227l-25 -118h-227l-41 -192h250l-25 -118h-373l9 41h-2q-17 -25 -56.5 -40t-78.5 -15q-170 0 -170 179q0 69 28 200q35 167 91 251q74 112 202 112q99 0 119 -52h2l8 38h365zM255 357q-28 -130 -28 -182q0 -83 71 -83q60 0 89 57
q22 46 57 208q31 148 31 195q0 70 -65 70q-62 0 -95 -61q-28 -52 -60 -204z" />
    <glyph glyph-name="oe" unicode="&#x153;" horiz-adv-x="741" 
d="M765 248h-273l-9 -43q-7 -31 -7 -56q0 -69 48 -69q61 0 94 101h124q-49 -195 -228 -195q-110 0 -123 79q-22 -37 -67 -58t-98 -21q-156 0 -156 152q0 53 16 131q31 143 92 211q66 72 180 72q104 0 127 -75q58 75 147 75q155 0 155 -148q0 -50 -16 -125zM260 80
q40 0 65 43.5t47 145.5q17 78 17 120q0 69 -51 69q-46 0 -73 -53q-20 -39 -41 -136q-18 -84 -18 -121q0 -68 54 -68zM509 330h141q8 45 8 70q0 58 -51 58q-71 0 -93 -107z" />
    <glyph glyph-name="Scaron" unicode="&#x160;" horiz-adv-x="519" 
d="M69 223h144l-4 -21q-6 -26 -6 -44q0 -66 78 -66q35 0 65 23t39 65q4 16 4 28q0 33 -25 54q-23 18 -81 40q-77 29 -110 63q-37 38 -37 97q0 25 6 56q22 102 92 156t174 54q186 0 186 -140q0 -24 -6 -52l-4 -20h-138q5 24 5 42q0 64 -61 64q-82 0 -99 -83q-4 -16 -4 -28
q0 -42 57 -69l101 -48q102 -49 102 -134q0 -24 -6 -55q-47 -219 -295 -219q-190 0 -190 143q0 29 7 65zM349 756l-48 144h106l28 -85l66 85h100l-108 -144h-144z" />
    <glyph glyph-name="scaron" unicode="&#x161;" horiz-adv-x="444" 
d="M60 176h124l-3 -18q-3 -12 -3 -23q0 -55 58 -55q70 0 84 64q1 8 1 14q0 32 -38 47l-90 35q-87 34 -87 112q0 18 4 38q15 72 70 114q62 48 162 48q156 0 156 -112q0 -19 -4 -41l-5 -22h-124q4 20 4 35q0 46 -48 46q-31 0 -54.5 -20t-23.5 -51q0 -33 48 -50l77 -28
q91 -33 91 -109q0 -20 -5 -45q-18 -82 -84 -127q-62 -42 -152 -42q-168 0 -168 116q0 24 6 55zM278 601l-48 144h106l28 -85l66 85h100l-108 -144h-144z" />
    <glyph glyph-name="Ydieresis" unicode="&#x178;" horiz-adv-x="520" 
d="M155 714h162l35 -276h2l159 276h156l-277 -433l-60 -281h-144l60 281zM281 765l25 118h112l-25 -118h-112zM453 765l25 118h112l-25 -118h-112z" />
    <glyph glyph-name="Zcaron" unicode="&#x17d;" horiz-adv-x="481" 
d="M24 0l22 105l368 491h-245l25 118h411l-23 -109l-371 -487h271l-25 -118h-433zM330 756l-48 144h106l28 -85l66 85h100l-108 -144h-144z" />
    <glyph glyph-name="zcaron" unicode="&#x17e;" horiz-adv-x="426" 
d="M24 0l23 106l283 320h-205l23 112h368l-22 -106l-283 -320h215l-24 -112h-378zM269 601l-48 144h106l28 -85l66 85h100l-108 -144h-144z" />
    <glyph glyph-name="florin" unicode="&#x192;" 
d="M138 346l33 82h105l36 89q44 109 96 153t144 44q40 0 74 -3l-39 -94q-9 3 -27 3q-47 0 -71 -25q-20 -21 -51 -94l-30 -73h110l-32 -82h-111l-138 -342q-38 -93 -84 -132q-56 -48 -153 -48q-53 0 -71 7l39 91q16 -4 35 -4q42 0 64 22q18 19 41 76l135 330h-105z" />
    <glyph glyph-name="circumflex" unicode="&#x2c6;" horiz-adv-x="222" 
d="M89 601l108 144h144l48 -144h-106l-28 85l-66 -85h-100z" />
    <glyph glyph-name="caron" unicode="&#x2c7;" horiz-adv-x="222" 
d="M167 601l-48 144h106l28 -85l66 85h100l-108 -144h-144z" />
    <glyph glyph-name="breve" unicode="&#x2d8;" horiz-adv-x="222" 
d="M130 745h65q-3 -28 14.5 -46.5t46.5 -18.5q28 0 53 18.5t34 46.5h65q-12 -52 -48 -91q-48 -50 -121 -50q-112 0 -112 109q0 16 3 32z" />
    <glyph glyph-name="dotaccent" unicode="&#x2d9;" horiz-adv-x="222" 
d="M210 728h112l-25 -118h-112z" />
    <glyph glyph-name="ring" unicode="&#x2da;" horiz-adv-x="222" 
d="M284 812q40 0 66 -25.5t26 -64.5q0 -54 -43.5 -96t-97.5 -42q-41 0 -66.5 25.5t-25.5 64.5q0 54 43.5 96t97.5 42zM200 686q0 -20 13 -33t34 -13q27 0 49.5 21.5t22.5 48.5q0 20 -13.5 33t-33.5 13q-28 0 -50 -21.5t-22 -48.5z" />
    <glyph glyph-name="ogonek" unicode="&#x2db;" horiz-adv-x="222" 
d="M179 -144l7 -57q-48 -23 -114 -23q-80 0 -80 64q0 57 52 102q40 37 103 58h67q-57 -35 -78 -53q-51 -42 -51 -77q0 -30 32 -30q30 0 62 16z" />
    <glyph glyph-name="tilde" unicode="&#x2dc;" horiz-adv-x="222" 
d="M154 610v0h-70q44 124 119 124q27 0 42 -7l43 -21q13 -6 29 -6q13 0 23 12t12 24h72q-17 -55 -49 -89.5t-70 -34.5q-23 0 -60 17t-52 17q-24 0 -39 -36z" />
    <glyph glyph-name="hungarumlaut" unicode="&#x2dd;" horiz-adv-x="222" 
d="M91 601l84 144h138l-128 -144h-94zM257 601l84 144h138l-128 -144h-94z" />
    <glyph glyph-name="endash" unicode="&#x2013;" horiz-adv-x="500" 
d="M50 233l23 112h500l-23 -112h-500z" />
    <glyph glyph-name="emdash" unicode="&#x2014;" horiz-adv-x="1000" 
d="M50 233l23 112h1000l-23 -112h-1000z" />
    <glyph glyph-name="quoteleft" unicode="&#x2018;" horiz-adv-x="260" 
d="M148 393l27 130q19 88 54 131q42 53 119 60l-15 -70q-54 -9 -69 -79l-3 -16h52l-33 -156h-132z" />
    <glyph glyph-name="quoteright" unicode="&#x2019;" horiz-adv-x="260" 
d="M348 714l-28 -130q-18 -88 -54 -131q-42 -53 -118 -60l14 70q54 9 69 79l4 16h-52l33 156h132z" />
    <glyph glyph-name="quotesinglbase" unicode="&#x201a;" horiz-adv-x="260" 
d="M97 156h132l-27 -130q-19 -88 -54 -131q-42 -53 -119 -60l15 70q54 9 69 79l3 16h-52z" />
    <glyph glyph-name="quotedblleft" unicode="&#x201c;" horiz-adv-x="463" 
d="M347 393l27 130q19 88 54 131q42 53 119 60l-15 -70q-54 -9 -69 -79l-3 -16h52l-33 -156h-132zM152 393l27 130q19 88 54 131q42 53 119 60l-15 -70q-54 -9 -69 -79l-3 -16h52l-33 -156h-132z" />
    <glyph glyph-name="quotedblright" unicode="&#x201d;" horiz-adv-x="463" 
d="M187 558l33 156h132l-28 -130q-18 -88 -54 -131q-42 -53 -118 -60l14 70q54 9 69 79l4 16h-52zM382 558l33 156h132l-28 -130q-18 -88 -54 -131q-42 -53 -118 -60l14 70q54 9 69 79l4 16h-52z" />
    <glyph glyph-name="quotedblbase" unicode="&#x201e;" horiz-adv-x="463" 
d="M263 0l33 156h132l-27 -130q-19 -88 -54 -131q-42 -53 -119 -60l15 70q54 9 69 79l3 16h-52zM68 0l33 156h132l-27 -130q-19 -88 -54 -131q-42 -53 -119 -60l15 70q54 9 69 79l3 16h-52z" />
    <glyph glyph-name="dagger" unicode="&#x2020;" 
d="M281 516l42 198h138l-42 -198h168l-24 -112h-168l-115 -542h-138l115 542h-168l24 112h168z" />
    <glyph glyph-name="daggerdbl" unicode="&#x2021;" 
d="M142 -138l40 190h-168l24 112h168l53 248h-168l23 112h168l41 190h138l-41 -190h168l-23 -112h-168l-53 -248h168l-24 -112h-168l-40 -190h-138z" />
    <glyph glyph-name="bullet" unicode="&#x2022;" horiz-adv-x="500" 
d="M148 357q16 73 79 125.5t137 52.5q63 0 103.5 -40t40.5 -101q0 -18 -4 -37q-16 -73 -79 -125.5t-137 -52.5q-63 0 -103.5 40t-40.5 101q0 18 4 37z" />
    <glyph glyph-name="ellipsis" unicode="&#x2026;" horiz-adv-x="1000" 
d="M134 156h132l-33 -156h-132zM467 156h132l-33 -156h-132zM800 156h132l-33 -156h-132z" />
    <glyph glyph-name="perthousand" unicode="&#x2030;" horiz-adv-x="1093" 
d="M898 100q0 -38 31 -38q28 0 44 30q11 23 25 89q11 51 11 73q0 38 -31 38q-28 0 -43 -29q-12 -22 -24.5 -81t-12.5 -82zM804 177q21 103 59 144q43 47 131 47q66 0 94 -24t28 -76q0 -34 -12 -91q-22 -103 -59 -144q-43 -47 -132 -47q-66 0 -93.5 24t-27.5 76q0 34 12 91z
M137 517q22 103 59 144q43 47 131 47q66 0 94 -24t28 -76q0 -34 -12 -91q-22 -103 -59 -144q-43 -47 -132 -47q-66 0 -93.5 24t-27.5 76q0 34 12 91zM231 440q0 -38 31 -38q28 0 44 30q12 23 26 89q11 51 11 73q0 38 -32 38q-27 0 -43 -29q-11 -22 -24 -81t-13 -82zM466 177
q21 103 59 144q43 47 131 47q66 0 94 -24t28 -76q0 -34 -12 -91q-22 -103 -59 -144q-43 -47 -132 -47q-66 0 -93.5 24t-27.5 76q0 34 12 91zM560 100q0 -38 31 -38q28 0 44 30q11 23 25 89q11 51 11 73q0 38 -31 38q-28 0 -43 -29q-12 -22 -24.5 -81t-12.5 -82zM121 -31
l567 756h89l-567 -756h-89z" />
    <glyph glyph-name="guilsinglleft" unicode="&#x2039;" horiz-adv-x="241" 
d="M90 208l35 162l174 120l-28 -132l-94 -69l65 -69l-28 -132z" />
    <glyph glyph-name="guilsinglright" unicode="&#x203a;" horiz-adv-x="241" 
d="M65 88l28 132l93 69l-64 69l28 132l124 -120l-35 -162z" />
    <glyph glyph-name="fraction" unicode="&#x2044;" horiz-adv-x="167" 
d="M-171 -31l567 756h89l-567 -756h-89z" />
    <glyph glyph-name="trademark" unicode="&#x2122;" horiz-adv-x="990" 
d="M906 300l60 284h-2l-155 -284h-100l-35 284h-2l-60 -284h-106l88 414h169l30 -250h2l136 250h169l-88 -414h-106zM207 300l68 320h-112l20 94h336l-20 -94h-112l-68 -320h-112z" />
    <glyph glyph-name="fi" unicode="&#xf001;" horiz-adv-x="537" 
d="M348 0l114 538h138l-114 -538h-138zM476 604l25 118h138l-25 -118h-138zM76 0l94 444h-70l20 94h70l13 61q28 129 172 129q36 0 73 -3l-21 -98q-9 1 -27 1q-53 0 -62 -43l-10 -47h80l-20 -94h-80l-94 -444h-138z" />
    <glyph glyph-name="fl" unicode="&#xf002;" horiz-adv-x="537" 
d="M348 0l153 722h138l-153 -722h-138zM76 0l94 444h-70l20 94h70l13 61q28 129 172 129q36 0 73 -3l-21 -98q-9 1 -27 1q-53 0 -62 -43l-10 -47h80l-20 -94h-80l-94 -444h-138z" />
    <glyph glyph-name="glyph231" horiz-adv-x="240" 
 />
  </font>
</defs>
</svg>
