<?xml version="1.0" standalone="no"?>
<!DOCTYPE svg PUBLIC "-//W3C//DTD SVG 1.1//EN" "http://www.w3.org/Graphics/SVG/1.1/DTD/svg11.dtd" >
<svg xmlns="http://www.w3.org/2000/svg" xmlns:xlink="http://www.w3.org/1999/xlink" version="1.1">
<metadata>
Created by FontForge 20170731 at Sun Apr 24 03:02:29 2022
 By Aleksey,,,
Copyright (c) 1990, 2002 Adobe Systems Incorporated.  All Rights Reserved. (c) 1981, 2002 Heidelberger Druckmaschinen AG. All rights reserved.
</metadata>
<defs>
<font id="HelveticaNeueLTStd-LtCnO" horiz-adv-x="872" >
  <font-face 
    font-family="HelveticaNeueLT Std Lt Cn"
    font-weight="300"
    font-style="italic"
    font-stretch="condensed"
    units-per-em="2048"
    panose-1="2 11 4 6 2 2 2 3 2 4"
    ascent="1462"
    descent="-586"
    x-height="1087"
    cap-height="1462"
    bbox="-354 -557 2183 1898"
    underline-thickness="102"
    underline-position="-307"
    slope="-12"
    unicode-range="U+0020-FB02"
  />
<missing-glyph horiz-adv-x="1327" 
d="M303 0v1434h1024v-1434h-1024zM815 809l348 522h-696zM877 717l348 -522v1044zM467 102h696l-348 523zM406 1239v-1044l348 522z" />
    <glyph glyph-name="fi" unicode="fi" 
d="M623 0l231 1087h123l-232 -1087h-122zM889 1253l45 209h123l-45 -209h-123zM164 0l209 985h-150l23 102h149l27 130q11 50 23.5 85.5t34.5 71t52 57t76.5 35t106.5 13.5q43 0 78 -6l-23 -103q-24 6 -57 6q-71 0 -109.5 -34.5t-58.5 -124.5l-27 -130h193l-23 -102h-192
l-209 -985h-123z" />
    <glyph glyph-name="fl" unicode="fl" 
d="M623 0l311 1462h123l-312 -1462h-122zM164 0l209 985h-150l23 102h149l27 130q11 50 23.5 85.5t34.5 71t52 57t76.5 35t106.5 13.5q43 0 78 -6l-23 -103q-24 6 -57 6q-71 0 -109.5 -34.5t-58.5 -124.5l-27 -130h193l-23 -102h-192l-209 -985h-123z" />
    <glyph glyph-name=".notdef" horiz-adv-x="1327" 
d="M303 0v1434h1024v-1434h-1024zM815 809l348 522h-696zM877 717l348 -522v1044zM467 102h696l-348 523zM406 1239v-1044l348 522z" />
    <glyph glyph-name=".null" horiz-adv-x="0" 
 />
    <glyph glyph-name="nonmarkingreturn" horiz-adv-x="682" 
 />
    <glyph glyph-name="space" unicode=" " horiz-adv-x="491" 
 />
    <glyph glyph-name="exclam" unicode="!" horiz-adv-x="491" 
d="M389 999l98 463h140l-99 -463l-155 -618h-90zM176 0l45 209h139l-45 -209h-139z" />
    <glyph glyph-name="quotedbl" unicode="&#x22;" horiz-adv-x="720" 
d="M352 971l105 491h123l-105 -491h-123zM659 971l105 491h123l-105 -491h-123z" />
    <glyph glyph-name="numbersign" unicode="#" horiz-adv-x="983" 
d="M573 872l-110 -319h250l110 319h-250zM104 463l19 90h237l111 319h-225l18 91h238l160 462h102l-160 -462h250l160 462h102l-160 -462h226l-19 -91h-237l-111 -319h225l-18 -90h-238l-159 -463h-103l160 463h-250l-160 -463h-102l160 463h-226z" />
    <glyph glyph-name="dollar" unicode="$" horiz-adv-x="983" 
d="M621 811l112 528q-114 -12 -190 -82t-97 -172q-13 -47 -6.5 -86.5t19 -67t39.5 -51t55.5 -39t67.5 -30.5zM678 657l-121 -571q120 12 203.5 85t111.5 202q7 32 8 59.5t-5 50.5t-14.5 42t-24 35.5t-31.5 29.5t-38 25.5t-42.5 21.5t-46.5 20zM143 399l11 41h131l-13 -53
q-28 -132 21.5 -212t173.5 -89l127 602q-37 12 -63.5 21.5t-60 24t-56 30.5t-46 37.5t-37 48t-23 59t-8.5 74.5t11 90q34 160 153 262t292 115l32 145h91l-33 -145q175 -13 239 -110.5t25 -278.5h-131q27 122 -12.5 194t-143.5 84l-118 -559q138 -48 191 -82
q128 -80 122 -231q-2 -35 -10 -74q-40 -188 -166 -295.5t-310 -122.5l-34 -170h-90l34 170q-187 11 -263.5 117.5t-35.5 306.5z" />
    <glyph glyph-name="percent" unicode="%" horiz-adv-x="1478" 
d="M446 1073q-59 -287 89 -287q71 0 122.5 65.5t83.5 221.5q25 107 18 171t-32.5 90t-71.5 26q-147 0 -209 -287zM367 -25l942 1475h102l-942 -1475h-102zM1040 352q-25 -108 -17.5 -171.5t32.5 -89t71 -25.5q71 0 123.5 65t85.5 221q60 287 -88 287q-147 0 -207 -287z
M336 1073q23 109 55.5 183.5t76 116.5t93 59.5t113.5 17.5t105.5 -17t68.5 -60t26 -116t-22 -184q-44 -212 -125 -294.5t-213 -82.5q-64 0 -105.5 17t-68 60t-25.5 116t21 184zM930 352q44 212 125 294.5t213 82.5q64 0 105.5 -17t68 -60t25.5 -116t-21 -184
q-23 -109 -56 -183.5t-76.5 -116.5t-93 -59.5t-114.5 -17.5q-51 0 -87.5 10.5t-63 36.5t-38 69t-9 108t21.5 153z" />
    <glyph glyph-name="ampersand" unicode="&#x26;" horiz-adv-x="1099" 
d="M973 0l-92 178q-175 -203 -432 -203q-185 0 -273.5 111t-52.5 276q47 217 291 377l139 92q-61 113 -84.5 196.5t-5.5 164.5q27 127 127.5 198.5t228.5 71.5q127 0 187.5 -74t35.5 -196q-22 -99 -95.5 -186.5t-241.5 -190.5l221 -442q76 125 110 276h123
q-42 -197 -182 -379l135 -270h-139zM586 1196q-23 -111 73 -297q131 85 189 157t72 140q15 70 -23 117t-109 47q-72 0 -129.5 -46.5t-72.5 -117.5zM838 270l-240 480q-168 -101 -245 -190t-97 -183q-27 -128 42.5 -209.5t193.5 -81.5q91 0 188.5 50.5t157.5 133.5z" />
    <glyph glyph-name="quotesingle" unicode="'" horiz-adv-x="491" 
d="M391 971l105 491h122l-104 -491h-123z" />
    <glyph glyph-name="parenleft" unicode="(" horiz-adv-x="454" 
d="M694 1462h88q-324 -413 -434 -919q-106 -503 43 -920h-88q-177 443 -78 920q101 472 469 919z" />
    <glyph glyph-name="parenright" unicode=")" horiz-adv-x="454" 
d="M-8 -377h-88q325 414 432 920q109 501 -41 919h88q178 -445 76 -919q-98 -471 -467 -920z" />
    <glyph glyph-name="asterisk" unicode="*" horiz-adv-x="684" 
d="M608 1462h90l-49 -227l232 70l8 -86l-230 -70l95 -184l-84 -54l-95 185l-172 -185l-63 54l172 184l-201 70l45 86l203 -70z" />
    <glyph glyph-name="plus" unicode="+" horiz-adv-x="1228" 
d="M563 0l99 467h-467l22 102h467l100 467h103l-101 -467h467l-22 -102h-467l-98 -467h-103z" />
    <glyph glyph-name="comma" unicode="," horiz-adv-x="491" 
d="M176 0l45 209h139l-45 -209q-11 -51 -25.5 -90t-38 -78.5t-61 -68.5t-86.5 -46l17 82q45 24 70.5 70t44.5 131h-60z" />
    <glyph glyph-name="hyphen" unicode="-" horiz-adv-x="681" 
d="M254 637h444l-22 -111h-445z" />
    <glyph glyph-name="period" unicode="." horiz-adv-x="491" 
d="M176 0l45 209h139l-45 -209h-139z" />
    <glyph glyph-name="slash" unicode="/" horiz-adv-x="569" 
d="M795 1487h110l-821 -1512h-111z" />
    <glyph glyph-name="zero" unicode="0" horiz-adv-x="983" 
d="M367 713q-73 -349 -41 -492t182 -143t244.5 144t167.5 491q73 349 40.5 492t-182.5 143t-244 -144t-167 -491zM236 713q29 136 61.5 242t80.5 201.5t106.5 158t138 99t176.5 36.5q81 0 139.5 -24.5t92.5 -72t51.5 -110.5t16.5 -149t-12.5 -177t-35.5 -204
q-29 -136 -62 -242t-81 -202t-107 -158.5t-139 -99t-177 -36.5q-81 0 -139.5 24.5t-92 72.5t-50.5 111t-16 149t13 177t36 204z" />
    <glyph glyph-name="one" unicode="1" horiz-adv-x="983" 
d="M471 0l236 1110h-332l20 90q178 1 280 66.5t132 183.5h94l-307 -1450h-123z" />
    <glyph glyph-name="two" unicode="2" horiz-adv-x="983" 
d="M438 995h-131q48 216 177 335.5t329 119.5q160 0 246.5 -99t46.5 -294q-30 -136 -103 -235t-233 -212l-184 -129q-144 -101 -219.5 -181.5t-114.5 -188.5h663l-22 -111h-803q36 172 137.5 300t284.5 259l184 131q128 93 191.5 175t85.5 186q30 141 -23.5 219t-169.5 78
q-256 0 -342 -353z" />
    <glyph glyph-name="three" unicode="3" horiz-adv-x="983" 
d="M532 702l23 103h68q130 0 216.5 70.5t114.5 199.5q27 128 -19 200.5t-163 72.5q-114 0 -200.5 -75.5t-118.5 -223.5h-131q39 186 161 293.5t310 107.5q169 0 249 -96t45 -262q-26 -124 -104 -212t-199 -116v-4q123 -19 178 -114t25 -230q-42 -201 -176 -321t-334 -120
q-188 0 -270 105t-47 307h131q-28 -135 24 -222t185 -87q57 0 110.5 18.5t102.5 56.5t86.5 104.5t56.5 154.5q29 139 -32 214.5t-195 75.5h-97z" />
    <glyph glyph-name="four" unicode="4" horiz-adv-x="983" 
d="M625 0l80 373h-560l25 123l762 954h123l-205 -967h170l-23 -110h-170l-79 -373h-123zM279 483h448l162 758h-4z" />
    <glyph glyph-name="five" unicode="5" horiz-adv-x="983" 
d="M500 1425h635l-25 -110h-537l-170 -506l5 -4q55 75 139.5 111t171.5 36q174 0 251.5 -122.5t28.5 -356.5q-47 -225 -187.5 -361.5t-348.5 -136.5q-173 0 -256.5 104.5t-44.5 291.5h131q-27 -128 27 -210.5t180 -82.5q133 0 231.5 107.5t140.5 308.5q34 159 -16 257.5
t-190 98.5q-86 0 -162 -42t-123 -126h-123z" />
    <glyph glyph-name="six" unicode="6" horiz-adv-x="983" 
d="M1110 1110h-131q19 108 -27 173t-151 65q-154 0 -260.5 -153.5t-186.5 -506.5l4 -4q61 113 154.5 175.5t208.5 62.5q184 0 256.5 -123t28.5 -328q-23 -105 -66 -193.5t-106 -157t-149.5 -107t-188.5 -38.5q-161 0 -238.5 79.5t-81 235t44.5 384.5q31 149 68 264
t88.5 213.5t115 162.5t147.5 100t187 36q167 0 240 -93t43 -247zM330 449q-18 -70 -15.5 -136.5t20.5 -118.5t65.5 -84t119.5 -32q58 0 109.5 21t89 56t68 83.5t50.5 100.5t33 110q12 58 14.5 110t-7.5 100.5t-33 83t-65.5 55.5t-100.5 21q-72 0 -132.5 -31t-102 -84.5
t-70 -117.5t-43.5 -137z" />
    <glyph glyph-name="seven" unicode="7" horiz-adv-x="983" 
d="M362 1315l25 110h815l-24 -110q-188 -184 -353.5 -422t-276 -464t-169.5 -429h-139q80 300 313.5 678t501.5 637h-693z" />
    <glyph glyph-name="eight" unicode="8" horiz-adv-x="983" 
d="M299 399q-29 -138 24 -229.5t185 -91.5t223.5 91.5t120.5 229.5q31 139 -22 231.5t-185 92.5t-223.5 -92t-122.5 -232zM172 410q28 138 118.5 241.5t219.5 116.5v4q-97 27 -136 119t-16 201q37 173 157 265.5t284 92.5q165 0 245 -92.5t43 -265.5q-23 -110 -99.5 -202
t-186.5 -118v-4q123 -13 168.5 -116.5t17.5 -241.5q-44 -203 -180.5 -319t-321.5 -116q-184 0 -270.5 116t-42.5 319zM489 1085q-26 -119 19.5 -189.5t159.5 -70.5q115 0 188.5 70t99.5 190q26 121 -18.5 192t-159.5 71q-114 0 -188.5 -71t-100.5 -192z" />
    <glyph glyph-name="nine" unicode="9" horiz-adv-x="983" 
d="M176 315h131q-19 -108 27 -172.5t151 -64.5q154 0 260.5 153t186.5 506l-4 4q-60 -113 -154 -175t-209 -62q-184 0 -256 122.5t-28 327.5q23 105 65.5 193.5t105 157t148.5 107t188 38.5q161 0 239 -79.5t82 -234.5t-44 -384q-31 -149 -68 -264t-89 -214t-115.5 -163
t-148 -100t-187.5 -36q-167 0 -239 93t-42 247zM416 977q-12 -58 -14.5 -110t7.5 -100.5t33 -83.5t65.5 -56t100.5 -21q72 0 132.5 31t102 85t70 118t43.5 137q18 70 15.5 136.5t-20.5 118.5t-65.5 84t-119.5 32q-58 0 -109.5 -21t-89 -56t-68 -83.5t-50.5 -100.5t-33 -110z
" />
    <glyph glyph-name="colon" unicode=":" horiz-adv-x="491" 
d="M350 817l43 209h139l-43 -209h-139zM176 0l45 209h139l-45 -209h-139z" />
    <glyph glyph-name="semicolon" unicode=";" horiz-adv-x="491" 
d="M176 0l45 209h139l-45 -209q-11 -51 -25.5 -90t-38 -78.5t-61 -68.5t-86.5 -46l17 82q45 24 70.5 70t44.5 131h-60zM350 817l43 209h139l-43 -209h-139z" />
    <glyph glyph-name="less" unicode="&#x3c;" horiz-adv-x="1228" 
d="M195 463l24 110l1137 480l-23 -111l-1003 -424l823 -424l-25 -110z" />
    <glyph glyph-name="equal" unicode="=" horiz-adv-x="1228" 
d="M238 666l22 102h1036l-22 -102h-1036zM154 268l20 103h1036l-20 -103h-1036z" />
    <glyph glyph-name="greater" unicode="&#x3e;" horiz-adv-x="1228" 
d="M92 -16l25 110l1003 424l-823 424l22 111l936 -480l-24 -110z" />
    <glyph glyph-name="question" unicode="?" 
d="M547 379h-123l16 72q23 112 64.5 177t140.5 150l105 92q131 115 161 260q24 110 -23.5 182t-150.5 72q-130 0 -215 -89t-121 -255h-131q43 200 167 323.5t313 123.5q169 0 247.5 -99t44.5 -260q-19 -87 -64 -164.5t-136 -156.5l-109 -94q-78 -67 -116 -127t-58 -150z
M336 0l45 209h139l-45 -209h-139z" />
    <glyph glyph-name="at" unicode="@" horiz-adv-x="1638" 
d="M623 590q-21 -97 11.5 -153t121.5 -56q78 0 161.5 51.5t148 128t111.5 162t62 156.5q22 101 -9.5 148.5t-123.5 47.5q-79 0 -162 -48t-147.5 -121.5t-111 -157.5t-62.5 -158zM1335 1008l80 135h117l-338 -602q-44 -82 -51 -121q-6 -23 5.5 -37t37.5 -14q87 0 190.5 79
t181 194.5t99.5 221.5q33 156 -28.5 279.5t-186.5 188.5t-285 65q-196 0 -376 -92.5t-300.5 -245t-158.5 -328.5q-21 -112 -10 -211t58.5 -182.5t118.5 -144t170.5 -94t214.5 -33.5q169 0 342 77t281 205h123q-141 -171 -348.5 -272t-417.5 -101q-111 0 -210 27.5
t-175.5 76.5t-135 118.5t-89.5 153.5t-40 180.5t15 199.5q32 155 125 295t221.5 241t288.5 160.5t322 59.5q147 0 269 -47.5t200 -130t109.5 -200t2.5 -251.5q-25 -114 -93 -222.5t-154 -185.5t-182.5 -124t-178.5 -47q-63 0 -95 35.5t-16 103.5h-4q-89 -72 -162 -105.5
t-155 -33.5q-121 0 -178.5 81.5t-28.5 219.5q22 106 82 213t143 192.5t189.5 139t212.5 53.5q78 0 129.5 -40.5t64.5 -129.5h4z" />
    <glyph glyph-name="A" unicode="A" horiz-adv-x="1024" 
d="M399 537h455l-51 823h-4zM-2 0l743 1462h164l121 -1462h-139l-29 426h-512l-209 -426h-139z" />
    <glyph glyph-name="B" unicode="B" horiz-adv-x="1024" 
d="M532 1352l-112 -533h207q327 0 385 266q30 143 -31.5 205t-218.5 62h-230zM397 709l-129 -598h244q338 0 403 299q62 299 -274 299h-244zM115 0l311 1462h403q203 0 277.5 -97t38.5 -269q-24 -113 -102.5 -202t-190.5 -116l-2 -4q128 -26 177.5 -122t19.5 -242
q-41 -192 -182.5 -301t-348.5 -109h-401z" />
    <glyph glyph-name="C" unicode="C" horiz-adv-x="1062" 
d="M977 496h131q-66 -251 -207.5 -386t-337.5 -135q-468 0 -305 756q160 756 627 756q73 0 130.5 -16.5t96.5 -47t65 -72t36.5 -92t9.5 -106.5t-13 -117h-131q32 154 -24 247t-193 93q-164 0 -282.5 -151.5t-190.5 -493.5q-37 -174 -41 -299.5t24.5 -201t82 -110
t133.5 -34.5q136 0 236.5 108.5t152.5 301.5z" />
    <glyph glyph-name="D" unicode="D" horiz-adv-x="1099" 
d="M115 0l311 1462h352q127 0 212 -31t133 -88t64 -149.5t6.5 -202.5t-40.5 -260q-32 -150 -69.5 -260t-93 -202.5t-127.5 -149.5t-170.5 -88t-225.5 -31h-352zM532 1352l-264 -1241h213q111 0 192 29.5t147.5 101t115 190.5t86.5 297q30 144 37 249t-8 177.5t-56 115.5
t-101 62t-149 19h-213z" />
    <glyph glyph-name="E" unicode="E" horiz-adv-x="909" 
d="M115 0l311 1462h725l-25 -110h-594l-112 -533h555l-23 -110h-555l-129 -598h613l-23 -111h-743z" />
    <glyph glyph-name="F" unicode="F" 
d="M115 0l311 1462h725l-25 -110h-594l-112 -533h555l-23 -110h-555l-151 -709h-131z" />
    <glyph glyph-name="G" unicode="G" horiz-adv-x="1099" 
d="M1010 635h-346l22 110h469l-158 -745h-102l51 242h-4q-60 -121 -164.5 -194t-214.5 -73q-468 0 -305 756q160 756 627 756q200 0 278 -117t49 -317h-131q31 139 -24.5 231t-194.5 92q-164 0 -282.5 -151.5t-190.5 -493.5q-37 -174 -41 -299.5t24.5 -201t82 -110
t133.5 -34.5q148 0 254.5 131.5t161.5 386.5z" />
    <glyph glyph-name="H" unicode="H" horiz-adv-x="1062" 
d="M817 0l156 729h-572l-155 -729h-131l311 1462h131l-133 -622h571l133 622h132l-312 -1462h-131z" />
    <glyph glyph-name="I" unicode="I" horiz-adv-x="376" 
d="M123 0l311 1462h131l-311 -1462h-131z" />
    <glyph glyph-name="J" unicode="J" horiz-adv-x="833" 
d="M117 369l12 59h131l-6 -35q-35 -149 -5 -228t134 -79q114 0 182 64t105 231l229 1081h131l-233 -1095q-40 -190 -150 -291t-282 -101q-163 0 -227 93.5t-21 300.5z" />
    <glyph glyph-name="K" unicode="K" horiz-adv-x="983" 
d="M115 0l311 1462h131l-164 -766h4l723 766h140l-578 -610l315 -852h-139l-280 741l-224 -229l-108 -512h-131z" />
    <glyph glyph-name="L" unicode="L" 
d="M115 0l311 1462h131l-289 -1351h606l-22 -111h-737z" />
    <glyph glyph-name="M" unicode="M" horiz-adv-x="1404" 
d="M127 0l311 1462h228l75 -1298h4l629 1298h215l-311 -1462h-131l285 1339h-5l-663 -1339h-123l-94 1339h-4l-285 -1339h-131z" />
    <glyph glyph-name="N" unicode="N" horiz-adv-x="1099" 
d="M115 0l311 1462h176l289 -1274h4l270 1274h131l-311 -1462h-176l-289 1274h-4l-270 -1274h-131z" />
    <glyph glyph-name="O" unicode="O" horiz-adv-x="1138" 
d="M258 731q160 756 627 756t307 -756q-163 -756 -629 -756q-468 0 -305 756zM389 731q-37 -174 -41 -299.5t24.5 -201t82 -110t133.5 -34.5q164 0 282.5 151.5t190.5 493.5q37 174 41 299.5t-24.5 201t-82 110t-133.5 34.5q-164 0 -282.5 -151.5t-190.5 -493.5z" />
    <glyph glyph-name="P" unicode="P" horiz-adv-x="983" 
d="M532 1352l-129 -607h224q142 0 242 72.5t135 231.5q34 160 -29 231.5t-219 71.5h-224zM115 0l311 1462h395q205 0 280.5 -109.5t33.5 -303.5q-19 -88 -58 -160t-102 -130.5t-158.5 -91t-216.5 -32.5h-219l-135 -635h-131z" />
    <glyph glyph-name="Q" unicode="Q" horiz-adv-x="1138" 
d="M965 -78l-117 144q-128 -91 -285 -91q-468 0 -305 756q160 756 627 756t307 -756q-87 -405 -258 -588l119 -143zM786 152l-133 159l88 78l125 -153q123 160 195 495q37 174 41 299.5t-24.5 201t-82 110t-133.5 34.5q-164 0 -282.5 -151.5t-190.5 -493.5
q-37 -174 -41 -299.5t24.5 -201t82 -110t133.5 -34.5q110 0 198 66z" />
    <glyph glyph-name="R" unicode="R" horiz-adv-x="1024" 
d="M115 0l311 1462h436q181 0 259 -97t42 -269q-32 -145 -116.5 -245t-227.5 -126v-4q131 -12 169.5 -92.5t6.5 -253.5l-30 -160q-13 -56 -11.5 -116t27.5 -99h-154q-22 57 4 205l23 123q27 127 17 202.5t-63.5 106.5t-172.5 31h-248l-141 -668h-131zM532 1352l-120 -574
h225q158 0 258.5 72t130.5 215q29 142 -27 214.5t-227 72.5h-240z" />
    <glyph glyph-name="S" unicode="S" horiz-adv-x="983" 
d="M1118 1087h-131q30 138 -20 213.5t-181 75.5q-129 0 -218 -74.5t-113 -187.5q-15 -70 -2 -122.5t47 -84t82 -57.5t102.5 -42.5t109 -40t101.5 -48.5t79.5 -69t44 -101.5t-6.5 -145.5q-43 -207 -186.5 -317.5t-348.5 -110.5q-207 0 -292.5 110.5t-39.5 324.5l9 43h131
l-13 -56q-30 -143 27.5 -227t198.5 -84q144 0 245 74.5t134 222.5q13 63 3.5 111.5t-37 79t-67.5 55.5t-88 41t-98 35.5t-97 38t-86 49.5t-64.5 70.5t-32.5 99.5t9 137q37 174 167.5 280.5t318.5 106.5q398 0 313 -400z" />
    <glyph glyph-name="T" unicode="T" horiz-adv-x="909" 
d="M389 0l287 1352h-377l25 110h884l-24 -110h-377l-287 -1352h-131z" />
    <glyph glyph-name="U" unicode="U" horiz-adv-x="1024" 
d="M182 410l224 1052h131l-224 -1050q-70 -326 217 -326t357 326l223 1050h131l-223 -1052q-48 -225 -177 -330t-335 -105t-289 105t-35 330z" />
    <glyph glyph-name="V" unicode="V" horiz-adv-x="946" 
d="M391 0l-74 1462h140l43 -1323h4l608 1323h139l-696 -1462h-164z" />
    <glyph glyph-name="W" unicode="W" horiz-adv-x="1478" 
d="M332 0l2 1462h131l-19 -1286h5l524 1286h151l-24 -1286h4l530 1286h131l-620 -1462h-164l31 1286h-4l-514 -1286h-164z" />
    <glyph glyph-name="X" unicode="X" horiz-adv-x="946" 
d="M809 0l-207 629l-473 -629h-131l559 745l-221 717h139l184 -594l443 594h131l-531 -717l246 -745h-139z" />
    <glyph glyph-name="Y" unicode="Y" horiz-adv-x="909" 
d="M389 0l125 586l-209 876h139l166 -729l477 729h140l-582 -876l-125 -586h-131z" />
    <glyph glyph-name="Z" unicode="Z" horiz-adv-x="946" 
d="M45 0l27 123l972 1229h-671l24 110h805l-26 -123l-963 -1228h711l-23 -111h-856z" />
    <glyph glyph-name="bracketleft" unicode="[" horiz-adv-x="493" 
d="M90 -377l391 1839h324l-23 -102h-200l-346 -1634h200l-22 -103h-324z" />
    <glyph glyph-name="backslash" unicode="\" horiz-adv-x="569" 
d="M295 1487h111l178 -1512h-111z" />
    <glyph glyph-name="bracketright" unicode="]" horiz-adv-x="493" 
d="M-80 -377l23 103h200l346 1634h-200l22 102h324l-391 -1839h-324z" />
    <glyph glyph-name="asciicircum" unicode="^" horiz-adv-x="1228" 
d="M1135 498l-244 805l-584 -805h-110l669 927h103l276 -927h-110z" />
    <glyph glyph-name="underscore" unicode="_" horiz-adv-x="1024" 
d="M-55 -256l22 102h1024l-22 -102h-1024z" />
    <glyph glyph-name="grave" unicode="`" horiz-adv-x="380" 
d="M301 1511h145l93 -288h-99z" />
    <glyph glyph-name="a" unicode="a" 
d="M381 764h-123q36 170 138.5 259t271.5 89q307 0 245 -289l-135 -643q-21 -90 43 -90h35l-18 -90q-37 -12 -60 -12q-80 0 -113.5 28t-15.5 107l8 37h-4q-103 -185 -321 -185q-139 0 -190 81t-21 227q24 112 95 191t190 110l243 65q71 19 96.5 49t45.5 123q42 189 -148 189
q-208 0 -262 -246zM698 385l50 229h-5q-23 -43 -147 -71l-107 -27q-101 -25 -157.5 -77.5t-77.5 -147.5q-20 -96 14 -154.5t113 -58.5q114 0 200.5 81.5t116.5 225.5z" />
    <glyph glyph-name="b" unicode="b" horiz-adv-x="909" 
d="M106 0l312 1462h123l-115 -538h4q39 87 116 137.5t177 50.5q178 0 233.5 -143t-4.5 -424q-62 -286 -177.5 -428t-293.5 -142q-97 0 -156.5 55.5t-64.5 149.5h-4l-39 -180h-111zM346 545q-25 -117 -30.5 -203t5 -136t36 -79.5t55.5 -39t71 -9.5t74.5 9.5t72.5 39t71 79.5
t63.5 136t56.5 203q24 116 29 202t-5.5 135.5t-36.5 79t-55.5 39t-70.5 9.5t-75 -9.5t-72.5 -39t-70 -79t-63 -135.5t-55.5 -202z" />
    <glyph glyph-name="c" unicode="c" horiz-adv-x="833" 
d="M725 360h123q-52 -176 -165.5 -280.5t-262.5 -104.5q-118 0 -184.5 56.5t-85 183.5t27.5 330q59 280 185.5 423.5t308.5 143.5q153 0 220.5 -90t41.5 -258h-123q17 127 -22 186.5t-138 59.5q-54 0 -99 -19.5t-91 -68.5t-85 -144.5t-69 -234.5q-25 -119 -29.5 -205.5
t5.5 -135.5t36 -78t54 -37.5t67 -8.5q95 0 168 71t117 211z" />
    <glyph glyph-name="d" unicode="d" horiz-adv-x="909" 
d="M692 0l39 180h-4q-44 -93 -129 -149t-182 -56q-178 0 -233.5 143.5t7.5 426.5q59 284 174 425.5t293 141.5q100 0 156.5 -50.5t58.5 -137.5h5l114 538h123l-311 -1462h-111zM322 545q-25 -117 -30 -203t5 -136t36 -79.5t55.5 -39t70.5 -9.5t75 9.5t73 39t70.5 79.5
t63 136t56.5 203q24 117 29 202.5t-5.5 135t-36.5 79t-56 39t-71 9.5t-74.5 -9.5t-72 -39t-70 -79t-63 -135.5t-55.5 -202z" />
    <glyph glyph-name="e" unicode="e" 
d="M741 360h123q-52 -176 -166.5 -280.5t-265.5 -104.5q-118 0 -184.5 56.5t-85 183.5t27.5 330q59 280 185.5 423.5t308.5 143.5q181 0 239 -128t1 -400l-11 -45h-594l-10 -52q-23 -117 -23.5 -196t24.5 -126t60 -67t83 -20q200 0 288 282zM342 641h463q39 198 1 283.5
t-155 85.5t-190.5 -85.5t-118.5 -283.5z" />
    <glyph glyph-name="f" unicode="f" horiz-adv-x="493" 
d="M164 0l209 985h-150l23 102h149l27 130q11 50 23.5 85.5t34.5 71t52 57t76.5 35t106.5 13.5q43 0 78 -6l-23 -103q-24 6 -57 6q-71 0 -109.5 -34.5t-58.5 -124.5l-27 -130h193l-23 -102h-192l-209 -985h-123z" />
    <glyph glyph-name="g" unicode="g" horiz-adv-x="909" 
d="M874 920l37 167h111l-215 -1009q-48 -228 -159 -341.5t-294 -113.5q-154 0 -222.5 73t-43.5 193h123q-17 -74 34 -118.5t136 -44.5q112 0 186 76t105 221l37 172h-4q-49 -96 -127.5 -145.5t-167.5 -49.5q-54 0 -97 14.5t-79.5 52.5t-55.5 98t-17 157t29 223
q59 284 174 425.5t293 141.5q90 0 147 -50.5t66 -141.5h4zM324 557q-39 -172 -30 -273t49 -141.5t116 -40.5q115 0 194.5 102.5t132.5 352.5q39 171 30 271.5t-49 141t-116 40.5q-56 0 -102 -22.5t-87.5 -74t-76 -140t-61.5 -216.5z" />
    <glyph glyph-name="h" unicode="h" horiz-adv-x="909" 
d="M119 0l311 1462h123l-113 -526h4q41 82 123.5 129t180.5 47q130 0 189 -71.5t28 -219.5l-174 -821h-123l168 786q46 224 -140 224q-108 0 -190.5 -76.5t-108.5 -202.5l-155 -731h-123z" />
    <glyph glyph-name="i" unicode="i" horiz-adv-x="376" 
d="M127 0l231 1087h123l-231 -1087h-123zM393 1253l45 209h123l-45 -209h-123z" />
    <glyph glyph-name="j" unicode="j" horiz-adv-x="376" 
d="M109 -86l249 1173h123l-258 -1214q-29 -132 -105.5 -191t-183.5 -59q-38 0 -65 6l20 103q42 -6 48 -6q69 0 108.5 39.5t63.5 148.5zM393 1253l45 209h123l-45 -209h-123z" />
    <glyph glyph-name="k" unicode="k" horiz-adv-x="833" 
d="M106 0l312 1462h123l-195 -915h4l537 540h151l-413 -403l241 -684h-151l-201 573l-203 -192l-82 -381h-123z" />
    <glyph glyph-name="l" unicode="l" horiz-adv-x="376" 
d="M127 0l311 1462h123l-311 -1462h-123z" />
    <glyph glyph-name="m" unicode="m" horiz-adv-x="1404" 
d="M127 0l231 1087h111l-33 -151h4q122 176 314 176q96 0 144.5 -52t43.5 -138h4q116 190 316 190q118 0 170 -69.5t22 -211.5l-176 -831h-123l172 813q22 97 -11 147t-116 50q-94 0 -174 -77.5t-106 -201.5l-156 -731h-123l172 813q22 97 -11 147t-116 50q-94 0 -174 -77.5
t-106 -201.5l-156 -731h-123z" />
    <glyph glyph-name="n" unicode="n" horiz-adv-x="909" 
d="M119 0l231 1087h111l-33 -151h4q64 88 146.5 132t169.5 44q130 0 189 -71.5t28 -219.5l-174 -821h-123l168 786q46 224 -140 224q-108 0 -190.5 -76.5t-108.5 -202.5l-155 -731h-123z" />
    <glyph glyph-name="o" unicode="o" 
d="M178 545q59 280 185.5 423.5t308.5 143.5t248.5 -143.5t7.5 -423.5q-61 -282 -188.5 -426t-309.5 -144t-247.5 144t-4.5 426zM309 545q-28 -127 -29 -219.5t21.5 -145.5t60 -77.5t91.5 -24.5q53 0 101 24.5t93.5 77.5t83.5 145.5t66 219.5q38 171 24.5 274.5t-56 147
t-114.5 43.5q-112 0 -201.5 -110t-140.5 -355z" />
    <glyph glyph-name="p" unicode="p" horiz-adv-x="909" 
d="M31 -360l307 1447h111l-33 -155h4q47 80 126.5 130t178.5 50q179 0 233 -143t-8 -426q-61 -284 -176 -426t-293 -142q-100 0 -155.5 51t-57.5 138h-4l-110 -524h-123zM819 543q24 115 29 200t-5 135.5t-35 80.5t-54 40.5t-68 10.5q-105 0 -192 -97q-51 -56 -84.5 -140.5
t-65.5 -229.5q-24 -117 -29 -202t5 -135t36 -79.5t56 -39t71 -9.5t74.5 9.5t72.5 39t70.5 79t63 135.5t55.5 202z" />
    <glyph glyph-name="q" unicode="q" horiz-adv-x="909" 
d="M604 -360l111 524h-4q-39 -87 -117 -138t-178 -51q-178 0 -234 143.5t6 424.5q61 287 174.5 428t292.5 141q99 0 158.5 -50t73.5 -130h4l33 155h110l-307 -1447h-123zM319 543q-24 -116 -29 -202t6 -135.5t37 -79t55.5 -39t70.5 -9.5t75 9.5t72.5 39t70 79t63 135.5
t55.5 202q31 144 34 227t-24 143q-48 97 -152 97q-39 0 -72.5 -10.5t-72 -40.5t-70.5 -80.5t-63.5 -135.5t-55.5 -200z" />
    <glyph glyph-name="r" unicode="r" horiz-adv-x="569" 
d="M119 0l231 1087h123l-37 -169h4q56 91 138.5 142.5t177.5 51.5q22 0 43 -6l-27 -123q-30 6 -57 6q-110 0 -204 -80t-124 -229l-145 -680h-123z" />
    <glyph glyph-name="s" unicode="s" horiz-adv-x="796" 
d="M563 473l-157 68q-192 80 -154 258q34 159 138 236t251 77q301 0 236 -303l-7 -31h-122l6 31q44 201 -136 201q-198 0 -237 -185q-13 -63 8 -106t100 -76l164 -68q186 -76 144 -276q-31 -146 -135.5 -235t-270.5 -89q-171 0 -235 78.5t-25 259.5l6 35h123l-6 -29
q-50 -241 158 -241q99 0 168 52t88 142q15 74 -8.5 122t-96.5 79z" />
    <glyph glyph-name="t" unicode="t" horiz-adv-x="493" 
d="M201 178l172 807h-150l23 102h149l64 302h123l-64 -302h193l-23 -102h-192l-166 -780q-13 -63 9 -89t83 -26q36 0 80 12l-23 -102q-24 -12 -88 -12q-127 0 -170 41.5t-20 148.5z" />
    <glyph glyph-name="u" unicode="u" horiz-adv-x="909" 
d="M176 266l174 821h123l-164 -765q-27 -130 6 -187t131 -57q105 0 188 76.5t109 201.5l156 731h123l-231 -1087h-111l33 152h-4q-64 -88 -147.5 -132.5t-170.5 -44.5q-130 0 -189 71.5t-26 219.5z" />
    <glyph glyph-name="v" unicode="v" horiz-adv-x="757" 
d="M317 0l-71 1087h131l39 -948h4l424 948h131l-518 -1087h-140z" />
    <glyph glyph-name="w" unicode="w" horiz-adv-x="1212" 
d="M262 0l-10 1087h131l-21 -964h5l401 964h152l-21 -964h4l389 964h131l-473 -1087h-145l8 965h-4l-401 -965h-146z" />
    <glyph glyph-name="x" unicode="x" horiz-adv-x="757" 
d="M606 0l-129 467l-325 -467h-140l412 561l-168 526h139l123 -430l307 430h140l-394 -526l174 -561h-139z" />
    <glyph glyph-name="y" unicode="y" horiz-adv-x="757" 
d="M326 -10l-80 1097h131l43 -942h4l420 942h131l-567 -1175q-76 -159 -149 -215.5t-198 -56.5q-31 0 -81 4l22 102q50 -4 78 -4q61 0 105.5 31.5t86.5 113.5z" />
    <glyph glyph-name="z" unicode="z" horiz-adv-x="720" 
d="M37 0l22 102l703 883h-490l23 102h620l-22 -102l-703 -883h517l-23 -102h-647z" />
    <glyph glyph-name="braceleft" unicode="{" horiz-adv-x="493" 
d="M369 858l75 359q54 245 273 245h104l-22 -102h-103q-48 0 -79 -31.5t-48 -107.5l-82 -381q-28 -141 -77.5 -211t-122.5 -84l-2 -4q68 -14 87 -82t-10 -213l-81 -381q-16 -76 2 -107.5t67 -31.5h103l-23 -103h-104q-112 0 -152 64.5t-16 181.5l78 358q22 105 22.5 161
t-20 79.5t-66.5 24.5l23 102q46 1 76 24t53 79t45 161z" />
    <glyph glyph-name="bar" unicode="|" horiz-adv-x="772" 
d="M489 1673h105v-2230h-105v2230z" />
    <glyph glyph-name="braceright" unicode="}" horiz-adv-x="493" 
d="M356 227l-77 -358q-24 -117 -91.5 -181.5t-179.5 -64.5h-104l22 103h103q48 0 79 31.5t48 107.5l82 381q27 141 76.5 211t123.5 84l2 4q-69 14 -88.5 82t10.5 213l82 381q16 76 -2 107.5t-67 31.5h-103l23 102h104q112 0 152 -64t14 -181l-76 -359q-22 -105 -22.5 -161
t20 -79t66.5 -24l-23 -102q-46 -1 -76 -24.5t-53 -79.5t-45 -161z" />
    <glyph glyph-name="asciitilde" unicode="~" horiz-adv-x="1228" 
d="M1151 647l59 -74q-92 -97 -154 -136.5t-141 -39.5q-46 0 -87.5 14t-106.5 54q-69 43 -117 57.5t-102 14.5q-104 0 -205 -148l-57 74q129 176 292 176q78 0 216 -66q95 -45 130 -59t62 -14q48 0 97 35t114 112z" />
    <glyph glyph-name="uni00A0" unicode="&#xa0;" horiz-adv-x="491" 
 />
    <glyph glyph-name="exclamdown" unicode="&#xa1;" horiz-adv-x="491" 
d="M100 -352l99 463l157 618h90l-108 -618l-98 -463h-140zM369 901l43 209h139l-43 -209h-139z" />
    <glyph glyph-name="cent" unicode="&#xa2;" horiz-adv-x="983" 
d="M492 78l198 932q-38 -5 -71.5 -20.5t-67.5 -49.5t-63 -85t-57 -130t-50 -182q-23 -111 -28.5 -194.5t3 -133t30 -80.5t47 -42.5t59.5 -14.5zM434 -195l35 170q-108 6 -168.5 65.5t-76.5 184.5t28 320q56 266 174.5 409.5t284.5 157.5l37 170h61l-37 -170
q142 -9 202.5 -98.5t35.5 -249.5h-123q15 118 -17 177.5t-118 68.5l-199 -932q170 36 248 282h123q-46 -164 -150 -267t-244 -118l-34 -170h-62z" />
    <glyph glyph-name="sterling" unicode="&#xa3;" horiz-adv-x="983" 
d="M1128 1032h-122q53 316 -218 316q-120 0 -211.5 -67t-115.5 -181q-21 -103 28 -250l31 -92h309l-20 -90h-274q23 -54 4 -150q-48 -218 -328 -407l4 -5q109 50 170 50q13 0 32 -5t51 -16t48 -16q109 -33 143 -33q100 0 269 102l35 -94q-154 -119 -345 -119q-51 0 -152 39
t-153 39q-21 0 -44 -4t-40.5 -8.5t-39.5 -13.5t-34 -14t-30.5 -14t-22.5 -11l-43 100q137 86 228.5 192.5t115.5 217.5q17 83 -8 170h-200l20 90h166l-43 133q-30 105 -10 196q24 113 98.5 196.5t176 125t214.5 41.5q186 0 268.5 -114.5t42.5 -303.5z" />
    <glyph glyph-name="currency" unicode="&#xa4;" horiz-adv-x="983" 
d="M172 262l-55 76l116 96q-74 123 -40 279q35 159 159 280l-76 97l89 73l75 -96q143 96 299 96q157 0 260 -98l117 98l55 -73l-116 -97q73 -123 39 -280t-156 -279l74 -96l-88 -76l-74 100q-146 -100 -303 -100q-159 0 -260 98zM303 713q-31 -147 49.5 -247.5t216.5 -100.5
t259 100.5t155 247.5q31 147 -49.5 247.5t-216.5 100.5t-259 -100.5t-155 -247.5z" />
    <glyph glyph-name="yen" unicode="&#xa5;" horiz-adv-x="983" 
d="M426 0l76 356h-287l18 90h287l29 129l-12 50h-265l19 90h223l-180 710h139l172 -704l471 704h139l-483 -710h223l-18 -90h-264l-33 -50l-29 -129h287l-18 -90h-287l-76 -356h-131z" />
    <glyph glyph-name="brokenbar" unicode="&#xa6;" horiz-adv-x="772" 
d="M489 1505h103v-780h-103v780zM489 389h103v-778h-103v778z" />
    <glyph glyph-name="section" unicode="&#xa7;" horiz-adv-x="985" 
d="M1081 1182h-123q20 93 -26 147.5t-141 54.5q-92 0 -161 -51t-87 -127q-11 -54 14.5 -97.5t101.5 -100.5l232 -177q96 -71 125.5 -139t9.5 -164q-20 -90 -90 -166.5t-164 -117.5q47 -45 67 -110.5t5 -131.5q-29 -134 -139 -221.5t-267 -87.5q-160 0 -238 87.5t-50 223.5
l10 41h123q-25 -115 17 -182.5t157 -67.5q94 0 164.5 53t87.5 134q15 72 -12 123.5t-107 111.5l-213 158q-106 80 -142.5 148.5t-15.5 166.5q18 88 97 168t173 113q-50 40 -71 100.5t-6 128.5q27 132 142 209.5t263 77.5q154 0 223 -84t41 -221zM807 725l-252 190
q-184 -90 -213 -217q-12 -58 19.5 -110t107.5 -109l231 -176q88 37 137 93t66 139q10 49 -16.5 99.5t-79.5 90.5z" />
    <glyph glyph-name="dieresis" unicode="&#xa8;" horiz-adv-x="380" 
d="M244 1266l45 209h123l-45 -209h-123zM551 1266l45 209h123l-45 -209h-123z" />
    <glyph glyph-name="copyright" unicode="&#xa9;" horiz-adv-x="1638" 
d="M1239 575h111q-66 -145 -188 -234t-265 -89q-136 0 -227.5 63.5t-123.5 172t-3 243.5q45 211 194 344t357 133q153 0 243 -83t80 -230h-110q-2 93 -63 152t-171 59q-162 0 -273.5 -105t-146.5 -270q-21 -99 1 -184t91.5 -139t174.5 -54q107 0 193 62t126 159zM219 731
q32 154 121.5 294t212.5 241t275.5 161t306.5 60q123 0 231 -38.5t185 -107t128.5 -163.5t63.5 -208t-12 -239q-32 -154 -122 -294t-213 -241t-276 -161t-307 -60q-123 0 -230.5 38.5t-184.5 107t-128.5 163.5t-63 208t12.5 239zM322 731q-38 -177 17.5 -327.5t187.5 -238
t309 -87.5q133 0 264.5 52t237.5 139.5t183.5 208t106.5 253.5q37 177 -18.5 327.5t-187 238t-308.5 87.5t-346 -87.5t-289 -238t-157 -327.5z" />
    <glyph glyph-name="ordfeminine" unicode="&#xaa;" horiz-adv-x="567" 
d="M395 1233h-102q24 109 91.5 163t193.5 54q121 0 162.5 -45t23.5 -129l-80 -379q-12 -55 29 -55h22l-16 -78q-30 -12 -72 -12q-43 0 -64 17.5t-10 64.5l5 28h-5q-60 -110 -204 -110q-97 0 -136.5 54t-21.5 138q31 153 203 195l159 39q45 11 62 28t27 62q9 44 -20 68
t-85 24q-68 0 -108.5 -34.5t-53.5 -92.5zM608 1022l23 106h-4q-12 -24 -92 -43l-72 -16q-120 -28 -139 -113q-9 -48 13.5 -81t68.5 -33q73 0 128.5 48t73.5 132z" />
    <glyph glyph-name="guillemotleft" unicode="&#xab;" horiz-adv-x="757" 
d="M496 520l26 123l316 285l-29 -140l-227 -206l139 -207l-31 -139zM227 520l27 123l315 285l-28 -140l-228 -206l140 -207l-31 -139z" />
    <glyph glyph-name="logicalnot" unicode="&#xac;" horiz-adv-x="1228" 
d="M1077 221l94 445h-933l22 102h1036l-116 -547h-103z" />
    <glyph glyph-name="uni00AD" unicode="&#xad;" horiz-adv-x="681" 
d="M254 637h444l-22 -111h-445z" />
    <glyph glyph-name="registered" unicode="&#xae;" horiz-adv-x="1638" 
d="M1151 283l-180 399h-189l-86 -399h-102l192 899h347q291 0 239 -250q-25 -111 -100 -172.5t-178 -77.5l180 -399h-123zM868 1092l-67 -320h221q213 -4 248 162q10 46 -1 78t-38.5 49t-62 24t-78.5 7h-222zM219 731q32 154 121.5 294t212.5 241t275.5 161t306.5 60
q123 0 231 -38.5t185 -107t128.5 -163.5t63.5 -208t-12 -239q-32 -154 -122 -294t-213 -241t-276 -161t-307 -60q-123 0 -230.5 38.5t-184.5 107t-128.5 163.5t-63 208t12.5 239zM322 731q-38 -177 17.5 -327.5t187.5 -238t309 -87.5q133 0 264.5 52t237.5 139.5t183.5 208
t106.5 253.5q37 177 -18.5 327.5t-187 238t-308.5 87.5t-346 -87.5t-289 -238t-157 -327.5z" />
    <glyph glyph-name="macron" unicode="&#xaf;" horiz-adv-x="380" 
d="M227 1323l21 90h487l-20 -90h-488z" />
    <glyph glyph-name="degree" unicode="&#xb0;" horiz-adv-x="819" 
d="M453 1157q-19 -85 27.5 -144t131.5 -59t156 59t90 144t-28 144t-132 59q-84 0 -155 -59t-90 -144zM362 1157q26 122 130 207.5t225 85.5q122 0 189.5 -86t41.5 -207q-26 -122 -129.5 -207.5t-224.5 -85.5q-122 0 -190 86t-42 207z" />
    <glyph glyph-name="plusminus" unicode="&#xb1;" horiz-adv-x="1228" 
d="M709 684l75 352h103l-76 -352h467l-23 -102h-467l-73 -353h-103l74 353h-467l23 102h467zM96 0l23 102h1036l-22 -102h-1037z" />
    <glyph glyph-name="twosuperior" unicode="&#xb2;" horiz-adv-x="638" 
d="M410 1174h-111q63 276 338 276q112 0 172 -59t35 -177q-19 -84 -62 -143t-145 -125l-119 -76q-87 -56 -136 -103.5t-75 -102.5h424l-18 -91h-535q22 107 85.5 183.5t182.5 158.5l117 80q81 54 118.5 102.5t51.5 112.5q14 74 -21 112t-102 38q-73 0 -125 -48t-75 -138z
" />
    <glyph glyph-name="threesuperior" unicode="&#xb3;" horiz-adv-x="638" 
d="M453 985l20 90h37q83 0 139 39.5t68 102.5q14 62 -16.5 102.5t-96.5 40.5q-63 0 -116 -41.5t-70 -110.5h-111q24 113 104.5 177.5t211.5 64.5q120 0 175 -57.5t33 -157.5q-15 -76 -65 -129t-127 -70l-2 -4q82 -10 118.5 -67t18.5 -140q-27 -123 -114.5 -194.5
t-225.5 -71.5q-129 0 -186 63.5t-35 186.5h111q-11 -62 22.5 -111t106.5 -49q68 0 129.5 45.5t79.5 128.5q17 75 -25 118.5t-129 43.5h-55z" />
    <glyph glyph-name="acute" unicode="&#xb4;" horiz-adv-x="380" 
d="M578 1511h145l-262 -288h-99z" />
    <glyph glyph-name="mu" unicode="&#xb5;" horiz-adv-x="909" 
d="M43 -360l307 1447h123l-164 -765q-27 -130 6 -187t131 -57q105 0 188 76.5t109 201.5l156 731h123l-231 -1087h-111l33 152h-4q-64 -88 -147.5 -132.5t-170.5 -44.5q-119 0 -139 50h-4l-82 -385h-123z" />
    <glyph glyph-name="paragraph" unicode="&#xb6;" horiz-adv-x="985" 
d="M338 -283l205 967q-137 0 -213.5 109.5t-42.5 263.5q40 193 169 299t304 106h373l-371 -1745h-103l351 1655h-219l-351 -1655h-102z" />
    <glyph glyph-name="periodcentered" unicode="&#xb7;" horiz-adv-x="491" 
d="M276 672q9 46 49.5 79t86.5 33t72.5 -33t17.5 -79q-11 -46 -51 -79.5t-86 -33.5t-72.5 33.5t-16.5 79.5z" />
    <glyph glyph-name="cedilla" unicode="&#xb8;" horiz-adv-x="380" 
d="M184 0h76l-113 -115l5 -2q28 11 71 11q66 0 103.5 -40.5t25.5 -97.5q-12 -54 -56 -95.5t-96 -60t-102 -18.5q-45 0 -94.5 12.5t-79.5 28.5l37 64q60 -31 117 -31q70 0 112 25.5t50 64.5q7 36 -21.5 55t-73.5 19q-53 0 -94 -21l-18 35z" />
    <glyph glyph-name="onesuperior" unicode="&#xb9;" horiz-adv-x="638" 
d="M418 573l139 656h-221l14 74q230 3 271 147h92l-185 -877h-110z" />
    <glyph glyph-name="ordmasculine" unicode="&#xba;" horiz-adv-x="567" 
d="M252 1102q38 175 121.5 261.5t216.5 86.5q268 0 192 -348q-37 -177 -121 -263.5t-219 -86.5q-133 0 -180 86.5t-10 263.5zM362 1102q-28 -133 1.5 -196.5t97.5 -63.5q70 0 126.5 63.5t84.5 196.5q29 132 -1 195t-100 63q-68 0 -124 -63t-85 -195z" />
    <glyph glyph-name="guillemotright" unicode="&#xbb;" horiz-adv-x="757" 
d="M166 236l31 139l225 207l-137 206l28 140l197 -285l-27 -123zM434 236l31 139l225 207l-137 206l29 140l196 -285l-26 -123z" />
    <glyph glyph-name="onequarter" unicode="&#xbc;" horiz-adv-x="1476" 
d="M1161 0l47 225h-381l17 74l483 578h123l-123 -578h111l-17 -74h-110l-47 -225h-103zM934 299h291l94 438h-4zM172 -61l1251 1548h103l-1252 -1548h-102zM418 573l139 656h-221l14 74q230 3 271 147h92l-185 -877h-110z" />
    <glyph glyph-name="onehalf" unicode="&#xbd;" horiz-adv-x="1476" 
d="M111 -61l1251 1548h102l-1251 -1548h-102zM418 573l139 656h-221l14 74q230 3 271 147h92l-185 -877h-110zM1042 600h-110q63 277 340 277q112 0 172 -59t35 -177q-18 -83 -62 -142.5t-145 -125.5l-119 -76q-88 -56 -137.5 -104t-75.5 -103h424l-18 -90h-535
q23 108 86.5 184.5t181.5 157.5l119 80q80 55 118 103.5t50 111.5q16 74 -18.5 111.5t-102.5 37.5q-73 0 -125.5 -48t-77.5 -138z" />
    <glyph glyph-name="threequarters" unicode="&#xbe;" horiz-adv-x="1476" 
d="M1161 0l47 225h-381l17 74l483 578h123l-123 -578h111l-17 -74h-110l-47 -225h-103zM934 299h291l94 438h-4zM233 -61l1252 1548h102l-1251 -1548h-103zM453 985l20 90h37q83 0 139 39.5t68 102.5q14 62 -16.5 102.5t-96.5 40.5q-63 0 -116 -41.5t-70 -110.5h-111
q24 113 104.5 177.5t211.5 64.5q120 0 175 -57.5t33 -157.5q-15 -76 -65 -129t-127 -70l-2 -4q82 -10 118.5 -67t18.5 -140q-27 -123 -114.5 -194.5t-225.5 -71.5q-129 0 -186 63.5t-35 186.5h111q-11 -62 22.5 -111t106.5 -49q68 0 129.5 45.5t79.5 128.5q17 75 -25 118.5
t-129 43.5h-55z" />
    <glyph glyph-name="questiondown" unicode="&#xbf;" 
d="M561 731h123l-16 -72q-23 -112 -64.5 -177t-140.5 -150l-105 -92q-131 -115 -161 -260q-24 -110 24.5 -182t151.5 -72q130 0 214 88.5t120 255.5h131q-43 -200 -167 -323.5t-313 -123.5q-169 0 -247.5 99t-44.5 260q19 87 64 164.5t136 156.5l109 94q78 67 116 127
t58 150zM590 901l43 209h139l-43 -209h-139z" />
    <glyph glyph-name="Agrave" unicode="&#xc0;" horiz-adv-x="1024" 
d="M399 537h455l-51 823h-4zM-2 0l743 1462h164l121 -1462h-139l-29 426h-512l-209 -426h-139zM688 1821h146l92 -289h-99z" />
    <glyph glyph-name="Aacute" unicode="&#xc1;" horiz-adv-x="1024" 
d="M399 537h455l-51 823h-4zM-2 0l743 1462h164l121 -1462h-139l-29 426h-512l-209 -426h-139zM965 1821h145l-262 -289h-98z" />
    <glyph glyph-name="Acircumflex" unicode="&#xc2;" horiz-adv-x="1024" 
d="M399 537h455l-51 823h-4zM-2 0l743 1462h164l121 -1462h-139l-29 426h-512l-209 -426h-139zM702 1532h-122l258 289h123l135 -289h-123l-92 205z" />
    <glyph glyph-name="Atilde" unicode="&#xc3;" horiz-adv-x="1024" 
d="M399 537h455l-51 823h-4zM-2 0l743 1462h164l121 -1462h-139l-29 426h-512l-209 -426h-139zM1075 1780h90q-17 -71 -74.5 -136t-125.5 -65q-47 0 -95 31l-67 43q-29 16 -47 16q-27 0 -53 -29.5t-41 -68.5h-91q19 71 78 136t121 65q34 0 55 -7.5t54 -29.5l47 -31
q34 -23 57 -23q31 0 59 34t33 65z" />
    <glyph glyph-name="Adieresis" unicode="&#xc4;" horiz-adv-x="1024" 
d="M399 537h455l-51 823h-4zM-2 0l743 1462h164l121 -1462h-139l-29 426h-512l-209 -426h-139zM631 1575l45 209h123l-45 -209h-123zM938 1575l45 209h123l-45 -209h-123z" />
    <glyph glyph-name="Aring" unicode="&#xc5;" horiz-adv-x="1024" 
d="M399 537h455l-51 823h-4zM-2 0l743 1462h164l121 -1462h-139l-29 426h-512l-209 -426h-139zM680 1704q17 80 86.5 137t148.5 57q80 0 125.5 -57.5t28.5 -136.5q-17 -80 -86.5 -137.5t-148.5 -57.5q-80 0 -125.5 58t-28.5 137zM754 1704q-11 -51 16 -86t78 -35t94 35
t53 86q11 51 -17 86t-79 35t-92.5 -35t-52.5 -86z" />
    <glyph glyph-name="AE" unicode="&#xc6;" horiz-adv-x="1441" 
d="M680 0l90 426h-391l-256 -426h-139l905 1462h809l-25 -110h-575l-113 -533h537l-23 -110h-536l-129 -598h593l-22 -111h-725zM444 537h351l172 815h-21z" />
    <glyph glyph-name="Ccedilla" unicode="&#xc7;" horiz-adv-x="1062" 
d="M412 -166l129 141q-440 22 -283 756q160 756 627 756q73 0 130.5 -16.5t96.5 -47t65 -72t36.5 -92t9.5 -106.5t-13 -117h-131q32 154 -24 247t-193 93q-164 0 -282.5 -151.5t-190.5 -493.5q-37 -174 -41 -299.5t24.5 -201t82 -110t133.5 -34.5q136 0 236.5 108.5
t152.5 301.5h131q-61 -232 -188 -365.5t-302 -150.5l-92 -95l4 -2q28 11 72 11q66 0 103.5 -40.5t25.5 -97.5q-12 -54 -56 -95.5t-96 -60t-102 -18.5q-45 0 -94.5 12.5t-79.5 28.5l37 64q60 -31 117 -31q70 0 111.5 25.5t49.5 64.5q7 36 -21 55t-73 19q-54 0 -94 -21z" />
    <glyph glyph-name="Egrave" unicode="&#xc8;" horiz-adv-x="909" 
d="M115 0l311 1462h725l-25 -110h-594l-112 -533h555l-23 -110h-555l-129 -598h613l-23 -111h-743zM668 1821h145l92 -289h-98z" />
    <glyph glyph-name="Eacute" unicode="&#xc9;" horiz-adv-x="909" 
d="M115 0l311 1462h725l-25 -110h-594l-112 -533h555l-23 -110h-555l-129 -598h613l-23 -111h-743zM944 1821h146l-263 -289h-98z" />
    <glyph glyph-name="Ecircumflex" unicode="&#xca;" horiz-adv-x="909" 
d="M115 0l311 1462h725l-25 -110h-594l-112 -533h555l-23 -110h-555l-129 -598h613l-23 -111h-743zM682 1532h-123l258 289h123l135 -289h-123l-92 205z" />
    <glyph glyph-name="Edieresis" unicode="&#xcb;" horiz-adv-x="909" 
d="M115 0l311 1462h725l-25 -110h-594l-112 -533h555l-23 -110h-555l-129 -598h613l-23 -111h-743zM610 1575l45 209h123l-45 -209h-123zM918 1575l45 209h122l-45 -209h-122z" />
    <glyph glyph-name="Igrave" unicode="&#xcc;" horiz-adv-x="376" 
d="M123 0l311 1462h131l-311 -1462h-131zM365 1821h145l92 -289h-98z" />
    <glyph glyph-name="Iacute" unicode="&#xcd;" horiz-adv-x="376" 
d="M123 0l311 1462h131l-311 -1462h-131zM641 1821h145l-262 -289h-98z" />
    <glyph glyph-name="Icircumflex" unicode="&#xce;" horiz-adv-x="376" 
d="M123 0l311 1462h131l-311 -1462h-131zM379 1532h-123l258 289h123l135 -289h-123l-92 205z" />
    <glyph glyph-name="Idieresis" unicode="&#xcf;" horiz-adv-x="376" 
d="M123 0l311 1462h131l-311 -1462h-131zM307 1575l45 209h123l-45 -209h-123zM614 1575l45 209h123l-45 -209h-123z" />
    <glyph glyph-name="Eth" unicode="&#xd0;" horiz-adv-x="1099" 
d="M115 0l151 709h-114l22 110h115l137 643h352q127 0 212 -31t133 -88t64 -149.5t6.5 -202.5t-40.5 -260q-32 -150 -69.5 -260t-93 -202.5t-127.5 -149.5t-170.5 -88t-225.5 -31h-352zM420 819h328l-23 -110h-328l-129 -598h213q111 0 192 29.5t147.5 101t115 190.5
t86.5 297q30 144 37 249t-8 177.5t-56 115.5t-101 62t-149 19h-213z" />
    <glyph glyph-name="Ntilde" unicode="&#xd1;" horiz-adv-x="1099" 
d="M115 0l311 1462h176l289 -1274h4l270 1274h131l-311 -1462h-176l-289 1274h-4l-270 -1274h-131zM1114 1780h90q-17 -71 -74.5 -136t-125.5 -65q-47 0 -95 31l-67 43q-29 16 -47 16q-27 0 -53.5 -29.5t-41.5 -68.5h-90q19 71 78 136t121 65q34 0 55 -7.5t54 -29.5l47 -31
q34 -23 57 -23q31 0 59 34t33 65z" />
    <glyph glyph-name="Ograve" unicode="&#xd2;" horiz-adv-x="1138" 
d="M258 731q160 756 627 756t307 -756q-163 -756 -629 -756q-468 0 -305 756zM389 731q-37 -174 -41 -299.5t24.5 -201t82 -110t133.5 -34.5q164 0 282.5 151.5t190.5 493.5q37 174 41 299.5t-24.5 201t-82 110t-133.5 34.5q-164 0 -282.5 -151.5t-190.5 -493.5zM745 1821
h146l92 -289h-98z" />
    <glyph glyph-name="Oacute" unicode="&#xd3;" horiz-adv-x="1138" 
d="M258 731q160 756 627 756t307 -756q-163 -756 -629 -756q-468 0 -305 756zM389 731q-37 -174 -41 -299.5t24.5 -201t82 -110t133.5 -34.5q164 0 282.5 151.5t190.5 493.5q37 174 41 299.5t-24.5 201t-82 110t-133.5 34.5q-164 0 -282.5 -151.5t-190.5 -493.5zM1022 1821
h145l-262 -289h-98z" />
    <glyph glyph-name="Ocircumflex" unicode="&#xd4;" horiz-adv-x="1138" 
d="M258 731q160 756 627 756t307 -756q-163 -756 -629 -756q-468 0 -305 756zM389 731q-37 -174 -41 -299.5t24.5 -201t82 -110t133.5 -34.5q164 0 282.5 151.5t190.5 493.5q37 174 41 299.5t-24.5 201t-82 110t-133.5 34.5q-164 0 -282.5 -151.5t-190.5 -493.5zM760 1532
h-123l258 289h123l135 -289h-123l-92 205z" />
    <glyph glyph-name="Otilde" unicode="&#xd5;" horiz-adv-x="1138" 
d="M258 731q160 756 627 756t307 -756q-163 -756 -629 -756q-468 0 -305 756zM389 731q-37 -174 -41 -299.5t24.5 -201t82 -110t133.5 -34.5q164 0 282.5 151.5t190.5 493.5q37 174 41 299.5t-24.5 201t-82 110t-133.5 34.5q-164 0 -282.5 -151.5t-190.5 -493.5zM1133 1780
h90q-17 -71 -75 -136t-126 -65q-46 0 -94 31l-68 43q-29 16 -47 16q-27 0 -53 -29.5t-41 -68.5h-90q19 71 77.5 136t120.5 65q34 0 55 -7.5t54 -29.5l47 -31q34 -23 57 -23q31 0 59.5 34.5t33.5 64.5z" />
    <glyph glyph-name="Odieresis" unicode="&#xd6;" horiz-adv-x="1138" 
d="M258 731q160 756 627 756t307 -756q-163 -756 -629 -756q-468 0 -305 756zM389 731q-37 -174 -41 -299.5t24.5 -201t82 -110t133.5 -34.5q164 0 282.5 151.5t190.5 493.5q37 174 41 299.5t-24.5 201t-82 110t-133.5 34.5q-164 0 -282.5 -151.5t-190.5 -493.5zM688 1575
l45 209h123l-45 -209h-123zM995 1575l45 209h123l-45 -209h-123z" />
    <glyph glyph-name="multiply" unicode="&#xd7;" horiz-adv-x="1228" 
d="M1016 57l-307 389l-471 -389l-60 72l475 389l-309 391l90 72l305 -389l473 389l58 -72l-473 -391l307 -389z" />
    <glyph glyph-name="Oslash" unicode="&#xd8;" horiz-adv-x="1138" 
d="M369 244l673 1054q-60 78 -180 78q-164 0 -282.5 -151.5t-190.5 -493.5q-70 -332 -20 -487zM1079 1219l-669 -1055q55 -78 178 -78q164 0 282.5 151.5t190.5 493.5q69 333 18 488zM254 -86l-70 33l103 159q-126 180 -29 625q160 756 627 756q145 0 227 -70l84 131l70 -28
l-103 -162q122 -178 29 -627q-163 -756 -629 -756q-140 0 -225 70z" />
    <glyph glyph-name="Ugrave" unicode="&#xd9;" horiz-adv-x="1024" 
d="M182 410l224 1052h131l-224 -1050q-70 -326 217 -326t357 326l223 1050h131l-223 -1052q-48 -225 -177 -330t-335 -105t-289 105t-35 330zM688 1821h146l92 -289h-99z" />
    <glyph glyph-name="Uacute" unicode="&#xda;" horiz-adv-x="1024" 
d="M182 410l224 1052h131l-224 -1050q-70 -326 217 -326t357 326l223 1050h131l-223 -1052q-48 -225 -177 -330t-335 -105t-289 105t-35 330zM965 1821h145l-262 -289h-98z" />
    <glyph glyph-name="Ucircumflex" unicode="&#xdb;" horiz-adv-x="1024" 
d="M182 410l224 1052h131l-224 -1050q-70 -326 217 -326t357 326l223 1050h131l-223 -1052q-48 -225 -177 -330t-335 -105t-289 105t-35 330zM702 1532h-122l258 289h123l135 -289h-123l-92 205z" />
    <glyph glyph-name="Udieresis" unicode="&#xdc;" horiz-adv-x="1024" 
d="M182 410l224 1052h131l-224 -1050q-70 -326 217 -326t357 326l223 1050h131l-223 -1052q-48 -225 -177 -330t-335 -105t-289 105t-35 330zM631 1575l45 209h123l-45 -209h-123zM938 1575l45 209h123l-45 -209h-123z" />
    <glyph glyph-name="Yacute" unicode="&#xdd;" horiz-adv-x="909" 
d="M389 0l125 586l-209 876h139l166 -729l477 729h140l-582 -876l-125 -586h-131zM907 1821h146l-262 -289h-99z" />
    <glyph glyph-name="Thorn" unicode="&#xde;" horiz-adv-x="983" 
d="M473 1065l-129 -606h223q68 0 126 16t108.5 50.5t87 94.5t53.5 142q33 159 -35.5 231t-210.5 72h-223zM115 0l311 1462h131l-61 -286h274q196 0 269.5 -111t33.5 -303q-18 -88 -57 -160t-101.5 -130.5t-158.5 -91t-217 -32.5h-220l-73 -348h-131z" />
    <glyph glyph-name="germandbls" unicode="&#xdf;" horiz-adv-x="909" 
d="M106 0l236 1104q38 183 148 279t272 96q155 0 224 -89t34 -249q-22 -104 -91 -189t-184 -108l-2 -4q81 -10 131.5 -51t66.5 -102.5t15.5 -121t-14.5 -123.5q-46 -213 -176 -333.5t-313 -120.5q-55 0 -82 12l22 102q21 -12 64 -12q123 0 220.5 91t135.5 270
q68 327 -221 327h-45l20 103h35q108 0 184 64.5t103 189.5q23 108 -15.5 174.5t-138.5 66.5q-214 0 -274 -284l-232 -1092h-123z" />
    <glyph glyph-name="agrave" unicode="&#xe0;" 
d="M381 764h-123q36 170 138.5 259t271.5 89q307 0 245 -289l-135 -643q-21 -90 43 -90h35l-18 -90q-37 -12 -60 -12q-80 0 -113.5 28t-15.5 107l8 37h-4q-103 -185 -321 -185q-139 0 -190 81t-21 227q24 112 95 191t190 110l243 65q71 19 96.5 49t45.5 123q42 189 -148 189
q-208 0 -262 -246zM698 385l50 229h-5q-23 -43 -147 -71l-107 -27q-101 -25 -157.5 -77.5t-77.5 -147.5q-20 -96 14 -154.5t113 -58.5q114 0 200.5 81.5t116.5 225.5zM547 1511h145l92 -288h-98z" />
    <glyph glyph-name="aacute" unicode="&#xe1;" 
d="M381 764h-123q36 170 138.5 259t271.5 89q307 0 245 -289l-135 -643q-21 -90 43 -90h35l-18 -90q-37 -12 -60 -12q-80 0 -113.5 28t-15.5 107l8 37h-4q-103 -185 -321 -185q-139 0 -190 81t-21 227q24 112 95 191t190 110l243 65q71 19 96.5 49t45.5 123q42 189 -148 189
q-208 0 -262 -246zM698 385l50 229h-5q-23 -43 -147 -71l-107 -27q-101 -25 -157.5 -77.5t-77.5 -147.5q-20 -96 14 -154.5t113 -58.5q114 0 200.5 81.5t116.5 225.5zM823 1511h146l-262 -288h-99z" />
    <glyph glyph-name="acircumflex" unicode="&#xe2;" 
d="M381 764h-123q36 170 138.5 259t271.5 89q307 0 245 -289l-135 -643q-21 -90 43 -90h35l-18 -90q-37 -12 -60 -12q-80 0 -113.5 28t-15.5 107l8 37h-4q-103 -185 -321 -185q-139 0 -190 81t-21 227q24 112 95 191t190 110l243 65q71 19 96.5 49t45.5 123q42 189 -148 189
q-208 0 -262 -246zM698 385l50 229h-5q-23 -43 -147 -71l-107 -27q-101 -25 -157.5 -77.5t-77.5 -147.5q-20 -96 14 -154.5t113 -58.5q114 0 200.5 81.5t116.5 225.5zM561 1223h-123l258 288h123l135 -288h-123l-92 204z" />
    <glyph glyph-name="atilde" unicode="&#xe3;" 
d="M381 764h-123q36 170 138.5 259t271.5 89q307 0 245 -289l-135 -643q-21 -90 43 -90h35l-18 -90q-37 -12 -60 -12q-80 0 -113.5 28t-15.5 107l8 37h-4q-103 -185 -321 -185q-139 0 -190 81t-21 227q24 112 95 191t190 110l243 65q71 19 96.5 49t45.5 123q42 189 -148 189
q-208 0 -262 -246zM698 385l50 229h-5q-23 -43 -147 -71l-107 -27q-101 -25 -157.5 -77.5t-77.5 -147.5q-20 -96 14 -154.5t113 -58.5q114 0 200.5 81.5t116.5 225.5zM934 1470h90q-17 -71 -75 -135.5t-126 -64.5q-47 0 -94 30l-70 43q-31 17 -45 17q-27 0 -53 -29.5
t-41 -68.5h-90q19 71 78 135.5t121 64.5q33 0 54 -7.5t54 -29.5l47 -30q31 -23 56 -23q31 0 60 34t34 64z" />
    <glyph glyph-name="adieresis" unicode="&#xe4;" 
d="M381 764h-123q36 170 138.5 259t271.5 89q307 0 245 -289l-135 -643q-21 -90 43 -90h35l-18 -90q-37 -12 -60 -12q-80 0 -113.5 28t-15.5 107l8 37h-4q-103 -185 -321 -185q-139 0 -190 81t-21 227q24 112 95 191t190 110l243 65q71 19 96.5 49t45.5 123q42 189 -148 189
q-208 0 -262 -246zM698 385l50 229h-5q-23 -43 -147 -71l-107 -27q-101 -25 -157.5 -77.5t-77.5 -147.5q-20 -96 14 -154.5t113 -58.5q114 0 200.5 81.5t116.5 225.5zM489 1266l46 209h122l-45 -209h-123zM797 1266l45 209h123l-45 -209h-123z" />
    <glyph glyph-name="aring" unicode="&#xe5;" 
d="M381 764h-123q36 170 138.5 259t271.5 89q307 0 245 -289l-135 -643q-21 -90 43 -90h35l-18 -90q-37 -12 -60 -12q-80 0 -113.5 28t-15.5 107l8 37h-4q-103 -185 -321 -185q-139 0 -190 81t-21 227q24 112 95 191t190 110l243 65q71 19 96.5 49t45.5 123q42 189 -148 189
q-208 0 -262 -246zM698 385l50 229h-5q-23 -43 -147 -71l-107 -27q-101 -25 -157.5 -77.5t-77.5 -147.5q-20 -96 14 -154.5t113 -58.5q114 0 200.5 81.5t116.5 225.5zM539 1395q17 80 86.5 137t148.5 57q80 0 125.5 -57.5t28.5 -136.5q-17 -80 -87 -137.5t-149 -57.5
q-80 0 -125 58t-28 137zM612 1395q-11 -51 16.5 -86t78.5 -35t94 35t53 86q11 51 -17 86t-79 35t-93.5 -35t-52.5 -86z" />
    <glyph glyph-name="ae" unicode="&#xe6;" horiz-adv-x="1327" 
d="M381 764h-123q36 169 135.5 258.5t259.5 89.5q99 0 159.5 -44t61.5 -132h5q44 84 124 130t166 46q179 0 227.5 -140.5t-16.5 -432.5h-561l-12 -60q-30 -138 -20 -227t47.5 -131.5t99.5 -42.5q90 0 168 80t106 202h123q-49 -183 -159 -284t-257 -101q-104 0 -162 60.5
t-69 165.5h-4q-112 -226 -348 -226q-139 0 -190 81t-21 227q29 136 104.5 204t231.5 107l155 39q65 18 93 49t45 111q25 117 -3.5 167t-117.5 50q-194 0 -248 -246zM600 541l-133 -35q-98 -26 -146 -75.5t-67 -139.5q-20 -96 14 -154.5t113 -58.5q38 0 78 16t79.5 47.5
t71.5 87.5t47 129l50 228h-5q-24 -27 -102 -45zM842 641h430q75 369 -137 369q-210 0 -293 -369z" />
    <glyph glyph-name="ccedilla" unicode="&#xe7;" horiz-adv-x="833" 
d="M279 -166l129 141q-112 3 -176 61.5t-81.5 184t27.5 324.5q59 280 185.5 423.5t308.5 143.5q153 0 220.5 -90t41.5 -258h-123q17 127 -22 186.5t-138 59.5q-54 0 -99 -19.5t-91 -68.5t-85 -144.5t-69 -234.5q-25 -119 -29.5 -205.5t5.5 -135.5t36 -78t54 -37.5t67 -8.5
q95 0 168 71t117 211h123q-44 -155 -140 -256t-221 -124l-94 -95l4 -2q27 11 72 11q66 0 103.5 -40.5t25.5 -97.5q-12 -54 -56 -95.5t-96 -60t-102 -18.5q-45 0 -94.5 12.5t-79.5 28.5l37 64q60 -31 117 -31q70 0 111.5 25.5t49.5 64.5q7 36 -21 55t-73 19q-53 0 -94 -21z
" />
    <glyph glyph-name="egrave" unicode="&#xe8;" 
d="M741 360h123q-52 -176 -166.5 -280.5t-265.5 -104.5q-118 0 -184.5 56.5t-85 183.5t27.5 330q59 280 185.5 423.5t308.5 143.5q181 0 239 -128t1 -400l-11 -45h-594l-10 -52q-23 -117 -23.5 -196t24.5 -126t60 -67t83 -20q200 0 288 282zM342 641h463q39 198 1 283.5
t-155 85.5t-190.5 -85.5t-118.5 -283.5zM557 1511h145l93 -288h-99z" />
    <glyph glyph-name="eacute" unicode="&#xe9;" 
d="M741 360h123q-52 -176 -166.5 -280.5t-265.5 -104.5q-118 0 -184.5 56.5t-85 183.5t27.5 330q59 280 185.5 423.5t308.5 143.5q181 0 239 -128t1 -400l-11 -45h-594l-10 -52q-23 -117 -23.5 -196t24.5 -126t60 -67t83 -20q200 0 288 282zM342 641h463q39 198 1 283.5
t-155 85.5t-190.5 -85.5t-118.5 -283.5zM834 1511h145l-262 -288h-99z" />
    <glyph glyph-name="ecircumflex" unicode="&#xea;" 
d="M741 360h123q-52 -176 -166.5 -280.5t-265.5 -104.5q-118 0 -184.5 56.5t-85 183.5t27.5 330q59 280 185.5 423.5t308.5 143.5q181 0 239 -128t1 -400l-11 -45h-594l-10 -52q-23 -117 -23.5 -196t24.5 -126t60 -67t83 -20q200 0 288 282zM342 641h463q39 198 1 283.5
t-155 85.5t-190.5 -85.5t-118.5 -283.5zM571 1223h-122l258 288h122l136 -288h-123l-92 204z" />
    <glyph glyph-name="edieresis" unicode="&#xeb;" 
d="M741 360h123q-52 -176 -166.5 -280.5t-265.5 -104.5q-118 0 -184.5 56.5t-85 183.5t27.5 330q59 280 185.5 423.5t308.5 143.5q181 0 239 -128t1 -400l-11 -45h-594l-10 -52q-23 -117 -23.5 -196t24.5 -126t60 -67t83 -20q200 0 288 282zM342 641h463q39 198 1 283.5
t-155 85.5t-190.5 -85.5t-118.5 -283.5zM500 1266l45 209h123l-45 -209h-123zM807 1266l45 209h123l-45 -209h-123z" />
    <glyph glyph-name="igrave" unicode="&#xec;" horiz-adv-x="376" 
d="M127 0l231 1087h123l-231 -1087h-123zM299 1511h145l93 -288h-99z" />
    <glyph glyph-name="iacute" unicode="&#xed;" horiz-adv-x="376" 
d="M127 0l231 1087h123l-231 -1087h-123zM575 1511h146l-262 -288h-99z" />
    <glyph glyph-name="icircumflex" unicode="&#xee;" horiz-adv-x="376" 
d="M127 0l231 1087h123l-231 -1087h-123zM313 1223h-123l259 288h122l136 -288h-123l-92 204z" />
    <glyph glyph-name="idieresis" unicode="&#xef;" horiz-adv-x="376" 
d="M127 0l231 1087h123l-231 -1087h-123zM242 1266l45 209h123l-45 -209h-123zM549 1266l45 209h123l-45 -209h-123z" />
    <glyph glyph-name="eth" unicode="&#xf0;" 
d="M305 532q-26 -122 -26.5 -212t22.5 -141.5t61 -76t91 -24.5q111 0 200 108t140 346q26 122 26.5 211.5t-22.5 141t-61 76t-91 24.5q-111 0 -200 -108t-140 -345zM502 1225l-64 65l170 90q-44 61 -119 140l111 65q75 -79 123 -147l166 86l61 -62l-174 -92
q58 -81 96.5 -164.5t62.5 -184.5t22.5 -221t-29.5 -255q-61 -282 -188.5 -426t-309.5 -144q-181 0 -247.5 142t-8.5 415q57 267 184 411t287 144q123 0 178 -108l4 4q-73 194 -165 326z" />
    <glyph glyph-name="ntilde" unicode="&#xf1;" horiz-adv-x="909" 
d="M119 0l231 1087h111l-33 -151h4q64 88 146.5 132t169.5 44q130 0 189 -71.5t28 -219.5l-174 -821h-123l168 786q46 224 -140 224q-108 0 -190.5 -76.5t-108.5 -202.5l-155 -731h-123zM952 1470h90q-17 -71 -74.5 -135.5t-125.5 -64.5q-48 0 -94 30l-70 43q-31 17 -45 17
q-27 0 -53 -29.5t-41 -68.5h-90q19 71 77.5 135.5t120.5 64.5q34 0 55 -7.5t54 -29.5l47 -30q31 -23 55 -23q31 0 60 34t34 64z" />
    <glyph glyph-name="ograve" unicode="&#xf2;" 
d="M178 545q59 280 185.5 423.5t308.5 143.5t248.5 -143.5t7.5 -423.5q-61 -282 -188.5 -426t-309.5 -144t-247.5 144t-4.5 426zM309 545q-28 -127 -29 -219.5t21.5 -145.5t60 -77.5t91.5 -24.5q53 0 101 24.5t93.5 77.5t83.5 145.5t66 219.5q38 171 24.5 274.5t-56 147
t-114.5 43.5q-112 0 -201.5 -110t-140.5 -355zM547 1511h145l92 -288h-98z" />
    <glyph glyph-name="oacute" unicode="&#xf3;" 
d="M178 545q59 280 185.5 423.5t308.5 143.5t248.5 -143.5t7.5 -423.5q-61 -282 -188.5 -426t-309.5 -144t-247.5 144t-4.5 426zM309 545q-28 -127 -29 -219.5t21.5 -145.5t60 -77.5t91.5 -24.5q53 0 101 24.5t93.5 77.5t83.5 145.5t66 219.5q38 171 24.5 274.5t-56 147
t-114.5 43.5q-112 0 -201.5 -110t-140.5 -355zM823 1511h146l-262 -288h-99z" />
    <glyph glyph-name="ocircumflex" unicode="&#xf4;" 
d="M178 545q59 280 185.5 423.5t308.5 143.5t248.5 -143.5t7.5 -423.5q-61 -282 -188.5 -426t-309.5 -144t-247.5 144t-4.5 426zM309 545q-28 -127 -29 -219.5t21.5 -145.5t60 -77.5t91.5 -24.5q53 0 101 24.5t93.5 77.5t83.5 145.5t66 219.5q38 171 24.5 274.5t-56 147
t-114.5 43.5q-112 0 -201.5 -110t-140.5 -355zM561 1223h-123l258 288h123l135 -288h-123l-92 204z" />
    <glyph glyph-name="otilde" unicode="&#xf5;" 
d="M178 545q59 280 185.5 423.5t308.5 143.5t248.5 -143.5t7.5 -423.5q-61 -282 -188.5 -426t-309.5 -144t-247.5 144t-4.5 426zM309 545q-28 -127 -29 -219.5t21.5 -145.5t60 -77.5t91.5 -24.5q53 0 101 24.5t93.5 77.5t83.5 145.5t66 219.5q38 171 24.5 274.5t-56 147
t-114.5 43.5q-112 0 -201.5 -110t-140.5 -355zM934 1470h90q-17 -71 -75 -135.5t-126 -64.5q-47 0 -94 30l-70 43q-31 17 -45 17q-27 0 -53 -29.5t-41 -68.5h-90q19 71 78 135.5t121 64.5q33 0 54 -7.5t54 -29.5l47 -30q31 -23 56 -23q31 0 60 34t34 64z" />
    <glyph glyph-name="odieresis" unicode="&#xf6;" 
d="M178 545q59 280 185.5 423.5t308.5 143.5t248.5 -143.5t7.5 -423.5q-61 -282 -188.5 -426t-309.5 -144t-247.5 144t-4.5 426zM309 545q-28 -127 -29 -219.5t21.5 -145.5t60 -77.5t91.5 -24.5q53 0 101 24.5t93.5 77.5t83.5 145.5t66 219.5q38 171 24.5 274.5t-56 147
t-114.5 43.5q-112 0 -201.5 -110t-140.5 -355zM489 1266l46 209h122l-45 -209h-123zM797 1266l45 209h123l-45 -209h-123z" />
    <glyph glyph-name="divide" unicode="&#xf7;" horiz-adv-x="1228" 
d="M195 467l22 102h1036l-22 -102h-1036zM702 940q9 46 49.5 79.5t86.5 33.5t72.5 -33.5t17.5 -79.5q-11 -46 -51 -79.5t-86 -33.5t-72.5 33.5t-16.5 79.5zM522 96q9 46 50 79.5t87 33.5t72 -33.5t17 -79.5q-9 -45 -50.5 -78.5t-87.5 -33.5t-71.5 33t-16.5 79z" />
    <glyph glyph-name="oslash" unicode="&#xf8;" 
d="M293 207l477 754q-43 49 -119 49q-112 0 -201.5 -110t-140.5 -355q-49 -217 -16 -338zM809 881l-475 -752q43 -51 119 -51q53 0 101 24.5t93.5 77.5t83.5 145.5t66 219.5q46 229 12 336zM180 -113l-69 31l100 156q-106 140 -33 471q59 280 185.5 423.5t308.5 143.5
q104 0 166 -45l84 133l69 -33l-98 -153q103 -136 35 -469q-61 -282 -188.5 -426t-309.5 -144q-101 0 -164 48z" />
    <glyph glyph-name="ugrave" unicode="&#xf9;" horiz-adv-x="909" 
d="M176 266l174 821h123l-164 -765q-27 -130 6 -187t131 -57q105 0 188 76.5t109 201.5l156 731h123l-231 -1087h-111l33 152h-4q-64 -88 -147.5 -132.5t-170.5 -44.5q-130 0 -189 71.5t-26 219.5zM565 1511h146l92 -288h-98z" />
    <glyph glyph-name="uacute" unicode="&#xfa;" horiz-adv-x="909" 
d="M176 266l174 821h123l-164 -765q-27 -130 6 -187t131 -57q105 0 188 76.5t109 201.5l156 731h123l-231 -1087h-111l33 152h-4q-64 -88 -147.5 -132.5t-170.5 -44.5q-130 0 -189 71.5t-26 219.5zM842 1511h145l-262 -288h-98z" />
    <glyph glyph-name="ucircumflex" unicode="&#xfb;" horiz-adv-x="909" 
d="M176 266l174 821h123l-164 -765q-27 -130 6 -187t131 -57q105 0 188 76.5t109 201.5l156 731h123l-231 -1087h-111l33 152h-4q-64 -88 -147.5 -132.5t-170.5 -44.5q-130 0 -189 71.5t-26 219.5zM580 1223h-123l258 288h123l135 -288h-123l-92 204z" />
    <glyph glyph-name="udieresis" unicode="&#xfc;" horiz-adv-x="909" 
d="M176 266l174 821h123l-164 -765q-27 -130 6 -187t131 -57q105 0 188 76.5t109 201.5l156 731h123l-231 -1087h-111l33 152h-4q-64 -88 -147.5 -132.5t-170.5 -44.5q-130 0 -189 71.5t-26 219.5zM508 1266l45 209h123l-45 -209h-123zM815 1266l45 209h123l-45 -209h-123z
" />
    <glyph glyph-name="yacute" unicode="&#xfd;" horiz-adv-x="757" 
d="M326 -10l-80 1097h131l43 -942h4l420 942h131l-567 -1175q-76 -159 -149 -215.5t-198 -56.5q-31 0 -81 4l22 102q50 -4 78 -4q61 0 105.5 31.5t86.5 113.5zM766 1511h145l-262 -288h-98z" />
    <glyph glyph-name="thorn" unicode="&#xfe;" horiz-adv-x="909" 
d="M31 -360l387 1822h123l-119 -555h4q44 93 126 149t171 56q178 0 233.5 -143t-6.5 -426q-61 -284 -176 -426t-293 -142q-100 0 -155.5 51t-57.5 138h-4l-110 -524h-123zM344 543q-24 -117 -29 -202t5 -135t36 -79.5t56 -39t71 -9.5t74.5 9.5t72.5 39t70.5 79t63 135.5
t55.5 202q25 117 30 203t-5 136t-36 79.5t-55.5 39t-70.5 9.5t-75 -9.5t-73 -39t-70.5 -79.5t-63 -136t-56.5 -203z" />
    <glyph glyph-name="ydieresis" unicode="&#xff;" horiz-adv-x="757" 
d="M326 -10l-80 1097h131l43 -942h4l420 942h131l-567 -1175q-76 -159 -149 -215.5t-198 -56.5q-31 0 -81 4l22 102q50 -4 78 -4q61 0 105.5 31.5t86.5 113.5zM432 1266l45 209h123l-45 -209h-123zM739 1266l45 209h123l-45 -209h-123z" />
    <glyph glyph-name="dotlessi" unicode="&#x131;" horiz-adv-x="376" 
d="M127 0l231 1087h123l-231 -1087h-123z" />
    <glyph glyph-name="Lslash" unicode="&#x141;" 
d="M115 0l125 586l-164 -99l24 123l166 99l160 753h131l-141 -663l436 260l-27 -123l-436 -260l-121 -565h606l-22 -111h-737z" />
    <glyph glyph-name="lslash" unicode="&#x142;" horiz-adv-x="376" 
d="M127 0l137 647l-155 -135l26 123l156 135l147 692h123l-119 -561l156 135l-27 -123l-155 -135l-166 -778h-123z" />
    <glyph glyph-name="OE" unicode="&#x152;" horiz-adv-x="1593" 
d="M942 485l111 521q18 86 20.5 148.5t-9.5 105.5t-42 68.5t-72 36.5t-104 11q-164 0 -282.5 -151.5t-190.5 -493.5q-52 -234 -39.5 -377.5t71 -205.5t166.5 -62q152 0 239 92t132 307zM1124 1343l27 119h694l-24 -110h-564l-112 -533h524l-22 -110h-525l-129 -598h582
l-23 -111h-712l28 131h-4q-48 -76 -132 -116t-185 -40q-468 0 -305 756q160 756 626 756q112 0 170.5 -36.5t81.5 -107.5h4z" />
    <glyph glyph-name="oe" unicode="&#x153;" horiz-adv-x="1441" 
d="M1307 360h123q-49 -183 -159 -284t-257 -101q-98 0 -158 50.5t-76 175.5h-4q-54 -108 -140.5 -167t-189.5 -59q-182 0 -247 144t-4 426q60 281 186 424t307 143q110 0 175 -56.5t71 -170.5h4q52 109 135.5 168t194.5 59q179 0 227.5 -140.5t-16.5 -432.5h-561l-13 -60
q-30 -138 -20 -227t47.5 -131.5t99.5 -42.5q90 0 168.5 80t106.5 202zM326 545q-28 -126 -29.5 -219t20.5 -146t57.5 -77.5t86.5 -24.5q106 0 194 111t142 356q26 126 27 218t-21 145t-58 77.5t-86 24.5q-106 0 -194 -110.5t-139 -354.5zM940 641h430q75 369 -137 369
q-210 0 -293 -369z" />
    <glyph glyph-name="Scaron" unicode="&#x160;" horiz-adv-x="983" 
d="M1118 1087h-131q30 138 -20 213.5t-181 75.5q-129 0 -218 -74.5t-113 -187.5q-15 -70 -2 -122.5t47 -84t82 -57.5t102.5 -42.5t109 -40t101.5 -48.5t79.5 -69t44 -101.5t-6.5 -145.5q-43 -207 -186.5 -317.5t-348.5 -110.5q-207 0 -292.5 110.5t-39.5 324.5l9 43h131
l-13 -56q-30 -143 27.5 -227t198.5 -84q144 0 245 74.5t134 222.5q13 63 3.5 111.5t-37 79t-67.5 55.5t-88 41t-98 35.5t-97 38t-86 49.5t-64.5 70.5t-32.5 99.5t9 137q37 174 167.5 280.5t318.5 106.5q398 0 313 -400zM618 1821h123l93 -207l182 207h123l-262 -289h-123z
" />
    <glyph glyph-name="scaron" unicode="&#x161;" horiz-adv-x="796" 
d="M563 473l-157 68q-192 80 -154 258q34 159 138 236t251 77q301 0 236 -303l-7 -31h-122l6 31q44 201 -136 201q-198 0 -237 -185q-13 -63 8 -106t100 -76l164 -68q186 -76 144 -276q-31 -146 -135.5 -235t-270.5 -89q-171 0 -235 78.5t-25 259.5l6 35h123l-6 -29
q-50 -241 158 -241q99 0 168 52t88 142q15 74 -8.5 122t-96.5 79zM461 1511h123l92 -206l182 206h123l-262 -288h-123z" />
    <glyph glyph-name="Ydieresis" unicode="&#x178;" horiz-adv-x="909" 
d="M389 0l125 586l-209 876h139l166 -729l477 729h140l-582 -876l-125 -586h-131zM573 1575l45 209h123l-45 -209h-123zM881 1575l45 209h123l-45 -209h-123z" />
    <glyph glyph-name="Zcaron" unicode="&#x17d;" horiz-adv-x="946" 
d="M45 0l27 123l972 1229h-671l24 110h805l-26 -123l-963 -1228h711l-23 -111h-856zM600 1821h123l92 -207l182 207h123l-262 -289h-123z" />
    <glyph glyph-name="zcaron" unicode="&#x17e;" horiz-adv-x="720" 
d="M37 0l22 102l703 883h-490l23 102h620l-22 -102l-703 -883h517l-23 -102h-647zM422 1511h123l92 -206l182 206h123l-262 -288h-123z" />
    <glyph glyph-name="florin" unicode="&#x192;" horiz-adv-x="983" 
d="M401 813l37 90h215l109 266q30 74 70 129t78.5 86t84.5 49t81.5 23.5t76.5 5.5q24 0 94 -8l-45 -102q-32 8 -53 8q-52 0 -85.5 -8.5t-72.5 -38t-75.5 -92t-77.5 -164.5l-62 -154h230l-37 -90h-230l-315 -782q-89 -220 -178.5 -305.5t-239.5 -85.5q-71 0 -106 14l45 102
q28 -14 63 -14q72 0 114.5 21t88 91.5t106.5 219.5l299 739h-215z" />
    <glyph glyph-name="circumflex" unicode="&#x2c6;" horiz-adv-x="380" 
d="M315 1223h-122l258 288h122l136 -288h-123l-92 204z" />
    <glyph glyph-name="caron" unicode="&#x2c7;" horiz-adv-x="380" 
d="M252 1511h123l92 -206l182 206h123l-262 -288h-123z" />
    <glyph glyph-name="uni02C9" unicode="&#x2c9;" horiz-adv-x="380" 
d="M227 1323l21 90h487l-20 -90h-488z" />
    <glyph glyph-name="breve" unicode="&#x2d8;" horiz-adv-x="380" 
d="M258 1487h90q-5 -69 29 -119q30 -41 96 -41q63 0 114 41.5t77 118.5h90q-32 -115 -114 -182.5t-187 -67.5t-158.5 67.5t-36.5 182.5z" />
    <glyph glyph-name="dotaccent" unicode="&#x2d9;" horiz-adv-x="380" 
d="M397 1266l45 209h123l-45 -209h-123z" />
    <glyph glyph-name="ring" unicode="&#x2da;" horiz-adv-x="380" 
d="M293 1395q17 80 86.5 137t148.5 57q80 0 125.5 -57.5t28.5 -136.5q-17 -80 -87 -137.5t-149 -57.5q-80 0 -125 58t-28 137zM367 1395q-11 -51 16 -86t78 -35t94 35t53 86q11 51 -17 86t-79 35t-92.5 -35t-52.5 -86z" />
    <glyph glyph-name="ogonek" unicode="&#x2db;" horiz-adv-x="380" 
d="M240 12h96q-122 -73 -180 -134.5t-72 -125.5q-9 -46 14 -71t78 -25q59 0 129 39l14 -60q-87 -53 -198 -53q-94 0 -129.5 42t-22.5 106q18 83 88 159t183 123z" />
    <glyph glyph-name="tilde" unicode="&#x2dc;" horiz-adv-x="380" 
d="M688 1470h90q-17 -71 -74.5 -135.5t-125.5 -64.5q-48 0 -95 30l-69 43q-31 17 -45 17q-27 0 -53.5 -29.5t-41.5 -68.5h-90q19 71 78 135.5t121 64.5q34 0 55 -7.5t54 -29.5l47 -30q31 -23 55 -23q31 0 60 34t34 64z" />
    <glyph glyph-name="hungarumlaut" unicode="&#x2dd;" horiz-adv-x="380" 
d="M422 1511h145l-262 -288h-96zM731 1511h146l-263 -288h-96z" />
    <glyph glyph-name="uni03A9" unicode="&#x3a9;" horiz-adv-x="1273" 
d="M385 100l2 6q-55 72 -88 167t-42 221.5t22 269.5q66 307 255.5 493.5t415.5 186.5q113 0 198 -52t130.5 -142.5t58 -213.5t-19.5 -264q-44 -212 -153 -388t-236 -278l-2 -6h272l-20 -100h-414l16 74q135 95 252.5 274.5t165.5 399.5q17 82 19 164.5t-14 160t-49 137
t-91.5 95.5t-136.5 36q-184 0 -332.5 -169t-202.5 -424q-31 -148 -19.5 -281t52 -234.5t100.5 -158.5l-16 -74h-414l21 100h270z" />
    <glyph glyph-name="uni03BC" unicode="&#x3bc;" horiz-adv-x="909" 
d="M43 -360l307 1447h123l-164 -765q-27 -130 6 -187t131 -57q105 0 188 76.5t109 201.5l156 731h123l-231 -1087h-111l33 152h-4q-64 -88 -147.5 -132.5t-170.5 -44.5q-119 0 -139 50h-4l-82 -385h-123z" />
    <glyph glyph-name="pi" unicode="&#x3c0;" horiz-adv-x="1005" 
d="M1155 952h-145l-142 -663q-42 -197 -34 -289h-109q-18 56 29 276l143 676h-338q-58 -233 -159 -525t-179 -427h-110q85 154 181.5 435.5t153.5 516.5q-139 0 -206 -24l-4 78q83 49 258 49h694z" />
    <glyph glyph-name="endash" unicode="&#x2013;" horiz-adv-x="1024" 
d="M135 637h1024l-22 -111h-1024z" />
    <glyph glyph-name="emdash" unicode="&#x2014;" horiz-adv-x="2048" 
d="M135 637h2048l-22 -111h-2048z" />
    <glyph glyph-name="quoteleft" unicode="&#x2018;" horiz-adv-x="491" 
d="M377 971l43 209q24 106 71.5 178t141.5 104l-19 -82q-43 -24 -68 -69t-46 -131h59l-43 -209h-139z" />
    <glyph glyph-name="quoteright" unicode="&#x2019;" horiz-adv-x="491" 
d="M449 1253l45 209h139l-45 -209q-22 -105 -69.5 -177.5t-141.5 -104.5l16 82q45 24 70.5 69.5t44.5 130.5h-59z" />
    <glyph glyph-name="quotesinglbase" unicode="&#x201a;" horiz-adv-x="491" 
d="M182 0l45 209h140l-45 -209q-11 -51 -25.5 -90t-38 -78.5t-61 -68.5t-86.5 -46l16 82q45 24 70.5 70t44.5 131h-60z" />
    <glyph glyph-name="quotedblleft" unicode="&#x201c;" horiz-adv-x="720" 
d="M627 971l43 209q24 106 71.5 178t141.5 104l-19 -82q-43 -24 -68 -69t-46 -131h59l-43 -209h-139zM356 971l43 209q24 106 71.5 178t141.5 104l-18 -82q-43 -24 -68.5 -69.5t-46.5 -130.5h60l-43 -209h-140z" />
    <glyph glyph-name="quotedblright" unicode="&#x201d;" horiz-adv-x="720" 
d="M428 1253l45 209h139l-45 -209q-22 -105 -69.5 -177.5t-141.5 -104.5l17 82q45 24 70 69t44 131h-59zM698 1253l45 209h140l-45 -209q-22 -105 -69.5 -177.5t-141.5 -104.5l16 82q45 24 70.5 69.5t44.5 130.5h-60z" />
    <glyph glyph-name="quotedblbase" unicode="&#x201e;" horiz-adv-x="720" 
d="M162 0l45 209h139l-45 -209q-11 -51 -25.5 -90t-38 -78.5t-61 -68.5t-86.5 -46l16 82q45 24 70.5 70t44.5 131h-59zM432 0l45 209h139l-45 -209q-11 -51 -25.5 -90t-38 -78.5t-61 -68.5t-86.5 -46l17 82q45 24 70.5 70t44.5 131h-60z" />
    <glyph glyph-name="dagger" unicode="&#x2020;" horiz-adv-x="983" 
d="M643 1004l98 458h123l-98 -458h360l-20 -103h-361l-256 -1198h-122l256 1198h-361l21 103h360z" />
    <glyph glyph-name="daggerdbl" unicode="&#x2021;" horiz-adv-x="983" 
d="M741 1462h123l-90 -422h361l-23 -102h-360l-150 -711h361l-23 -102h-360l-91 -422h-122l90 422h-361l23 102h360l150 711h-361l23 102h360z" />
    <glyph glyph-name="bullet" unicode="&#x2022;" horiz-adv-x="1024" 
d="M303 731q32 151 161.5 258t280.5 107t235 -107t52 -258t-161.5 -257.5t-280.5 -106.5t-235 106.5t-52 257.5z" />
    <glyph glyph-name="ellipsis" unicode="&#x2026;" horiz-adv-x="2048" 
d="M272 0l45 209h140l-45 -209h-140zM954 0l45 209h140l-45 -209h-140zM1636 0l45 209h140l-45 -209h-140z" />
    <glyph glyph-name="perthousand" unicode="&#x2030;" horiz-adv-x="2048" 
d="M446 1073q-59 -287 89 -287q71 0 122.5 65.5t83.5 221.5q25 107 18 171t-32.5 90t-71.5 26q-147 0 -209 -287zM348 -25l942 1475h103l-942 -1475h-103zM993 352q-25 -108 -17.5 -171.5t32.5 -89t71 -25.5q71 0 123.5 65t85.5 221q60 287 -88 287q-147 0 -207 -287z
M336 1073q23 109 55.5 183.5t76 116.5t93 59.5t113.5 17.5t105.5 -17t68.5 -60t26 -116t-22 -184q-44 -212 -125 -294.5t-213 -82.5q-64 0 -105.5 17t-68 60t-25.5 116t21 184zM883 352q44 212 125 294.5t213 82.5q64 0 105.5 -17t68 -60t25.5 -116t-21 -184
q-23 -109 -56 -183.5t-76.5 -116.5t-93 -59.5t-114.5 -17.5q-51 0 -87.5 10.5t-63 36.5t-38 69t-9 108t21.5 153zM1610 352q-25 -108 -17.5 -171.5t32.5 -89t71 -25.5q71 0 123.5 65t85.5 221q60 287 -88 287q-147 0 -207 -287zM1499 352q44 212 125 294.5t213 82.5
q64 0 105.5 -17t68 -60t25.5 -116t-21 -184q-23 -109 -56 -183.5t-76.5 -116.5t-93 -59.5t-114.5 -17.5q-51 0 -87.5 10.5t-63 36.5t-38 69t-9 108t21.5 153z" />
    <glyph glyph-name="guilsinglleft" unicode="&#x2039;" horiz-adv-x="493" 
d="M229 520l27 123l315 285l-28 -140l-228 -206l140 -207l-31 -139z" />
    <glyph glyph-name="guilsinglright" unicode="&#x203a;" horiz-adv-x="493" 
d="M168 236l31 139l225 207l-137 206l28 140l197 -285l-27 -123z" />
    <glyph glyph-name="fraction" unicode="&#x2044;" horiz-adv-x="342" 
d="M-354 -61l1251 1548h102l-1251 -1548h-102z" />
    <glyph glyph-name="Euro" unicode="&#x20ac;" horiz-adv-x="983" 
d="M1266 1362l-72 -113q-49 34 -79 51t-76.5 31.5t-98.5 14.5q-72 0 -133.5 -25t-105 -64t-80.5 -97t-61 -113.5t-46 -124.5h526l-61 -111h-498q-3 -11 -8 -33t-8 -33l-12 -65h469l-64 -111h-428q-9 -64 -12.5 -114.5t-1.5 -111t17.5 -104.5t43 -82.5t77 -58.5t116.5 -20
q83 0 149.5 31.5t159.5 99.5l-33 -150q-77 -46 -145.5 -65t-155.5 -19q-78 0 -138.5 16.5t-101.5 45.5t-69 72.5t-41.5 92.5t-17.5 111t0 122.5t14 133.5h-141l61 111h100l13 65q3 12 8 33.5t8 32.5h-139l61 111h111q171 532 598 532q148 0 295 -92z" />
    <glyph glyph-name="afii61289" unicode="&#x2113;" horiz-adv-x="862" 
d="M815 262l47 -47q-163 -229 -368 -229q-77 0 -128 31t-72 84.5t-24 126t15 155.5l6 29q-92 -68 -125 -95l-27 70q17 14 81 63t95 76l121 568q23 106 56.5 189.5t70 136t79 86.5t82 47.5t79.5 13.5q103 0 139 -86.5t6 -227.5q-74 -346 -530 -749l-15 -70
q-39 -185 -1 -269.5t130 -84.5q79 0 153 53.5t130 128.5zM545 1102l-101 -471q171 163 281 315.5t143 304.5q47 222 -88 222q-64 0 -129 -90.5t-106 -280.5z" />
    <glyph glyph-name="trademark" unicode="&#x2122;" horiz-adv-x="2027" 
d="M494 618l159 754h-276l20 90h656l-21 -90h-276l-160 -754h-102zM1505 778l408 684h176l-180 -844h-103l160 754h-4l-465 -754h-61l-146 754h-4l-160 -754h-102l180 844h176z" />
    <glyph glyph-name="Omega" unicode="&#x2126;" horiz-adv-x="1273" 
d="M385 100l2 6q-55 72 -88 167t-42 221.5t22 269.5q66 307 255.5 493.5t415.5 186.5q113 0 198 -52t130.5 -142.5t58 -213.5t-19.5 -264q-44 -212 -153 -388t-236 -278l-2 -6h272l-20 -100h-414l16 74q135 95 252.5 274.5t165.5 399.5q17 82 19 164.5t-14 160t-49 137
t-91.5 95.5t-136.5 36q-184 0 -332.5 -169t-202.5 -424q-31 -148 -19.5 -281t52 -234.5t100.5 -158.5l-16 -74h-414l21 100h270z" />
    <glyph glyph-name="estimated" unicode="&#x212e;" horiz-adv-x="2084" 
d="M2015 692h-1327q-10 0 -10 -8v-401q0 -26 18 -47q98 -102 227.5 -160t274.5 -58q154 0 290 65t236 179h119q-112 -131 -283 -208t-364 -77q-167 0 -318.5 58t-261 156.5t-174.5 235t-65 286.5t65 286.5t174.5 235.5t261 157t318.5 58t318.5 -58t261 -157t174.5 -235.5
t65 -286.5v-21zM1714 743v406q0 30 -20 47q-98 98 -226.5 153.5t-269.5 55.5q-143 0 -272 -57t-228 -158q-20 -20 -20 -51v-396q0 -12 10 -12h1018q8 0 8 12z" />
    <glyph glyph-name="partialdiff" unicode="&#x2202;" horiz-adv-x="968" 
d="M481 1397l-24 88q151 108 313 108q87 0 154.5 -43.5t113.5 -136t50.5 -237t-35.5 -347.5q-53 -254 -144.5 -442t-218 -294.5t-274.5 -106.5q-81 0 -139 36.5t-84.5 99t-32.5 146.5t16 178q25 115 78 214.5t121 165.5t145 103.5t152 37.5q57 0 105.5 -19t78.5 -48.5
t48 -58t26 -55.5h2q3 13 10.5 45t9.5 41q57 274 -7 447.5t-206 173.5q-133 0 -258 -96zM444 84h2q86 0 173 78t155 204.5t113 282.5q-4 52 -28.5 100.5t-75.5 83.5t-117 35q-117 0 -227.5 -123t-147.5 -296q-35 -166 6 -265.5t147 -99.5z" />
    <glyph glyph-name="Delta" unicode="&#x2206;" horiz-adv-x="1146" 
d="M61 0l19 84l743 1374h127l156 -1372l-19 -86h-1026zM195 96h792l-96 834q-3 46 -20.5 181t-18.5 189h-8q-20 -48 -90 -175.5t-90 -168.5z" />
    <glyph glyph-name="product" unicode="&#x220f;" horiz-adv-x="1538" 
d="M1489 1313h-193v-1510h-112v1510h-527v-1510h-112v1510h-193v108h1137v-108z" />
    <glyph glyph-name="summation" unicode="&#x2211;" horiz-adv-x="1292" 
d="M1251 -197h-905v82l496 725l-473 727v84h852v-102h-697v-6l449 -686l-484 -703v-8h762v-113z" />
    <glyph glyph-name="minus" unicode="&#x2212;" horiz-adv-x="1228" 
d="M195 467l22 102h1036l-22 -102h-1036z" />
    <glyph glyph-name="uni2215" unicode="&#x2215;" horiz-adv-x="342" 
d="M-354 -61l1251 1548h102l-1251 -1548h-102z" />
    <glyph glyph-name="uni2219" unicode="&#x2219;" horiz-adv-x="491" 
d="M276 672q9 46 49.5 79t86.5 33t72.5 -33t17.5 -79q-11 -46 -51 -79.5t-86 -33.5t-72.5 33.5t-16.5 79.5z" />
    <glyph glyph-name="radical" unicode="&#x221a;" horiz-adv-x="1339" 
d="M1331 1688l-397 -1999h-105l-299 962l-133 -49l-24 76l233 88l240 -766q20 -81 31 -150h2q22 136 24 146l342 1692h86z" />
    <glyph glyph-name="infinity" unicode="&#x221e;" horiz-adv-x="1632" 
d="M1538 594v-2q0 -128 -84 -209.5t-199 -81.5q-85 0 -161 52t-183 171q-46 -53 -77 -83.5t-77.5 -67.5t-96 -54.5t-103.5 -17.5q-115 0 -195.5 83t-80.5 202q0 125 81.5 208t206.5 83q51 0 99 -18t93 -53t80 -70.5t77 -86.5q39 44 51.5 57.5t48 50t57 50.5t55.5 34.5t68 28
t72 7.5q121 0 194.5 -79t73.5 -204zM567 379h2q30 0 60.5 10.5t52 22.5t53 39.5t45 40.5t46.5 49t40 43q-38 46 -53 63.5t-52 55t-63 53.5t-65 30.5t-78 14.5q-87 0 -138.5 -63.5t-49.5 -153.5q0 -88 55.5 -146.5t144.5 -58.5zM1262 801h-2q-37 0 -73 -14t-70.5 -42
t-57 -49.5t-56 -59t-42.5 -46.5q60 -63 88.5 -92t69.5 -62t74 -45t71 -12q86 0 138 62.5t52 144.5q0 100 -54 157.5t-138 57.5z" />
    <glyph glyph-name="integral" unicode="&#x222b;" horiz-adv-x="954" 
d="M924 1704l-25 -82q-25 18 -65 18q-58 0 -93 -49q-35 -46 -50 -130t-15 -238q0 -157 12 -517t12 -522q0 -282 -84 -413q-29 -44 -73.5 -67t-96.5 -23q-32 0 -63.5 9.5t-46.5 20.5l22 86q53 -20 82 -20q56 0 86 49q64 88 64 358q0 165 -11.5 529.5t-11.5 519.5
q0 167 22 265t75 157q67 76 163 76q52 0 97 -27z" />
    <glyph glyph-name="approxequal" unicode="&#x2248;" horiz-adv-x="1204" 
d="M1067 844l51 -41q-83 -180 -233 -180q-34 0 -70.5 11t-61.5 24t-81 44q-108 64 -172 64q-59 0 -101.5 -37t-81.5 -104l-55 41q41 85 106 131.5t144 46.5q31 0 66 -10t50.5 -17t52.5 -29t38 -22q6 -3 29.5 -16.5t30 -17t25.5 -12.5t29.5 -11.5t27 -5.5t32.5 -3
q53 0 93.5 35t80.5 109zM1067 535l51 -41q-82 -179 -231 -179q-35 0 -71.5 11t-61 23t-82.5 44q-39 23 -59.5 34t-52 21.5t-60.5 10.5q-59 0 -101 -38t-82 -106l-55 41q42 86 106.5 133.5t141.5 47.5q26 0 51 -5t49 -15.5t39.5 -18t39 -21.5t30.5 -18q5 -3 19.5 -11.5
t19.5 -11t18 -10t19 -10l18 -7.5t19.5 -7t18.5 -4.5t21 -3.5t21 -1q54 0 93.5 34.5t80.5 107.5z" />
    <glyph glyph-name="notequal" unicode="&#x2260;" horiz-adv-x="1236" 
d="M938 981l-84 -184h289v-82h-322l-125 -275h447v-80h-479l-99 -217l-63 29l84 188h-277v80h312l122 275h-434v82h467l96 213z" />
    <glyph glyph-name="lessequal" unicode="&#x2264;" horiz-adv-x="1269" 
d="M1171 217l-819 430v82l817 430v-100l-729 -367v-4l731 -371v-100zM1176 51h-834v84h834v-84z" />
    <glyph glyph-name="greaterequal" unicode="&#x2265;" horiz-adv-x="1269" 
d="M352 1159l819 -430v-82l-819 -430v100l729 369v4l-729 369v100zM1176 51h-834v84h834v-84z" />
    <glyph glyph-name="lozenge" unicode="&#x25ca;" horiz-adv-x="1343" 
d="M1241 711l-371 -789h-94l-364 789l368 788h94zM1133 707l-271 579q-25 59 -35 107h-4q-15 -58 -35 -107l-270 -573l273 -582q26 -67 32 -104h6q13 53 33 102z" />
    </font>
</defs>
</svg>
